<svg width="100%" height="100%" viewBox="0 0 375 882" fill="none" xmlns="http://www.w3.org/2000/svg">
<path d="M1 24.378C54.5 5.49976 123.5 0.0111183 168 0.0114746C212.5 0.0118309 312 10.0001 376 35.8576V541.316C376 541.316 338.814 520.803 284.267 520.803C227.501 520.803 177.852 536.317 121.095 552.02C66.5 567.124 48.8244 604.505 1 599.552L1 24.378Z" fill="url(#paint0_radial_7422_183658)"/>
<path d="M293.957 419.946C293.163 420.577 286.615 429.084 286.119 429.484C285.623 429.884 281.654 425.047 280.762 425.136C280.157 425.196 278.535 423.659 276.897 421.906C274.745 419.603 270.832 419.817 269.041 422.412C261.918 432.729 247.109 452.816 243.769 452.816C240.749 452.816 235.12 448.261 232.25 445.753C231.226 444.859 229.733 444.835 228.793 445.817C219.013 456.026 177.184 503.546 173.32 503.546C169.287 503.546 34.12 531.075 25.441 532.843C25.1436 532.904 24.8586 532.932 24.5554 532.946C22.2633 533.05 11.5228 533.963 0 542L370.616 571.61C373.248 571.82 375.5 569.741 375.5 567.1V463.898C343.357 453.667 294.75 419.314 293.957 419.946Z" fill="url(#paint1_linear_7422_183658)"/>
<path d="M62.5283 531.747C74.7444 535.282 156.062 507.791 211.972 524.351C216.733 525.761 248.752 534.128 262.881 538.075C285.073 544.275 280.801 542.967 297.296 546.056C329.63 552.111 375.5 554.045 375.5 554.045C375.5 554.045 375.5 598.29 375.5 612.806C375.5 612.806 360.055 624.299 317.351 623.994C258.293 623.572 234.163 604.986 122.019 604.986C63.3956 604.986 48.2057 612.806 0.5 617.758V530.275C24.5576 526.336 56.2992 533.332 62.5283 531.747Z" fill="url(#paint2_linear_7422_183658)"/>
<path d="M62.5283 561.753C74.7444 563.904 156.062 547.182 211.972 557.255C216.733 558.112 248.752 563.202 262.881 565.603C285.073 569.373 280.801 568.578 297.296 570.457C329.63 574.14 375.5 575.316 375.5 575.316C375.5 575.316 375.5 866.362 375.5 875.191C375.5 875.191 360.055 882.182 317.351 881.996C258.293 881.74 232.644 865.5 120.5 865.5C61.8766 865.5 48 870.5 0.5 878.203L0.5 560.858C24.5576 558.462 56.2992 562.718 62.5283 561.753Z" fill="url(#paint3_linear_7422_183658)"/>
<path d="M328.442 576.173L338.886 553.455C339.318 552.514 340.662 552.535 341.064 553.489L350.576 576.033C350.957 576.936 350.145 577.887 349.194 577.652L343.661 576.283C342.91 576.097 342.184 576.665 342.184 577.439V582.534C342.184 582.982 341.933 583.391 341.534 583.595L337.854 585.471C337.379 585.713 336.816 585.368 336.816 584.834V578.048C336.816 577.311 336.153 576.751 335.426 576.874L329.723 577.844C328.78 578.005 328.042 577.043 328.442 576.173Z" fill="#368A80"/>
<path d="M309.442 584.173L319.886 561.455C320.318 560.514 321.662 560.535 322.064 561.489L331.576 584.033C331.957 584.936 331.145 585.887 330.194 585.652L324.661 584.283C323.91 584.097 323.184 584.665 323.184 585.439V590.534C323.184 590.982 322.933 591.391 322.534 591.595L318.854 593.471C318.379 593.713 317.816 593.368 317.816 592.834V586.048C317.816 585.311 317.153 584.751 316.426 584.874L310.723 585.844C309.78 586.005 309.042 585.043 309.442 584.173Z" fill="#368A80"/>
<path d="M345.442 571.173L355.886 548.455C356.318 547.514 357.662 547.535 358.064 548.489L367.576 571.033C367.957 571.936 367.145 572.887 366.194 572.652L360.661 571.283C359.91 571.097 359.184 571.665 359.184 572.439V577.534C359.184 577.982 358.933 578.391 358.534 578.595L354.854 580.471C354.379 580.713 353.816 580.368 353.816 579.834V573.048C353.816 572.311 353.153 571.751 352.426 571.874L346.723 572.844C345.78 573.005 345.042 572.043 345.442 571.173Z" fill="#368A80"/>
<path d="M0.5 800.024C119.361 750.653 252.84 749.85 372.286 797.786L375.5 799.075V851L0.5 849.578L0.5 800.024V800.024Z" fill="url(#paint4_linear_7422_183658)"/>
<path d="M181.527 775.609C181.527 768.263 175.572 762.308 168.226 762.308H150.837C148.77 762.308 147.094 763.984 147.094 766.051V775.034C147.094 777.101 148.77 778.776 150.837 778.776H178.36C180.109 778.776 181.527 777.358 181.527 775.609V775.609Z" fill="#F1F1F1"/>
<path d="M92.4492 775.609C92.4492 768.263 98.4044 762.308 105.75 762.308H114.906C116.973 762.308 118.649 763.984 118.649 766.051V775.034C118.649 777.101 116.973 778.776 114.906 778.776H95.6162C93.8671 778.776 92.4492 777.358 92.4492 775.609V775.609Z" fill="#F1F1F1"/>
<path d="M107.125 685.083C108.481 685.196 109.76 684.44 110.314 683.198L114.204 674.489C117.247 667.674 112.759 659.874 105.338 659.08V659.08V659.08C97.9485 658.289 91.9585 664.975 93.5536 672.233L95.6684 681.857C95.9705 683.232 97.1333 684.249 98.5362 684.366L107.125 685.083Z" fill="#657F91"/>
<path d="M163.267 670.487C163.01 667.798 160.752 665.745 158.051 665.745L111.288 665.745C108.65 665.745 106.423 667.706 106.09 670.323L93.9488 765.707C93.5503 768.838 95.9903 771.608 99.1468 771.608L113.205 771.608C115.715 771.608 117.872 769.829 118.35 767.366L128.474 715.17C129.585 709.44 137.821 709.545 138.785 715.302L147.485 767.234C147.908 769.758 150.093 771.608 152.653 771.608L167.155 771.608C170.246 771.608 172.665 768.947 172.371 765.87L163.267 670.487Z" fill="#5FD1C3"/>
<path d="M104.714 668.275C106.495 668.712 108.331 667.794 109.049 666.106L135.359 604.309C136.265 602.181 135.043 599.748 132.794 599.205L105.057 592.504C102.916 591.987 100.793 593.421 100.474 595.6L90.8477 661.386C90.5683 663.295 91.7857 665.104 93.6593 665.563L104.714 668.275Z" fill="#95B9D0"/>
<path d="M155.668 603.014C153.532 589.563 141.934 579.661 128.314 579.661H103.678C100.371 579.661 97.6895 582.342 97.6895 585.649V684.459C97.6895 687.766 100.371 690.447 103.678 690.447H162.536C166.218 690.447 169.028 687.156 168.451 683.519L155.668 603.014Z" fill="#708DA0"/>
<circle cx="20.9595" cy="20.9595" r="20.9595" transform="matrix(-1 0 0 1 136.875 539.324)" fill="#B97965"/>
<path d="M94.8283 537.908C85.8908 546.253 86.0089 561.173 94.5994 572.605C95.8412 574.258 98.23 574.329 99.7409 572.918L129.421 545.205C130.931 543.794 131.023 541.406 129.46 540.054C118.642 530.701 103.766 529.562 94.8283 537.908Z" fill="#5FD1C3"/>
<path d="M135.016 593.174C132.738 579.875 121.209 570.153 107.717 570.153H97.4662C94.1589 570.153 91.4778 572.834 91.4778 576.141V608.329C91.4778 611.636 94.1589 614.317 97.4662 614.317H131.536C135.247 614.317 138.065 610.976 137.438 607.318L135.016 593.174Z" fill="#708DA0"/>
<path d="M165.49 511.194C164.146 510.99 162.819 511.659 162.182 512.86L157.715 521.289C154.221 527.883 158.174 535.968 165.524 537.259V537.259V537.259C172.844 538.545 179.27 532.277 178.167 524.928L176.704 515.184C176.495 513.792 175.403 512.698 174.012 512.487L165.49 511.194Z" fill="#708DA0"/>
<path d="M161.967 526.527C160.199 525.891 158.232 526.665 157.372 528.337L125.685 589.928C120.607 599.799 124.943 611.906 135.133 616.308V616.308V616.308C144.949 620.549 156.211 614.882 158.654 604.472L175.018 534.743C175.453 532.892 174.431 531.009 172.641 530.366L161.967 526.527Z" fill="#95B9D0"/>
<path d="M275.671 531.519L266.748 512.254C266.168 511.001 264.378 511.03 263.838 512.3L255.746 531.334C255.233 532.541 256.317 533.815 257.591 533.503L261.24 532.607C262.243 532.361 263.212 533.12 263.212 534.153V537.961C263.212 538.561 263.549 539.11 264.085 539.381L265.92 540.31C266.979 540.845 268.231 540.076 268.231 538.889V534.674C268.231 533.689 269.117 532.941 270.088 533.105L273.962 533.758C275.225 533.972 276.21 532.682 275.671 531.519Z" fill="#5FCBBE"/>
<path d="M257.671 527.519L248.748 508.254C248.168 507.001 246.378 507.03 245.838 508.3L237.746 527.334C237.233 528.541 238.317 529.815 239.591 529.503L243.24 528.607C244.243 528.361 245.212 529.12 245.212 530.153V533.961C245.212 534.561 245.549 535.11 246.085 535.381L247.92 536.31C248.979 536.845 250.231 536.076 250.231 534.889V530.674C250.231 529.689 251.117 528.941 252.088 529.105L255.962 529.758C257.225 529.972 258.21 528.682 257.671 527.519Z" fill="#5FCBBE"/>
<path d="M291.609 537.199L283.76 520.254C283.18 519.001 281.39 519.03 280.85 520.3L273.745 537.013C273.232 538.22 274.316 539.495 275.589 539.183L278.439 538.483C279.442 538.237 280.41 538.996 280.41 540.029V543.211C280.41 543.811 280.748 544.36 281.284 544.631L282.658 545.326C283.717 545.862 284.969 545.093 284.969 543.906V540.489C284.969 539.504 285.854 538.755 286.826 538.919L289.899 539.438C291.162 539.651 292.147 538.361 291.609 537.199Z" fill="#5FCBBE"/>
<defs>
<radialGradient id="paint0_radial_7422_183658" cx="0" cy="0" r="1" gradientUnits="userSpaceOnUse" gradientTransform="translate(269.5 376.943) rotate(80.5753) scale(363.355 384.516)">
<stop stop-color="#EFF9D6"/>
<stop offset="0.293496" stop-color="#9EF4EA"/>
<stop offset="1" stop-color="#56B8AC"/>
</radialGradient>
<linearGradient id="paint1_linear_7422_183658" x1="171.237" y1="417" x2="171.237" y2="511.892" gradientUnits="userSpaceOnUse">
<stop stop-color="#71DACD"/>
<stop offset="1" stop-color="#7CF3E5"/>
</linearGradient>
<linearGradient id="paint2_linear_7422_183658" x1="197.005" y1="534.357" x2="196.779" y2="556.267" gradientUnits="userSpaceOnUse">
<stop stop-color="#A9FFF5"/>
<stop offset="1" stop-color="#F7F7F7"/>
</linearGradient>
<linearGradient id="paint3_linear_7422_183658" x1="197.005" y1="563.341" x2="196.921" y2="576.669" gradientUnits="userSpaceOnUse">
<stop stop-color="#A9FFF5"/>
<stop offset="1" stop-color="#F7F7F7"/>
</linearGradient>
<linearGradient id="paint4_linear_7422_183658" x1="189.5" y1="754.481" x2="189.5" y2="835.356" gradientUnits="userSpaceOnUse">
<stop stop-color="#AFEBE3"/>
<stop offset="0.59375" stop-color="#A3F3E9"/>
<stop offset="1" stop-color="#F7F7F7"/>
</linearGradient>
</defs>
</svg>
