<svg width="100%" height="100%" viewBox="0 0 1024 910" fill="none" xmlns="http://www.w3.org/2000/svg">
<path d="M1 52.3669C153 25 298.5 3.80881e-09 467.5 3.80889e-09C636.5 3.80896e-09 852.5 27 1024 63.8468V569.315C1024 569.315 922.557 548.801 773.754 548.801C618.894 548.801 483.454 564.316 328.619 580.019C179.684 595.124 131.465 632.505 1 627.551L1 52.3669Z" fill="url(#paint0_radial_7388_80292)"/>
<path d="M801.629 447.946C799.464 448.577 781.608 457.084 780.256 457.484C778.903 457.884 768.079 453.047 765.646 453.136C762.669 453.244 750.668 448.156 745.666 445.973C744.283 445.37 742.702 445.472 741.389 446.216C728.538 453.501 675.388 480.816 664.766 480.816C654.628 480.816 633.704 473.912 629.313 472.425C628.771 472.241 628.284 472.21 627.744 472.399C611.34 478.142 483.819 531.546 472.649 531.546C461.339 531.546 71.8467 560.659 68.2131 560.931C68.1009 560.939 68.149 560.932 68.0365 560.933C65.6001 560.947 34.0527 561.29 6.10352e-05 570L1019.34 599.864C1021.89 599.938 1024 597.892 1024 595.342V491.898C936.344 481.667 803.793 447.314 801.629 447.946Z" fill="url(#paint1_linear_7388_80292)"/>
<path d="M170.213 559.747C203.539 563.282 425.374 535.791 577.894 552.351C590.884 553.761 678.23 562.128 716.776 566.075C777.315 572.275 765.66 570.967 810.659 574.056C898.868 580.111 1024 582.045 1024 582.045C1024 582.045 1024 626.29 1024 640.806C1024 640.806 981.866 652.299 865.37 651.994C704.26 651.572 638.433 632.986 332.504 632.986C172.579 632.986 131.141 640.806 1 645.758V558.275C66.6292 554.336 153.22 561.332 170.213 559.747Z" fill="url(#paint2_linear_7388_80292)"/>
<path d="M170.213 589.753C203.539 591.904 425.374 575.182 577.894 585.255C590.884 586.112 678.23 591.202 716.776 593.603C777.315 597.373 765.66 596.578 810.659 598.457C898.868 602.14 1024 603.316 1024 603.316C1024 603.316 1024 894.362 1024 903.191C1024 903.191 981.866 910.182 865.37 909.996C704.26 909.74 634.289 893.5 328.36 893.5C168.435 893.5 130.58 898.5 1 906.203L1 588.858C66.6292 586.462 153.22 590.718 170.213 589.753Z" fill="url(#paint3_linear_7388_80292)"/>
<path d="M940.942 609.173L951.386 586.455C951.818 585.514 953.162 585.535 953.564 586.489L963.076 609.033C963.457 609.936 962.645 610.887 961.694 610.652L956.161 609.283C955.41 609.097 954.684 609.665 954.684 610.439V615.534C954.684 615.982 954.433 616.391 954.034 616.595L950.354 618.471C949.879 618.713 949.316 618.368 949.316 617.834V611.048C949.316 610.311 948.653 609.751 947.926 609.874L942.223 610.844C941.28 611.005 940.542 610.043 940.942 609.173Z" fill="#368A80"/>
<path d="M921.942 617.173L932.386 594.455C932.818 593.514 934.162 593.535 934.564 594.489L944.076 617.033C944.457 617.936 943.645 618.887 942.694 618.652L937.161 617.283C936.41 617.097 935.684 617.665 935.684 618.439V623.534C935.684 623.982 935.433 624.391 935.034 624.595L931.354 626.471C930.879 626.713 930.316 626.368 930.316 625.834V619.048C930.316 618.311 929.653 617.751 928.926 617.874L923.223 618.844C922.28 619.005 921.542 618.043 921.942 617.173Z" fill="#368A80"/>
<path d="M957.942 604.173L968.386 581.455C968.818 580.514 970.162 580.535 970.564 581.489L980.076 604.033C980.457 604.936 979.645 605.887 978.694 605.652L973.161 604.283C972.41 604.097 971.684 604.665 971.684 605.439V610.534C971.684 610.982 971.433 611.391 971.034 611.595L967.354 613.471C966.879 613.713 966.316 613.368 966.316 612.834V606.048C966.316 605.311 965.653 604.751 964.926 604.874L959.223 605.844C958.28 606.005 957.542 605.043 957.942 604.173Z" fill="#368A80"/>
<path d="M383.455 769.791C465.275 757.333 548.495 757.124 630.377 769.169L1024 827.075V879L1 877.578L1 828.024L383.455 769.791Z" fill="url(#paint4_linear_7388_80292)"/>
<path d="M463.027 787.37C463.027 780.024 457.072 774.069 449.726 774.069H432.337C430.27 774.069 428.594 775.745 428.594 777.812V786.794C428.594 788.861 430.27 790.537 432.337 790.537H459.86C461.609 790.537 463.027 789.119 463.027 787.37Z" fill="#F1F1F1"/>
<path d="M373.949 787.37C373.949 780.024 379.904 774.069 387.25 774.069H396.406C398.473 774.069 400.149 775.745 400.149 777.812V786.794C400.149 788.861 398.473 790.537 396.406 790.537H377.116C375.367 790.537 373.949 789.119 373.949 787.37Z" fill="#F1F1F1"/>
<path d="M388.625 696.843C389.981 696.957 391.26 696.201 391.814 694.959L395.704 686.249C398.747 679.435 394.259 671.634 386.838 670.84C379.448 670.049 373.458 676.735 375.054 683.994L377.168 693.617C377.47 694.992 378.633 696.01 380.036 696.127L388.625 696.843Z" fill="#657F91"/>
<path d="M444.767 682.248C444.51 679.559 442.252 677.506 439.551 677.506L392.788 677.506C390.15 677.506 387.923 679.467 387.59 682.084L375.449 777.467C375.05 780.598 377.49 783.369 380.647 783.369L394.705 783.369C397.215 783.369 399.372 781.59 399.85 779.127L409.974 726.931C411.085 721.201 419.321 721.306 420.285 727.063L428.985 778.995C429.408 781.519 431.593 783.369 434.153 783.369L448.655 783.369C451.746 783.369 454.165 780.708 453.871 777.631L444.767 682.248Z" fill="#5FD1C3"/>
<path d="M386.214 680.036C387.995 680.473 389.831 679.554 390.549 677.867L416.859 616.07C417.765 613.941 416.543 611.509 414.294 610.965L386.557 604.265C384.416 603.747 382.293 605.182 381.974 607.361L372.348 673.147C372.068 675.056 373.286 676.864 375.159 677.324L386.214 680.036Z" fill="#95B9D0"/>
<path d="M437.168 614.775C435.032 601.324 423.434 591.422 409.814 591.422H385.178C381.871 591.422 379.19 594.103 379.19 597.41V696.219C379.19 699.527 381.871 702.208 385.178 702.208H444.036C447.718 702.208 450.528 698.917 449.951 695.28L437.168 614.775Z" fill="#708DA0"/>
<circle cx="20.9595" cy="20.9595" r="20.9595" transform="matrix(-1 0 0 1 418.375 551.084)" fill="#B97965"/>
<path d="M376.328 549.669C367.391 558.014 367.509 572.934 376.099 584.366C377.341 586.018 379.73 586.09 381.241 584.679L410.921 556.965C412.431 555.555 412.523 553.166 410.96 551.815C400.142 542.462 385.266 541.323 376.328 549.669Z" fill="#5FD1C3"/>
<path d="M416.516 604.935C414.238 591.636 402.709 581.913 389.217 581.913H378.966C375.659 581.913 372.978 584.594 372.978 587.902V620.09C372.978 623.397 375.659 626.078 378.966 626.078H413.036C416.747 626.078 419.565 622.737 418.938 619.079L416.516 604.935Z" fill="#708DA0"/>
<path d="M446.99 522.955C445.646 522.751 444.319 523.419 443.682 524.621L439.215 533.049C435.721 539.643 439.674 547.728 447.024 549.02C454.344 550.306 460.77 544.038 459.667 536.688L458.204 526.945C457.995 525.553 456.903 524.459 455.512 524.248L446.99 522.955Z" fill="#708DA0"/>
<path d="M443.467 538.288C441.699 537.652 439.732 538.426 438.872 540.097L407.185 601.689C402.107 611.56 406.443 623.667 416.633 628.069C426.449 632.31 437.711 626.642 440.154 616.233L456.518 546.504C456.953 544.653 455.931 542.77 454.141 542.127L443.467 538.288Z" fill="#95B9D0"/>
<path d="M275.671 559.519L266.748 540.254C266.168 539.001 264.378 539.03 263.838 540.3L255.746 559.334C255.233 560.541 256.317 561.815 257.591 561.503L261.24 560.607C262.243 560.361 263.212 561.12 263.212 562.153V565.961C263.212 566.561 263.549 567.11 264.085 567.381L265.92 568.31C266.979 568.845 268.231 568.076 268.231 566.889V562.674C268.231 561.689 269.117 560.941 270.088 561.105L273.962 561.758C275.225 561.972 276.21 560.682 275.671 559.519Z" fill="#5FCBBE"/>
<path d="M257.671 555.519L248.748 536.254C248.168 535.001 246.378 535.03 245.838 536.3L237.746 555.334C237.233 556.541 238.317 557.815 239.591 557.503L243.24 556.607C244.243 556.361 245.212 557.12 245.212 558.153V561.961C245.212 562.561 245.549 563.11 246.085 563.381L247.92 564.31C248.979 564.845 250.231 564.076 250.231 562.889V558.674C250.231 557.689 251.117 556.941 252.088 557.105L255.962 557.758C257.225 557.972 258.21 556.682 257.671 555.519Z" fill="#5FCBBE"/>
<path d="M291.609 565.199L283.76 548.254C283.18 547.001 281.39 547.03 280.85 548.3L273.745 565.013C273.232 566.22 274.316 567.495 275.589 567.183L278.439 566.483C279.442 566.237 280.41 566.996 280.41 568.029V571.211C280.41 571.811 280.748 572.36 281.284 572.631L282.658 573.326C283.717 573.862 284.969 573.093 284.969 571.906V568.489C284.969 567.504 285.854 566.755 286.826 566.919L289.899 567.438C291.162 567.651 292.147 566.361 291.609 565.199Z" fill="#5FCBBE"/>
<defs>
<radialGradient id="paint0_radial_7388_80292" cx="0" cy="0" r="1" gradientUnits="userSpaceOnUse" gradientTransform="translate(640.5 465.5) rotate(-3.30583) scale(1248.58 1186.75)">
<stop stop-color="#EFF9D6"/>
<stop offset="0.180886" stop-color="#9EF4EA"/>
<stop offset="1" stop-color="#56B8AC"/>
</radialGradient>
<linearGradient id="paint1_linear_7388_80292" x1="466.967" y1="445" x2="466.967" y2="539.892" gradientUnits="userSpaceOnUse">
<stop stop-color="#71DACD"/>
<stop offset="1" stop-color="#7CF3E5"/>
</linearGradient>
<linearGradient id="paint2_linear_7388_80292" x1="537.065" y1="562.357" x2="536.982" y2="584.269" gradientUnits="userSpaceOnUse">
<stop stop-color="#A9FFF5"/>
<stop offset="1" stop-color="#F7F7F7"/>
</linearGradient>
<linearGradient id="paint3_linear_7388_80292" x1="537.065" y1="591.341" x2="537.035" y2="604.669" gradientUnits="userSpaceOnUse">
<stop stop-color="#A9FFF5"/>
<stop offset="1" stop-color="#F7F7F7"/>
</linearGradient>
<linearGradient id="paint4_linear_7388_80292" x1="516.592" y1="782.481" x2="516.592" y2="863.356" gradientUnits="userSpaceOnUse">
<stop stop-color="#AFEBE3"/>
<stop offset="0.59375" stop-color="#A3F3E9"/>
<stop offset="1" stop-color="#F7F7F7"/>
</linearGradient>
</defs>
</svg>
