<svg width="100%" height="100%" viewBox="0 0 1025 698" fill="none" xmlns="http://www.w3.org/2000/svg">
<g clip-path="url(#clip0_1697_62893)">
<path d="M0.476562 -18H1026.48V432H0.476562V-18Z" fill="#56B8AC"/>
<path d="M188.801 158.91L291.004 85.5418C298.989 79.8093 309.826 80.142 317.445 86.3536L370.851 129.896C377.614 135.41 387.017 136.351 394.738 132.286L395.622 131.821C403.118 127.875 412.224 128.639 418.959 133.778L451.391 158.527C458.741 164.136 468.832 164.488 476.555 159.406L517.003 132.789C523.924 128.234 532.832 128.006 539.978 132.199L586.098 159.261C594.734 164.329 605.714 162.849 612.7 155.676L664.391 102.601C671.205 95.605 681.846 94.0051 690.416 98.6884L838.114 179.4C845.096 183.215 849.44 190.538 849.44 198.495V300.504C849.44 312.473 839.773 322.196 827.803 322.264L23.3471 326.885C11.2801 326.955 1.46094 317.192 1.46094 305.125V192.885C1.46094 184.465 6.3183 176.801 13.9325 173.207L103.91 130.732C110.961 127.403 119.254 128.102 125.649 132.563L163.661 159.08C171.229 164.359 181.305 164.291 188.801 158.91Z" fill="url(#paint0_linear_1697_62893)"/>
<path d="M1026.32 74.5306C1026.32 24.4576 1026.32 76.857 1026.32 -2H632.561H466.749C456.116 8.70903 447.477 74.7921 447.477 74.7921C447.477 74.7921 682.996 216.383 973.524 216.383C993.55 216.383 1011.07 218.446 1026.32 216.383C1026.32 216.383 1026.32 330.464 1026.32 74.5306Z" fill="url(#paint1_radial_1697_62893)"/>
<rect width="120.24" height="25.1813" transform="matrix(1 0 0 -1 898.477 105.588)" fill="url(#paint2_linear_1697_62893)"/>
<path d="M804.76 69.3762C802.605 70.8336 784.822 90.4745 783.475 91.3987C782.128 92.3228 771.348 81.1545 768.926 81.359C767.662 81.4658 764.762 79.3897 761.465 76.5825C753.498 69.798 740.964 70.3795 734.321 78.4653C714.144 103.026 677.119 145.268 668.462 145.268C660.63 145.268 646.337 135.678 638.276 129.773C634.734 127.177 630.001 127.123 626.729 130.052C598.346 155.462 487.496 262.396 477.136 262.396C465.925 262.396 81.5572 328.994 74.4424 330.227C74.2206 330.266 74.2656 330.261 74.0462 330.311C69.9246 331.255 23.9668 342.381 11.115 372.03C7.48236 380.41 15.1983 388.122 24.3322 388.122H1009.68C1018.81 388.122 1026.21 380.717 1026.21 371.583V170.855C938.92 147.234 806.915 67.9189 804.76 69.3762Z" fill="url(#paint3_linear_1697_62893)"/>
<path d="M287.568 209.991L333.669 235.194C337.78 237.442 342.572 238.104 347.139 237.056L374.043 230.881C376.329 230.356 378.693 230.256 381.015 230.585L420.706 236.213C430.556 237.61 437.696 246.315 437.138 256.247L433.482 321.321C432.912 331.464 424.521 339.396 414.362 339.396H0.832031V149.484L76.5432 191.975L145.516 230.911C149.599 233.215 154.384 233.942 158.967 232.954L274.345 208.074C278.84 207.105 283.534 207.785 287.568 209.991Z" fill="url(#paint4_linear_1697_62893)"/>
<path d="M698.412 120.016C712.4 103.261 728.308 84.0887 737.859 72.6799C742.834 66.738 750.75 66.0491 756.804 70.8859L771.384 82.5338C778.016 87.8321 787.582 87.2493 793.522 81.1852L796.116 78.5364C801.296 73.2484 809.358 72.0461 815.855 75.5927L846.441 92.2888C858.79 99.03 857.617 117.132 844.501 122.223L820.993 131.348C817.399 132.743 813.323 131.934 810.534 129.272L806.711 125.624C802.132 121.254 794.534 124.208 794.109 130.523C793.682 136.873 786.013 139.81 781.453 135.37L781.073 135C776.186 130.243 767.984 133.705 767.984 140.525V146.715C767.984 152.416 763.362 157.038 757.66 157.038H742.653C737.876 157.038 733.332 154.972 730.191 151.372L711.138 129.532C709.568 127.732 706.986 127.207 704.836 128.25C699.69 130.748 694.745 124.407 698.412 120.016Z" fill="#A1FCF1"/>
<circle cx="16.9973" cy="16.9973" r="16.9973" transform="matrix(1 0 0 -1 950.727 109.995)" fill="white"/>
<path d="M503.421 206.648L503.066 203.634C502.849 203.433 502.77 202.148 502.77 202.148C502.77 202.148 502.888 200.339 502.77 199.877V197.489V195.974L502.415 193.386C502.131 194.274 501.563 196.128 501.563 196.442V197.928C501.519 199.419 501.383 202.526 501.184 203.031C500.985 203.536 501.101 204.167 501.184 204.419C501.09 204.765 500.858 205.496 500.687 205.653C500.517 205.81 500.23 205.98 500.107 206.045L498.226 206.648C497.879 206.891 497.227 207.358 497.398 207.279C497.611 207.181 498.652 207.027 498.936 207.027H500.9V209.999H500.107L499.267 209.746L495.625 210.556L495.034 211.387H495.481C496.12 211.298 497.53 211.073 498.06 210.882C498.591 210.691 500.033 210.961 500.687 211.12V214.681C500.494 214.826 499.873 215.178 498.936 215.424C497.999 215.671 497.378 215.723 497.185 215.719C496.104 215.798 493.9 215.996 493.73 216.153C493.559 216.31 491.587 217.421 491.161 217.752L492.934 217.563L493.528 217.345C493.667 217.345 494.244 216.995 494.509 216.995C494.774 216.995 496.061 216.756 496.061 216.756C496.782 216.672 498.501 216.504 499.599 216.504H500.687V218.424C500.699 218.789 500.716 219.644 500.687 220.149C500.659 220.654 500.746 221.185 500.687 221.287L499.859 221.831H498.936C498.699 221.883 497.911 222.025 496.652 222.182C495.079 222.378 494.487 222.518 493.943 222.574C493.398 222.63 492.44 223.261 492.239 223.261C492.078 223.261 491.367 223.915 491.032 224.243C491.584 224.098 493.327 223.514 493.327 223.514C493.327 223.514 494.416 223.359 494.969 223.261C495.525 223.261 496.899 223.118 497.069 223.118C497.282 223.118 498.983 223.261 499.812 223.261C500.474 223.261 500.529 223.429 500.474 223.514V224.243V226.808C500.017 226.874 498.396 226.774 498.226 226.808C498.013 226.85 496.936 226.906 496.061 227.201C495.185 227.495 494.404 227.453 493.528 227.551C492.828 227.63 491.473 228.126 490.724 228.392L489.98 229.374L493.067 228.392H497.398H499.859C500.107 228.392 500.352 229.115 500.352 229.115L500.107 232.332L499.859 233.916L499.267 239.342H504.036L503.681 234.757L503.306 232.332L503.24 231.451L503.066 227.551C503.567 227.126 504.708 226.275 505.266 226.275C505.965 226.275 506.888 225.981 507.467 225.981C508.047 225.981 509.164 225.673 509.164 225.673C509.164 225.673 510.489 225.906 510.804 225.673L514.531 226.275L513.242 225.673C512.745 225.673 511.561 224.986 510.804 224.986C509.858 224.986 509.585 224.633 508.023 224.633H505.929C505.598 224.633 504.063 224.49 503.066 224.243V220.149C503.231 219.939 503.421 219.518 504.036 219.518H506.888H509.164C510.075 219.518 511.488 219.838 512.299 220.277C512.674 220.48 513.894 220.972 513.894 220.972L511.98 219.331C511.499 219.265 510.196 218.919 509.846 218.762C509.408 218.566 509.585 218.831 508.023 218.424C506.462 218.018 506.218 217.878 505.71 217.878C505.303 217.878 504.166 217.345 503.681 217.345L503.267 215.957V213.355C503.271 213.534 503.64 213.203 504.225 213.397C505.029 213.397 504.805 213.459 506.888 213.655C508.97 213.851 509.029 213.867 510.426 214.049C511.822 214.231 511.408 214.217 511.869 214.217C512.238 214.217 512.596 214.334 512.628 214.217C512.379 214.11 511.654 213.533 511.55 213.488C511.337 213.397 510.781 213.564 510.508 213.349C510.386 213.392 510.109 213.188 509.673 213.087C509.129 212.961 508.463 212.708 508.463 212.708C508.463 212.708 507.846 212.465 507.207 212.465C506.568 212.465 506.876 212.424 505.929 212.242C504.983 212.06 504.888 212.046 504.568 211.948C504.249 211.849 503.791 211.762 503.531 211.692C503.323 211.636 503.421 211.566 503.421 211.387V209.41C503.673 209.335 504.464 209.186 504.568 209.186H505.266H506.154C506.663 209.074 507.749 208.849 508.023 208.849C508.367 208.849 509.278 208.849 509.846 209.186C510.414 209.522 511.053 209.41 511.242 209.41H511.751L510.508 208.849L509.846 208.625C509.507 208.517 508.726 208.297 508.319 208.274C507.811 208.246 507.278 208.148 506.154 208.05C505.03 207.952 504.462 207.826 504.036 207.728C503.695 207.649 503.484 206.975 503.421 206.648Z" fill="#5DC7BA"/>
<path d="M517.188 213.801L517.434 211.737C517.584 211.599 517.639 210.719 517.639 210.719C517.639 210.719 517.557 209.48 517.639 209.163V207.528V206.49L517.884 204.717C518.081 205.325 518.474 206.596 518.474 206.811V207.828C518.504 208.85 518.599 210.978 518.736 211.324C518.874 211.669 518.794 212.102 518.736 212.274C518.802 212.511 518.962 213.012 519.08 213.119C519.198 213.227 519.397 213.343 519.482 213.388L520.784 213.801C521.025 213.968 521.476 214.287 521.358 214.233C521.21 214.166 520.489 214.06 520.293 214.06H518.933V216.096H519.482L520.063 215.923L522.585 216.478L522.994 217.047H522.685C522.242 216.986 521.266 216.832 520.899 216.701C520.532 216.57 519.534 216.755 519.08 216.864V219.303C519.214 219.403 519.644 219.643 520.293 219.812C520.942 219.981 521.371 220.017 521.505 220.014C522.253 220.068 523.779 220.204 523.897 220.312C524.015 220.419 525.38 221.18 525.675 221.407L524.448 221.277L524.036 221.128C523.941 221.128 523.541 220.888 523.358 220.888C523.174 220.888 522.283 220.724 522.283 220.724C521.784 220.667 520.594 220.552 519.834 220.552H519.08V221.867C519.072 222.117 519.061 222.703 519.08 223.048C519.1 223.394 519.039 223.758 519.08 223.828L519.654 224.2H520.293C520.457 224.236 521.002 224.333 521.874 224.441C522.963 224.575 523.373 224.671 523.75 224.709C524.127 224.748 524.79 225.18 524.929 225.18C525.041 225.18 525.533 225.628 525.765 225.852C525.383 225.753 524.176 225.353 524.176 225.353C524.176 225.353 523.422 225.247 523.039 225.18C522.654 225.18 521.703 225.082 521.585 225.082C521.438 225.082 520.26 225.18 519.687 225.18C519.228 225.18 519.19 225.295 519.228 225.353V225.852V227.609C519.545 227.654 520.666 227.586 520.784 227.609C520.932 227.638 521.677 227.677 522.283 227.878C522.89 228.08 523.43 228.051 524.036 228.118C524.521 228.172 525.46 228.512 525.978 228.694L526.493 229.367L524.356 228.694H521.358H519.654C519.482 228.694 519.313 229.189 519.313 229.189L519.482 231.393L519.654 232.478L520.063 236.194H516.762L517.008 233.054L517.268 231.393L517.313 230.789L517.434 228.118C517.087 227.827 516.297 227.244 515.91 227.244C515.427 227.244 514.788 227.043 514.386 227.043C513.985 227.043 513.212 226.832 513.212 226.832C513.212 226.832 512.295 226.992 512.076 226.832L509.496 227.244L510.389 226.832C510.733 226.832 511.552 226.361 512.076 226.361C512.732 226.361 512.92 226.12 514.001 226.12H515.451C515.681 226.12 516.743 226.022 517.434 225.852V223.048C517.319 222.904 517.188 222.616 516.762 222.616H514.788H513.212C512.581 222.616 511.603 222.835 511.041 223.136C510.782 223.275 509.938 223.612 509.938 223.612L511.262 222.488C511.595 222.443 512.497 222.206 512.74 222.099C513.043 221.964 512.92 222.146 514.001 221.867C515.083 221.589 515.251 221.493 515.603 221.493C515.885 221.493 516.672 221.128 517.008 221.128L517.295 220.177V218.395C517.292 218.517 517.036 218.29 516.631 218.423C516.074 218.423 516.23 218.466 514.788 218.6C513.346 218.735 513.305 218.745 512.339 218.87C511.372 218.995 511.659 218.986 511.339 218.986C511.084 218.986 510.836 219.066 510.814 218.986C510.986 218.912 511.488 218.517 511.56 218.486C511.708 218.423 512.093 218.538 512.281 218.391C512.366 218.42 512.558 218.28 512.859 218.211C513.236 218.125 513.697 217.952 513.697 217.952C513.697 217.952 514.124 217.785 514.567 217.785C515.009 217.785 514.796 217.757 515.451 217.632C516.107 217.508 516.172 217.498 516.393 217.431C516.615 217.364 516.932 217.304 517.112 217.256C517.256 217.218 517.188 217.17 517.188 217.047V215.693C517.013 215.642 516.466 215.539 516.393 215.539H515.91H515.296C514.944 215.462 514.192 215.309 514.001 215.309C513.764 215.309 513.133 215.309 512.74 215.539C512.347 215.77 511.904 215.693 511.773 215.693H511.421L512.281 215.309L512.74 215.155C512.975 215.081 513.515 214.93 513.797 214.915C514.149 214.896 514.518 214.829 515.296 214.761C516.074 214.694 516.467 214.608 516.762 214.541C516.998 214.487 517.144 214.025 517.188 213.801Z" fill="#5DC7BA"/>
<path d="M167.077 280.565L188.534 234.242C190.119 230.819 195.012 230.897 196.488 234.369L215.912 280.058C217.314 283.357 214.35 286.842 210.869 285.987L203.08 284.075C200.338 283.402 197.69 285.478 197.69 288.302V296.999C197.69 298.64 196.767 300.141 195.303 300.882L191.546 302.783C188.651 304.248 185.229 302.144 185.229 298.899V289.559C185.229 286.866 182.808 284.82 180.153 285.268L171.751 286.686C168.298 287.269 165.606 283.743 167.077 280.565Z" fill="#5FCBBE"/>
<path d="M207.988 276.462L232.382 223.796C233.967 220.373 238.86 220.451 240.336 223.923L262.456 275.955C263.859 279.254 260.895 282.739 257.413 281.884L247.438 279.435C244.695 278.762 242.048 280.838 242.048 283.662V294.07C242.048 295.711 241.125 297.213 239.66 297.954L234.643 300.492C231.748 301.956 228.326 299.853 228.326 296.608V285.087C228.326 282.394 225.905 280.347 223.25 280.795L212.661 282.583C209.208 283.166 206.516 279.639 207.988 276.462Z" fill="#5FCBBE"/>
<path d="M254.12 269.499L278.515 216.833C280.1 213.41 284.993 213.488 286.469 216.96L308.589 268.991C309.991 272.291 307.027 275.776 303.546 274.921L293.57 272.472C290.828 271.798 288.18 273.875 288.18 276.698V287.107C288.18 288.748 287.257 290.249 285.793 290.99L280.776 293.528C277.881 294.993 274.459 292.889 274.459 289.645V278.124C274.459 275.431 272.038 273.384 269.382 273.832L258.794 275.619C255.341 276.202 252.649 272.676 254.12 269.499Z" fill="#5FCBBE"/>
<path d="M856.611 218.572C823.208 230.502 693.595 176.012 540.72 231.893C527.7 236.653 454.336 222.773 437.46 231.893C387.665 258.804 257.673 293.82 233.562 293.82C209.45 293.82 0.834106 325.27 0.834106 325.27C0.834106 325.27 0.834106 363.987 0.834106 412.973L1026.22 419.457V213.605C960.437 200.312 873.644 223.922 856.611 218.572Z" fill="url(#paint5_linear_1697_62893)"/>
<path d="M1026.21 309.281C1026.21 302.408 1020.48 296.895 1013.61 297.117C833.743 302.931 748.099 314.878 562.962 314.878C393.62 314.878 77.753 316.774 12.721 317.176C6.02112 317.217 0.8302 322.659 0.8302 329.359V340.128C0.8302 340.128 0.8302 426.756 0.8302 445.5C0.8302 445.5 136.973 480 289.973 480C468.454 480 556.993 450.633 735.473 450.633C877.912 450.633 1026.21 480 1026.21 480V309.281Z" fill="url(#paint6_linear_1697_62893)"/>
<path d="M901.734 231.393L928.637 173.311C930.222 169.888 935.115 169.966 936.591 173.438L961.013 230.886C962.416 234.185 959.452 237.67 955.97 236.815L944.127 233.907C941.385 233.234 938.737 235.31 938.737 238.134V250.004C938.737 251.645 937.814 253.146 936.35 253.887L927.73 258.248C925.993 259.127 923.94 257.865 923.94 255.918V239.703C923.94 237.009 921.519 234.963 918.863 235.411L906.407 237.514C902.954 238.096 900.262 234.57 901.734 231.393Z" fill="#368A80"/>
<path d="M947.866 216.595L974.769 158.514C976.355 155.09 981.248 155.168 982.724 158.64L1007.15 216.088C1008.55 219.387 1005.58 222.872 1002.1 222.018L990.26 219.11C987.518 218.437 984.87 220.513 984.87 223.337V235.206C984.87 236.848 983.947 238.349 982.483 239.09L973.863 243.451C972.126 244.33 970.073 243.068 970.073 241.121V224.905C970.073 222.212 967.652 220.165 964.996 220.614L952.54 222.716C949.087 223.299 946.395 219.773 947.866 216.595Z" fill="#368A80"/>
<path d="M43.8157 209.011C43.8741 207.441 45.1638 206.198 46.7349 206.198C48.3175 206.198 49.6122 207.458 49.655 209.04L52.9875 332.342C53.0272 333.812 51.8469 335.024 50.3771 335.024H41.843C40.3628 335.024 39.1785 333.795 39.2335 332.316L43.8157 209.011Z" fill="#326C65"/>
<path d="M29.5586 253.343C29.5586 252.496 30.2185 251.796 31.0641 251.745L48.2124 250.724C49.4257 250.652 50.4493 251.617 50.4493 252.832C50.4493 253.998 49.504 254.944 48.3379 254.944H31.1592C30.2752 254.944 29.5586 254.227 29.5586 253.343Z" fill="#326C65"/>
<path d="M65.2356 250.279C65.0824 251.33 64.1438 252.137 63.0763 252.136L48.9716 252.125C47.4245 252.124 46.2876 250.816 46.5097 249.293C46.7192 247.856 48.0626 246.789 49.5101 246.911L63.4946 248.086C64.6189 248.181 65.3983 249.162 65.2356 250.279Z" fill="#326C65"/>
<path d="M61.1971 232.351C61.0979 233.032 60.4863 233.552 59.7956 233.544L48.814 233.414C47.8175 233.402 47.0911 232.556 47.2342 231.574C47.3703 230.641 48.2428 229.948 49.183 230.027L60.079 230.943C60.8011 231.004 61.3017 231.634 61.1971 232.351Z" fill="#326C65"/>
<path d="M68.0481 268.665C67.9635 269.931 66.9229 270.95 65.6521 271.01L49.525 271.777C47.6811 271.864 46.2018 270.36 46.3246 268.523C46.4402 266.792 47.9392 265.443 49.6726 265.51L65.767 266.13C67.1169 266.182 68.1382 267.317 68.0481 268.665Z" fill="#326C65"/>
<path d="M20.4619 283.274C20.357 282.228 21.0819 281.273 22.1179 281.092L41.5404 277.706C43.0294 277.447 44.4167 278.499 44.5675 280.002C44.7118 281.44 43.664 282.734 42.2273 282.891L22.6407 285.039C21.5472 285.158 20.5717 284.368 20.4619 283.274Z" fill="#326C65"/>
<path d="M25.06 261.733C25.0752 260.789 25.8247 260.015 26.7684 259.97L46.8065 259.009C48.1594 258.944 49.2807 260.03 49.2589 261.384C49.238 262.685 48.1664 263.729 46.8654 263.717L26.813 263.531C25.829 263.522 25.0441 262.717 25.06 261.733Z" fill="#326C65"/>
</g>
<path d="M713.176 488.471C713.176 478.658 721.131 470.702 730.945 470.702H754.176C756.937 470.702 759.176 472.941 759.176 475.702V487.702C759.176 490.464 756.937 492.702 754.176 492.702H717.407C715.07 492.702 713.176 490.808 713.176 488.471Z" fill="#D9E2E9"/>
<path d="M832.176 488.471C832.176 478.658 824.22 470.702 814.407 470.702H802.176C799.414 470.702 797.176 472.941 797.176 475.702V487.702C797.176 490.464 799.414 492.702 802.176 492.702H827.945C830.282 492.702 832.176 490.808 832.176 488.471Z" fill="#D9E2E9"/>
<path d="M737.57 348.037C737.913 344.445 740.93 341.702 744.538 341.702L807.009 341.702C810.534 341.702 813.508 344.323 813.953 347.819L830.173 475.242C830.705 479.425 827.445 483.126 823.229 483.126L804.448 483.126C801.095 483.126 798.214 480.75 797.576 477.459L784.051 407.73C782.566 400.075 771.563 400.216 770.275 407.907L758.654 477.282C758.089 480.655 755.17 483.126 751.75 483.126L732.376 483.126C728.247 483.126 725.015 479.571 725.407 475.461L737.57 348.037Z" fill="#5FD1C3"/>
<path d="M710.597 225.022C712.061 223.057 714.733 222.443 716.908 223.572L796.551 264.895C799.294 266.319 800.102 269.865 798.247 272.336L775.357 302.819C773.59 305.172 770.183 305.498 768.002 303.523L702.162 243.907C700.251 242.177 699.969 239.279 701.509 237.213L710.597 225.022Z" fill="#95B9D0"/>
<path d="M747.722 257.9C750.575 239.93 766.07 226.702 784.264 226.702H817.176C821.594 226.702 825.176 230.284 825.176 234.702V366.702C825.176 371.12 821.594 374.702 817.176 374.702H738.546C733.628 374.702 729.874 370.305 730.645 365.448L747.722 257.9Z" fill="#708DA0"/>
<circle cx="798.176" cy="198.702" r="28" fill="#B97965"/>
<path d="M826.343 168.811C838.283 179.96 838.125 199.891 826.649 215.163C824.99 217.371 821.799 217.466 819.781 215.582L780.131 178.559C778.113 176.674 777.99 173.484 780.079 171.678C794.53 159.183 814.404 157.662 826.343 168.811Z" fill="#5FD1C3"/>
<path d="M775.314 244.755C778.356 226.989 793.758 214 811.783 214H825.477C829.895 214 833.477 217.582 833.477 222V265C833.477 269.418 829.895 273 825.477 273H779.963C775.005 273 771.241 268.536 772.078 263.65L775.314 244.755Z" fill="#708DA0"/>
<path d="M762.766 350.513C760.287 350.115 758.488 347.939 758.562 345.429L761.283 252.938C761.719 238.116 774.609 226.758 789.368 228.19C803.586 229.57 813.096 243.471 809.23 257.222L783.335 349.334C782.647 351.779 780.236 353.32 777.728 352.917L762.766 350.513Z" fill="#95B9D0"/>
<path d="M528.291 507.516C524.103 509.743 518.902 508.152 516.676 503.963L516.507 503.646C514.281 499.458 515.872 494.257 520.06 492.031C524.249 489.805 529.449 491.395 531.675 495.584L531.844 495.901C534.07 500.089 532.48 505.29 528.291 507.516Z" fill="#F1F4F8"/>
<path d="M768.599 345.369C770.566 344.363 772.976 345.142 773.981 347.109L776.481 351.996C777.487 353.963 776.708 356.373 774.741 357.379L765.685 362.01L759.543 350L768.599 345.369Z" fill="#326C65"/>
<rect x="752.129" y="335.136" width="46.3867" height="284.243" rx="7" transform="rotate(62.9138 752.129 335.136)" fill="#58BBAF"/>
<path d="M769.871 369.837L770.158 370.398C771.918 373.84 770.555 378.058 767.113 379.818L526.51 502.868C523.068 504.628 518.851 503.265 517.091 499.823L516.804 499.261L769.871 369.837Z" fill="#326C65"/>
<path d="M571.898 479.567L550.917 438.177L559.545 433.804L580.526 475.193L571.898 479.567Z" fill="#326C65"/>
<path d="M699.781 413.902L678.8 372.512L687.428 368.139L708.409 409.528L699.781 413.902Z" fill="#326C65"/>
<rect x="690.477" y="199" width="24" height="44" rx="2" fill="#2E4453"/>
<path d="M702.478 210.854C701.66 210.854 700.86 211.096 700.179 211.551C699.498 212.006 698.968 212.652 698.655 213.408C698.342 214.164 698.26 214.996 698.419 215.799C698.579 216.602 698.973 217.339 699.552 217.918C700.131 218.497 700.868 218.891 701.671 219.051C702.474 219.21 703.306 219.128 704.062 218.815C704.818 218.502 705.464 217.972 705.919 217.291C706.374 216.61 706.617 215.81 706.617 214.992C706.617 213.894 706.181 212.842 705.404 212.066C704.628 211.29 703.576 210.854 702.478 210.854ZM702.478 217.686C701.945 217.686 701.425 217.528 700.982 217.232C700.539 216.936 700.193 216.515 699.989 216.023C699.785 215.531 699.732 214.989 699.836 214.466C699.94 213.944 700.197 213.464 700.573 213.087C700.95 212.71 701.43 212.454 701.953 212.35C702.475 212.246 703.017 212.299 703.509 212.503C704.001 212.707 704.422 213.052 704.718 213.495C705.014 213.938 705.172 214.459 705.172 214.992C705.17 215.705 704.885 216.388 704.38 216.892C703.875 217.396 703.191 217.679 702.478 217.679V217.686Z" fill="white"/>
<path d="M702.477 207.444C700.227 207.446 698.07 208.338 696.475 209.926C694.881 211.513 693.98 213.666 693.969 215.916C693.969 219.289 695.861 222.113 697.248 224.171L697.5 224.547C698.88 226.546 700.36 228.475 701.935 230.324L702.484 230.967L703.033 230.324C704.607 228.474 706.087 226.546 707.467 224.547L707.72 224.164C709.099 222.105 710.992 219.289 710.992 215.916C710.98 213.665 710.078 211.51 708.482 209.923C706.887 208.335 704.727 207.444 702.477 207.444ZM706.514 223.333L706.254 223.716C705.012 225.579 703.365 227.667 702.477 228.699C701.624 227.667 699.942 225.579 698.699 223.716L698.447 223.333C697.168 221.427 695.413 218.819 695.413 215.887C695.413 214.96 695.596 214.041 695.951 213.184C696.306 212.327 696.826 211.548 697.482 210.893C698.138 210.237 698.917 209.716 699.774 209.361C700.63 209.006 701.549 208.824 702.477 208.824C703.404 208.824 704.323 209.006 705.18 209.361C706.037 209.716 706.815 210.237 707.471 210.893C708.127 211.548 708.647 212.327 709.002 213.184C709.357 214.041 709.54 214.96 709.54 215.887C709.54 218.848 707.792 221.455 706.514 223.333Z" fill="white"/>
<path d="M683.296 223.735C683.269 227.433 684.524 231.025 686.848 233.902L690.449 238.362L690.658 223.32L690.58 216.41C690.554 214.162 688.002 212.879 686.182 214.2C684.401 215.492 683.34 217.555 683.325 219.755L683.296 223.735Z" fill="#708DA0"/>
<path d="M716.962 220.092C716.952 222.267 716.408 224.407 715.377 226.322L714.474 228L714.524 220.205L714.523 215.282C716.033 216.095 716.973 217.674 716.965 219.389L716.962 220.092Z" fill="#708DA0"/>
<defs>
<linearGradient id="paint0_linear_1697_62893" x1="425.712" y1="11.8552" x2="425.611" y2="327.011" gradientUnits="userSpaceOnUse">
<stop stop-color="#68E6D6"/>
<stop offset="1" stop-color="#6CFCEB" stop-opacity="0"/>
</linearGradient>
<radialGradient id="paint1_radial_1697_62893" cx="0" cy="0" r="1" gradientUnits="userSpaceOnUse" gradientTransform="translate(973.524 74.7919) rotate(-90) scale(497.716 526.047)">
<stop stop-color="#FEFFCC"/>
<stop offset="0.1875" stop-color="#7BEDE0"/>
<stop offset="1" stop-color="#5EC7BB" stop-opacity="0"/>
</radialGradient>
<linearGradient id="paint2_linear_1697_62893" x1="120.24" y1="7.87793" x2="-1.88859" y2="7.87793" gradientUnits="userSpaceOnUse">
<stop stop-color="#C5FFF8" stop-opacity="0"/>
<stop offset="0.401042" stop-color="#FFF0CB"/>
<stop offset="1" stop-color="#C5FFF8" stop-opacity="0"/>
</linearGradient>
<linearGradient id="paint3_linear_1697_62893" x1="471.478" y1="62.5752" x2="471.478" y2="281.666" gradientUnits="userSpaceOnUse">
<stop stop-color="#71DACD"/>
<stop offset="1" stop-color="#7CF3E5"/>
</linearGradient>
<linearGradient id="paint4_linear_1697_62893" x1="219.478" y1="149.484" x2="219.478" y2="372.968" gradientUnits="userSpaceOnUse">
<stop stop-color="#76E6D8"/>
<stop offset="1" stop-color="#7DEEE0"/>
</linearGradient>
<linearGradient id="paint5_linear_1697_62893" x1="488.904" y1="227.381" x2="489.847" y2="301.314" gradientUnits="userSpaceOnUse">
<stop stop-color="#A9FFF5"/>
<stop offset="1" stop-color="#F7F7F7"/>
</linearGradient>
<linearGradient id="paint6_linear_1697_62893" x1="513.523" y1="264.377" x2="513.523" y2="371.817" gradientUnits="userSpaceOnUse">
<stop stop-color="white"/>
<stop offset="1" stop-color="#F0F0F0"/>
</linearGradient>
<clipPath id="clip0_1697_62893">
<rect width="1024" height="700" fill="white" transform="translate(0.476562 -2)"/>
</clipPath>
</defs>
</svg>
