<svg width="100%" height="100%" viewBox="0 0 1024 1043" fill="none" xmlns="http://www.w3.org/2000/svg">
<path d="M0 109.675C55.182 109.675 74.7585 122.742 126.029 122.742C182.571 122.742 216.861 103.095 283.267 103.095C349.674 103.095 375 115.959 375 115.959V243.904C375 243.904 337.814 232.675 283.267 232.675C226.501 232.675 177.555 249.763 120.095 249.763C66.2419 249.763 47.8244 239.803 0 237.091V109.675Z" fill="#56B8AC"/>
<path d="M0 0C92 0 204.14 20.4458 344.142 20.4458C498.542 20.4458 592.176 2.95778e-06 773.509 0C954.842 -2.95778e-06 1024 13.3865 1024 13.3865V249.903C1024 249.903 922.457 238.217 773.509 238.217C618.498 238.217 484.844 256 327.939 256C180.885 256 130.592 245.634 0 242.813V0Z" fill="url(#paint0_radial_1697_62946)"/>
<path d="M858.086 133.077C856.471 134.164 843.149 148.825 842.14 149.515C841.13 150.205 833.054 141.868 831.24 142.021C830.879 142.051 830.342 141.846 829.678 141.464C820.626 136.262 808.785 135.743 802.083 143.748C786.542 162.316 762.019 189.725 755.972 189.725C750.565 189.725 741.045 183.645 734.859 179.242C731.292 176.702 726.575 176.676 723.322 179.608C700.07 200.571 620.233 277.154 612.631 277.154C604.257 277.154 318.038 326.559 310.99 327.776C310.769 327.814 310.781 327.815 310.563 327.865C307.247 328.629 276.924 336.069 265.408 355.267C260.71 363.1 268.405 371 277.538 371H1007.46C1016.6 371 1024 363.595 1024 354.462V208.824C958.599 191.193 859.701 131.989 858.086 133.077Z" fill="url(#paint1_linear_1697_62946)"/>
<path d="M642.23 189.509L670.243 169.611C672.417 168.067 675.352 168.157 677.427 169.831L692.082 181.653C693.923 183.139 696.47 183.392 698.569 182.299L698.867 182.144C700.904 181.083 703.37 181.289 705.204 182.673L714.12 189.406C716.121 190.916 718.854 191.012 720.955 189.643L732.071 182.405C733.954 181.18 736.366 181.118 738.308 182.246L750.983 189.605C753.332 190.969 756.308 190.569 758.214 188.633L771.945 174.682C774.006 172.589 777.284 172.311 779.667 174.028L886.5 251H819L596.536 235.388C593.418 235.17 591 232.576 591 229.451V198.745C591 196.434 592.339 194.331 594.433 193.352L619.056 181.851C620.971 180.956 623.217 181.144 624.957 182.345L635.402 189.555C637.461 190.977 640.19 190.958 642.23 189.509Z" fill="url(#paint2_linear_1697_62946)"/>
<path d="M120.249 156.131C121.42 156.588 131.075 162.741 131.807 163.031C132.538 163.321 138.392 159.821 139.707 159.885C141.054 159.951 145.817 157.385 148.921 155.62C150.597 154.668 152.701 154.805 154.256 155.945C163.053 162.391 188.851 179.909 194.259 179.909C199.358 179.909 209.502 175.59 212.806 174.119C213.492 173.815 214.239 173.795 214.913 174.125C226.004 179.573 292.234 216.608 298.148 216.608C304.276 216.608 515.682 237.748 516.859 237.866C516.896 237.869 516.857 237.865 516.893 237.87C517.904 237.999 545.418 241.595 551.722 251.723C553.042 253.845 550.975 256 548.476 256H4.52385C2.02539 256 0 253.975 0 251.476V187.926C47.4007 180.525 119.079 155.674 120.249 156.131Z" fill="url(#paint3_linear_1697_62946)"/>
<path d="M169.379 209.245C202.737 215.137 424.789 169.319 577.458 196.918C590.461 199.268 677.892 213.213 716.476 219.792C777.073 230.125 765.408 227.946 810.451 233.094C898.745 243.185 1024 246.408 1024 246.408C1024 246.408 1024 320.149 1024 344.343C1024 344.343 981.825 363.499 865.215 362.99C703.947 362.287 638.056 331.31 331.828 331.31C171.747 331.31 130.268 344.343 0 352.596V206.792C65.6934 200.227 152.369 211.887 169.379 209.245Z" fill="url(#paint4_linear_1697_62946)"/>
<path d="M169.379 229.752C202.737 234.676 424.789 196.39 577.458 219.452C590.461 221.416 677.892 233.068 716.476 238.566C777.073 247.199 765.408 245.379 810.451 249.681C898.745 258.113 1024 260.806 1024 260.806C1024 260.806 1024 927.194 1024 947.41C1024 947.41 981.825 963.417 865.215 962.992C703.947 962.404 638.056 936.519 331.828 936.519C171.747 936.519 130.268 947.41 0 954.306L0 227.702C65.6934 222.217 152.369 231.96 169.379 229.752Z" fill="url(#paint5_linear_1697_62946)"/>
<path d="M18.8052 210.702L26.1641 194.815C26.5978 193.878 27.9362 193.9 28.3399 194.849L35.0203 210.563C35.4039 211.466 34.5931 212.419 33.6408 212.185L30.4013 211.39C29.6512 211.206 28.927 211.774 28.927 212.546V215.793C28.927 216.242 28.6745 216.652 28.2739 216.855L25.9161 218.048C25.441 218.288 24.8793 217.943 24.8793 217.411V212.975C24.8793 212.238 24.2171 211.679 23.4907 211.801L20.0835 212.376C19.139 212.536 18.4026 211.571 18.8052 210.702Z" fill="#368A80"/>
<path d="M4.75829 216.416L12.1172 200.529C12.5509 199.592 13.8893 199.613 14.293 200.563L20.9734 216.277C21.357 217.18 20.5462 218.133 19.5939 217.899L16.3545 217.104C15.6043 216.92 14.8801 217.487 14.8801 218.26V221.507C14.8801 221.956 14.6276 222.366 14.2271 222.569L11.8692 223.762C11.3941 224.002 10.8325 223.657 10.8325 223.125V218.689C10.8325 217.952 10.1702 217.392 9.44384 217.515L6.03666 218.09C5.09217 218.25 4.35571 217.285 4.75829 216.416Z" fill="#368A80"/>
<path d="M31.4263 206.654L38.7852 190.767C39.2189 189.83 40.5572 189.852 40.961 190.801L47.6413 206.515C48.025 207.418 47.2142 208.371 46.2619 208.137L43.0224 207.342C42.2723 207.158 41.5481 207.726 41.5481 208.498V211.745C41.5481 212.194 41.2956 212.605 40.895 212.807L38.5372 214C38.0621 214.241 37.5004 213.895 37.5004 213.363V208.927C37.5004 208.191 36.8382 207.631 36.1118 207.753L32.7046 208.328C31.7601 208.488 31.0237 207.523 31.4263 206.654Z" fill="#368A80"/>
<circle cx="53.3597" cy="928.471" r="6.0941" fill="#F7F7F7" fill-opacity="0.4"/>
<circle cx="252.777" cy="1037.89" r="4.63589" fill="#F7F7F7" fill-opacity="0.1"/>
<circle cx="59.0954" cy="922.879" r="4.16965" fill="#F7F7F7" fill-opacity="0.6"/>
<circle cx="253.847" cy="926.985" r="3.56607" fill="#DCE4E9"/>
<circle cx="245.289" cy="914.148" r="3.56607" fill="#DCE4E9"/>
<circle cx="240.299" cy="989.035" r="5.70571" fill="#F7F7F7" fill-opacity="0.2"/>
<circle cx="238.159" cy="962.646" r="5.70571" fill="#F7F7F7" fill-opacity="0.3"/>
<circle cx="250.639" cy="944.459" r="6.77553" fill="#F7F7F7" fill-opacity="0.4"/>
<defs>
<radialGradient id="paint0_radial_1697_62946" cx="0" cy="0" r="1" gradientUnits="userSpaceOnUse" gradientTransform="translate(358.5 179.5) rotate(1.22061) scale(704.16 411.43)">
<stop stop-color="#EFF9D6"/>
<stop offset="0.291667" stop-color="#9EF4EA"/>
<stop offset="1" stop-color="#56B8AC"/>
</radialGradient>
<linearGradient id="paint1_linear_1697_62946" x1="608.392" y1="128" x2="608.392" y2="291.537" gradientUnits="userSpaceOnUse">
<stop stop-color="#71DACD"/>
<stop offset="1" stop-color="#7CF3E5"/>
</linearGradient>
<linearGradient id="paint2_linear_1697_62946" x1="658.872" y1="276.693" x2="742.634" y2="156.463" gradientUnits="userSpaceOnUse">
<stop stop-color="#E1FFFB"/>
<stop offset="1" stop-color="#75EDDF"/>
</linearGradient>
<linearGradient id="paint3_linear_1697_62946" x1="301.22" y1="154" x2="301.22" y2="222.645" gradientUnits="userSpaceOnUse">
<stop stop-color="#71DACD"/>
<stop offset="1" stop-color="#7CF3E5"/>
</linearGradient>
<linearGradient id="paint4_linear_1697_62946" x1="536.589" y1="213.596" x2="536.359" y2="250.114" gradientUnits="userSpaceOnUse">
<stop stop-color="#A9FFF5"/>
<stop offset="1" stop-color="#F7F7F7"/>
</linearGradient>
<linearGradient id="paint5_linear_1697_62946" x1="536.589" y1="233.388" x2="536.429" y2="263.903" gradientUnits="userSpaceOnUse">
<stop stop-color="#A9FFF5"/>
<stop offset="1" stop-color="#F7F7F7"/>
</linearGradient>
</defs>
</svg>
