<svg xmlns="http://www.w3.org/2000/svg" version="1.1" viewBox="0 0 2048 2036" width="512" height="512">
  <path transform="translate(0)" d="m0 0h2048v2036h-2048z" fill="#2F3E4A"/>
  <path transform="translate(1110,1016)" d="m0 0 10 2 73 21 6 7 7 10 1 1 89 1 23 11 22 11 6 7 2 5v61l-11 10-13 10-11 7-94 47-14 5-20 4-2 1 3 4 9-1 64-16 19-14 4-3 7 1 36 10 25 7 15 5 5-1 8-5 79 1 8 8v2h2l5 5 5 3 11 4 13 2 69 5 5 1 4-19 3-11h12l85 5 10 1 8 7 9 10 2 12 5 52 1 4 4 2 16 12 10 3 25 4 9 1 3-11 4-12 4-1 52 6h14l21-6h9l26 6h11l33-6h2l1-41 10-2 31-4h15l28 3 5 1v765h-2048v-606l30-5 21-3h85l-3-6-12-16-7-5-23-11-6-3 2-5 8-8 6 2 32 14 17 4 79 14 13 3 45 18 11 4 18 1v-13l-10-3-18-7-3-6-10-40 1-8 10-29 4-6h2l1-3h2l1-3h2l1-3h2v-2l5-4 10-13 12-19 7-9 9-5h7l25 6 32 5 4 2-5 63v19l10 64 1 26v16l-3 5-9 10-9 11-12 13-7 8-5 4-5 3 23-3 13-2 8-7 11-12 9-11 11-12 4-6 4-20 3-16-11-3-7-3-1-71-5-39 1-4 4-4 29-1 3 3 10 24 2 3 28 5h8l9-10-26 3-6 1h-8l-1-4 1-24 11 1 24 4-5-20 1-4 18-5h7l66 22 6 4 20 20 2 8 5 33 5-2 12-8-3-10-14-37-9-7-18-13-14-10-5-8-7-14-1-4v-15l3-3 9-4 46-6h98l-8-18-10-7v-10l1-1 9-1 8-22 7-6 44-26 14-7 114-38 9-2 35 5 16 1 23-9 37-13 16-2h2l2-6 9-17 13-8 23-13z" fill="#4dc5b3"/>
  <path transform="translate(2038,1803)" d="m0 0h10v233h-52l3-9v-7l-5-29-12-2-8-16-4-7-32 5h-45l-1-11-22-12-1-2v-11l21-13 13-9 10-10 8-7 7-7 8-7 8-8 8-7 10-10 8-7 9-9 8-7 9-8 33-22z" fill="#2F3E4A"/>
  <path transform="translate(292,1051)" d="m0 0h15l9 1v18l-110 44-33 13-12 7-14 11-9 7-11 8-11 9-24 18h-2v2l-8 7-39 39-5 8-6 9-8 14-7 10-8 16-5 12-2 5v6l7 3 1 2 4 1 3 2 4 2 7 6 8 11 5 6-1 6-4 7-9-1-25-7-2-1v-160h2l2-5 7-8 4-6 5-6 8-10 7-9 8-7 17-13 20-16 10-7 22-10 12-5 13-4 84-15 17-4 36-12 10-3z" fill="#4dc5b3"/>
  <path transform="translate(924,819)" d="m0 0 16 2 13 3 9 7 18 18 5 7v10l-16 16v2l16 5 6 1v18l4-2 8-2 10-4 9-3h5l5 4 1 2v52l-7 3-17 3h-12l-21-3-31-5-8-1-10-2-1-1-1-12-9-1-20-4-2-5-3-13v-6l17-9 3-1-11 1-30 5-21 4-1-1v-15l4-9 6-9 10-16 7-12 7-6z" fill="#4dc5b3"/>
  <path transform="translate(1923,1088)" d="m0 0 12 2 13 4 21 11 1 1v11h13v-12l12 1-1-12 12 2 12 3 9 8 3 3 9-1 9-2v34l-26-5-3-1 7 18 3 9v2l-27 1-1-1-1-24-4 1h-7l5 23-7 2-47 4h-12l-28-28-1-6 2-7 2-14 2-9 11-7z" fill="#4dc5b3"/>
  <path transform="translate(1074,939)" d="m0 0 11 1 36 8 10 3 15 9 11 7 1 1v12l-47 4-29 2-11 4-12 5-8 3-15-5-2-1 1-3h2l2-6 9-10 4-6 6-7 12-16z" fill="#4dc5b3"/>
  <path transform="translate(2023,1972)" d="m0 0 3 1 10 16 2 15 2 13 1 10 1 2v7h-29v-38l2-3 3-9 4-10z" fill="#4dc5b3"/>
  <path transform="translate(0,825)" d="m0 0 6 2 17 9 3 3 4 7 6 8 22 11 1 3-5 10-14-2-15-3-10-12-7-9-4-3-4 1z" fill="#4dc5b3"/>
  <path transform="translate(1972,1214)" d="m0 0h10l33 4 10 5 10 7 1 1v11l-7-1-12-3-4-2v-11l-12 8-9 7-4 1-9-14-7-11z" fill="#4dc5b3"/>
</svg>
