<svg width="100%" height="100%" viewBox="0 0 375 373" fill="none" xmlns="http://www.w3.org/2000/svg">
<g clip-path="url(#clip0_6293_173997)">
<path d="M0 -72H375V199H0V-72Z" fill="#56B8AC"/>
<path d="M68.762 99.7439L106.149 72.905C109.07 70.8079 113.034 70.9296 115.821 73.2019L135.358 89.1303C137.832 91.1473 141.272 91.4915 144.096 90.0047L144.419 89.8346C147.162 88.391 150.493 88.6703 152.957 90.5504L164.821 99.604C167.509 101.656 171.201 101.785 174.026 99.9254L188.822 90.1886C191.354 88.5224 194.613 88.4387 197.227 89.9727L214.098 99.8725C217.257 101.726 221.274 101.185 223.83 98.5608L242.739 79.1455C245.231 76.5862 249.124 76.0009 252.259 77.7141L306.289 107.239C308.843 108.635 310.432 111.314 310.432 114.225V151.541C310.432 155.919 306.895 159.476 302.517 159.501L8.23669 161.191C3.82244 161.217 0.230469 157.645 0.230469 153.231V112.173C0.230469 109.092 2.00736 106.289 4.79273 104.974L37.7074 89.4361C40.2869 88.2184 43.3208 88.474 45.6602 90.106L59.5652 99.806C62.3338 101.737 66.0196 101.713 68.762 99.7439Z" fill="url(#paint0_linear_6293_173997)"/>
<path d="M375 20.3173C375 -40.0848 375 23.1235 375 -72H121.946H15.3858C8.55224 -59.0819 3 20.6327 3 20.6327C3 20.6327 154.359 191.43 341.069 191.43C353.938 191.43 365.195 193.92 375 191.43C375 191.43 375 329.044 375 20.3173Z" fill="url(#paint1_radial_6293_173997)"/>
<rect width="67.1316" height="14.059" transform="matrix(1 0 0 -1 312.215 32.7939)" fill="url(#paint2_linear_6293_173997)"/>
<rect width="67.1316" height="14.059" transform="matrix(-4.37114e-08 1 1 4.37114e-08 338.75 -5.23584)" fill="url(#paint3_linear_6293_173997)"/>
<circle cx="9.48981" cy="9.48981" r="9.48981" transform="matrix(1 0 0 -1 335.789 37.9795)" fill="white"/>
<path d="M294.087 66.9908C293.298 67.524 286.793 74.7088 286.3 75.0469C285.808 75.385 281.864 71.2995 280.978 71.3743C280.516 71.4133 279.455 70.6539 278.249 69.627C275.335 67.1451 270.749 67.3578 268.319 70.3157C260.938 79.3005 247.394 94.7528 244.227 94.7528C241.362 94.7528 236.133 91.245 233.185 89.0847C231.889 88.1351 230.158 88.1153 228.961 89.187C218.578 98.4821 178.027 137.6 174.238 137.6C170.137 137.6 29.53 161.962 26.9274 162.413C26.8463 162.428 26.8628 162.426 26.7825 162.444C25.2747 162.789 8.4628 166.859 3.76147 177.705C2.43262 180.771 5.25519 183.592 8.5965 183.592H369.048C372.389 183.592 375.098 180.883 375.098 177.542V104.113C343.164 95.4722 294.875 66.4577 294.087 66.9908Z" fill="url(#paint4_linear_6293_173997)"/>
<path d="M104.892 118.43L121.756 127.649C123.26 128.471 125.013 128.714 126.683 128.33L136.525 126.071C137.362 125.88 138.226 125.843 139.076 125.963L153.595 128.022C157.198 128.533 159.81 131.717 159.606 135.351L158.269 159.155C158.06 162.866 154.991 165.768 151.275 165.768H0V96.2954L27.6961 111.839L52.9274 126.082C54.4207 126.925 56.1714 127.191 57.8477 126.83L100.055 117.728C101.699 117.374 103.416 117.623 104.892 118.43Z" fill="url(#paint5_linear_6293_173997)"/>
<path d="M255.185 85.5157C260.302 79.3864 266.121 72.3729 269.615 68.1994C271.435 66.0258 274.331 65.7738 276.545 67.5432L281.879 71.8041C284.305 73.7423 287.804 73.5291 289.977 71.3108L290.926 70.3418C292.821 68.4074 295.77 67.9676 298.147 69.265L309.336 75.3726C313.853 77.8386 313.424 84.4605 308.626 86.3229L300.026 89.6609C298.712 90.1712 297.221 89.8753 296.2 88.9016L294.802 87.5669C293.127 85.9683 290.347 87.0489 290.192 89.3591C290.036 91.682 287.23 92.7565 285.562 91.1324L285.423 90.9969C283.636 89.2566 280.635 90.5232 280.635 93.0179V95.2823C280.635 97.368 278.944 99.0587 276.859 99.0587H271.369C269.621 99.0587 267.959 98.3029 266.81 96.9859L259.84 88.9968C259.266 88.3382 258.321 88.146 257.535 88.5276C255.652 89.4414 253.843 87.122 255.185 85.5157Z" fill="#A1FCF1"/>
<path d="M183.854 117.207L183.724 116.104C183.644 116.03 183.615 115.56 183.615 115.56C183.615 115.56 183.659 114.899 183.615 114.729V113.856V113.302L183.486 112.355C183.382 112.68 183.174 113.358 183.174 113.473V114.017C183.158 114.562 183.108 115.699 183.035 115.883C182.963 116.068 183.005 116.299 183.035 116.391C183.001 116.518 182.916 116.785 182.854 116.842C182.791 116.9 182.686 116.962 182.642 116.986L181.953 117.207C181.826 117.295 181.588 117.466 181.65 117.437C181.728 117.401 182.109 117.345 182.213 117.345H182.932V118.432H182.642L182.334 118.34L181.002 118.636L180.786 118.94H180.949C181.183 118.907 181.699 118.825 181.893 118.755C182.087 118.686 182.614 118.784 182.854 118.843V120.145C182.783 120.198 182.556 120.327 182.213 120.417C181.87 120.507 181.643 120.526 181.572 120.525C181.177 120.554 180.371 120.626 180.308 120.684C180.246 120.741 179.525 121.147 179.369 121.269L180.017 121.199L180.235 121.12C180.285 121.12 180.497 120.992 180.594 120.992C180.691 120.992 181.161 120.904 181.161 120.904C181.425 120.873 182.054 120.812 182.455 120.812H182.854V121.514C182.858 121.648 182.864 121.961 182.854 122.145C182.843 122.33 182.875 122.524 182.854 122.562L182.551 122.761H182.213C182.126 122.78 181.838 122.831 181.378 122.889C180.802 122.961 180.586 123.012 180.386 123.033C180.187 123.053 179.837 123.284 179.763 123.284C179.704 123.284 179.444 123.523 179.322 123.643C179.524 123.59 180.161 123.376 180.161 123.376C180.161 123.376 180.56 123.32 180.762 123.284C180.965 123.284 181.468 123.231 181.53 123.231C181.608 123.231 182.23 123.284 182.533 123.284C182.776 123.284 182.796 123.345 182.776 123.376V123.643V124.581C182.608 124.605 182.016 124.569 181.953 124.581C181.875 124.597 181.482 124.617 181.161 124.725C180.841 124.833 180.555 124.817 180.235 124.853C179.979 124.882 179.483 125.063 179.209 125.161L178.937 125.52L180.066 125.161H181.65H182.551C182.642 125.161 182.731 125.425 182.731 125.425L182.642 126.602L182.551 127.181L182.334 129.166H184.079L183.949 127.489L183.812 126.602L183.788 126.28L183.724 124.853C183.907 124.698 184.324 124.386 184.529 124.386C184.784 124.386 185.122 124.279 185.334 124.279C185.546 124.279 185.955 124.166 185.955 124.166C185.955 124.166 186.439 124.251 186.555 124.166L187.918 124.386L187.446 124.166C187.264 124.166 186.832 123.915 186.555 123.915C186.208 123.915 186.109 123.786 185.537 123.786H184.771C184.65 123.786 184.089 123.733 183.724 123.643V122.145C183.784 122.068 183.854 121.914 184.079 121.914H185.122H185.955C186.288 121.914 186.805 122.032 187.101 122.192C187.238 122.267 187.685 122.446 187.685 122.446L186.985 121.846C186.809 121.822 186.332 121.696 186.204 121.638C186.044 121.566 186.109 121.663 185.537 121.514C184.966 121.366 184.877 121.314 184.691 121.314C184.542 121.314 184.126 121.12 183.949 121.12L183.797 120.612V119.66C183.799 119.725 183.934 119.604 184.148 119.675C184.442 119.675 184.36 119.698 185.122 119.77C185.884 119.842 185.905 119.847 186.416 119.914C186.927 119.981 186.775 119.975 186.944 119.975C187.079 119.975 187.21 120.018 187.222 119.975C187.131 119.936 186.865 119.725 186.827 119.709C186.749 119.675 186.546 119.737 186.446 119.658C186.402 119.673 186.3 119.599 186.141 119.562C185.942 119.516 185.698 119.423 185.698 119.423C185.698 119.423 185.472 119.334 185.239 119.334C185.005 119.334 185.117 119.319 184.771 119.253C184.425 119.186 184.39 119.181 184.273 119.145C184.157 119.109 183.989 119.077 183.894 119.052C183.818 119.031 183.854 119.006 183.854 118.94V118.217C183.946 118.189 184.235 118.135 184.273 118.135H184.529H184.853C185.04 118.094 185.437 118.012 185.537 118.012C185.663 118.012 185.996 118.012 186.204 118.135C186.412 118.258 186.645 118.217 186.715 118.217H186.901L186.446 118.012L186.204 117.93C186.08 117.89 185.794 117.81 185.646 117.801C185.459 117.791 185.265 117.755 184.853 117.719C184.442 117.683 184.234 117.637 184.079 117.601C183.954 117.573 183.877 117.326 183.854 117.207Z" fill="#5DC7BA"/>
<path d="M188.888 119.823L188.978 119.068C189.033 119.017 189.053 118.695 189.053 118.695C189.053 118.695 189.023 118.242 189.053 118.126V117.528V117.148L189.143 116.5C189.215 116.722 189.359 117.187 189.359 117.266V117.638C189.37 118.012 189.404 118.79 189.454 118.917C189.505 119.043 189.475 119.201 189.454 119.264C189.478 119.351 189.537 119.534 189.58 119.574C189.623 119.613 189.696 119.656 189.727 119.672L190.204 119.823C190.291 119.884 190.457 120.001 190.413 119.981C190.359 119.956 190.096 119.918 190.024 119.918H189.526V120.663H189.727L189.94 120.599L190.862 120.802L191.012 121.01H190.899C190.737 120.988 190.38 120.932 190.246 120.884C190.111 120.836 189.746 120.904 189.58 120.944V121.836C189.629 121.872 189.786 121.96 190.024 122.022C190.261 122.084 190.418 122.097 190.467 122.096C190.741 122.116 191.299 122.165 191.342 122.205C191.385 122.244 191.885 122.522 191.993 122.605L191.544 122.558L191.393 122.503C191.358 122.503 191.212 122.415 191.145 122.415C191.078 122.415 190.752 122.356 190.752 122.356C190.569 122.335 190.134 122.292 189.856 122.292H189.58V122.774C189.577 122.865 189.573 123.079 189.58 123.206C189.587 123.332 189.565 123.465 189.58 123.491L189.79 123.627H190.024C190.084 123.64 190.283 123.676 190.602 123.715C191.001 123.764 191.151 123.799 191.288 123.813C191.426 123.827 191.669 123.985 191.72 123.985C191.761 123.985 191.941 124.149 192.026 124.231C191.886 124.195 191.444 124.049 191.444 124.049C191.444 124.049 191.168 124.01 191.029 123.985C190.888 123.985 190.54 123.95 190.497 123.95C190.443 123.95 190.012 123.985 189.802 123.985C189.634 123.985 189.62 124.028 189.634 124.049V124.231V124.874C189.75 124.891 190.16 124.866 190.204 124.874C190.258 124.885 190.53 124.899 190.752 124.973C190.974 125.046 191.172 125.036 191.393 125.06C191.571 125.08 191.914 125.204 192.104 125.271L192.292 125.517L191.51 125.271H190.413H189.79C189.727 125.271 189.665 125.452 189.665 125.452L189.727 126.258L189.79 126.655L189.94 128.015H188.732L188.822 126.866L188.917 126.258L188.934 126.037L188.978 125.06C188.851 124.954 188.562 124.741 188.421 124.741C188.244 124.741 188.01 124.667 187.863 124.667C187.716 124.667 187.434 124.59 187.434 124.59C187.434 124.59 187.098 124.648 187.018 124.59L186.074 124.741L186.401 124.59C186.527 124.59 186.826 124.418 187.018 124.418C187.258 124.418 187.327 124.329 187.722 124.329H188.253C188.337 124.329 188.725 124.293 188.978 124.231V123.206C188.936 123.153 188.888 123.048 188.732 123.048H188.01H187.434C187.203 123.048 186.845 123.128 186.639 123.238C186.545 123.289 186.236 123.412 186.236 123.412L186.72 123.001C186.842 122.984 187.172 122.898 187.261 122.858C187.372 122.809 187.327 122.875 187.722 122.774C188.118 122.672 188.179 122.637 188.308 122.637C188.411 122.637 188.699 122.503 188.822 122.503L188.927 122.155V121.504C188.926 121.548 188.833 121.465 188.684 121.514C188.481 121.514 188.537 121.529 188.01 121.579C187.483 121.628 187.468 121.632 187.114 121.677C186.76 121.723 186.865 121.719 186.748 121.719C186.655 121.719 186.564 121.749 186.556 121.719C186.619 121.693 186.803 121.548 186.829 121.537C186.883 121.514 187.024 121.556 187.093 121.502C187.124 121.513 187.194 121.462 187.304 121.436C187.442 121.405 187.611 121.341 187.611 121.341C187.611 121.341 187.767 121.28 187.929 121.28C188.091 121.28 188.013 121.27 188.253 121.225C188.492 121.179 188.516 121.175 188.597 121.151C188.678 121.126 188.794 121.104 188.86 121.087C188.913 121.073 188.888 121.055 188.888 121.01V120.515C188.824 120.496 188.624 120.459 188.597 120.459H188.421H188.196C188.067 120.431 187.792 120.374 187.722 120.374C187.635 120.374 187.405 120.374 187.261 120.459C187.117 120.543 186.955 120.515 186.907 120.515H186.778L187.093 120.374L187.261 120.318C187.347 120.291 187.544 120.236 187.647 120.23C187.776 120.223 187.911 120.199 188.196 120.174C188.48 120.15 188.624 120.118 188.732 120.093C188.819 120.074 188.872 119.905 188.888 119.823Z" fill="#5DC7BA"/>
<path d="M60.813 144.246L68.6621 127.301C69.2421 126.049 71.032 126.077 71.5719 127.347L78.6773 144.061C79.1903 145.268 78.106 146.543 76.8325 146.23L73.9833 145.53C72.9801 145.284 72.0116 146.044 72.0116 147.077V150.258C72.0116 150.858 71.6739 151.408 71.1383 151.679L69.764 152.374C68.705 152.91 67.4532 152.14 67.4532 150.953V147.537C67.4532 146.551 66.5675 145.803 65.5961 145.967L62.5227 146.486C61.2596 146.699 60.2746 145.409 60.813 144.246Z" fill="#5FCBBE"/>
<path d="M75.7818 142.746L84.7055 123.48C85.2855 122.228 87.0754 122.256 87.6154 123.526L95.7071 142.56C96.2201 143.767 95.1358 145.042 93.8623 144.729L90.2131 143.833C89.2099 143.587 88.2414 144.347 88.2414 145.38V149.187C88.2414 149.787 87.9037 150.337 87.368 150.608L85.5328 151.536C84.4738 152.072 83.2219 151.302 83.2219 150.116V145.901C83.2219 144.916 82.3363 144.167 81.3649 144.331L77.4914 144.985C76.2283 145.198 75.2434 143.908 75.7818 142.746Z" fill="#5FCBBE"/>
<path d="M92.6568 140.199L101.581 120.933C102.161 119.68 103.95 119.709 104.49 120.979L112.582 140.013C113.095 141.22 112.011 142.495 110.737 142.182L107.088 141.286C106.085 141.04 105.116 141.799 105.116 142.832V146.64C105.116 147.24 104.779 147.789 104.243 148.06L102.408 148.989C101.349 149.525 100.097 148.755 100.097 147.568V143.354C100.097 142.368 99.2113 141.62 98.2399 141.784L94.3664 142.438C93.1033 142.651 92.1184 141.361 92.6568 140.199Z" fill="#5FCBBE"/>
<path d="M313.053 121.569C300.834 125.933 253.42 105.999 197.496 126.442C192.733 128.183 165.896 123.105 159.722 126.442C141.507 136.286 93.954 149.095 85.1337 149.095C76.3135 149.095 -0.00088501 160.6 -0.00088501 160.6C-0.00088501 160.6 -0.00088501 174.763 -0.00088501 192.683L375.098 195.055V119.752C351.034 114.889 319.284 123.526 313.053 121.569Z" fill="url(#paint6_linear_6293_173997)"/>
<path d="M375 150C306.037 154.004 274.851 162.869 205.581 162.869C136.31 162.869 0 164.551 0 164.551V180.769C0 180.769 0 282.124 0 295.412C0 295.412 36.1646 325 104.346 325C169.62 325 196.945 301.031 276.5 301.031C327.491 301.031 375 311.628 375 311.628V150Z" fill="url(#paint7_linear_6293_173997)"/>
<path d="M329.559 126.258L339.401 105.011C339.981 103.759 341.77 103.788 342.31 105.058L351.244 126.073C351.757 127.28 350.673 128.555 349.4 128.242L345.067 127.178C344.064 126.932 343.096 127.691 343.096 128.724V133.067C343.096 133.667 342.758 134.216 342.222 134.487L339.069 136.083C338.434 136.404 337.682 135.942 337.682 135.23V129.298C337.682 128.313 336.797 127.564 335.825 127.728L331.269 128.497C330.006 128.711 329.021 127.421 329.559 126.258Z" fill="#368A80"/>
<path d="M346.438 120.845L356.279 99.5983C356.86 98.346 358.649 98.3745 359.189 99.6446L368.123 120.66C368.636 121.867 367.552 123.141 366.278 122.829L361.946 121.765C360.943 121.519 359.974 122.278 359.974 123.311V127.653C359.974 128.254 359.637 128.803 359.101 129.074L355.948 130.669C355.312 130.991 354.561 130.529 354.561 129.817V123.885C354.561 122.9 353.676 122.151 352.704 122.315L348.148 123.084C346.885 123.298 345.9 122.008 346.438 120.845Z" fill="#368A80"/>
<path d="M15.7248 118.071C15.7461 117.497 16.2179 117.042 16.7927 117.042C17.3716 117.042 17.8452 117.503 17.8609 118.082L19.0799 163.187C19.0944 163.725 18.6627 164.168 18.125 164.168H15.0031C14.4617 164.168 14.0284 163.719 14.0485 163.177L15.7248 118.071Z" fill="#326C65"/>
<path d="M10.5078 134.288C10.5078 133.978 10.7492 133.722 11.0585 133.704L17.3316 133.33C17.7755 133.304 18.1499 133.657 18.1499 134.101C18.1499 134.528 17.8041 134.874 17.3775 134.874H11.0933C10.77 134.874 10.5078 134.612 10.5078 134.288Z" fill="#326C65"/>
<path d="M23.5608 133.167C23.5048 133.552 23.1614 133.847 22.7709 133.847L17.6112 133.843C17.0453 133.842 16.6294 133.364 16.7107 132.807C16.7873 132.281 17.2787 131.891 17.8082 131.935L22.9239 132.365C23.3352 132.4 23.6204 132.759 23.5608 133.167Z" fill="#326C65"/>
<path d="M22.0827 126.61C22.0464 126.859 21.8227 127.049 21.57 127.046L17.5528 126.998C17.1882 126.994 16.9225 126.685 16.9749 126.325C17.0247 125.984 17.3438 125.73 17.6878 125.759L21.6736 126.094C21.9378 126.117 22.1209 126.347 22.0827 126.61Z" fill="#326C65"/>
<path d="M24.5888 139.893C24.5578 140.356 24.1771 140.729 23.7123 140.751L17.8128 141.031C17.1383 141.063 16.5971 140.513 16.642 139.841C16.6843 139.208 17.2327 138.714 17.8668 138.739L23.7543 138.966C24.2481 138.985 24.6217 139.4 24.5888 139.893Z" fill="#326C65"/>
<path d="M7.17935 145.237C7.14097 144.855 7.40615 144.505 7.78514 144.439L14.8901 143.201C15.4348 143.106 15.9423 143.491 15.9975 144.04C16.0503 144.566 15.667 145.04 15.1414 145.097L7.97638 145.883C7.57636 145.927 7.21952 145.638 7.17935 145.237Z" fill="#326C65"/>
<path d="M8.86084 137.358C8.8664 137.012 9.14057 136.729 9.4858 136.713L16.816 136.361C17.3109 136.337 17.7211 136.735 17.7131 137.23C17.7054 137.706 17.3134 138.088 16.8375 138.083L9.50211 138.015C9.14215 138.012 8.85505 137.718 8.86084 137.358Z" fill="#326C65"/>
</g>
<path d="M247.926 339.389C247.926 331.768 254.103 325.591 261.724 325.591H279.762C281.907 325.591 283.645 327.329 283.645 329.473V338.791C283.645 340.936 281.907 342.674 279.762 342.674H251.211C249.397 342.674 247.926 341.203 247.926 339.389Z" fill="#D9E2E9"/>
<path d="M340.332 339.389C340.332 331.768 334.155 325.591 326.534 325.591H317.037C314.893 325.591 313.154 327.329 313.154 329.473V338.791C313.154 340.936 314.893 342.674 317.037 342.674H337.047C338.861 342.674 340.332 341.203 340.332 339.389Z" fill="#D9E2E9"/>
<path d="M266.869 230.341C267.135 227.552 269.478 225.422 272.28 225.422L320.789 225.422C323.526 225.422 325.835 227.457 326.181 230.172L338.775 329.116C339.189 332.365 336.658 335.238 333.383 335.238L318.8 335.238C316.197 335.238 313.959 333.393 313.464 330.838L302.962 276.693C301.809 270.749 293.265 270.858 292.265 276.83L283.241 330.701C282.802 333.32 280.535 335.238 277.88 335.238L262.836 335.238C259.63 335.238 257.12 332.478 257.425 329.286L266.869 230.341Z" fill="#5FD1C3"/>
<path d="M245.925 134.819C247.062 133.294 249.137 132.817 250.826 133.693L312.669 165.781C314.799 166.886 315.427 169.64 313.986 171.559L296.211 195.229C294.839 197.056 292.194 197.309 290.501 195.776L239.375 149.484C237.892 148.141 237.672 145.89 238.868 144.285L245.925 134.819Z" fill="#95B9D0"/>
<path d="M274.753 160.349C276.968 146.396 289 136.124 303.128 136.124H328.684C332.115 136.124 334.896 138.905 334.896 142.336V244.835C334.896 248.265 332.115 251.047 328.684 251.047H267.628C263.808 251.047 260.894 247.633 261.493 243.86L274.753 160.349Z" fill="#708DA0"/>
<circle cx="313.93" cy="114.382" r="21.7421" fill="#B97965"/>
<path d="M335.804 91.1711C345.075 99.8282 344.952 115.305 336.041 127.164C334.753 128.878 332.275 128.952 330.708 127.489L299.92 98.7404C298.353 97.277 298.257 94.7997 299.879 93.3973C311.1 83.6953 326.533 82.5141 335.804 91.1711Z" fill="#5FD1C3"/>
<path d="M296.178 150.142C298.54 136.346 310.5 126.261 324.496 126.261H335.13C338.56 126.261 341.342 129.042 341.342 132.473V165.862C341.342 169.293 338.56 172.074 335.13 172.074H299.788C295.938 172.074 293.015 168.609 293.665 164.814L296.178 150.142Z" fill="#708DA0"/>
<path d="M286.435 232.264C284.51 231.955 283.113 230.265 283.17 228.316L285.283 156.497C285.622 144.987 295.631 136.167 307.092 137.28C318.132 138.351 325.517 149.146 322.515 159.823L302.407 231.348C301.873 233.247 300.001 234.444 298.053 234.131L286.435 232.264Z" fill="#95B9D0"/>
<path d="M104.362 354.177C101.109 355.906 97.0712 354.671 95.3424 351.419L95.2115 351.172C93.4827 347.92 94.7179 343.882 97.9703 342.153C101.223 340.424 105.261 341.659 106.99 344.912L107.121 345.158C108.849 348.41 107.614 352.449 104.362 354.177Z" fill="#F1F4F8"/>
<path d="M290.961 228.269C292.488 227.488 294.36 228.093 295.141 229.62L297.082 233.416C297.863 234.943 297.258 236.814 295.731 237.595L288.699 241.192L283.929 231.866L290.961 228.269Z" fill="#326C65"/>
<rect x="278.176" y="220.323" width="36.0195" height="220.716" rx="5.43553" transform="rotate(62.9138 278.176 220.323)" fill="#58BBAF"/>
<path d="M291.949 247.269L292.172 247.704C293.539 250.377 292.48 253.652 289.808 255.019L102.978 350.568C100.306 351.934 97.031 350.876 95.6641 348.203L95.4412 347.767L291.949 247.269Z" fill="#326C65"/>
<path d="M138.223 332.475L121.931 300.335L128.63 296.939L144.922 329.079L138.223 332.475Z" fill="#326C65"/>
<path d="M237.527 281.485L221.235 249.346L227.935 245.95L244.227 278.089L237.527 281.485Z" fill="#326C65"/>
<rect x="230.301" y="114.613" width="18.6361" height="34.1662" rx="1.55301" fill="#2E4453"/>
<path d="M239.62 123.817C238.984 123.817 238.363 124.006 237.834 124.359C237.306 124.712 236.894 125.214 236.651 125.801C236.408 126.388 236.344 127.034 236.468 127.658C236.592 128.281 236.898 128.854 237.347 129.303C237.797 129.752 238.369 130.059 238.993 130.183C239.616 130.306 240.262 130.243 240.849 130C241.437 129.756 241.938 129.345 242.292 128.816C242.645 128.288 242.833 127.666 242.833 127.031C242.833 126.179 242.495 125.361 241.892 124.759C241.289 124.156 240.472 123.817 239.62 123.817ZM239.62 129.123C239.206 129.123 238.802 129 238.458 128.77C238.114 128.54 237.845 128.214 237.687 127.831C237.529 127.449 237.487 127.028 237.568 126.623C237.649 126.217 237.848 125.844 238.141 125.552C238.433 125.259 238.806 125.06 239.212 124.979C239.617 124.898 240.038 124.94 240.42 125.098C240.802 125.257 241.129 125.525 241.359 125.869C241.589 126.213 241.711 126.617 241.711 127.031C241.71 127.585 241.489 128.115 241.097 128.506C240.705 128.897 240.173 129.117 239.62 129.117V129.123Z" fill="white"/>
<path d="M239.618 121.17C237.871 121.172 236.196 121.865 234.958 123.097C233.72 124.33 233.021 126.002 233.012 127.749C233.012 130.368 234.481 132.56 235.558 134.159L235.754 134.45C236.825 136.003 237.975 137.5 239.197 138.937L239.624 139.436L240.05 138.937C241.273 137.5 242.422 136.003 243.493 134.45L243.69 134.153C244.761 132.555 246.23 130.368 246.23 127.749C246.221 126.001 245.521 124.328 244.282 123.095C243.043 121.862 241.366 121.17 239.618 121.17ZM242.753 133.508L242.551 133.805C241.586 135.252 240.308 136.873 239.618 137.675C238.956 136.873 237.65 135.252 236.685 133.805L236.489 133.508C235.496 132.028 234.133 130.003 234.133 127.726C234.133 127.006 234.275 126.293 234.551 125.627C234.826 124.962 235.23 124.357 235.74 123.848C236.249 123.339 236.854 122.935 237.519 122.659C238.185 122.383 238.898 122.242 239.618 122.242C240.338 122.242 241.052 122.383 241.717 122.659C242.382 122.935 242.987 123.339 243.496 123.848C244.006 124.357 244.41 124.962 244.685 125.627C244.961 126.293 245.103 127.006 245.103 127.726C245.103 130.026 243.746 132.05 242.753 133.508Z" fill="white"/>
<path d="M224.726 133.82C224.705 136.691 225.68 139.481 227.484 141.715L230.28 145.178L230.442 133.498L230.382 128.132C230.362 126.386 228.38 125.39 226.967 126.416C225.584 127.42 224.76 129.021 224.748 130.73L224.726 133.82Z" fill="#708DA0"/>
<path d="M250.868 130.991C250.86 132.68 250.437 134.342 249.637 135.829L248.936 137.132L248.975 131.079L248.974 127.257C250.147 127.887 250.876 129.114 250.87 130.446L250.868 130.991Z" fill="#708DA0"/>
<defs>
<linearGradient id="paint0_linear_6293_173997" x1="155.427" y1="45.9495" x2="155.39" y2="161.237" gradientUnits="userSpaceOnUse">
<stop stop-color="#68E6D6"/>
<stop offset="1" stop-color="#6CFCEB" stop-opacity="0"/>
</linearGradient>
<radialGradient id="paint1_radial_6293_173997" cx="0" cy="0" r="1" gradientUnits="userSpaceOnUse" gradientTransform="translate(341.069 20.6325) rotate(-90) scale(469.633 264.444)">
<stop stop-color="#FEFFCC"/>
<stop offset="0.128125" stop-color="#7BEDE0"/>
<stop offset="1" stop-color="#5EC7BB" stop-opacity="0"/>
</radialGradient>
<linearGradient id="paint2_linear_6293_173997" x1="67.1316" y1="4.39833" x2="-1.05442" y2="4.39833" gradientUnits="userSpaceOnUse">
<stop stop-color="#C5FFF8" stop-opacity="0"/>
<stop offset="0.401042" stop-color="#FFF0CB"/>
<stop offset="1" stop-color="#C5FFF8" stop-opacity="0"/>
</linearGradient>
<linearGradient id="paint3_linear_6293_173997" x1="67.1316" y1="4.39833" x2="-1.05442" y2="4.39833" gradientUnits="userSpaceOnUse">
<stop stop-color="#C5FFF8" stop-opacity="0"/>
<stop offset="0.401042" stop-color="#FFF0CB"/>
<stop offset="1" stop-color="#C5FFF8" stop-opacity="0"/>
</linearGradient>
<linearGradient id="paint4_linear_6293_173997" x1="172.168" y1="64.5029" x2="172.168" y2="144.649" gradientUnits="userSpaceOnUse">
<stop stop-color="#71DACD"/>
<stop offset="1" stop-color="#7CF3E5"/>
</linearGradient>
<linearGradient id="paint5_linear_6293_173997" x1="79.9835" y1="96.2954" x2="79.9835" y2="178.049" gradientUnits="userSpaceOnUse">
<stop stop-color="#76E6D8"/>
<stop offset="1" stop-color="#7DEEE0"/>
</linearGradient>
<linearGradient id="paint6_linear_6293_173997" x1="178.541" y1="124.791" x2="178.886" y2="151.837" gradientUnits="userSpaceOnUse">
<stop stop-color="#A9FFF5"/>
<stop offset="1" stop-color="#F7F7F7"/>
</linearGradient>
<linearGradient id="paint7_linear_6293_173997" x1="187.5" y1="127.069" x2="187.5" y2="203.233" gradientUnits="userSpaceOnUse">
<stop stop-color="white"/>
<stop offset="1" stop-color="#F0F0F0"/>
</linearGradient>
<clipPath id="clip0_6293_173997">
<rect width="375" height="365" fill="white"/>
</clipPath>
</defs>
</svg>
