<svg width="100%" height="100%" viewBox="0 0 1440 557" fill="none" xmlns="http://www.w3.org/2000/svg">
<g clip-path="url(#clip0_6577_159033)">
<g clip-path="url(#clip1_6577_159033)">
<path d="M-15.0508 -211.447H1457.92V434.595H-15.0508V-211.447Z" fill="#56B8AC"/>
<path d="M255.318 42.5334L402.044 -62.7972C413.509 -71.0271 429.067 -70.5494 440.005 -61.6318L516.678 0.879707C526.387 8.79568 539.886 10.1465 550.971 4.31133L552.239 3.64386C563.002 -2.02153 576.074 -0.925453 585.743 6.45307L632.305 41.9842C642.856 50.036 657.344 50.5419 668.431 43.2457L726.5 5.03326C736.436 -1.50581 749.225 -1.83437 759.484 4.18585L825.696 43.0381C838.095 50.3135 853.858 48.1888 863.888 37.8904L938.097 -38.3058C947.88 -48.35 963.156 -50.6469 975.459 -43.9234L1187.5 71.9494C1197.53 77.4275 1203.76 87.9405 1203.76 99.3644V245.812C1203.76 262.996 1189.88 276.954 1172.7 277.053L17.7841 283.687C0.460114 283.787 -13.6367 269.771 -13.6367 252.446V91.3103C-13.6367 79.2222 -6.66322 68.2189 4.26809 63.0586L133.443 2.07993C143.567 -2.69887 155.473 -1.69599 164.654 4.70884L219.225 42.7772C230.091 50.3572 244.556 50.2594 255.318 42.5334Z" fill="url(#paint0_linear_6577_159033)"/>
<path d="M1457.7 -78.6056C1457.7 -150.493 1457.7 -75.2657 1457.7 -188.477H892.4H654.353C639.087 -173.102 626.684 -78.2301 626.684 -78.2301C626.684 -78.2301 964.807 125.044 1381.9 125.044C1410.65 125.044 1435.8 128.007 1457.7 125.044C1457.7 125.044 1457.7 288.825 1457.7 -78.6056Z" fill="url(#paint1_radial_6577_159033)"/>
<path d="M1139.62 -86.0056C1136.53 -83.9134 1111 -55.716 1109.06 -54.3892C1107.13 -53.0624 1091.65 -69.0961 1088.17 -68.8026C1086.36 -68.6493 1082.2 -71.6298 1077.46 -75.66C1066.03 -85.4002 1048.03 -84.5654 1038.49 -72.957C1009.53 -37.6957 956.372 22.9475 943.944 22.9475C932.7 22.9475 912.18 9.18072 900.608 0.70264C895.522 -3.02391 888.728 -3.10159 884.03 1.10406C843.282 37.5832 684.14 191.103 669.268 191.103C653.172 191.103 101.355 286.715 91.1411 288.485C90.8226 288.54 90.8874 288.533 90.5724 288.605C84.6551 289.96 18.676 305.933 0.225372 348.498C-4.98981 360.53 6.08749 371.601 19.2006 371.601H1433.81C1446.92 371.601 1457.55 360.97 1457.55 347.857V59.6826C1332.23 25.7709 1142.71 -88.0979 1139.62 -86.0056Z" fill="url(#paint2_linear_6577_159033)"/>
<path d="M397.113 115.867L463.297 152.05C469.199 155.277 476.079 156.228 482.635 154.723L521.26 145.858C524.543 145.105 527.935 144.961 531.27 145.434L588.252 153.513C602.393 155.518 612.643 168.016 611.842 182.275L606.594 275.698C605.775 290.259 593.729 301.648 579.144 301.648H-14.5391V29.0005L94.1554 90.0027L193.177 145.901C199.037 149.209 205.908 150.253 212.487 148.834L378.13 113.115C384.583 111.723 391.321 112.7 397.113 115.867Z" fill="url(#paint3_linear_6577_159033)"/>
<path d="M986.94 -13.3046C1007.02 -37.3593 1029.86 -64.8841 1043.57 -81.2631C1050.71 -89.7935 1062.08 -90.7826 1070.77 -83.8386L1091.7 -67.1163C1101.22 -59.5098 1114.96 -60.3465 1123.48 -69.0524L1127.21 -72.8551C1134.65 -80.4468 1146.22 -82.173 1155.55 -77.0813L1199.46 -53.1115C1217.19 -43.4335 1215.5 -17.4456 1196.67 -10.1366L1162.92 2.96352C1157.76 4.96625 1151.91 3.80489 1147.91 -0.0162811L1142.42 -5.25451C1135.85 -11.5283 1124.94 -7.28749 1124.33 1.77904C1123.71 10.8955 1112.71 15.1123 1106.16 8.73853L1105.61 8.20665C1098.6 1.37697 1086.82 6.34748 1086.82 16.138V25.0251C1086.82 33.2102 1080.19 39.8456 1072 39.8456H1050.46C1043.6 39.8456 1037.07 36.8795 1032.56 31.7109L1005.21 0.357094C1002.96 -2.22759 999.249 -2.98195 996.164 -1.48418C988.776 2.10187 981.677 -7.00046 986.94 -13.3046Z" fill="#A1FCF1"/>
<path d="M706.998 111.068L706.489 106.741C706.177 106.453 706.064 104.608 706.064 104.608C706.064 104.608 706.234 102.011 706.064 101.347V97.9191V95.744L705.554 92.0283C705.147 93.303 704.331 95.9652 704.331 96.416V98.5495C704.269 100.69 704.073 105.151 703.788 105.876C703.502 106.6 703.669 107.506 703.788 107.868C703.652 108.365 703.319 109.414 703.074 109.639C702.829 109.865 702.417 110.109 702.242 110.203L699.541 111.068C699.042 111.417 698.107 112.087 698.352 111.974C698.657 111.833 700.152 111.612 700.56 111.612H703.38V115.879H702.242L701.036 115.517L695.807 116.679L694.958 117.871H695.6C696.517 117.744 698.542 117.421 699.303 117.147C700.064 116.873 702.134 117.261 703.074 117.489V122.601C702.797 122.809 701.905 123.314 700.56 123.668C699.215 124.022 698.323 124.097 698.046 124.091C696.494 124.205 693.33 124.489 693.085 124.715C692.841 124.94 690.01 126.534 689.398 127.01L691.943 126.738L692.797 126.425C692.995 126.425 693.824 125.923 694.205 125.923C694.585 125.923 696.432 125.58 696.432 125.58C697.468 125.459 699.935 125.218 701.511 125.218H703.074V127.975C703.091 128.498 703.115 129.726 703.074 130.451C703.033 131.175 703.159 131.938 703.074 132.085L701.885 132.866H700.56C700.22 132.94 699.089 133.144 697.281 133.369C695.022 133.651 694.173 133.852 693.391 133.933C692.61 134.013 691.234 134.919 690.945 134.919C690.714 134.919 689.694 135.858 689.212 136.328C690.005 136.12 692.508 135.281 692.508 135.281C692.508 135.281 694.071 135.06 694.864 134.919C695.663 134.919 697.635 134.714 697.88 134.714C698.186 134.714 700.628 134.919 701.817 134.919C702.768 134.919 702.848 135.16 702.768 135.281V136.328V140.011C702.111 140.105 699.785 139.963 699.541 140.011C699.235 140.071 697.689 140.152 696.432 140.575C695.175 140.997 694.054 140.937 692.797 141.078C691.791 141.191 689.846 141.903 688.77 142.285L687.702 143.694L692.134 142.285H698.352H701.885C702.242 142.285 702.592 143.323 702.592 143.323L702.242 147.941L701.885 150.215L701.036 158.005H707.882L707.372 151.423L706.833 147.941L706.739 146.676L706.489 141.078C707.208 140.467 708.846 139.246 709.648 139.246C710.651 139.246 711.976 138.824 712.808 138.824C713.64 138.824 715.244 138.381 715.244 138.381C715.244 138.381 717.145 138.716 717.598 138.381L722.949 139.246L721.098 138.381C720.384 138.381 718.686 137.395 717.598 137.395C716.239 137.395 715.849 136.889 713.606 136.889H710.6C710.124 136.889 707.921 136.683 706.489 136.328V130.451C706.726 130.149 706.998 129.545 707.882 129.545H711.976H715.244C716.552 129.545 718.581 130.004 719.745 130.635C720.282 130.927 722.034 131.632 722.034 131.632L719.287 129.276C718.596 129.182 716.725 128.686 716.222 128.46C715.594 128.179 715.849 128.559 713.606 127.975C711.364 127.391 711.015 127.19 710.284 127.19C709.7 127.19 708.068 126.425 707.372 126.425L706.777 124.433V120.698C706.783 120.954 707.313 120.478 708.153 120.757C709.308 120.757 708.986 120.846 711.976 121.128C714.965 121.41 715.05 121.432 717.055 121.694C719.059 121.955 718.465 121.935 719.127 121.935C719.657 121.935 720.171 122.103 720.216 121.935C719.859 121.781 718.818 120.953 718.669 120.889C718.363 120.757 717.564 120.998 717.174 120.689C716.998 120.75 716.6 120.457 715.975 120.312C715.194 120.131 714.237 119.768 714.237 119.768C714.237 119.768 713.352 119.419 712.434 119.419C711.517 119.419 711.959 119.361 710.6 119.099C709.241 118.837 709.105 118.817 708.646 118.676C708.187 118.536 707.53 118.411 707.156 118.31C706.857 118.23 706.998 118.129 706.998 117.871V115.033C707.361 114.926 708.497 114.711 708.646 114.711H709.648H710.922C711.653 114.55 713.212 114.228 713.606 114.228C714.099 114.228 715.407 114.228 716.222 114.711C717.038 115.194 717.955 115.033 718.227 115.033H718.957L717.174 114.228L716.222 113.906C715.735 113.752 714.615 113.435 714.031 113.403C713.301 113.363 712.536 113.222 710.922 113.081C709.309 112.94 708.493 112.759 707.882 112.618C707.392 112.506 707.089 111.538 706.998 111.068Z" fill="#5DC7BA"/>
<path d="M726.762 121.338L727.115 118.374C727.33 118.176 727.409 116.912 727.409 116.912C727.409 116.912 727.291 115.134 727.409 114.679V112.331V110.841L727.761 108.296C728.044 109.169 728.608 110.993 728.608 111.302V112.763C728.651 114.229 728.787 117.285 728.984 117.781C729.182 118.277 729.067 118.898 728.984 119.146C729.079 119.486 729.309 120.204 729.478 120.359C729.648 120.513 729.933 120.68 730.055 120.745L731.925 121.338C732.27 121.577 732.917 122.035 732.748 121.958C732.536 121.861 731.501 121.71 731.219 121.71H729.267V124.632H730.055L730.89 124.384L734.51 125.18L735.097 125.997H734.653C734.018 125.91 732.616 125.688 732.089 125.501C731.562 125.313 730.129 125.579 729.478 125.735V129.237C729.671 129.379 730.288 129.725 731.219 129.967C732.15 130.21 732.767 130.261 732.96 130.257C734.034 130.335 736.224 130.53 736.394 130.684C736.563 130.839 738.523 131.93 738.947 132.257L737.185 132.07L736.594 131.856C736.456 131.856 735.882 131.512 735.619 131.512C735.355 131.512 734.077 131.277 734.077 131.277C733.359 131.194 731.652 131.029 730.56 131.029H729.478V132.918C729.467 133.276 729.45 134.117 729.478 134.613C729.507 135.109 729.42 135.632 729.478 135.733L730.302 136.267H731.219C731.454 136.318 732.237 136.458 733.489 136.612C735.053 136.805 735.641 136.943 736.182 136.998C736.723 137.053 737.676 137.674 737.876 137.674C738.035 137.674 738.742 138.317 739.075 138.639C738.526 138.496 736.793 137.922 736.793 137.922C736.793 137.922 735.711 137.77 735.162 137.674C734.609 137.674 733.244 137.533 733.074 137.533C732.863 137.533 731.172 137.674 730.349 137.674C729.69 137.674 729.635 137.839 729.69 137.922V138.639V141.161C730.145 141.226 731.755 141.128 731.925 141.161C732.136 141.203 733.207 141.258 734.077 141.547C734.947 141.837 735.723 141.795 736.594 141.892C737.29 141.969 738.637 142.457 739.381 142.719L740.121 143.684L737.052 142.719H732.748H730.302C730.055 142.719 729.812 143.43 729.812 143.43L730.055 146.593L730.302 148.151L730.89 153.486H726.15L726.503 148.978L726.876 146.593L726.941 145.727L727.115 141.892C726.617 141.474 725.482 140.637 724.927 140.637C724.233 140.637 723.316 140.348 722.74 140.348C722.163 140.348 721.053 140.045 721.053 140.045C721.053 140.045 719.737 140.274 719.423 140.045L715.719 140.637L717 140.045C717.494 140.045 718.67 139.369 719.423 139.369C720.364 139.369 720.634 139.023 722.187 139.023H724.268C724.598 139.023 726.123 138.882 727.115 138.639V134.613C726.95 134.406 726.762 133.993 726.15 133.993H723.316H721.053C720.148 133.993 718.743 134.307 717.937 134.74C717.565 134.939 716.353 135.422 716.353 135.422L718.254 133.808C718.732 133.744 720.028 133.404 720.376 133.25C720.811 133.057 720.634 133.317 722.187 132.918C723.739 132.518 723.981 132.38 724.487 132.38C724.891 132.38 726.021 131.856 726.503 131.856L726.915 130.491V127.933C726.911 128.109 726.544 127.783 725.962 127.974C725.163 127.974 725.386 128.035 723.316 128.228C721.246 128.421 721.187 128.436 719.799 128.615C718.412 128.794 718.823 128.781 718.365 128.781C717.998 128.781 717.642 128.895 717.611 128.781C717.858 128.675 718.579 128.108 718.682 128.064C718.894 127.974 719.447 128.138 719.717 127.927C719.839 127.968 720.114 127.768 720.547 127.669C721.088 127.545 721.75 127.296 721.75 127.296C721.75 127.296 722.363 127.057 722.998 127.057C723.633 127.057 723.328 127.017 724.268 126.838C725.209 126.659 725.303 126.645 725.621 126.549C725.939 126.452 726.393 126.367 726.652 126.298C726.859 126.242 726.762 126.173 726.762 125.997V124.053C726.511 123.98 725.724 123.833 725.621 123.833H724.927H724.045C723.539 123.722 722.46 123.502 722.187 123.502C721.846 123.502 720.94 123.502 720.376 123.833C719.811 124.164 719.176 124.053 718.988 124.053H718.482L719.717 123.502L720.376 123.281C720.713 123.176 721.488 122.959 721.893 122.937C722.399 122.909 722.928 122.813 724.045 122.716C725.162 122.62 725.727 122.496 726.15 122.399C726.489 122.322 726.699 121.659 726.762 121.338Z" fill="#5DC7BA"/>
<path d="M224.129 217.187L254.933 150.684C257.209 145.769 264.234 145.881 266.353 150.865L294.238 216.459C296.251 221.196 291.996 226.199 286.998 224.972L275.816 222.226C271.879 221.26 268.078 224.24 268.078 228.295V240.78C268.078 243.136 266.753 245.292 264.651 246.355L259.258 249.084C255.101 251.187 250.189 248.166 250.189 243.509V230.1C250.189 226.233 246.713 223.295 242.9 223.939L230.839 225.975C225.881 226.811 222.016 221.749 224.129 217.187Z" fill="#5FCBBE"/>
<path d="M282.863 211.297L317.885 135.688C320.161 130.774 327.186 130.885 329.305 135.87L361.061 210.569C363.075 215.306 358.819 220.309 353.821 219.082L339.5 215.566C335.563 214.599 331.762 217.58 331.762 221.634V236.576C331.762 238.932 330.436 241.088 328.334 242.152L321.132 245.796C316.975 247.898 312.063 244.878 312.063 240.22V223.68C312.063 219.814 308.587 216.875 304.774 217.519L289.573 220.085C284.616 220.921 280.75 215.859 282.863 211.297Z" fill="#5FCBBE"/>
<path d="M349.094 201.3L384.115 125.691C386.392 120.776 393.416 120.888 395.535 125.872L427.291 200.572C429.305 205.308 425.05 210.311 420.051 209.084L405.73 205.568C401.793 204.601 397.992 207.582 397.992 211.636V226.579C397.992 228.935 396.667 231.091 394.565 232.154L387.362 235.798C383.206 237.901 378.293 234.881 378.293 230.223V213.682C378.293 209.816 374.817 206.878 371.005 207.521L355.803 210.087C350.846 210.924 346.981 205.862 349.094 201.3Z" fill="#5FCBBE"/>
<path d="M1214.05 128.188C1166.1 145.315 980.021 67.0857 760.545 147.312C741.853 154.145 636.529 134.219 612.301 147.312C540.813 185.946 354.19 236.217 319.575 236.217C284.959 236.217 -14.54 281.368 -14.54 281.368C-14.54 281.368 -14.54 336.951 -14.54 407.278L1457.55 416.588V121.057C1363.11 101.972 1238.51 135.868 1214.05 128.188Z" fill="url(#paint4_linear_6577_159033)"/>
<path d="M1457.55 258.413C1457.55 248.546 1449.31 240.631 1439.45 240.95C1181.23 249.296 1058.28 266.448 792.487 266.448C549.371 266.448 95.8978 269.17 2.53489 269.747C-7.08378 269.806 -14.5361 277.619 -14.5361 287.238V302.699C-14.5361 302.699 -14.5361 302.699 -14.5361 302.699C-14.5361 302.699 -14.5361 402.842 -14.5361 442.847C-14.5361 449.418 -10.1934 455.063 -3.79352 456.551C39.9378 466.717 211.267 503.505 400.571 503.505C656.806 503.505 783.917 461.344 1040.15 461.344C1210.2 461.344 1386.08 490.5 1440.49 500.32C1449.4 501.927 1457.55 495.075 1457.55 486.027V258.413Z" fill="url(#paint5_linear_6577_159033)"/>
<path d="M1278.84 146.593L1317.46 63.2082C1319.74 58.2936 1326.76 58.4053 1328.88 63.3898L1363.94 145.865C1365.95 150.601 1361.7 155.605 1356.7 154.377L1339.7 150.203C1335.76 149.236 1331.96 152.217 1331.96 156.271V173.312C1331.96 175.668 1330.64 177.824 1328.53 178.887L1316.16 185.148C1313.66 186.41 1310.72 184.598 1310.72 181.803V158.523C1310.72 154.657 1307.24 151.718 1303.43 152.362L1285.55 155.38C1280.59 156.217 1276.72 151.155 1278.84 146.593Z" fill="#368A80"/>
<path d="M1345.07 125.349L1383.69 41.9646C1385.97 37.05 1392.99 37.1617 1395.11 42.1461L1430.18 124.621C1432.19 129.358 1427.93 134.361 1422.94 133.134L1405.93 128.959C1402 127.993 1398.19 130.973 1398.19 135.027V152.068C1398.19 154.424 1396.87 156.58 1394.77 157.644L1382.39 163.905C1379.9 165.166 1376.95 163.354 1376.95 160.559V137.279C1376.95 133.413 1373.47 130.475 1369.66 131.118L1351.78 134.137C1346.82 134.973 1342.96 129.911 1345.07 125.349Z" fill="#368A80"/>
<path d="M47.1683 114.461C47.2521 112.207 49.1037 110.423 51.3592 110.423V110.423C53.6312 110.423 55.49 112.232 55.5514 114.503L60.3357 291.521C60.3927 293.631 58.6983 295.371 56.5881 295.371H44.3362C42.2111 295.371 40.5109 293.607 40.5898 291.483L47.1683 114.461Z" fill="#326C65"/>
<path d="M26.6992 178.106C26.6992 176.89 27.6467 175.884 28.8606 175.812L53.4795 174.346C55.2214 174.243 56.6909 175.627 56.6909 177.372V177.372C56.6909 179.046 55.3338 180.404 53.6596 180.404H28.9971C27.728 180.404 26.6992 179.375 26.6992 178.106V178.106Z" fill="#326C65"/>
<path d="M77.921 173.707C77.701 175.215 76.3535 176.375 74.8211 176.373L54.5716 176.358C52.3505 176.356 50.7184 174.478 51.0372 172.291V172.291C51.338 170.228 53.2666 168.697 55.3447 168.871L75.4215 170.559C77.0356 170.694 78.1546 172.104 77.921 173.707V173.707Z" fill="#326C65"/>
<path d="M72.1187 147.969C71.9763 148.946 71.0982 149.694 70.1066 149.682L54.3409 149.495C52.9103 149.478 51.8674 148.264 52.0728 146.854V146.854C52.2682 145.514 53.5209 144.519 54.8707 144.632L70.5134 145.947C71.5501 146.034 72.2688 146.94 72.1187 147.969V147.969Z" fill="#326C65"/>
<path d="M81.9607 200.103C81.8392 201.921 80.3453 203.383 78.5208 203.47L55.3681 204.57C52.7209 204.696 50.5971 202.537 50.7734 199.899V199.899C50.9394 197.414 53.0915 195.478 55.5801 195.573L78.6859 196.464C80.6238 196.538 82.09 198.168 81.9607 200.103V200.103Z" fill="#326C65"/>
<path d="M13.6416 221.076C13.491 219.574 14.5317 218.204 16.019 217.944L43.9029 213.083C46.0406 212.711 48.0323 214.221 48.2487 216.379V216.379C48.4559 218.443 46.9517 220.3 44.889 220.527L16.7696 223.609C15.1997 223.782 13.7992 222.647 13.6416 221.076V221.076Z" fill="#326C65"/>
<path d="M20.2416 190.151C20.2634 188.795 21.3394 187.685 22.6943 187.62L51.4619 186.241C53.4042 186.147 55.014 187.706 54.9827 189.65V189.65C54.9526 191.517 53.4142 193.017 51.5465 193L22.7583 192.732C21.3456 192.719 20.2189 191.564 20.2416 190.151V190.151Z" fill="#326C65"/>
</g>
<path d="M1077.7 498.471C1077.7 488.658 1085.65 480.702 1095.47 480.702H1118.7C1121.46 480.702 1123.7 482.941 1123.7 485.702V497.702C1123.7 500.464 1121.46 502.702 1118.7 502.702H1081.93C1079.59 502.702 1077.7 500.808 1077.7 498.471V498.471Z" fill="#D9E2E9"/>
<path d="M1196.7 498.471C1196.7 488.658 1188.74 480.702 1178.93 480.702H1166.7C1163.94 480.702 1161.7 482.941 1161.7 485.702V497.702C1161.7 500.464 1163.94 502.702 1166.7 502.702H1192.47C1194.81 502.702 1196.7 500.808 1196.7 498.471V498.471Z" fill="#D9E2E9"/>
<path d="M1102.09 358.037C1102.44 354.445 1105.45 351.702 1109.06 351.702L1171.53 351.702C1175.06 351.702 1178.03 354.323 1178.48 357.819L1194.7 485.242C1195.23 489.425 1191.97 493.126 1187.75 493.126L1168.97 493.126C1165.62 493.126 1162.74 490.75 1162.1 487.459L1148.57 417.73C1147.09 410.075 1136.09 410.216 1134.8 417.907L1123.18 487.282C1122.61 490.655 1119.69 493.126 1116.27 493.126L1096.9 493.126C1092.77 493.126 1089.54 489.571 1089.93 485.461L1102.09 358.037Z" fill="#5FD1C3"/>
<path d="M1075.12 235.022C1076.58 233.057 1079.26 232.443 1081.43 233.572L1161.07 274.895C1163.82 276.319 1164.63 279.865 1162.77 282.336L1139.88 312.819C1138.11 315.172 1134.71 315.498 1132.53 313.523L1066.69 253.907C1064.77 252.177 1064.49 249.279 1066.03 247.213L1075.12 235.022Z" fill="#95B9D0"/>
<path d="M1112.25 267.9C1115.1 249.93 1130.59 236.702 1148.79 236.702H1181.7C1186.12 236.702 1189.7 240.284 1189.7 244.702V376.702C1189.7 381.12 1186.12 384.702 1181.7 384.702H1103.07C1098.15 384.702 1094.4 380.305 1095.17 375.448L1112.25 267.9Z" fill="#708DA0"/>
<circle cx="1162.7" cy="208.702" r="28" fill="#B97965"/>
<path d="M1190.87 178.811C1202.81 189.96 1202.65 209.891 1191.17 225.163C1189.51 227.371 1186.32 227.466 1184.3 225.582L1144.65 188.559C1142.64 186.674 1142.51 183.484 1144.6 181.678C1159.05 169.183 1178.93 167.662 1190.87 178.811Z" fill="#5FD1C3"/>
<path d="M1139.84 254.755C1142.88 236.989 1158.28 224 1176.31 224H1190C1194.42 224 1198 227.582 1198 232V275C1198 279.418 1194.42 283 1190 283H1144.49C1139.53 283 1135.76 278.536 1136.6 273.65L1139.84 254.755Z" fill="#708DA0"/>
<path d="M1127.29 360.513C1124.81 360.115 1123.01 357.939 1123.09 355.429L1125.81 262.938C1126.24 248.116 1139.13 236.758 1153.89 238.19V238.19V238.19C1168.11 239.57 1177.62 253.471 1173.75 267.222L1147.86 359.334C1147.17 361.779 1144.76 363.32 1142.25 362.917L1127.29 360.513Z" fill="#95B9D0"/>
<path d="M892.815 517.516C888.626 519.743 883.426 518.152 881.199 513.963L881.031 513.646C878.804 509.458 880.395 504.257 884.584 502.031V502.031C888.772 499.805 893.973 501.395 896.199 505.584L896.367 505.901C898.594 510.089 897.003 515.29 892.815 517.516V517.516Z" fill="#F1F4F8"/>
<path d="M1133.12 355.369C1135.09 354.363 1137.5 355.142 1138.5 357.109L1141 361.996C1142.01 363.963 1141.23 366.373 1139.26 367.379L1130.21 372.01L1124.07 360L1133.12 355.369Z" fill="#326C65"/>
<rect x="1116.65" y="345.136" width="46.3867" height="284.243" rx="7" transform="rotate(62.9138 1116.65 345.136)" fill="#58BBAF"/>
<path d="M1134.39 379.837L1134.68 380.398C1136.44 383.84 1135.08 388.058 1131.64 389.818L891.034 512.868C887.592 514.628 883.374 513.265 881.614 509.823L881.327 509.261L1134.39 379.837Z" fill="#326C65"/>
<path d="M936.422 489.567L915.441 448.177L924.068 443.804L945.05 485.193L936.422 489.567Z" fill="#326C65"/>
<path d="M1064.3 423.902L1043.32 382.512L1051.95 378.139L1072.93 419.528L1064.3 423.902Z" fill="#326C65"/>
<rect x="1055" y="209" width="24" height="44" rx="2" fill="#2E4453"/>
<path d="M1067 220.854C1066.18 220.854 1065.38 221.096 1064.7 221.551C1064.02 222.006 1063.49 222.652 1063.18 223.408C1062.87 224.164 1062.78 224.996 1062.94 225.799C1063.1 226.602 1063.5 227.339 1064.08 227.918C1064.65 228.497 1065.39 228.891 1066.19 229.051C1067 229.21 1067.83 229.128 1068.59 228.815C1069.34 228.502 1069.99 227.972 1070.44 227.291C1070.9 226.61 1071.14 225.81 1071.14 224.992C1071.14 223.894 1070.7 222.842 1069.93 222.066C1069.15 221.29 1068.1 220.854 1067 220.854V220.854ZM1067 227.686C1066.47 227.686 1065.95 227.528 1065.5 227.232C1065.06 226.936 1064.72 226.515 1064.51 226.023C1064.31 225.531 1064.26 224.989 1064.36 224.466C1064.46 223.944 1064.72 223.464 1065.1 223.087C1065.47 222.71 1065.95 222.454 1066.48 222.35C1067 222.246 1067.54 222.299 1068.03 222.503C1068.52 222.707 1068.95 223.052 1069.24 223.495C1069.54 223.938 1069.7 224.459 1069.7 224.992C1069.69 225.705 1069.41 226.388 1068.9 226.892C1068.4 227.396 1067.71 227.679 1067 227.679V227.686Z" fill="white"/>
<path d="M1067 217.444C1064.75 217.446 1062.59 218.338 1061 219.926C1059.4 221.513 1058.5 223.666 1058.49 225.916C1058.49 229.289 1060.38 232.113 1061.77 234.171L1062.02 234.547C1063.4 236.546 1064.88 238.475 1066.46 240.324L1067.01 240.967L1067.56 240.324C1069.13 238.474 1070.61 236.546 1071.99 234.547L1072.24 234.164C1073.62 232.105 1075.51 229.289 1075.51 225.916C1075.5 223.665 1074.6 221.51 1073.01 219.923C1071.41 218.335 1069.25 217.444 1067 217.444V217.444ZM1071.04 233.333L1070.78 233.716C1069.53 235.579 1067.89 237.667 1067 238.699C1066.15 237.667 1064.46 235.579 1063.22 233.716L1062.97 233.333C1061.69 231.427 1059.94 228.819 1059.94 225.887C1059.94 224.96 1060.12 224.041 1060.47 223.184C1060.83 222.327 1061.35 221.548 1062.01 220.893C1062.66 220.237 1063.44 219.716 1064.3 219.361C1065.15 219.006 1066.07 218.824 1067 218.824C1067.93 218.824 1068.85 219.006 1069.7 219.361C1070.56 219.716 1071.34 220.237 1071.99 220.893C1072.65 221.548 1073.17 222.327 1073.53 223.184C1073.88 224.041 1074.06 224.96 1074.06 225.887C1074.06 228.848 1072.32 231.455 1071.04 233.333V233.333Z" fill="white"/>
<path d="M1047.82 233.735C1047.79 237.433 1049.05 241.025 1051.37 243.902L1054.97 248.362L1055.18 233.32L1055.1 226.41C1055.08 224.162 1052.53 222.879 1050.71 224.2V224.2C1048.92 225.492 1047.86 227.555 1047.85 229.755L1047.82 233.735Z" fill="#708DA0"/>
<path d="M1081.49 230.092C1081.48 232.267 1080.93 234.407 1079.9 236.322L1079 238L1079.05 230.205L1079.05 225.282V225.282C1080.56 226.095 1081.5 227.674 1081.49 229.389L1081.49 230.092Z" fill="#708DA0"/>
</g>
<defs>
<linearGradient id="paint0_linear_6577_159033" x1="595.438" y1="-168.585" x2="595.294" y2="283.868" gradientUnits="userSpaceOnUse">
<stop stop-color="#68E6D6"/>
<stop offset="1" stop-color="#6CFCEB" stop-opacity="0"/>
</linearGradient>
<radialGradient id="paint1_radial_6577_159033" cx="0" cy="0" r="1" gradientUnits="userSpaceOnUse" gradientTransform="translate(1381.9 -78.2304) rotate(-90) scale(714.544 755.219)">
<stop stop-color="#FEFFCC"/>
<stop offset="0.1875" stop-color="#7BEDE0"/>
<stop offset="1" stop-color="#5EC7BB" stop-opacity="0"/>
</radialGradient>
<linearGradient id="paint2_linear_6577_159033" x1="661.145" y1="-95.7695" x2="661.145" y2="218.767" gradientUnits="userSpaceOnUse">
<stop stop-color="#71DACD"/>
<stop offset="1" stop-color="#7CF3E5"/>
</linearGradient>
<linearGradient id="paint3_linear_6577_159033" x1="299.36" y1="29.0005" x2="299.36" y2="349.844" gradientUnits="userSpaceOnUse">
<stop stop-color="#76E6D8"/>
<stop offset="1" stop-color="#7DEEE0"/>
</linearGradient>
<linearGradient id="paint4_linear_6577_159033" x1="686.156" y1="140.834" x2="687.51" y2="246.976" gradientUnits="userSpaceOnUse">
<stop stop-color="#A9FFF5"/>
<stop offset="1" stop-color="#F7F7F7"/>
</linearGradient>
<linearGradient id="paint5_linear_6577_159033" x1="721.51" y1="193.947" x2="721.51" y2="348.192" gradientUnits="userSpaceOnUse">
<stop stop-color="white"/>
<stop offset="1" stop-color="#F0F0F0"/>
</linearGradient>
<clipPath id="clip0_6577_159033">
<rect width="1440" height="557" fill="white"/>
</clipPath>
<clipPath id="clip1_6577_159033">
<rect width="1470.1" height="1004.95" fill="white" transform="translate(-15.0508 -188.477)"/>
</clipPath>
</defs>
</svg>
