<svg width="163" height="31" viewBox="0 0 163 31" fill="none" xmlns="http://www.w3.org/2000/svg">
<g clip-path="url(#clip0)">
<path d="M8.80111 20.23C13.5504 20.49 16.7658 20.62 18.4471 20.62C18.8458 20.62 19.1578 20.5073 19.3831 20.282C19.6258 20.0393 19.7471 19.7187 19.7471 19.32V16.98H13.7671C11.9471 16.98 10.6211 16.5727 9.78911 15.758C8.97444 14.926 8.56711 13.6 8.56711 11.78V11C8.56711 9.18 8.97444 7.86267 9.78911 7.048C10.6211 6.216 11.9471 5.8 13.7671 5.8H22.8931V9.44H14.8071C13.7671 9.44 13.2471 9.96 13.2471 11V11.52C13.2471 12.56 13.7671 13.08 14.8071 13.08H19.4871C21.1858 13.08 22.4338 13.4787 23.2311 14.276C24.0284 15.0733 24.4271 16.3213 24.4271 18.02V19.32C24.4271 21.0187 24.0284 22.2667 23.2311 23.064C22.4338 23.8613 21.1858 24.26 19.4871 24.26C18.6031 24.26 17.6671 24.2427 16.6791 24.208L14.2871 24.104C12.5191 24.0173 10.6904 23.896 8.80111 23.74V20.23ZM31.0551 10.48C32.7364 10.1333 34.2097 9.96 35.4751 9.96H36.6451C37.8237 9.96 38.7684 10.3153 39.4791 11.026C40.1897 11.7367 40.5451 12.6813 40.5451 13.86V24H35.9951V14.38C35.9951 14.12 35.9084 13.9033 35.7351 13.73C35.5617 13.5567 35.3451 13.47 35.0851 13.47H34.1751C33.5164 13.47 32.9097 13.5047 32.3551 13.574C31.8177 13.6433 31.3844 13.6953 31.0551 13.73V24H26.5051V5.8H31.0551V10.48ZM50.812 13.99C49.72 13.99 48.5934 14.25 47.432 14.77V24H42.882V10.22H46.912L47.172 11.91C48.6627 10.61 50.2227 9.96 51.852 9.96H53.022V13.99H50.812ZM59.6632 13.21C58.9699 13.21 58.6232 13.5567 58.6232 14.25V15.68H63.0432V14.25C63.0432 13.5567 62.6965 13.21 62.0032 13.21H59.6632ZM67.0732 23.74C63.7279 24.0867 60.6945 24.26 57.9732 24.26C56.7945 24.26 55.8499 23.9047 55.1392 23.194C54.4285 22.4833 54.0732 21.5387 54.0732 20.36V14.12C54.0732 12.82 54.4372 11.806 55.1652 11.078C55.9105 10.3327 56.9332 9.96 58.2332 9.96H63.4332C64.7332 9.96 65.7472 10.3327 66.4752 11.078C67.2205 11.806 67.5932 12.82 67.5932 14.12V18.93H58.6232V19.97C58.6232 20.23 58.7099 20.4467 58.8832 20.62C59.0565 20.7933 59.2732 20.88 59.5332 20.88C61.2492 20.88 63.7625 20.75 67.0732 20.49V23.74ZM79.673 24L79.413 22.7C78.5984 23.2373 77.7577 23.636 76.891 23.896C76.0417 24.1387 75.3224 24.26 74.733 24.26H73.563C72.3844 24.26 71.4397 23.9047 70.729 23.194C70.0184 22.4833 69.663 21.5387 69.663 20.36V14.38C69.663 13.08 70.027 12.066 70.755 11.338C71.5004 10.5927 72.523 10.22 73.823 10.22H79.153V5.8H83.703V24H79.673ZM76.033 20.49C76.9517 20.49 77.9917 20.3167 79.153 19.97V13.73H75.253C74.5597 13.73 74.213 14.0767 74.213 14.77V19.58C74.213 19.84 74.2997 20.0567 74.473 20.23C74.6464 20.4033 74.863 20.49 75.123 20.49H76.033Z" fill="#E7E7E7"/>
<path d="M95.14 24H85.78V20.36H88.12V9.44H85.78V5.8H95.14V9.44H92.8V20.36H95.14V24ZM104.888 13.73C103.969 13.73 102.929 13.9033 101.768 14.25V24H97.218V10.22H101.248L101.508 11.52C102.323 10.9827 103.155 10.5927 104.004 10.35C104.871 10.09 105.599 9.96 106.188 9.96H107.358C108.537 9.96 109.481 10.3153 110.192 11.026C110.903 11.7367 111.258 12.6813 111.258 13.86V24H106.708V14.64C106.708 14.38 106.621 14.1633 106.448 13.99C106.275 13.8167 106.058 13.73 105.798 13.73H104.888ZM123.345 24L123.085 22.7C122.27 23.2373 121.43 23.636 120.563 23.896C119.714 24.1387 118.994 24.26 118.405 24.26H117.235C116.056 24.26 115.112 23.9047 114.401 23.194C113.69 22.4833 113.335 21.5387 113.335 20.36V14.38C113.335 13.08 113.699 12.066 114.427 11.338C115.172 10.5927 116.195 10.22 117.495 10.22H122.825V5.8H127.375V24H123.345ZM119.705 20.49C120.624 20.49 121.664 20.3167 122.825 19.97V13.73H118.925C118.232 13.73 117.885 14.0767 117.885 14.77V19.58C117.885 19.84 117.972 20.0567 118.145 20.23C118.318 20.4033 118.535 20.49 118.795 20.49H119.705ZM135.302 13.21C134.609 13.21 134.262 13.5567 134.262 14.25V15.68H138.682V14.25C138.682 13.5567 138.335 13.21 137.642 13.21H135.302ZM142.712 23.74C139.367 24.0867 136.333 24.26 133.612 24.26C132.433 24.26 131.489 23.9047 130.778 23.194C130.067 22.4833 129.712 21.5387 129.712 20.36V14.12C129.712 12.82 130.076 11.806 130.804 11.078C131.549 10.3327 132.572 9.96 133.872 9.96H139.072C140.372 9.96 141.386 10.3327 142.114 11.078C142.859 11.806 143.232 12.82 143.232 14.12V18.93H134.262V19.97C134.262 20.23 134.349 20.4467 134.522 20.62C134.695 20.7933 134.912 20.88 135.172 20.88C136.888 20.88 139.401 20.75 142.712 20.49V23.74ZM153.368 10.22H158.438L154.278 17.11L158.568 24H153.498L151.158 19.84L148.818 24H143.748L148.038 17.11L143.878 10.22H148.948L151.158 14.38L153.368 10.22Z" fill="white"/>
</g>
<defs>
<clipPath id="clip0">
<rect width="163" height="31" fill="white"/>
</clipPath>
</defs>
</svg>
