<svg width="327" height="325" viewBox="0 0 327 325" fill="none" xmlns="http://www.w3.org/2000/svg">
<path d="M207.88 167.302L237.601 145.966C239.924 144.299 243.075 144.395 245.291 146.202L260.822 158.864C262.789 160.468 265.523 160.741 267.768 159.559L268.025 159.424C270.205 158.277 272.853 158.499 274.812 159.993L284.244 167.191C286.381 168.822 289.316 168.924 291.562 167.446L303.324 159.706C305.337 158.381 307.927 158.315 310.006 159.534L323.418 167.404C325.929 168.878 329.122 168.447 331.154 166.361L346.186 150.927C348.168 148.892 351.262 148.427 353.754 149.789L396.706 173.26C398.737 174.37 400 176.5 400 178.814V208.479C400 211.96 397.189 214.787 393.708 214.807L159.764 216.151C156.255 216.171 153.399 213.332 153.399 209.823V177.182C153.399 174.734 154.812 172.505 157.026 171.46L183.192 159.107C185.243 158.139 187.655 158.343 189.515 159.64L200.569 167.351C202.77 168.887 205.7 168.867 207.88 167.302Z" fill="url(#paint0_linear_4379_141694)"/>
<path d="M86.9692 107.687C87.8157 108.172 94.7991 114.709 95.3281 115.016C95.8572 115.324 100.091 111.607 101.042 111.675C101.776 111.728 103.912 110.194 105.88 108.633C108.02 106.936 111.206 107.132 113.09 109.109C120.493 116.876 136.861 132.944 140.496 132.944C143.849 132.944 150.219 129.151 153.144 127.288C154.086 126.689 155.282 126.679 156.177 127.347C166.034 134.702 211.472 171.924 215.633 171.924C220.051 171.924 372.01 194.239 373.801 194.502C373.857 194.51 373.842 194.508 373.898 194.519C375.29 194.786 394.39 198.63 398.97 209.09C400.036 211.523 397.799 213.765 395.143 213.765H4.80954C2.1533 213.765 0 211.612 0 208.956V141.459C34.2821 133.598 86.1228 107.202 86.9692 107.687Z" fill="url(#paint1_linear_4379_141694)"/>
<path d="M66.1556 164.36C79.1845 170.596 165.913 122.104 225.543 151.314C230.621 153.801 264.77 168.56 279.84 175.523C303.508 186.459 298.952 184.153 316.544 189.602C351.03 200.282 399.952 203.693 399.952 203.693C399.952 203.693 399.952 230.178 399.952 255.783C399.952 255.783 383.479 276.058 337.934 275.52C274.946 274.775 249.211 241.99 129.605 241.99C67.0806 241.99 50.88 255.783 0 264.519V161.764C25.6584 154.815 59.512 167.157 66.1556 164.36Z" fill="url(#paint2_linear_4379_141694)"/>
<path d="M19.995 165.656L27.8187 148.765C28.2798 147.769 29.7027 147.792 30.1319 148.802L37.2342 165.508C37.642 166.468 36.78 167.481 35.7676 167.233L32.3235 166.387C31.526 166.191 30.7561 166.795 30.7561 167.616V171.068C30.7561 171.545 30.4876 171.982 30.0618 172.197L27.555 173.466C27.0499 173.721 26.4528 173.354 26.4528 172.788V168.072C26.4528 167.289 25.7487 166.694 24.9765 166.824L21.3541 167.436C20.35 167.605 19.567 166.58 19.995 165.656Z" fill="#368A80"/>
<path d="M5.05947 171.731L12.8831 154.84C13.3442 153.845 14.7671 153.867 15.1964 154.877L22.2986 171.583C22.7065 172.543 21.8445 173.556 20.832 173.308L17.388 172.462C16.5905 172.266 15.8205 172.87 15.8205 173.691V177.143C15.8205 177.62 15.5521 178.057 15.1263 178.273L12.6195 179.541C12.1144 179.796 11.5173 179.429 11.5173 178.863V174.147C11.5173 173.364 10.8132 172.769 10.0409 172.899L6.41858 173.511C5.41444 173.68 4.63147 172.655 5.05947 171.731Z" fill="#368A80"/>
<path d="M33.411 161.352L41.2347 144.462C41.6958 143.466 43.1187 143.489 43.5479 144.498L50.6502 161.205C51.058 162.164 50.1961 163.178 49.1836 162.929L45.7396 162.084C44.942 161.888 44.1721 162.492 44.1721 163.313V166.765C44.1721 167.242 43.9037 167.679 43.4778 167.894L40.9711 169.162C40.4659 169.418 39.8688 169.051 39.8688 168.485V163.769C39.8688 162.986 39.1647 162.391 38.3925 162.521L34.7701 163.132C33.766 163.302 32.983 162.276 33.411 161.352Z" fill="#368A80"/>
<path d="M204.213 278.655C204.213 270.405 210.901 263.717 219.151 263.717H238.68C241.001 263.717 242.883 265.599 242.883 267.92V278.008C242.883 280.329 241.001 282.211 238.68 282.211H207.77C205.805 282.211 204.213 280.619 204.213 278.655V278.655Z" fill="#F1F1F1"/>
<path d="M304.252 278.655C304.252 270.405 297.564 263.717 289.314 263.717H279.032C276.711 263.717 274.829 265.599 274.829 267.92V278.008C274.829 280.329 276.711 282.211 279.032 282.211H300.695C302.66 282.211 304.252 280.619 304.252 278.655V278.655Z" fill="#F1F1F1"/>
<path d="M224.721 160.597C225.01 157.577 227.546 155.272 230.579 155.272L283.096 155.272C286.059 155.272 288.56 157.474 288.934 160.413L302.569 267.533C303.016 271.049 300.276 274.161 296.731 274.161L280.943 274.161C278.125 274.161 275.702 272.163 275.166 269.396L263.796 210.779C262.548 204.343 253.298 204.462 252.215 210.927L242.446 269.248C241.971 272.083 239.517 274.161 236.642 274.161L220.355 274.161C216.884 274.161 214.167 271.172 214.497 267.717L224.721 160.597Z" fill="#5FD1C3"/>
<path d="M263.109 7.17851C265.169 7.19351 266.914 8.69893 267.231 10.7342L278.851 85.2624C279.252 87.8293 277.251 90.141 274.653 90.113L242.608 89.7672C240.135 89.7405 238.219 87.5944 238.472 85.134L246.115 10.8584C246.336 8.70316 248.16 7.0696 250.326 7.08539L263.109 7.17851Z" fill="#95B9D0"/>
<path d="M233.255 84.8225C235.654 69.7163 248.679 58.5959 263.975 58.5959H291.642C295.356 58.5959 298.367 61.6069 298.367 65.3212V176.288C298.367 180.002 295.356 183.013 291.642 183.013H225.541C221.407 183.013 218.251 179.317 218.899 175.234L233.255 84.8225Z" fill="#708DA0"/>
<circle cx="275.669" cy="35.0574" r="23.5385" fill="#B97965"/>
<path d="M299.35 9.92872C309.387 19.301 309.254 36.0566 299.607 48.8953C298.212 50.7511 295.529 50.8315 293.833 49.2471L260.501 18.1234C258.804 16.5391 258.701 13.8571 260.457 12.3388C272.605 1.83528 289.312 0.556454 299.35 9.92872Z" fill="#5FD1C3"/>
<path d="M256.451 73.7718C259.009 58.8366 271.956 47.9176 287.109 47.9176H298.621C302.335 47.9176 305.346 50.9286 305.346 54.6429V90.7912C305.346 94.5055 302.335 97.5165 298.621 97.5165H260.36C256.192 97.5165 253.027 93.7642 253.731 89.656L256.451 73.7718Z" fill="#708DA0"/>
<path d="M245.904 162.678C243.82 162.343 242.308 160.515 242.37 158.405L244.657 80.6511C245.024 68.1904 255.86 58.6421 268.268 59.8464V59.8464V59.8464C280.22 61.0064 288.215 72.6926 284.965 84.2527L263.196 161.687C262.618 163.742 260.59 165.038 258.482 164.699L245.904 162.678Z" fill="#95B9D0"/>
<path d="M48.7897 294.665C45.2685 296.537 40.8968 295.199 39.0252 291.678L38.8835 291.412C37.0119 287.891 38.3491 283.519 41.8702 281.647V281.647C45.3914 279.776 49.7631 281.113 51.6348 284.634L51.7764 284.9C53.6481 288.422 52.3109 292.793 48.7897 294.665V294.665Z" fill="#F1F1F1"/>
<path d="M250.806 158.354C252.459 157.508 254.485 158.163 255.331 159.817L257.432 163.926C258.278 165.579 257.623 167.605 255.97 168.451L248.357 172.344L243.193 162.247L250.806 158.354Z" fill="#326C65"/>
<rect x="236.961" y="149.752" width="38.9954" height="238.951" rx="5.88462" transform="rotate(62.9138 236.961 149.752)" fill="#58BBAF"/>
<path d="M251.876 178.923L252.117 179.395C253.597 182.289 252.451 185.834 249.558 187.314L47.2924 290.757C44.3988 292.237 40.8535 291.091 39.3737 288.197L39.1324 287.725L251.876 178.923Z" fill="#326C65"/>
<path d="M85.4492 271.169L67.8113 236.374L75.0642 232.698L92.7022 267.492L85.4492 271.169Z" fill="#326C65"/>
<path d="M192.955 215.967L175.317 181.172L182.57 177.496L200.208 212.29L192.955 215.967Z" fill="#326C65"/>
<path d="M257.422 2.90387C253.882 2.61133 250.369 3.73109 247.652 6.01875L245.907 7.48742C244.613 8.57657 245.171 10.6801 246.835 10.9848L258.904 13.1947C259.669 13.3349 260.46 13.1864 261.122 12.7779L265.931 9.8123C266.841 9.25143 267.149 8.07467 266.631 7.14014L266.137 6.24995C265.184 4.53048 263.434 3.40071 261.475 3.2388L257.422 2.90387Z" fill="#708DA0"/>
<defs>
<linearGradient id="paint0_linear_4379_141694" x1="225.543" y1="260.975" x2="315.846" y2="132.716" gradientUnits="userSpaceOnUse">
<stop stop-color="#E1FFFB"/>
<stop offset="1" stop-color="#75EDDF"/>
</linearGradient>
<linearGradient id="paint1_linear_4379_141694" x1="217.855" y1="105.424" x2="217.855" y2="178.337" gradientUnits="userSpaceOnUse">
<stop stop-color="#71DACD"/>
<stop offset="1" stop-color="#7CF3E5"/>
</linearGradient>
<linearGradient id="paint2_linear_4379_141694" x1="209.58" y1="168.965" x2="208.92" y2="207.605" gradientUnits="userSpaceOnUse">
<stop stop-color="#A9FFF5"/>
<stop offset="1" stop-color="#F7F7F7"/>
</linearGradient>
</defs>
</svg>
