<svg width="512" height="512" viewBox="0 0 1280 1280" fill="none" xmlns="http://www.w3.org/2000/svg">
<g clip-path="url(#clip0_7355_175248)">
<path d="M0 1.33594H1280V1278.66H0V1.33594Z" fill="#2C3B48"/>
<path d="M505.052 251.19H534.447L582.547 261.879L583.883 267.224L605.261 272.568L610.605 285.929L617.286 288.602L618.622 284.593L637.328 287.266L650.689 288.602L660.042 287.266L665.386 297.955V300.627H676.075L673.403 279.249L685.428 273.904L696.117 269.896H706.806L704.134 281.921L697.453 288.602L702.798 291.274L716.159 323.341L728.184 331.357L746.889 338.038L748.226 342.046L745.553 348.727L720.167 362.088H696.117V356.744L688.1 359.416L713.486 370.105L726.848 374.113L764.259 376.785L773.612 378.122L776.284 370.105L777.62 367.433H789.645V362.088H773.612L770.94 355.408V348.727L776.284 347.391L792.317 350.063L803.006 367.433V370.105L796.326 371.441L798.998 386.138L805.679 388.81L803.006 380.794L809.687 371.441L817.704 367.433H820.376L819.04 354.071L798.998 348.727L796.326 342.046L794.99 330.021L800.334 316.66L804.342 311.316L805.679 269.896L811.023 261.879L825.72 259.207L847.098 260.543L855.115 261.879L853.779 273.904L845.762 287.266L828.393 296.618L820.376 312.652L827.056 313.988L835.073 317.996L848.434 344.719L861.795 358.08V363.424L871.148 359.416H880.501L885.846 360.752L884.509 379.458L900.543 380.794L901.879 370.105L909.896 364.76L916.576 344.719L917.912 343.382L893.862 338.038L876.493 332.694L875.157 331.357V323.341H883.173V316.66L873.82 315.324L864.468 312.652L867.14 297.955L872.484 280.585L880.501 269.896L911.232 264.552V273.904L904.551 285.929L907.223 299.291L908.56 304.635L913.904 305.971L915.24 284.593L917.912 275.241L921.921 269.896L959.332 267.224L1002.09 269.896L1007.43 279.249L999.415 284.593H991.399L992.735 288.602L1007.43 284.593V289.938L1019.46 292.61L1034.15 305.971L1039.5 309.98L1056.87 311.316L1066.22 320.669V323.341L1086.26 324.677L1092.94 335.366L1106.3 342.046L1107.64 343.382V352.735L1099.62 351.399L1103.63 360.752V364.76L1115.66 368.769L1151.73 386.138L1158.41 391.483L1167.77 394.155L1165.09 406.18L1154.41 424.886L1146.39 432.902H1133.03L1122.34 416.869L1112.99 410.188L1104.97 408.852L1107.64 424.886L1122.34 438.247L1130.35 444.927L1137.04 459.625L1135.7 472.986L1134.36 474.322L1116.99 472.986L1096.95 464.969L1100.96 472.986L1118.33 485.011L1116.99 489.019H1100.96L1074.24 479.666L1063.55 472.986L1051.52 459.625L1046.18 454.28L1036.83 448.936L994.071 447.6V432.902L1000.75 427.558L1028.81 426.222L1036.83 423.55L1032.82 410.188V404.844L1042.17 400.836H1046.18L1047.52 379.458L1034.15 367.433L1008.77 354.071L988.727 340.71L982.046 339.374L979.374 346.055L975.365 347.391L972.693 346.055H948.643L955.324 358.08L953.988 379.458L957.996 387.474L955.324 392.819L947.307 400.836L925.929 406.18L923.257 410.188L905.887 408.852L908.56 415.533L927.265 430.23L948.643 442.255L960.668 456.952L963.34 459.625V466.305L945.971 460.961L932.61 459.625L925.929 468.977L907.223 467.641L901.879 466.305L900.543 460.961V447.6L904.551 423.55L895.198 428.894L892.526 446.264L884.509 455.616L857.787 463.633L859.123 474.322L839.081 485.011H836.409L833.737 491.691L821.712 511.733L819.04 529.103V539.792L827.056 546.472L836.409 551.817L839.081 562.506V567.85H864.468L907.223 587.892L917.912 591.9L944.635 595.909L952.651 619.959L966.013 646.681L974.029 649.353H980.71V626.639L979.374 601.253L1002.09 586.556L1003.42 585.22V565.178L988.727 547.808L990.063 541.128L994.071 530.439L995.407 519.75L994.071 515.742V482.339L1003.42 479.666L1046.18 485.011L1060.88 497.036L1062.21 502.38L1075.57 506.389L1084.93 510.397L1083.59 535.783L1100.96 547.808L1118.33 546.472L1121 539.792L1131.69 521.086L1142.38 526.431L1150.4 538.456L1163.76 559.833L1169.1 567.85L1177.12 587.892L1210.52 605.261L1227.89 623.967L1230.56 627.975V642.673L1226.56 677.412L1253.28 684.092L1261.29 717.495V720.167L1242.59 717.495L1198.5 710.815L1193.15 709.479L1194.49 702.798L1215.87 654.698L1214.53 650.689L1209.19 653.362L1186.47 669.395L1175.78 673.403L1122.34 674.74L1095.62 690.773L1088.94 700.126L1108.98 686.765H1139.71L1135.7 700.126L1133.03 710.815L1137.04 722.84L1154.41 725.512V730.856H1145.05L1142.38 737.537L1108.98 752.234L1087.6 762.923L1075.57 769.604L1072.9 781.629V790.982L1074.24 794.99L1040.84 807.015L1031.48 824.385L1026.14 831.065L1022.13 841.754L1012.78 847.099L1016.79 827.057L1011.44 833.737L1007.43 849.771H1012.78V875.157L995.407 888.518L982.046 897.871L974.029 901.879H971.357V908.56L963.34 915.241H960.668L962.004 939.291L968.685 962.005V992.735L957.996 984.719L948.643 976.702L936.618 945.971L935.282 941.963L913.904 936.618H872.484L867.14 943.299H847.098L819.04 941.963L794.99 956.66H792.317L790.981 962.005L789.645 990.063L785.637 1004.76L786.973 1030.15L789.645 1040.84L801.67 1062.21L807.015 1066.22H836.409L853.779 1062.21L856.451 1055.53L867.14 1036.83L879.165 1034.15H899.207L897.871 1044.84L891.19 1068.89L884.509 1086.26L883.173 1095.62H899.207L919.248 1096.95L932.61 1102.3L936.618 1108.98V1134.36L935.282 1142.38V1153.07L944.635 1169.1L956.66 1174.45L968.685 1171.77L972.693 1167.77H982.046L994.071 1171.77L1014.11 1179.79L1016.79 1167.77L1020.79 1161.09L1031.48 1151.73L1050.19 1145.05H1062.21V1153.07L1074.24 1147.72H1091.61L1099.62 1154.41L1131.69 1159.75L1141.04 1158.41L1147.72 1155.74L1167.77 1162.42L1173.11 1161.09L1177.12 1159.75L1178.46 1167.77L1174.45 1169.1L1175.78 1175.78L1187.81 1179.79L1201.17 1186.47L1215.87 1202.51V1205.18L1247.93 1209.19L1258.62 1211.86L1275.99 1222.55L1280 1230.56V1278.66H967.349L974.029 1266.64L991.399 1245.26L998.079 1235.91V1199.83L988.727 1178.46V1175.78L974.029 1177.12L967.349 1189.14L955.324 1186.47L937.954 1181.13L924.593 1169.1L913.904 1159.75L903.215 1149.06L891.19 1134.36L884.509 1130.36L845.762 1116.99L831.065 1103.63L823.048 1100.96L803.006 1099.62L793.654 1100.96L753.57 1086.26L713.486 1066.22L698.789 1050.19L700.125 1031.48L685.428 1015.45L673.403 1002.09L649.353 972.694L634.656 955.324L622.631 940.627L609.269 921.921L598.58 915.241L611.942 941.963L630.647 968.685L649.353 999.416L658.706 1014.11V1016.79L650.689 1014.11L644.008 1007.43L629.311 991.399L618.622 975.366L609.269 964.677L593.236 936.618L575.866 909.896L571.858 903.215V896.535L563.841 893.863L538.455 877.829L510.397 836.41L499.708 809.687V749.562L501.044 730.856V716.159L490.355 694.781L471.649 680.084L463.633 673.403L459.624 665.387V662.714H474.322L463.633 657.37L452.944 635.992V633.32L447.599 630.648L432.902 617.286L426.221 595.909L423.549 587.892L414.196 585.22L398.163 566.514L388.81 554.489L379.457 547.808H375.449L391.482 566.514L416.869 591.9V598.581L404.843 594.572L394.155 585.22L375.449 565.178L366.096 554.489L356.743 546.472L334.029 533.111L317.996 527.767L275.24 519.75L247.182 509.061L243.173 522.422L216.451 533.111H208.434L209.77 523.758L213.779 514.405L216.451 510.397L205.762 515.742L195.073 526.431L179.04 553.153L168.351 561.17L128.267 586.556L77.4948 606.598L70.8142 605.261L74.8226 601.253L106.889 585.22L134.948 569.186L142.965 561.17L146.973 546.472H102.881L98.8727 535.783L96.2005 527.767L66.8059 525.094L56.117 493.028L69.4781 471.65L102.881 460.961H105.553L106.889 446.264L108.226 442.255L94.8643 447.6H58.7892L42.7558 431.566L38.7474 424.886V414.197L49.4364 408.852L62.7975 403.508H72.1504L78.8309 406.18L80.1671 407.516H100.209L104.217 403.508L77.4948 388.81L65.4698 376.785L52.1086 368.769L50.7725 367.433V360.752L74.8226 355.408L100.209 339.374L116.242 331.357L140.292 322.005L153.653 320.669H168.351L219.123 331.357L283.257 340.71L300.626 339.374L315.324 346.055L346.054 350.063L354.071 354.071H376.785L380.793 350.063H399.499L411.524 351.399L435.574 339.374L443.591 342.046L452.944 346.055L458.288 336.702H470.313L471.649 347.391L490.355 346.055L497.036 344.719L499.708 348.727L509.061 347.391H534.447L563.841 354.071L605.261 355.408L603.925 351.399L583.883 350.063L571.858 338.038L569.186 331.357L579.875 332.694H613.278L581.211 328.685L563.841 323.341V312.652H558.497L559.833 301.963L562.505 293.946L549.144 301.963L538.455 315.324L523.758 320.669H509.061L507.724 313.988L495.699 311.316L491.691 309.98L489.019 299.291L490.355 288.602L502.38 253.863L505.052 251.19Z" fill="#B5EDD5"/>
<path d="M787.669 1030.58L787.573 1030.19L787.176 1030.2L700.328 1031.53L699.87 1031.54L699.837 1032L698.501 1050.7L698.486 1050.92L698.631 1051.08L713.329 1067.11L713.391 1067.18L713.474 1067.22L753.557 1087.26L753.582 1087.27L753.609 1087.28L793.692 1101.98L793.81 1102.02L793.935 1102.01L803.236 1100.68L823.162 1102.01L831.017 1104.62L845.637 1117.91L845.713 1117.98L845.81 1118.02L884.508 1131.36L891.069 1135.3L903.039 1149.93L903.055 1149.95L903.072 1149.97L913.761 1160.65L913.773 1160.67L913.786 1160.68L924.469 1170.03L924.475 1170.03L937.83 1182.05L937.912 1182.12L938.018 1182.16L955.387 1187.5L955.406 1187.51L955.426 1187.51L967.451 1190.18L967.815 1190.26L967.997 1189.94L974.549 1178.14L988.437 1176.88V1179.01V1179.11L988.479 1179.21L997.79 1200.49V1236.3L991.212 1245.51L973.852 1266.87L973.824 1266.91L973.803 1266.95L967.122 1278.97L966.71 1279.71H967.56H1280.21H1280.71V1279.21V1231.11V1231L1280.66 1230.89L1276.65 1222.87L1276.59 1222.75L1276.46 1222.67L1259.1 1211.98L1259.03 1211.94L1258.95 1211.92L1248.27 1209.25L1248.24 1209.24L1248.21 1209.24L1216.58 1205.29V1203.06V1202.86L1216.45 1202.72L1201.75 1186.69L1201.69 1186.62L1201.6 1186.58L1188.24 1179.9L1188.21 1179.88L1188.18 1179.87L1176.43 1175.95L1175.23 1169.99L1178.82 1168.79L1179.23 1168.66L1179.16 1168.24L1177.82 1160.22L1177.73 1159.64L1177.17 1159.83L1173.18 1161.16L1168 1162.45L1148.09 1155.82L1147.92 1155.76L1147.75 1155.83L1141.12 1158.48L1131.91 1159.79L1100.05 1154.49L1092.14 1147.89L1092 1147.78H1091.82H1074.45H1074.34L1074.25 1147.82L1062.92 1152.85V1145.6V1145.1H1062.42H1050.4H1050.31L1050.23 1145.13L1031.52 1151.81L1031.44 1151.84L1031.36 1151.91L1020.67 1161.26L1020.62 1161.31L1020.58 1161.38L1016.57 1168.06L1016.53 1168.13L1016.51 1168.21L1013.96 1179.66L994.468 1171.86L994.454 1171.86L994.44 1171.85L982.415 1167.84L982.338 1167.82H982.257H972.904H972.697L972.55 1167.96L968.645 1171.87L956.923 1174.47L945.196 1169.26L935.993 1153.48V1142.97L937.322 1135L937.329 1134.96V1134.91V1109.53V1109.39L937.258 1109.27L933.249 1102.59L933.163 1102.45L933.006 1102.38L919.645 1097.04L919.572 1097.01L919.493 1097L899.451 1095.67L899.434 1095.67H899.418H883.961L885.207 1086.94L891.867 1069.62L891.876 1069.6L891.883 1069.58L898.563 1045.53L898.573 1045.49L898.578 1045.46L899.914 1034.77L899.984 1034.21H899.418H879.376H879.321L879.267 1034.22L867.242 1036.89L867.026 1036.94L866.917 1037.13L856.228 1055.84L856.21 1055.87L856.198 1055.9L853.622 1062.34L836.563 1066.27H807.392L802.265 1062.43L790.325 1041.2L787.669 1030.58Z" fill="#546777" stroke="#546777"/>
<path d="M1062.21 25.3857H1079.58L1098.29 29.3941L1137.04 32.0663L1146.39 34.7386L1158.41 40.083L1170.44 44.0914L1162.42 53.4442L1157.08 58.7887L1110.31 74.8221L1131.69 72.1498L1134.36 77.4943L1121 86.8471L1084.93 108.225L1071.57 116.242L1066.22 124.258L1046.18 129.603L1023.47 134.947H1014.11L1016.78 140.292L1027.47 146.972L1023.47 158.997L1014.11 168.35L996.743 176.367H994.071L991.399 185.72L982.046 191.064L988.727 197.745L986.054 204.425H962.004L960.668 203.089H931.273L908.56 204.425L895.198 199.081L893.862 192.4L889.854 191.064V187.056L885.846 185.72L883.173 176.367L893.862 168.35L908.56 171.022L919.248 173.695V163.006L903.215 165.678V160.334L893.862 157.661L892.526 153.653L881.837 160.334L855.115 163.006H843.09L831.065 154.989L828.392 144.3H820.376V137.62L827.056 136.283L808.351 134.947L807.015 126.931L796.326 125.595L794.99 121.586L803.006 96.1999L813.695 86.8471L821.712 82.8388L824.384 77.4943L837.745 78.8304L851.106 89.5194L864.468 101.544L891.19 110.897L895.198 113.569V121.586H900.543L903.215 116.242L909.896 109.561L904.551 106.889L903.215 93.5277L907.223 92.1916H883.173L871.148 93.5277L867.14 86.8471L865.804 74.8221L853.779 68.1415L855.115 62.797L873.82 53.4442L888.518 50.772L907.223 48.0997L912.568 44.0914L947.307 45.4275L951.315 38.7469L979.374 30.7302L991.399 29.3941L1048.85 26.7219L1062.21 25.3857Z" fill="#B6EED6"/>
<path d="M1239.92 46.7637L1246.6 48.0998L1255.95 56.1165L1258.62 49.4359L1278.66 52.1081L1280 53.4443V347.39L1278.66 348.726L1255.95 351.398L1247.93 352.734L1239.92 346.054L1241.25 338.037L1245.26 330.02L1251.94 326.012L1265.3 327.348L1278.66 336.701L1271.98 323.34L1255.95 316.659L1237.24 315.323L1234.57 308.643L1233.24 300.626L1234.57 287.265L1213.19 244.509L1198.5 224.467L1195.82 217.787L1189.14 216.451L1169.1 208.434H1129.02L1098.29 209.77L1084.93 197.745L1074.24 188.392L1071.57 185.72V181.711H1084.93V176.367L1071.57 175.031L1055.53 172.359L1048.85 161.67L1052.86 157.661L1066.22 150.981L1119.67 137.62L1129.02 129.603H1134.36V118.914L1121 117.578L1112.99 114.906L1107.64 109.561L1108.98 105.553L1137.04 89.5194L1165.09 80.1666H1173.11V60.1248L1215.87 49.4359L1239.92 46.7637Z" fill="#546777"/>
<path d="M807.015 191.064H831.065L852.443 192.401L864.468 195.073L865.804 211.106L873.82 219.123H917.912L931.274 215.115H962.004L976.701 227.14V236.492L974.029 244.509L967.349 251.19L955.324 253.862H877.829L851.106 249.854L844.426 245.845L841.754 243.173L839.081 212.442V204.426L812.359 203.09L803.006 201.753V193.737L807.015 191.064Z" fill="#B6EED6"/>
<path d="M653.361 193.737L665.386 195.073L673.403 209.771V212.443L688.1 209.771H693.445L698.789 221.796L697.453 233.821L696.117 237.829L686.764 240.501L654.697 244.51L629.311 252.526L613.278 253.863L619.958 240.501H589.228L574.53 235.157L571.858 225.804L585.219 216.451H587.891L582.547 204.426L593.236 201.754H598.58V196.41H605.261L607.933 200.418L625.303 205.762L629.311 212.443V215.115L653.361 220.46L661.378 221.796L652.025 201.754L653.361 193.737Z" fill="#B6EED6"/>
<path d="M1278.66 352.734H1280V464.968L1274.66 458.288L1259.96 426.221L1253.28 408.851L1250.61 391.482V382.129L1257.29 372.776L1261.29 355.407H1266.64L1269.31 367.432L1270.65 374.112L1274.66 371.44L1278.66 352.734Z" fill="#546777"/>
<path d="M766.931 264.551H784.301L789.645 277.912L792.317 285.929V304.634L778.956 315.323L762.923 312.651L748.225 301.962L734.864 293.945V283.256L738.873 288.601L740.209 291.273L754.906 288.601L748.225 280.584L750.898 267.223L766.931 264.551Z" fill="#B6EED6"/>
<path d="M750.898 196.409H777.62L784.301 200.418V237.829H753.57L749.562 227.14L732.192 224.468L726.848 217.787V215.115L740.209 212.443V207.098H753.57L750.898 196.409Z" fill="#B6EED6"/>
<path d="M706.806 137.62L733.528 140.292L756.242 148.309L765.595 160.334V171.023L754.906 169.687L730.856 160.334L720.167 157.662L718.831 152.317L701.461 146.973V140.292L706.806 137.62Z" fill="#B6EED6"/>
<path d="M583.883 179.04L587.891 183.048L586.555 189.729L579.875 191.065V196.41L547.808 201.754L549.144 209.771H517.077V203.09L551.816 185.721L583.883 179.04Z" fill="#B6EED6"/>
<path d="M947.307 1018.12L967.349 1019.46L979.374 1023.47L1024.8 1044.84L1026.14 1051.52H1006.1L984.718 1038.16L947.307 1024.8V1018.12Z" fill="#B6EED6"/>
<path d="M1251.94 326.013L1265.3 327.349L1280 338.038V347.391L1278.66 348.727L1255.95 351.399L1247.93 352.735L1239.92 346.054L1241.25 338.038L1245.26 330.021L1251.94 326.013Z" fill="#546777"/>
<path d="M1171.77 725.512H1181.13V734.865L1157.08 750.898L1135.7 760.251L1130.35 764.259H1118.33V758.915H1123.67V752.234L1139.71 741.545L1161.09 738.873L1171.77 725.512Z" fill="#B6EED6"/>
<path d="M800.334 223.132H820.376L828.392 236.493V248.518L809.687 247.182L801.67 244.51L797.662 237.829L800.334 223.132Z" fill="#B6EED6"/>
<path d="M776.284 152.317H797.662L807.015 157.662L808.351 171.023L823.048 173.695V179.04L807.015 177.704L790.981 169.687L781.628 164.342L776.284 152.317Z" fill="#B6EED6"/>
<path d="M1051.52 1056.87L1075.57 1058.2L1087.6 1062.21L1090.27 1063.55V1070.23H1039.5L1044.84 1064.88H1051.52V1056.87Z" fill="#B6EED6"/>
<path d="M1007.43 370.104L1026.14 371.441L1030.15 372.777V380.793L1018.12 386.138H1002.09L1006.1 371.441L1007.43 370.104Z" fill="#B6EED6"/>
<path d="M631.983 168.351L646.681 169.687L652.025 172.359L648.017 177.703L642.672 179.04H615.95L621.294 171.023L631.983 168.351Z" fill="#B6EED6"/>
</g>
<defs>
<clipPath id="clip0_7355_175248">
<rect width="1280" height="1280" fill="white"/>
</clipPath>
</defs>
</svg>
