<svg width="100%" viewBox="0 0 1442 1227" fill="none" xmlns="http://www.w3.org/2000/svg">
<path style="--offset:0.035;" d="M2 0C131.285 0 288.873 71.0812 485.613 71.0812C702.588 71.0812 834.169 1.02829e-05 1088.99 0C1343.81 -1.02829e-05 1441 46.5389 1441 46.5389V868.802C1441 868.802 1298.3 828.176 1088.99 828.176C871.159 828.176 683.338 890 462.844 890C256.192 890 185.518 853.964 2 844.154V0Z" fill="url(#paint0_radial_2584_89325)"/>
<path style="--offset:0.03;" d="M1208.01 491.777C1205.74 493.229 1187.03 512.799 1185.61 513.72C1184.2 514.641 1172.85 503.513 1170.31 503.716C1166.34 504.034 1147.06 485 1147.06 485C1139.41 495.488 1076.51 567.396 1064.61 567.396C1052.7 567.396 1026.6 547.447 1026.6 547.447C1013.28 556.967 875.217 684.104 863.312 684.104C851.406 684.104 439.53 751.709 439.53 751.709C439.53 751.709 369.514 766.012 369.514 809.379H1441V592.892C1349.16 569.355 1210.27 490.325 1208.01 491.777Z" fill="url(#paint1_linear_2584_89325)"/>
<path style="--offset:0.02;" d="M172.173 522.847C173.82 523.458 187.407 531.681 188.436 532.068C189.466 532.455 197.702 527.779 199.553 527.865C201.64 527.961 209.557 523.793 213.766 521.487C215.386 520.599 217.384 520.737 218.892 521.803C230.003 529.659 268.458 554.624 276.317 554.624C283.763 554.624 298.856 548.406 302.901 546.68C303.559 546.4 304.264 546.382 304.915 546.679C319.023 553.13 414.097 603.666 422.507 603.666C431.137 603.666 722.839 641.831 723.961 641.938C723.995 641.941 746.579 615.003 750.461 611.937C755.526 607.938 762.104 602.437 777.461 595.684C792.8 588.938 803.461 582.807 808.961 582.122C814.461 581.438 839.961 602.938 841.461 602.438C848.791 605.069 904.671 554.431 913.961 557.716C923.603 561.126 943.487 578.312 949.998 584.083C951.349 585.281 953.149 585.79 954.951 585.665C956.573 585.552 958.492 585.543 959.561 585.976C962.814 587.293 966.615 581.041 969.961 582.416C978.08 585.751 990.856 597.97 999.461 601.64C1006.81 604.778 1026.82 579.774 1034.46 583.095C1095.35 609.576 1118.42 600.902 1129.55 609.149C1129.99 609.475 1130.46 609.781 1130.96 610.006C1372.24 718.433 1436.21 877.009 1438.87 946.04C1438.97 948.535 1436.94 950.5 1434.44 950.5H4.5352C2.03284 950.5 0.0060084 948.619 0.0140014 946.117C0.132403 909.05 0.961776 649.319 0.961776 647L0.961778 570.4C0.961778 568.159 2.57785 566.263 4.79077 565.912C71.5237 555.32 170.557 522.249 172.173 522.847Z" fill="url(#paint2_linear_2584_89325)"/>
<path style="--offset:0.01;" d="M238.309 664.765C285.242 680.508 597.661 558.085 812.46 631.828C830.754 638.108 953.767 675.368 1008.05 692.946C1093.31 720.554 1076.9 714.733 1140.27 728.488C1264.5 755.452 1440.73 764.063 1440.73 764.063C1440.73 764.063 1440.73 961.094 1440.73 1025.74C1440.73 1025.74 1381.39 1076.92 1217.32 1075.56C990.424 1073.68 897.718 990.914 466.868 990.914C241.641 990.914 183.282 1025.74 0 1047.79V664.765C92.4279 647.223 214.377 671.825 238.309 664.765Z" fill="url(#paint3_linear_2584_89325)"/>
<path style="--offset:0.01;" d="M23.1403 673.846L31.1564 651.019C31.534 649.943 33.0615 649.963 33.4112 651.048L40.697 673.653C40.9946 674.577 40.1212 675.449 39.1982 675.15L35.5994 673.985C34.8309 673.736 34.0432 674.309 34.0432 675.116V680.449C34.0432 680.847 33.8446 681.218 33.5139 681.439L30.9078 683.178C30.4334 683.494 29.7978 683.154 29.7978 682.584V675.71C29.7978 674.949 29.0926 674.383 28.3496 674.549L24.5213 675.401C23.6102 675.604 22.831 674.726 23.1403 673.846Z" fill="#003139"/>
<path style="--offset:0.01;" d="M9.41323 681.51L17.3666 661.019C17.7655 659.991 19.2265 660.012 19.5964 661.05L26.8241 681.339C27.1501 682.255 26.3012 683.153 25.3689 682.88L21.7636 681.824C21.002 681.601 20.2395 682.172 20.2395 682.966V687.586C20.2395 688.003 20.0214 688.389 19.6647 688.605L17.0768 690.167C16.601 690.455 15.994 690.112 15.994 689.556V683.505C15.994 682.754 15.3061 682.191 14.5695 682.339L10.7572 683.107C9.83574 683.292 9.07312 682.386 9.41323 681.51Z" fill="#003139"/>
<path style="--offset:0.01;" d="M36.9117 669.053L44.0547 647.744C44.4222 646.648 45.9797 646.667 46.3197 647.773L52.8044 668.85C53.0897 669.778 52.2041 670.638 51.2851 670.327L48.3631 669.335C47.5916 669.074 46.7912 669.647 46.7912 670.462V675.425C46.7912 675.813 46.6016 676.177 46.2832 676.4L44.0545 677.958C43.5814 678.289 42.9317 677.95 42.9317 677.373V671.011C42.9317 670.245 42.218 669.679 41.4718 669.853L38.31 670.59C37.4031 670.802 36.6158 669.936 36.9117 669.053Z" fill="#003139"/>
<defs>
<radialGradient id="paint0_radial_2584_89325" cx="0" cy="0" r="1" gradientUnits="userSpaceOnUse" gradientTransform="translate(1209 488.5) rotate(28.5975) scale(176.537 172.763)">
<stop stop-color="#364F5B"/>
<stop offset="0.0885417" stop-color="#364F5B"/>
<stop offset="0.125" stop-color="#273D4A"/>
<stop offset="0.739583" stop-color="#1D2E39" stop-opacity="0"/>
</radialGradient>
<linearGradient id="paint1_linear_2584_89325" x1="857.359" y1="485" x2="857.359" y2="703.305" gradientUnits="userSpaceOnUse">
<stop stop-color="#123F49"/>
<stop offset="1" stop-color="#0B3B44"/>
</linearGradient>
<linearGradient id="paint2_linear_2584_89325" x1="423" y1="521" x2="423" y2="814" gradientUnits="userSpaceOnUse">
<stop stop-color="#15414C"/>
<stop offset="1" stop-color="#255462"/>
</linearGradient>
<linearGradient id="paint3_linear_2584_89325" x1="754.871" y1="842.946" x2="757.051" y2="1020.28" gradientUnits="userSpaceOnUse">
<stop stop-color="#19525F"/>
<stop offset="1" stop-color="#1D2E39"/>
</linearGradient>
</defs>
</svg>
