<svg width="100%" viewBox="0 0 1439 927" fill="none" xmlns="http://www.w3.org/2000/svg">
<g style="mix-blend-mode:soft-light">
<path style="--offset:0.035;" opacity="0.2" d="M0 -184.646C129.285 -184.646 286.873 -128.422 483.613 -128.422C700.588 -128.422 832.169 -184.645 1086.99 -184.646C1341.81 -184.646 1439 -147.834 1439 -147.834V502.558C1439 502.558 1296.3 470.424 1086.99 470.424C869.159 470.424 681.338 519.326 460.844 519.326C254.192 519.326 183.518 490.822 0 483.063V-184.646Z" fill="url(#paint0_radial_1788_95006)"/>
<path style="--offset:0.03;" d="M1206.01 355.285C1203.74 356.738 1185.03 376.308 1183.61 377.229C1182.2 378.15 1170.85 367.022 1168.31 367.225C1166.82 367.344 1163.18 364.747 1159.22 361.452C1151.45 354.996 1139.44 355.622 1132.83 363.265C1111.83 387.558 1071.85 430.905 1062.61 430.905C1054.19 430.905 1038.69 420.941 1030.32 415.097C1026.87 412.691 1022.39 412.622 1019.18 415.335C990.119 439.891 872.271 547.613 861.312 547.613C849.506 547.613 444.397 614.091 437.617 615.204C437.405 615.239 437.455 615.233 437.246 615.279C433.088 616.178 384.555 627.249 371.007 656.857C367.209 665.157 374.914 672.888 384.041 672.888H1422.47C1431.6 672.888 1439 665.488 1439 656.361V456.401C1347.16 432.864 1208.27 353.833 1206.01 355.285Z" fill="url(#paint1_linear_1788_95006)"/>
<path style="--offset:0.02;" d="M843.601 463.658L906.47 421.61C908.58 420.199 911.353 420.283 913.375 421.818L949.152 448.994C950.943 450.354 953.349 450.588 955.369 449.597L962.967 445.871C964.927 444.91 967.255 445.099 969.033 446.364L993.222 463.56C995.165 464.942 997.745 465.03 999.777 463.783L1028.6 446.113C1030.42 444.999 1032.69 444.942 1034.56 445.965L1069.86 465.264C1070.56 465.643 1071.32 465.88 1072.11 465.961L1124.02 471.32C1125.21 471.442 1126.32 471.916 1127.23 472.679L1310.46 626.302L1184.5 601.284L750.592 547.01C747.615 546.637 745.382 544.107 745.382 541.107V475.39C745.382 473.031 746.776 470.894 748.935 469.945L804.277 445.605C806.113 444.798 808.232 444.97 809.913 446.063L837.052 463.701C839.047 464.998 841.623 464.981 843.601 463.658Z" fill="url(#paint2_linear_1788_95006)"/>
<path style="--offset:0.015;" d="M169.211 385.865C170.858 386.475 184.445 394.699 185.475 395.086C186.504 395.473 194.741 390.797 196.591 390.882C198.679 390.979 206.596 386.811 210.804 384.505C212.424 383.617 214.422 383.755 215.93 384.821C227.042 392.677 265.496 417.641 273.355 417.641C280.801 417.641 295.894 411.424 299.94 409.698C300.597 409.418 301.303 409.4 301.953 409.697C316.061 416.148 411.135 466.684 419.545 466.684C428.175 466.684 726.191 494.985 727.312 495.092C727.346 495.095 727.299 495.09 727.334 495.094C728.338 495.215 770.018 500.308 777.136 514.963C778.227 517.209 776.14 519.326 773.644 519.326H4.52069C2.02397 519.326 0 517.302 0 514.805V428.355C66.7007 418.465 167.564 385.255 169.211 385.865Z" fill="url(#paint3_linear_1788_95006)"/>
<path style="--offset:0.01;" d="M236.583 515.701C283.516 531.443 595.935 409.021 810.734 482.763C829.028 489.044 952.041 526.303 1006.33 543.882C1091.58 571.49 1075.17 565.668 1138.54 579.424C1262.77 606.387 1439 614.999 1439 614.999C1439 614.999 1439 812.03 1439 876.673C1439 876.673 1379.66 927.857 1215.6 926.498C988.699 924.618 895.992 841.85 465.142 841.85C239.915 841.85 181.557 876.673 -1.72559 898.726V509.146C90.7023 491.604 212.651 522.76 236.583 515.701Z" fill="url(#paint4_linear_1788_95006)"/>
<path style="--offset:0.01;" d="M21.4147 524.781L29.4308 501.954C29.8084 500.879 31.336 500.899 31.6856 501.983L38.9714 524.589C39.269 525.512 38.3956 526.385 37.4726 526.086L33.8738 524.92C33.1053 524.671 32.3176 525.244 32.3176 526.052V531.384C32.3176 531.782 32.119 532.153 31.7883 532.374L29.1822 534.113C28.7078 534.43 28.0722 534.09 28.0722 533.519V526.645C28.0722 525.884 27.3671 525.319 26.624 525.484L22.7957 526.337C21.8846 526.539 21.1055 525.662 21.4147 524.781Z" fill="#368A80"/>
<path style="--offset:0.01;" d="M7.68764 532.446L15.641 511.954C16.0399 510.927 17.5009 510.947 17.8708 511.985L25.0985 532.275C25.4245 533.19 24.5756 534.089 23.6433 533.816L20.0381 532.76C19.2764 532.536 18.5139 533.107 18.5139 533.901V538.522C18.5139 538.939 18.2959 539.325 17.9391 539.54L15.3512 541.103C14.8755 541.39 14.2685 541.048 14.2685 540.492V534.441C14.2685 533.689 13.5805 533.126 12.8439 533.274L9.03162 534.042C8.11016 534.228 7.34753 533.322 7.68764 532.446Z" fill="#368A80"/>
<path style="--offset:0.01;" d="M35.1862 519.989L42.3291 498.68C42.6966 497.583 44.2541 497.603 44.5941 498.708L51.0788 519.786C51.3642 520.713 50.4786 521.574 49.5595 521.262L46.6375 520.271C45.866 520.009 45.0656 520.583 45.0656 521.397V526.36C45.0656 526.749 44.876 527.113 44.5576 527.335L42.3289 528.893C41.8558 529.224 41.2061 528.886 41.2061 528.308V521.947C41.2061 521.181 40.4924 520.614 39.7463 520.788L36.5844 521.526C35.6775 521.737 34.8902 520.872 35.1862 519.989Z" fill="#368A80"/>
</g>
<defs>
<radialGradient id="paint0_radial_1788_95006" cx="0" cy="0" r="1" gradientUnits="userSpaceOnUse" gradientTransform="translate(1223.32 336.986) rotate(40.2122) scale(282.426 263.395)">
<stop stop-color="#EFF9D6"/>
<stop offset="0.291667" stop-color="#9EF4EA" stop-opacity="0.73"/>
<stop offset="0.698607" stop-color="#324E55" stop-opacity="0.17"/>
<stop offset="1" stop-color="#1D2E39" stop-opacity="0"/>
</radialGradient>
<linearGradient id="paint1_linear_1788_95006" x1="855.359" y1="348.509" x2="855.359" y2="566.814" gradientUnits="userSpaceOnUse">
<stop stop-color="#68BAB0"/>
<stop offset="1" stop-color="#55AAA0"/>
</linearGradient>
<linearGradient id="paint2_linear_1788_95006" x1="1049.92" y1="633.204" x2="1033.39" y2="402.304" gradientUnits="userSpaceOnUse">
<stop stop-color="#33ECD6"/>
<stop offset="1" stop-color="#7CE9DC"/>
</linearGradient>
<linearGradient id="paint3_linear_1788_95006" x1="423.868" y1="383.018" x2="423.868" y2="474.752" gradientUnits="userSpaceOnUse">
<stop stop-color="#6CBCB2"/>
<stop offset="1" stop-color="#69D7C9"/>
</linearGradient>
<linearGradient id="paint4_linear_1788_95006" x1="753.146" y1="693.882" x2="755.325" y2="871.216" gradientUnits="userSpaceOnUse">
<stop stop-color="#A9FFF5"/>
<stop offset="1" stop-color="#F7F7F7" stop-opacity="0"/>
</linearGradient>
</defs>
</svg>
