<svg width="1442" height="431" viewBox="0 0 1442 431" fill="none" xmlns="http://www.w3.org/2000/svg">
<path d="M172.173 2.84742C173.82 3.45763 187.407 11.6814 188.436 12.0683C189.466 12.4553 197.702 7.77906 199.553 7.86467C201.64 7.96122 209.557 3.79338 213.766 1.48683C215.386 0.599073 217.384 0.736843 218.892 1.80318C230.003 9.6588 268.458 34.6235 276.317 34.6235C283.763 34.6235 298.856 28.4062 302.901 26.6805C303.559 26.3999 304.264 26.3819 304.915 26.6792C319.023 33.1302 414.097 83.666 422.507 83.666C431.137 83.666 722.839 121.831 723.961 121.938C723.995 121.941 746.579 95.003 750.461 91.9374C755.526 87.9375 762.104 82.4374 777.461 75.6837C792.8 68.9375 803.461 62.807 808.961 62.1223C814.461 61.4375 839.961 82.9375 841.461 82.4375C848.791 85.0691 904.671 34.4307 913.961 37.7157C923.603 41.1255 943.487 58.3115 949.998 64.0827C951.349 65.2806 953.149 65.7899 954.951 65.6648C956.573 65.5522 958.492 65.5431 959.561 65.9758C962.814 67.2935 966.615 61.0411 969.961 62.4157C978.08 65.7514 990.856 77.9696 999.461 81.6405C1006.81 84.778 1026.82 59.7738 1034.46 63.0952C1095.35 89.5764 1118.42 80.9016 1129.55 89.1486C1129.99 89.4754 1130.46 89.7806 1130.96 90.0056C1372.24 198.433 1436.21 357.009 1438.87 426.04C1438.97 428.535 1436.94 430.5 1434.44 430.5H4.5352C2.03284 430.5 0.0060084 428.619 0.0140014 426.117C0.132403 389.05 0.961776 129.319 0.961776 127L0.961778 50.3998C0.961778 48.1592 2.57785 46.2632 4.79077 45.9119C71.5237 35.3198 170.557 2.24877 172.173 2.84742Z" fill="url(#paint0_linear_2600_89323)"/>
<defs>
<linearGradient id="paint0_linear_2600_89323" x1="423" y1="1" x2="423" y2="294" gradientUnits="userSpaceOnUse">
<stop stop-color="#15414C"/>
<stop offset="1" stop-color="#255462"/>
</linearGradient>
</defs>
</svg>
