<svg width="1441" height="468" viewBox="0 0 1441 468" fill="none" xmlns="http://www.w3.org/2000/svg">
<path d="M238.309 56.7651C285.242 72.5076 597.661 -49.9146 812.46 23.8276C830.754 30.108 953.767 67.3677 1008.05 84.9462C1093.31 112.554 1076.9 106.733 1140.27 120.488C1264.5 147.452 1440.73 156.063 1440.73 156.063C1440.73 156.063 1440.73 353.094 1440.73 417.737C1440.73 417.737 1381.39 468.921 1217.32 467.562C990.424 465.683 897.718 382.914 466.868 382.914C241.641 382.914 183.282 417.737 0 439.79V50.2104C92.4279 32.6685 214.377 63.8247 238.309 56.7651Z" fill="url(#paint0_linear_2584_89330)"/>
<path d="M23.1403 65.8456L31.1564 43.0186C31.534 41.9433 33.0615 41.9631 33.4112 43.0478L40.697 65.6533C40.9946 66.5767 40.1212 67.449 39.1982 67.1501L35.5994 65.9846C34.8309 65.7358 34.0432 66.3087 34.0432 67.1164V72.449C34.0432 72.8465 33.8446 73.2178 33.5139 73.4385L30.9078 75.1776C30.4334 75.4942 29.7978 75.1542 29.7978 74.5839V67.7099C29.7978 66.9486 29.0926 66.3832 28.3496 66.5486L24.5213 67.401C23.6102 67.6038 22.831 66.7263 23.1403 65.8456Z" fill="#003139"/>
<path d="M9.41323 73.5102L17.3666 53.0186C17.7655 51.9911 19.2265 52.0115 19.5964 53.0499L26.8241 73.3394C27.1501 74.2546 26.3012 75.1535 25.3689 74.8803L21.7636 73.824C21.002 73.6008 20.2395 74.1719 20.2395 74.9657V79.5864C20.2395 80.0031 20.0214 80.3894 19.6647 80.6048L17.0768 82.1673C16.601 82.4546 15.994 82.112 15.994 81.5563V75.5052C15.994 74.7537 15.3061 74.1905 14.5695 74.3389L10.7572 75.1068C9.83574 75.2925 9.07312 74.3864 9.41323 73.5102Z" fill="#003139"/>
<path d="M36.9117 61.0535L44.0547 39.7442C44.4222 38.6478 45.9797 38.6673 46.3197 39.7725L52.8044 60.8503C53.0897 61.7779 52.2041 62.6385 51.2851 62.3267L48.3631 61.3354C47.5916 61.0736 46.7912 61.6473 46.7912 62.4619V67.4247C46.7912 67.8132 46.6016 68.1772 46.2832 68.3997L44.0545 69.9578C43.5814 70.2886 42.9317 69.9501 42.9317 69.3728V63.0112C42.9317 62.245 42.218 61.6786 41.4718 61.8526L38.31 62.5901C37.4031 62.8016 36.6158 61.9364 36.9117 61.0535Z" fill="#003139"/>
<defs>
<linearGradient id="paint0_linear_2584_89330" x1="754.871" y1="234.946" x2="757.051" y2="412.281" gradientUnits="userSpaceOnUse">
<stop stop-color="#19525F"/>
<stop offset="1" stop-color="#1D2E39"/>
</linearGradient>
</defs>
</svg>
