<svg width="1439" height="325" viewBox="0 0 1439 325" fill="none" xmlns="http://www.w3.org/2000/svg">
<path d="M1206.01 6.77665C1203.74 8.22879 1185.03 27.7992 1183.61 28.7201C1182.2 29.641 1170.85 18.5127 1168.31 18.7165C1164.34 19.0337 1145.06 0 1145.06 0C1137.41 10.4877 1074.51 82.3957 1062.61 82.3957C1050.7 82.3957 1024.6 62.4473 1024.6 62.4473C1011.28 71.9669 873.217 199.104 861.312 199.104C849.406 199.104 437.53 266.709 437.53 266.709C437.53 266.709 367.514 281.012 367.514 324.379H1439V107.892C1347.16 84.3553 1208.27 5.32451 1206.01 6.77665Z" fill="url(#paint0_linear_2600_89325)"/>
<defs>
<linearGradient id="paint0_linear_2600_89325" x1="855.359" y1="0" x2="855.359" y2="218.305" gradientUnits="userSpaceOnUse">
<stop stop-color="#123F49"/>
<stop offset="1" stop-color="#0B3B44"/>
</linearGradient>
</defs>
</svg>
