<svg width="156" height="36" viewBox="0 0 156 36" fill="none" xmlns="http://www.w3.org/2000/svg">
<g clip-path="url(#clip0_2274_85069)">
<path d="M150.581 8.79782C151.809 8.28712 153.191 8.28712 154.419 8.79781L183.492 20.883C188.541 22.9818 187.04 30.5 181.572 30.5H123.428C117.96 30.5 116.459 22.9818 121.508 20.883L150.581 8.79782Z" fill="#344A59"/>
<path d="M99.5168 1.42088C101.055 0.540587 102.945 0.540586 104.483 1.42088L134.175 18.4102C138.624 20.9559 136.817 27.75 131.692 27.75H72.3085C67.1827 27.75 65.3763 20.9559 69.8253 18.4102L99.5168 1.42088Z" fill="#344A59"/>
<path d="M84.7823 6.09746C86.1799 5.40585 87.8201 5.40585 89.2177 6.09746L116.338 19.5187C121.077 21.8638 119.408 29 114.121 29H59.8793C54.5921 29 52.9229 21.8638 57.6617 19.5187L84.7823 6.09746Z" fill="#344A59"/>
<path d="M117.058 0.818989C118.3 0.295316 119.7 0.295318 120.942 0.81899L162.031 18.1428C167.057 20.2615 165.542 27.75 160.089 27.75H77.9112C72.4576 27.75 70.9435 20.2615 75.9687 18.1428L117.058 0.818989Z" fill="#344A59"/>
<path d="M195.058 0.818989C196.3 0.295316 197.7 0.295318 198.942 0.81899L240.031 18.1428C245.057 20.2615 243.542 27.75 238.089 27.75H155.911C150.458 27.75 148.943 20.2615 153.969 18.1428L195.058 0.818989Z" fill="#344A59"/>
<path d="M61.2337 6.15239C62.6578 5.42825 64.3422 5.42825 65.7663 6.15239L92.1005 19.5431C96.7871 21.9262 95.092 29 89.8342 29H37.1658C31.9081 29 30.2129 21.9262 34.8995 19.5431L61.2337 6.15239Z" fill="#344A59"/>
<path d="M39.2337 4.15239C40.6578 3.42825 42.3422 3.42825 43.7663 4.15239L70.1005 17.5431C74.7871 19.9262 73.092 27 67.8342 27H15.1658C9.90805 27 8.21285 19.9262 12.8995 17.5431L39.2337 4.15239Z" fill="#344A59"/>
<path d="M17.2337 8.15239C18.6578 7.42825 20.3422 7.42825 21.7663 8.15239L48.1005 21.5431C52.7871 23.9262 51.092 31 45.8342 31H-6.83415C-12.0919 31 -13.7871 23.9262 -9.10046 21.5431L17.2337 8.15239Z" fill="#344A59"/>
<path d="M120.936 13.0639C121.311 13.0214 121.689 13.0214 122.064 13.0639L245.202 27.0319C251.117 27.7028 251.117 36.2972 245.202 36.9681L122.064 50.9361C121.689 50.9786 121.311 50.9786 120.936 50.9361L-2.20193 36.9681C-8.1172 36.2972 -8.1172 27.7028 -2.20193 27.0319L120.936 13.0639Z" fill="#344A59"/>
</g>
<defs>
<clipPath id="clip0_2274_85069">
<rect width="224" height="36" fill="white"/>
</clipPath>
</defs>
</svg>
