<svg width="100%" height="100%" viewBox="0 0 485 480" fill="none" xmlns="http://www.w3.org/2000/svg">
<path d="M249.396 249.876L235.505 278.357C232.508 284.502 226.063 288.195 219.246 287.675L207.42 286.772C201.218 286.299 195.795 282.413 193.353 276.693L169.377 220.552C164.336 208.748 168.452 195.027 179.158 187.947C191.696 179.656 208.609 183.404 216.47 196.215L249.396 249.876Z" fill="#418980"/>
<path d="M276.879 451.189C273.843 457.28 267.078 460.552 260.418 459.151L256.636 458.356C253.19 457.631 250.807 454.477 251.049 450.965L252.109 435.618C252.752 426.302 261.595 419.785 270.683 421.929C280.182 424.169 285.109 434.68 280.755 443.414L276.879 451.189Z" fill="#326C65"/>
<path d="M281.319 426.401C281.241 431 277.671 434.782 273.084 435.122L265.17 435.71C260.28 436.073 256.019 432.41 255.643 427.522L249.892 352.746C249.152 343.133 256.842 334.968 266.482 335.129C275.518 335.281 282.721 342.729 282.57 351.765L281.319 426.401Z" fill="#418980"/>
<path d="M295.547 350.329C294.266 356.583 288.389 360.799 282.055 360.01L248.757 355.862C243.297 348.231 240.836 338.858 241.842 329.529L244.114 308.463C245.085 299.466 240.77 290.719 233.04 286.015L212.263 273.368L233.313 215.86C241.173 194.384 268.743 188.448 284.745 204.787L306.776 227.28C314.01 234.666 317.102 245.163 315.026 255.291L295.547 350.329Z" fill="#2A6059"/>
<path d="M290.455 361.691C285.552 365.839 278.276 365.488 273.795 360.887L267.304 354.221C267.341 350.04 268.978 346.032 271.878 343.02L275.48 339.279C279.684 334.913 280.944 328.491 278.702 322.861L275.746 315.436L288.743 307.616C301.828 299.743 318.705 307.765 320.861 322.882C321.898 330.15 319.124 337.44 313.519 342.181L290.455 361.691Z" fill="#326C65"/>
<path d="M275.756 202.873C279.271 207.137 278.664 213.443 274.4 216.959L252.157 235.297C247.893 238.813 241.587 238.206 238.071 233.942L209.71 199.543C201.445 189.517 202.871 174.69 212.896 166.425C223.684 157.531 239.639 159.066 248.533 169.853L275.756 202.873Z" fill="#326C65"/>
<path d="M287.219 164.767C294.514 165.118 300.854 169.892 303.206 176.806L310.501 198.249C312.226 203.319 311.223 208.921 307.845 213.078L301.514 220.869C298.466 224.62 293.495 226.224 288.83 224.962L224.017 207.432C213.86 204.685 207.017 195.199 207.614 184.694C208.36 171.576 219.54 161.511 232.664 162.143L287.219 164.767Z" fill="#418980"/>
<ellipse cx="257.061" cy="377.763" rx="30.0347" ry="30.0347" transform="rotate(130.79 257.061 377.763)" fill="#D69682"/>
<path d="M239.628 410.298C235.421 407.013 232.244 402.899 230.146 398.366C228.449 394.701 230.437 390.588 234.018 388.72L277.723 365.924C281.309 364.053 285.826 364.783 287.85 368.284C294.295 379.433 293.728 393.852 285.306 404.638C274.236 418.817 253.785 421.351 239.628 410.298Z" fill="#95B9D0"/>
<path d="M281.389 171.619C278.751 171.405 276.063 171.87 273.971 173.492C269.082 177.284 262.151 185.666 276.958 196.202L283.238 202.084C290.709 209.082 302.888 206.309 306.593 196.766L308.272 192.44C311.771 183.427 305.605 173.586 295.968 172.803L281.389 171.619Z" fill="#D69682"/>
<path d="M230.598 226.67C230.374 225.111 229.76 223.621 228.596 222.561C225.133 219.404 217.024 214.42 211.789 230.515C210.162 235.702 209.15 241.062 208.774 246.485L215.557 264.312L228.916 257.573C232.326 255.853 234.258 252.148 233.715 248.367L230.598 226.67Z" fill="#D69682"/>
<path d="M214.172 225.228C214.172 225.228 202.238 232.204 201.608 251.962L209.38 267.307C211.477 271.446 214.759 274.866 218.808 277.132L229.413 283.066C229.413 283.066 208.697 232.596 214.172 225.228Z" fill="#D69682" stroke="#D69682" stroke-width="1.11182" stroke-miterlimit="10"/>
<path d="M430.889 226.42C434.659 226.875 438.234 224.635 439.469 221.045C443.175 210.276 436.054 198.82 424.757 197.376L107.626 156.86C99.457 155.816 92.6302 163.015 94.1063 171.118C95.7333 180.048 102.987 186.878 111.999 187.965L430.889 226.42Z" fill="#6ED9CC"/>
<path d="M257.504 360.987C261.904 365.735 260.636 373.358 254.937 376.426L233.478 387.976C230.621 389.513 227.133 387.574 226.932 384.336L226.504 377.451C226.281 373.857 228.005 370.421 231.019 368.452L244.836 359.428C248.874 356.791 254.226 357.449 257.504 360.987Z" fill="#E2E2E2"/>
<path d="M310.639 287.41C318.877 292.945 321.186 304.045 315.839 312.406L295.197 344.687C290.505 352.024 281.006 354.595 273.255 350.625C264.803 346.296 261.576 335.856 266.111 327.512L284.41 293.846C289.549 284.392 301.707 281.408 310.639 287.41Z" fill="#418980"/>
<path d="M277.493 384.932C279.939 389.888 286.126 391.654 290.821 388.736C299.854 383.12 303.219 371.608 298.63 362.011L171.728 96.5848C166.894 86.4741 154.272 82.9198 144.872 89.0226C139.075 92.7868 137.012 100.294 140.071 106.492L277.493 384.932Z" fill="#79EADC"/>
<path d="M311.925 304.658C306.766 312.594 295.938 314.449 288.433 308.681L262.798 288.982C256.842 284.405 255.206 276.12 258.975 269.623C263.268 262.223 272.884 259.928 280.057 264.59L307.164 282.21C314.677 287.094 316.809 297.145 311.925 304.658Z" fill="#418980"/>
<path d="M239.665 269.408C237.214 267.232 236.54 263.675 238.026 260.754C242.487 251.987 252.727 247.849 262.026 251.057L268.494 253.289C277.146 256.274 281.058 266.305 276.711 274.36L276.086 275.517C271.201 284.569 259.153 286.7 251.46 279.873L239.665 269.408Z" fill="#326C65"/>
</svg>
