<svg width="284" height="269" viewBox="0 0 284 269" fill="none" xmlns="http://www.w3.org/2000/svg">
<path d="M128.401 184.145L186.203 167.933L190.857 235.646C191.691 247.78 183.737 258.794 171.959 261.815V261.815C158.171 265.351 144.224 256.752 141.194 242.845L128.401 184.145Z" fill="#418980"/>
<path d="M261.461 15.6309C267.701 14.0322 274.218 16.8581 277.321 22.508L279.125 25.7941C280.73 28.7159 279.941 32.3836 277.276 34.3916L265.659 43.1448C258.56 48.4935 248.393 46.188 244.308 38.3033V38.3033C240.04 30.0637 244.557 19.9624 253.539 17.661L261.461 15.6309Z" fill="#326C65"/>
<path d="M239.905 28.7216C243.835 25.4249 249.614 25.6828 253.231 29.3164L256.569 32.6701C260.425 36.5425 260.434 42.8246 256.59 46.7161L207.589 96.3222C201.149 102.842 190.532 102.384 184.684 95.333V95.333C179.204 88.724 180.093 78.8932 186.671 73.3753L239.905 28.7216Z" fill="#418980"/>
<path d="M175.948 65.8497C182.156 62.3595 189.98 64.2443 193.913 70.1769L210.509 95.2142V95.2142C208.416 103.897 203.211 111.51 195.889 116.596L181.445 126.63C173.149 132.393 168.906 142.444 170.56 152.419L173.945 172.848L127.284 190.567C103.483 199.606 78.4863 180.688 80.6131 155.246L82.2108 136.133C83.1747 124.602 89.7885 114.293 99.8534 108.634L175.948 65.8497Z" fill="#326C65"/>
<path d="M186.998 61.2221C194.074 62.3469 199.084 68.7572 198.466 75.8967L197.864 82.8633V82.8633C194.844 85.4374 190.95 86.7511 186.985 86.5332L182.085 86.2638C176.361 85.9492 170.991 89.0175 168.357 94.1063L164.837 100.906L151.255 96.4211C137.466 91.8687 132.733 74.7422 142.235 63.7841V63.7841C146.823 58.4934 153.816 55.9474 160.738 57.0477L186.998 61.2221Z" fill="#326C65"/>
<path d="M87.6992 149.956L133.283 157.797L122.58 220.735C120.517 232.865 109.014 241.008 96.8877 238.922V238.922C83.8389 236.678 75.0603 224.277 77.28 211.224L87.6992 149.956Z" fill="#326C65"/>
<path d="M50.5109 171.53L102.514 144.643L120.54 213.863C123.057 223.527 118.475 233.658 109.562 238.138V238.138C98.4368 243.731 84.9248 239.29 79.2863 228.188L50.5109 171.53Z" fill="#418980"/>
<ellipse cx="221.072" cy="75.6023" rx="28.439" ry="28.6018" fill="#D69682"/>
<path d="M255.179 67.9305C255.407 72.5917 254.596 77.0627 252.95 81.1175C251.25 85.3089 246.279 86.6364 242.08 84.9591L200.848 68.4874C196.671 66.8188 193.987 62.4676 195.608 58.2701C199.878 47.2136 210.311 39.1374 222.867 38.5179C239.879 37.6784 254.346 50.8469 255.179 67.9305Z" fill="#95B9D0"/>
<path d="M239.209 159.967C239.209 159.967 248.289 168.693 242.483 183.463C240.612 187.939 237.396 191.714 233.286 194.261C226.736 198.257 214.844 203.246 200.496 201.213C200.496 201.213 221.361 207.765 237.258 196.708C240.562 194.399 243.156 191.203 244.743 187.483C247.737 180.521 250.736 168.11 239.237 159.967" fill="#E51E3C"/>
<path d="M239.209 159.967C239.209 159.967 248.289 168.693 242.483 183.463C240.612 187.939 237.396 191.714 233.286 194.261C226.736 198.257 214.844 203.246 200.496 201.213C200.496 201.213 221.361 207.765 237.258 196.708C240.562 194.399 243.156 191.203 244.743 187.483C247.709 180.521 250.708 168.11 239.209 159.967Z" stroke="#70BC7C" stroke-width="1.23988" stroke-miterlimit="10"/>
<path d="M47.3174 169.579C47.3174 169.579 44.4038 191.509 66.6017 183.243L94.3189 177.001L47.3174 169.579Z" fill="#D69682"/>
<path d="M125.242 184.895C125.242 184.895 124.306 207.958 143.515 199.848C148.24 197.794 152.709 195.189 156.829 192.087L125.242 184.895Z" fill="#D69682"/>
<path d="M138.254 201.42C138.254 201.42 150.637 205.684 165.191 193.847L156.831 192.101C156.831 192.101 146.923 200.785 138.254 201.42Z" fill="#B07A68" stroke="#D69682" stroke-width="1.23988" stroke-miterlimit="10"/>
<path d="M25.1947 170.526C13.7612 168.352 8.32958 155.121 14.9438 145.556V145.556C22.3137 134.897 34.8668 129.063 47.7736 130.297L235.923 148.28C249.772 149.604 259.294 162.853 256.136 176.404V176.404C251.389 196.767 231.45 209.743 210.907 205.837L25.1947 170.526Z" fill="#79EADC"/>
<path d="M154.152 155.582C154.11 158.686 151.977 161.374 148.964 162.119V162.119C139.922 164.357 130.63 159.578 127.196 150.924L124.756 144.776C121.547 136.688 126.349 127.635 134.848 125.75L136.002 125.494C145.517 123.384 154.495 130.695 154.361 140.444L154.152 155.582Z" fill="#326C65"/>
<path d="M208.771 85.7073C209.453 79.5853 215.717 75.7707 221.461 77.9791L241.906 85.8386C245.28 87.1355 246.191 91.4944 243.617 94.0245L240.437 97.1506C237.574 99.9648 233.418 101.013 229.558 99.8957L215.531 95.8343C211.119 94.557 208.262 90.2771 208.771 85.7073V85.7073Z" fill="#E2E2E2"/>
<path d="M123.161 93.1793C122.033 83.7999 128.601 75.2267 137.951 73.8729L173.681 68.6991C181.895 67.5097 189.657 72.7611 191.608 80.826V80.826C193.732 89.6078 188.212 98.4267 179.383 100.357L144.109 108.068C134.096 110.258 124.383 103.354 123.161 93.1793V93.1793Z" fill="#418980"/>
<path d="M134.733 81.5268C143.613 80.309 151.635 86.918 152.14 95.8675L153.885 126.769C154.286 133.87 149.357 140.175 142.369 141.499V141.499C134.408 143.008 126.818 137.539 125.73 129.511L121.572 98.8452C120.431 90.4339 126.324 82.6802 134.733 81.5268V81.5268Z" fill="#418980"/>
</svg>
