<svg width="482" height="400" viewBox="0 0 482 400" fill="none" xmlns="http://www.w3.org/2000/svg">
<path d="M275.735 191.315L280.3 205.584C289.64 234.785 270.173 265.295 239.755 269.128L174.124 277.399C160.434 279.124 147.53 270.61 143.73 257.345L142.464 252.923C138.069 237.576 147.386 221.668 162.921 217.994L275.735 191.315Z" fill="#418980"/>
<path d="M269.753 196.986C262.647 196.182 260.086 187.17 265.707 182.749L283.957 168.395C290.926 162.914 299.873 160.6 308.627 162.016L320.2 163.889C333.214 165.994 340.33 180.241 334.196 191.91V191.91C330.495 198.951 322.852 202.999 314.948 202.104L269.753 196.986Z" fill="#418980"/>
<path d="M317.742 192.451L302.707 238.789L208.018 206.395C195.908 202.253 189.13 189.385 192.561 177.055V177.055C196.615 162.489 212.194 154.441 226.419 159.563L317.742 192.451Z" fill="#418980"/>
<path d="M238.771 165.652L193.741 192.162L173.893 138.008C170.598 129.019 173.345 118.93 180.741 112.85V112.85C192.976 102.794 211.411 106.979 218.105 121.333L238.771 165.652Z" fill="#418980"/>
<path d="M353.33 149.033C358.176 146.843 363.896 148.434 366.915 152.812L386.7 181.5V181.5C386.7 194.335 380.389 206.35 369.821 213.633L329.933 241.122C314.773 251.569 297.428 258.42 279.22 261.151L236.546 267.552C223.713 269.477 210.597 267.685 198.75 262.388V262.388C179.4 253.735 176.581 227.423 193.66 214.868L243.951 177.897C246.557 175.981 249.487 174.55 252.6 173.672L258.411 172.033C264.258 170.384 270.469 170.568 276.208 172.559V172.559C286.237 176.038 297.246 175.323 306.741 170.576L316.892 165.5L353.33 149.033Z" fill="#326C65"/>
<path d="M367.393 146.761C373.099 147.662 377.135 152.824 376.635 158.578L375.433 172.4V172.4C371.716 175.55 366.933 177.158 362.068 176.892L356.025 176.562C348.973 176.176 342.348 179.953 339.087 186.218L334.787 194.478L317.992 188.965C301.085 183.415 295.315 162.418 307.011 149.007V149.007C312.634 142.559 321.177 139.456 329.627 140.791L367.393 146.761Z" fill="#326C65"/>
<circle cx="364.139" cy="158.34" r="35" transform="rotate(-76.0249 364.139 158.34)" fill="#D69682"/>
<path d="M365.166 115.339C371.905 116.669 377.871 119.713 382.702 123.928C385.439 126.317 385.522 130.397 383.406 133.349L347.81 182.998C345.691 185.954 341.791 187.184 338.652 185.344C325.12 177.414 317.422 161.516 320.636 145.237C324.695 124.672 344.632 111.286 365.166 115.339Z" fill="#95B9D0"/>
<path d="M191.392 216L182.171 247.953C176.887 266.261 153.402 271.407 140.948 256.986L102.529 212.501C92.4887 200.875 93.7003 183.327 105.244 173.191L106.531 172.061C117.262 162.639 133.368 162.811 143.895 172.461L191.392 216Z" fill="#418980"/>
<path d="M185.643 259.233C182.07 260.584 178.035 259.352 175.826 256.236V256.236C169.197 246.884 170.477 234.077 178.825 226.221L184.631 220.757C192.399 213.447 204.867 214.846 210.822 223.695L211.678 224.966C218.37 234.91 214.041 248.494 202.83 252.734L185.643 259.233Z" fill="#326C65"/>
<path d="M369.431 174.882C363.912 172.834 361.813 166.125 365.181 161.296L384.353 133.807C386.022 131.413 389.61 131.555 391.085 134.073L396.866 143.937C398.503 146.731 398.513 150.189 396.892 152.993L385.422 172.831C383.226 176.629 378.612 178.29 374.499 176.763L369.431 174.882Z" fill="#E2E2E2"/>
<path d="M237.732 209.959C238.703 199.362 247.34 191.103 257.97 190.608L308.967 188.234C322.91 187.584 334.877 198.06 336.08 211.965L336.18 213.12C337.637 229.968 322.875 243.702 306.175 241.034L255.599 232.955C244.52 231.186 236.709 221.132 237.732 209.959V209.959Z" fill="#418980"/>
<path d="M267.238 202.38C271.684 212.457 266.656 224.19 256.293 227.921L212.011 243.864C203.796 246.821 194.662 243.213 190.687 235.438V235.438C186.148 226.56 190.008 215.692 199.131 211.667L242.19 192.668C251.789 188.433 263.003 192.781 267.238 202.38V202.38Z" fill="#418980"/>
<path d="M187.286 82.7352C196.715 75.4427 207.471 70.0521 218.956 66.863L242.114 60.4329C260.939 55.2061 273.439 79.5023 258.241 91.7789L105.677 215.02C90.2301 227.499 72.3843 236.671 53.2463 241.969L39.3904 245.805C18.2511 251.657 4.46814 224.128 21.8188 210.709L187.286 82.7352Z" fill="#79EADC"/>
<circle cx="11.5" cy="198.5" r="5.5" fill="white"/>
<circle cx="24" cy="177" r="5" fill="white"/>
<circle cx="15.5" cy="157.5" r="3.5" fill="white"/>
<circle cx="7.5" cy="183.5" r="3.5" fill="white"/>
<circle cx="14.5" cy="120.5" r="3.5" fill="white"/>
<circle cx="27.5" cy="101.5" r="3.5" fill="white"/>
<circle cx="18.5" cy="107.5" r="2.5" fill="white"/>
<circle cx="29.5" cy="82.5" r="2.5" fill="white"/>
<circle cx="56.5" cy="48.5" r="1.5" fill="white"/>
<circle cx="73.5" cy="28.5" r="1.5" fill="white"/>
<circle cx="101" cy="9" r="1" fill="white"/>
<circle cx="8.5" cy="164.5" r="2.5" fill="white"/>
<circle cx="43.5" cy="68.5" r="2.5" fill="white"/>
<circle cx="11.5" cy="140.5" r="5.5" fill="white"/>
</svg>
