<svg width="327" height="303" viewBox="0 0 327 303" fill="none" xmlns="http://www.w3.org/2000/svg">
<path d="M0 193.612L325.581 238.326V303.008H0V193.612Z" fill="#F1F4F8"/>
<g clip-path="url(#clip0_2516_88599)">
<path d="M299.26 181.919C302.406 181.214 304.633 178.407 304.604 175.182V175.182C304.516 165.51 295.566 158.358 286.112 160.407L20.7312 217.924C13.8951 219.406 10.4719 227.106 13.9518 233.174V233.174C17.7875 239.862 25.5319 243.272 33.0552 241.586L299.26 181.919Z" fill="#6ED9CC"/>
<path d="M112.141 174.792C109.676 170.014 109.653 164.343 112.079 159.544L117.659 148.507C119.519 144.827 123.292 142.506 127.416 142.506L139.102 142.506C143.341 142.506 147.198 144.956 148.999 148.793L173.543 201.075C177.804 210.152 174.833 220.979 166.538 226.611L165.078 227.602C154.959 234.472 141.11 230.95 135.502 220.08L112.141 174.792Z" fill="#326C65"/>
<path d="M141.369 233.581C135.779 231.178 131.93 225.936 131.312 219.883L130.173 208.733C129.883 205.895 130.714 203.056 132.489 200.822L138.671 193.039C141.881 188.998 147.48 187.752 152.101 190.051L178.495 203.18C187.125 207.473 191.57 217.222 189.152 226.552L188.685 228.355C185.551 240.451 172.373 246.908 160.894 241.974L141.369 233.581Z" fill="#326C65"/>
<path d="M295.293 219.288C298.142 220.277 299.766 223.275 299.04 226.201L296.622 235.938C295.848 239.058 292.695 240.962 289.573 240.196L226.042 224.604C218.089 222.653 213.539 214.283 216.225 206.547V206.547C218.743 199.296 226.662 195.459 233.913 197.976L295.293 219.288Z" fill="#418980"/>
<path d="M308.682 225.05C313.73 227.865 316.241 233.733 314.791 239.328L313.773 243.257C313.135 245.721 310.777 247.338 308.248 247.046L294.499 245.455C286.621 244.544 281.438 236.786 283.613 229.159V229.159C285.886 221.188 294.998 217.42 302.237 221.456L308.682 225.05Z" fill="#326C65"/>
<path d="M110.686 165.414C107.76 162.372 108.428 157.397 112.053 155.234L130.43 144.27C137.204 140.228 145.988 143.035 149.162 150.257L153.47 160.056C155.857 165.488 153.476 171.833 148.105 174.353L134.391 180.787C130.716 182.511 126.351 181.702 123.537 178.777L110.686 165.414Z" fill="#418980"/>
<path d="M64.3087 191.497C62.1266 188.918 62.2599 185.103 64.6168 182.683L81.7788 165.06C84.2059 162.568 88.1563 162.404 90.7818 164.686L128.879 197.803C132.885 201.285 133.249 207.379 129.686 211.314L120.764 221.166C112.183 230.642 97.2189 230.391 88.9611 220.632L64.3087 191.497Z" fill="#326C65"/>
<path d="M54.4446 180.259C51.3672 176.325 51.1365 170.869 53.871 166.689L66.4333 147.488C68.1227 144.906 70.8898 143.227 73.9603 142.921L84.7429 141.847C88.1971 141.502 91.4804 143.42 92.8773 146.598L112.188 190.525C115.695 198.504 113.308 207.846 106.404 213.164L106.078 213.415C97.2033 220.251 84.4764 218.648 77.5742 209.825L54.4446 180.259Z" fill="#418980"/>
<path d="M239.132 208.299C241.981 208.946 244.252 211.093 245.059 213.901L247.262 221.561C250.009 231.115 243.884 240.948 234.098 242.695L214.924 246.119C212.704 246.516 210.445 246.653 208.194 246.529L155.968 243.65C154.5 243.569 153.051 243.277 151.666 242.783L108.566 227.401L102.37 202.256L109.433 193.356C116.357 184.63 126.398 178.932 137.44 177.461L151.728 175.558C153.053 175.382 154.402 175.573 155.625 176.112L165.493 180.454C169.789 182.344 173.77 184.882 177.297 187.978L183.029 193.012C185.581 195.252 188.651 196.82 191.962 197.572L239.132 208.299Z" fill="#2A6059"/>
<path d="M231.184 195.43C235.342 196.087 238.284 199.849 237.919 204.043L237.044 214.117V214.117C234.334 216.413 230.849 217.585 227.302 217.391L222.898 217.15C217.758 216.869 212.929 219.622 210.553 224.188L207.419 230.209L195.178 226.19C182.855 222.145 178.65 206.841 187.174 197.067V197.067C191.272 192.367 197.499 190.105 203.658 191.079L231.184 195.43Z" fill="#326C65"/>
<path d="M75.2538 182.605C76.7283 183.52 78.4299 184.035 80.1494 183.801C85.6434 183.054 97.1116 179.554 88.6264 163.176L83.7725 149.615C81.5109 143.297 73.5784 141.267 68.5603 145.724L56.3664 156.552C51.6272 160.76 52.2762 168.345 57.6616 171.687L75.2538 182.605Z" fill="#D69682"/>
<path d="M136.233 143.204C134.79 140.309 131.973 138.333 128.738 138.292C120.287 138.186 104.736 139.517 107.54 151.061C107.866 152.402 108.693 153.567 109.686 154.524L124.574 168.869C127.725 171.905 132.545 172.388 136.236 170.039L139.186 168.162C143.277 165.558 144.742 160.284 142.579 155.943L136.233 143.204Z" fill="#D69682"/>
<circle cx="240.362" cy="213.804" r="25.5098" transform="rotate(-43.3427 240.362 213.804)" fill="#D69682"/>
<path d="M257.916 187.83C261.527 191.298 263.989 195.513 265.293 200C266.032 202.543 264.477 205.078 262.017 206.057L220.641 222.505C218.177 223.484 215.301 222.703 214.099 220.34C208.919 210.149 210.454 197.367 218.832 188.645C229.416 177.627 246.915 177.262 257.916 187.83Z" fill="#95B9D0"/>
<path d="M234.346 220.849C232.474 216.988 234.751 212.399 238.958 211.555L262.909 206.751C264.994 206.333 266.811 208.216 266.318 210.285L264.387 218.392C263.841 220.688 262.103 222.513 259.836 223.172L243.798 227.831C240.727 228.723 237.46 227.271 236.065 224.394L234.346 220.849Z" fill="#E2E2E2"/>
<path d="M157.088 240.115C156.076 231.747 161.933 224.103 170.276 222.902L202.489 218.264C209.81 217.21 216.733 221.892 218.481 229.079V229.079C220.387 236.916 215.464 244.784 207.583 246.497L175.781 253.41C166.85 255.352 158.185 249.189 157.088 240.115V240.115Z" fill="#418980"/>
<path d="M161.018 228.904C167.873 224.705 176.853 227.24 180.499 234.404L192.956 258.876C195.85 264.561 194.076 271.511 188.812 275.115V275.115C182.817 279.22 174.605 277.466 170.809 271.27L156.465 247.855C152.489 241.365 154.527 232.88 161.018 228.904V228.904Z" fill="#418980"/>
<path d="M205.338 277.261C206.86 279.592 206.616 282.657 204.744 284.718V284.718C199.128 290.903 189.811 292.001 182.911 287.292L178.11 284.016C171.689 279.634 170.729 270.54 176.093 264.913L176.864 264.105C182.892 257.782 193.24 258.732 198.016 266.047L205.338 277.261Z" fill="#326C65"/>
<path d="M43.4507 22.3588C42.0059 17.8952 37.0267 15.6508 32.7253 17.5242V17.5242C24.4413 21.1322 20.2008 30.3971 22.8843 39.025L96.3491 275.225L127.839 283.067L43.4507 22.3588Z" fill="#79EADC"/>
<ellipse cx="49.0305" cy="240.496" rx="28.2171" ry="13.0233" fill="#F1F4F8"/>
<ellipse cx="299.077" cy="253.519" rx="28.2171" ry="13.0233" fill="#F1F4F8"/>
<path d="M235.263 287.814C235.263 292.849 222.63 296.93 207.046 296.93C191.462 296.93 174.054 289.376 174.054 284.341C174.054 279.306 191.462 284.341 207.046 284.341C222.63 284.341 235.263 282.779 235.263 287.814Z" fill="#F1F4F8"/>
</g>
<defs>
<clipPath id="clip0_2516_88599">
<rect width="302.473" height="303" fill="white" transform="translate(11.2637)"/>
</clipPath>
</defs>
</svg>
