<svg xmlns="http://www.w3.org/2000/svg" viewBox="0 0 1000 1000">
  <defs>
    <linearGradient id="gradient_0" gradientUnits="userSpaceOnUse" x1="700.29022" y1="101.38573" x2="428.69229" y2="657.81299">
      <stop offset="0" stop-color="#1D2E39"/>
      <stop offset="1" stop-color="#69BCCA"/>
    </linearGradient>
  </defs>
  <path fill="url(#gradient_0)" d="M0 0L1024 0L1024 1024L914.486 1024L795.48 1024L752.582 1024L528.115 1024L512.521 1024L498.053 1024L271.469 1024L227.468 1024L109.918 1024L0 1024L0 0Z"/>
  <path fill="#BDD3DF" d="M365.513 137.927C366.073 137.921 366.171 137.911 366.795 137.958C368.654 138.099 370.124 138.612 371.267 140.183C372.11 141.341 372.282 142.576 372.106 143.964C371.845 146.035 370.479 147.264 368.923 148.468C368.132 148.537 367.3 148.599 366.508 148.515C365.222 148.379 364.24 147.804 363.433 146.82C362.372 145.526 362.052 144.032 362.317 142.389C362.684 140.11 363.716 139.171 365.513 137.927Z"/>
  <path fill="#BDD3DF" d="M844 367.956C844.649 367.943 845.097 367.92 845.764 367.977C847.496 368.123 849.029 368.923 849.987 370.405C850.761 371.601 850.9 372.982 850.612 374.348C850.117 376.691 848.862 377.623 847.003 378.931C845.196 378.848 843.652 378.674 842.238 377.452C841.065 376.437 840.513 375.006 840.579 373.479C840.692 370.897 842.125 369.527 844 367.956Z"/>
  <path fill="#BDD3DF" d="M718.902 198.426C719.509 198.391 720.148 198.334 720.758 198.371C722.533 198.48 724.153 199.05 725.283 200.49C726.034 201.447 726.31 202.586 726.222 203.785C726.023 206.495 724.477 207.869 722.541 209.58C722.325 209.621 722.111 209.676 721.893 209.704C720.236 209.919 718.58 209.48 717.332 208.334C716.135 207.237 715.693 205.687 715.741 204.112C715.824 201.401 717.012 200.17 718.902 198.426Z"/>
  <path fill="#BDD3DF" d="M307.241 240.748C309.074 242.148 310.002 246.904 310.958 249.111C313.204 254.299 319.638 256.575 324.496 258.528C322.353 259.288 320.099 259.997 318.058 261C311.318 264.315 309.668 271.725 307.52 278.244C306.569 274.513 305.697 270.513 303.853 267.103C300.836 261.528 295.62 260.082 289.94 258.488C293.251 256.92 296.863 255.872 300.008 253.963C305.095 250.874 305.995 246.131 307.241 240.748Z"/>
  <path fill="#BDD3DF" d="M608.853 106.886C609.306 109.974 609.66 113.207 610.964 116.072C614.464 123.759 622.026 125.251 629.166 127.909C624.788 128.563 620.38 129.205 616.591 131.689C611.158 135.251 609.766 140.836 608.676 146.83C606.94 142.105 606.761 137.708 603.226 133.588C599.043 128.712 592.797 128.435 586.867 127.999C591.448 126.734 596.306 125.817 600.393 123.267C606.491 119.462 607.434 113.328 608.853 106.886Z"/>
  <path fill="#69BCCA" d="M372.862 353.707C375.959 352.431 378.992 350.926 382.035 349.524C381.316 358.952 380.481 378.031 387.111 385.628Q387.543 386.121 388.023 386.569Q388.502 387.016 389.024 387.413Q389.546 387.81 390.105 388.153Q390.664 388.496 391.254 388.782Q391.845 389.067 392.461 389.292Q393.077 389.517 393.713 389.679Q394.348 389.841 394.996 389.938Q395.645 390.036 396.3 390.068C397.806 390.13 399.316 390.101 400.823 390.08C397.292 397.622 392.005 402.524 385.964 408.151C381.69 411.443 377.652 413.177 372.469 414.599C371.548 414.511 370.623 414.331 369.708 414.19C369.008 413.707 368.456 413.296 367.995 412.565C363.125 404.839 359.372 373.58 361.928 364.901C363.564 359.347 367.986 356.219 372.862 353.707Z"/>
  <path fill="#BDD3DF" d="M377.658 315.855C385.541 290.957 395.47 269.99 413.985 251.024Q415.179 249.786 416.404 248.579Q417.629 247.371 418.883 246.194Q420.137 245.017 421.42 243.871Q422.703 242.726 424.013 241.612Q425.324 240.498 426.662 239.417Q428 238.336 429.364 237.289Q430.728 236.241 432.118 235.228Q433.507 234.214 434.921 233.235Q436.336 232.256 437.774 231.312Q439.211 230.369 440.672 229.461Q442.133 228.553 443.616 227.681Q445.099 226.81 446.602 225.975Q448.106 225.14 449.63 224.343Q451.154 223.546 452.698 222.786Q454.241 222.027 455.802 221.306Q457.364 220.585 458.943 219.902Q460.522 219.22 462.117 218.577Q463.712 217.934 465.323 217.331Q466.933 216.727 468.558 216.164Q470.183 215.6 471.822 215.077Q473.46 214.554 475.111 214.071Q476.762 213.589 478.424 213.147Q480.087 212.705 481.759 212.305Q483.432 211.904 485.114 211.545Q486.796 211.186 488.487 210.869Q490.177 210.552 491.875 210.276Q493.573 210.001 495.277 209.767Q496.981 209.534 498.69 209.342Q500.399 209.151 502.113 209.002Q503.826 208.853 505.543 208.746Q507.26 208.639 508.978 208.575Q510.697 208.511 512.417 208.489L512.312 261.181C512.281 266.196 511.344 280.172 512.397 284.304L512.086 284.368C476.233 284.609 423.342 291.817 397.341 318.283C389.366 326.4 382.483 337.847 382.035 349.524C378.992 350.926 375.959 352.431 372.862 353.707C372.264 340.945 375.02 328.26 377.658 315.855Z"/>
  <path fill="#69BCCA" d="M512.417 208.489C548.882 208.013 586.153 223.587 612.273 248.943C633.958 269.993 650.641 297.502 655.255 327.705C656.943 338.751 656.795 350.029 657.465 361.153C652.955 356.772 647.9 354.01 642.443 351.016C641.488 340.971 638.995 331.424 633.023 323.131C622.351 308.312 594.247 294.054 576.215 291.228C559.36 285.585 530.409 284.63 512.397 284.304C511.344 280.172 512.281 266.196 512.312 261.181L512.417 208.489Z"/>
  <path fill="#69BCCA" d="M724.083 250.129C728.018 249.79 731.546 250.529 734.696 253.036C737.992 255.66 738.818 258.505 739.172 262.559C739.779 269.513 739.402 276.748 739.392 283.734L739.306 322.281L739.588 435.086C739.606 441.628 738.354 464.927 740.08 469.364C739.803 469.737 739.442 470.061 739.249 470.484C738.397 472.351 738.904 504.134 739.005 508.447L739.571 710.84C734.747 708.018 729.504 705.638 724.526 703.081L713.254 698.076Q713.391 673.504 713.231 648.933L713.466 527.068C714.889 524.106 714.018 503.265 713.548 499.152C713.077 490.202 713.344 481.136 713.319 472.172C713.242 444.123 714.208 415.874 713.419 387.85C713.912 358.895 713.571 329.874 713.566 300.913C713.563 288.661 712.667 273.537 713.784 261.635C714.017 259.152 714.713 256.865 716.104 254.776C718.069 251.824 720.767 250.895 724.083 250.129Z"/>
  <path fill="#69BCCA" d="M724.083 250.129C725.064 251.493 724.955 252.777 724.992 254.434C725.291 268.044 724.981 281.728 724.959 295.346L724.762 385.224L724.526 703.081L713.254 698.076Q713.391 673.504 713.231 648.933L713.466 527.068C714.889 524.106 714.018 503.265 713.548 499.152C713.077 490.202 713.344 481.136 713.319 472.172C713.242 444.123 714.208 415.874 713.419 387.85C713.912 358.895 713.571 329.874 713.566 300.913C713.563 288.661 712.667 273.537 713.784 261.635C714.017 259.152 714.713 256.865 716.104 254.776C718.069 251.824 720.767 250.895 724.083 250.129Z"/>
  <path fill="#69BCCA" d="M642.443 351.016C647.9 354.01 652.955 356.772 657.465 361.153C666.394 373.134 662.438 384.366 662.531 397.974C662.621 397.837 662.734 397.714 662.799 397.564C664.628 393.344 664.649 377.586 663.861 372.745C663.491 370.468 662.229 368.261 661.561 366.023L662.121 365.879C663.087 366.377 664.083 366.947 665.157 367.156C667.78 367.668 670.025 368.838 672.512 369.775C675.357 370.848 678.349 371.763 681.112 373.024C687.912 376.127 698.251 382.086 705.25 383.739C707.269 384.216 709.491 384.203 711.559 384.254C713.639 387.176 712.167 415.824 712.559 421.585C713.268 410.591 712.345 399.476 713.354 388.502L713.419 387.85C714.208 415.874 713.242 444.123 713.319 472.172C713.344 481.136 713.077 490.202 713.548 499.152C714.018 503.265 714.889 524.106 713.466 527.068C705.463 532.618 697.929 538.996 690.108 544.821C679.992 552.356 669.147 559.65 659.632 567.92C658.973 567.121 658.484 566.206 657.953 565.319C655.08 561.393 636.724 544.453 632.7 543.412C635.695 525.776 634.562 507.847 635.085 490.038C634.65 473.223 635.197 456.215 635.304 439.382C635.503 433.982 635.314 428.566 635.531 423.157C635.226 422.462 635.265 422.771 635.327 421.98C635.797 415.948 634.758 409.209 636.015 403.405C632.276 398.623 629.393 393.221 625.486 388.562C631.113 388.568 636.587 388.377 642.188 387.852C642.341 377.12 640.759 360.972 642.443 351.016Z"/>
  <path fill="#BDD3DF" d="M713.548 499.152C714.018 503.265 714.889 524.106 713.466 527.068C705.463 532.618 697.929 538.996 690.108 544.821C679.992 552.356 669.147 559.65 659.632 567.92C658.973 567.121 658.484 566.206 657.953 565.319C664.337 558.387 669.839 550.765 675.764 543.457C683.314 534.144 691.149 525.035 698.866 515.858C703.612 510.214 708.249 504.285 713.548 499.152Z"/>
  <path fill="#BDD3DF" d="M635.531 423.157C641.268 425.338 646.833 427.433 652.022 430.776C659.512 436.764 664.249 444.399 665.265 454.065C666.193 462.895 663.125 472.415 657.488 479.233C652.65 485.085 645.706 489.635 638.043 490.46C637.042 490.567 636.391 490.46 635.448 490.158L635.085 490.038C634.65 473.223 635.197 456.215 635.304 439.382C635.503 433.982 635.314 428.566 635.531 423.157Z"/>
  <path fill="#BDD3DF" d="M635.304 439.382C640.657 440.04 645.282 442.53 648.561 446.873C652.299 451.824 654.038 458.671 652.998 464.796C651.924 471.125 648.121 476.823 642.877 480.473C640.614 482.048 638.085 483.099 635.487 483.981L635.448 490.158L635.085 490.038C634.65 473.223 635.197 456.215 635.304 439.382Z"/>
  <path fill="#69BCCA" d="M642.443 351.016C647.9 354.01 652.955 356.772 657.465 361.153C666.394 373.134 662.438 384.366 662.531 397.974C661.411 403.913 662.772 411.744 660.284 417.16L659.625 417.451C656.484 420.903 653.831 426.467 652.022 430.776C646.833 427.433 641.268 425.338 635.531 423.157C635.226 422.462 635.265 422.771 635.327 421.98C635.797 415.948 634.758 409.209 636.015 403.405C632.276 398.623 629.393 393.221 625.486 388.562C631.113 388.568 636.587 388.377 642.188 387.852C642.341 377.12 640.759 360.972 642.443 351.016Z"/>
  <path fill="#1D2E39" d="M636.015 403.405C642.517 410.963 650.064 414.799 659.625 417.451C656.484 420.903 653.831 426.467 652.022 430.776C646.833 427.433 641.268 425.338 635.531 423.157C635.226 422.462 635.265 422.771 635.327 421.98C635.797 415.948 634.758 409.209 636.015 403.405Z"/>
  <path fill="#69BCCA" d="M512.086 284.368L512.397 284.304C530.409 284.63 559.36 285.585 576.215 291.228C594.247 294.054 622.351 308.312 633.023 323.131C638.995 331.424 641.488 340.971 642.443 351.016C640.759 360.972 642.341 377.12 642.188 387.852C636.587 388.377 631.113 388.568 625.486 388.562L621.532 388.458C614.851 388.183 608.066 387.964 601.437 387.071C595.404 386.707 589.426 385.37 583.364 385.56C578.39 384.362 573.198 383.928 568.112 383.444C562.509 382.025 556.745 381.181 551.111 379.818C547.13 380.104 542.451 378.832 538.699 377.525C526.573 373.301 518.089 365.564 512.47 354.135L510.819 360.525C503.431 372.72 496.274 379.803 482.176 383.325C477.742 384.433 473.223 384.766 468.781 385.688C465.496 385.263 461.987 384.623 458.854 383.531C452.974 384.147 447.07 384.775 441.278 385.995C433.7 388.738 420.79 393.303 417.729 401.559C417.262 402.819 417.33 404.226 417.335 405.554C417.149 404.512 417.132 402.568 416.325 401.925C412.004 402.17 407.696 402.929 403.416 403.552C403.497 399.437 404.16 394.208 403.088 390.226L401.72 389.841L400.823 390.08C399.316 390.101 397.806 390.13 396.3 390.068Q395.645 390.036 394.996 389.938Q394.348 389.841 393.713 389.679Q393.077 389.517 392.461 389.292Q391.845 389.067 391.254 388.782Q390.664 388.496 390.105 388.153Q389.546 387.81 389.024 387.413Q388.502 387.016 388.023 386.569Q387.543 386.121 387.111 385.628C380.481 378.031 381.316 358.952 382.035 349.524C382.483 337.847 389.366 326.4 397.341 318.283C423.342 291.817 476.233 284.609 512.086 284.368Z"/>
  <path fill="#BDD3DF" d="M573.856 304.655L573.962 304.091C571.384 303.2 568.596 302.993 566.079 302.073C564.38 301.453 562.775 301.184 560.999 300.886C557.959 298.489 554.505 291.536 553.154 287.908C557.829 286.606 570.102 291.985 575.496 291.333C575.736 291.304 575.975 291.263 576.215 291.228C594.247 294.054 622.351 308.312 633.023 323.131C638.995 331.424 641.488 340.971 642.443 351.016C640.759 360.972 642.341 377.12 642.188 387.852C636.587 388.377 631.113 388.568 625.486 388.562L621.532 388.458C614.851 388.183 608.066 387.964 601.437 387.071C602.379 386.911 603.323 386.72 604.279 386.691C604.416 386.687 604.553 386.694 604.691 386.696L604.847 385.637L605.139 386.91C605.625 383.405 608.643 380.224 608.362 376.824L606.461 375.388C611.169 375.879 615.635 376.33 620.187 374.602Q620.6 374.449 621.004 374.275Q621.408 374.1 621.802 373.905Q622.197 373.71 622.58 373.495Q622.964 373.279 623.336 373.044Q623.708 372.809 624.067 372.555Q624.427 372.3 624.772 372.028Q625.117 371.755 625.448 371.465Q625.779 371.175 626.094 370.868Q626.41 370.561 626.708 370.238Q627.007 369.915 627.289 369.577Q627.57 369.238 627.834 368.886Q628.098 368.534 628.343 368.168Q628.587 367.802 628.813 367.424Q629.038 367.046 629.244 366.657Q629.449 366.268 629.634 365.869Q629.819 365.469 629.983 365.061C632.767 358.279 631.383 349.921 628.654 343.302C622.131 327.484 604.791 316.555 589.623 310.359C584.57 308.295 579.252 306.922 574.238 304.819L573.856 304.655Z"/>
  <path fill="#BDD3DF" d="M512.086 284.368L512.397 284.304C530.409 284.63 559.36 285.585 576.215 291.228C575.975 291.263 575.736 291.304 575.496 291.333C570.102 291.985 557.829 286.606 553.154 287.908C554.505 291.536 557.959 298.489 560.999 300.886C562.775 301.184 564.38 301.453 566.079 302.073C568.596 302.993 571.384 303.2 573.962 304.091L573.856 304.655C561.398 301.536 548.674 298.971 535.842 298.061C528.063 297.509 520.238 297.734 512.457 297.165C482.469 296.735 431.652 304.251 409.779 325.265C399.633 335.011 394.463 347.707 394.198 361.745C394.121 365.854 394.717 369.779 397.646 372.848C398.178 373.405 398.759 373.894 399.345 374.393C399.447 374.494 399.542 374.603 399.652 374.696C403.645 378.058 420.141 374.62 425.909 374.057C435.564 373.114 463.401 370.618 471.034 366.259C474.713 364.158 477.428 360.521 479.623 356.974C483.829 350.179 486.589 342.369 491.757 336.2C496.234 330.856 501.481 328.565 508.302 327.986C539.935 325.304 534.791 350.77 552.002 364.619C557.718 369.219 564.092 369.581 570.985 370.582C573.329 370.922 575.946 371.555 578.292 371.34Q592.393 373.249 606.461 375.388L608.362 376.824C608.643 380.224 605.625 383.405 605.139 386.91L604.847 385.637L604.691 386.696C604.553 386.694 604.416 386.687 604.279 386.691C603.323 386.72 602.379 386.911 601.437 387.071C595.404 386.707 589.426 385.37 583.364 385.56C578.39 384.362 573.198 383.928 568.112 383.444C562.509 382.025 556.745 381.181 551.111 379.818C547.13 380.104 542.451 378.832 538.699 377.525C526.573 373.301 518.089 365.564 512.47 354.135L510.819 360.525C503.431 372.72 496.274 379.803 482.176 383.325C477.742 384.433 473.223 384.766 468.781 385.688C465.496 385.263 461.987 384.623 458.854 383.531C452.974 384.147 447.07 384.775 441.278 385.995C433.7 388.738 420.79 393.303 417.729 401.559C417.262 402.819 417.33 404.226 417.335 405.554C417.149 404.512 417.132 402.568 416.325 401.925C412.004 402.17 407.696 402.929 403.416 403.552C403.497 399.437 404.16 394.208 403.088 390.226L401.72 389.841L400.823 390.08C399.316 390.101 397.806 390.13 396.3 390.068Q395.645 390.036 394.996 389.938Q394.348 389.841 393.713 389.679Q393.077 389.517 392.461 389.292Q391.845 389.067 391.254 388.782Q390.664 388.496 390.105 388.153Q389.546 387.81 389.024 387.413Q388.502 387.016 388.023 386.569Q387.543 386.121 387.111 385.628C380.481 378.031 381.316 358.952 382.035 349.524C382.483 337.847 389.366 326.4 397.341 318.283C423.342 291.817 476.233 284.609 512.086 284.368Z"/>
  <path fill="#BDD3DF" d="M401.72 389.841C402.128 389.699 438.342 386.032 441.278 385.995C433.7 388.738 420.79 393.303 417.729 401.559C417.262 402.819 417.33 404.226 417.335 405.554C417.149 404.512 417.132 402.568 416.325 401.925C412.004 402.17 407.696 402.929 403.416 403.552C403.497 399.437 404.16 394.208 403.088 390.226L401.72 389.841Z"/>
  <path fill="#69BCCA" d="M458.854 383.531C464.799 382.835 470.887 382.03 476.251 379.188C490.897 371.429 493.288 346.242 507.934 340.952C523.382 335.372 532.479 362.359 539.902 371.423C542.846 375.017 546.193 377.708 550.478 379.552L551.111 379.818C547.13 380.104 542.451 378.832 538.699 377.525C526.573 373.301 518.089 365.564 512.47 354.135L510.819 360.525C503.431 372.72 496.274 379.803 482.176 383.325C477.742 384.433 473.223 384.766 468.781 385.688C465.496 385.263 461.987 384.623 458.854 383.531Z"/>
  <defs>
    <linearGradient id="gradient_1" gradientUnits="userSpaceOnUse" x1="855.89667" y1="763.35211" x2="821.49451" y2="489.82248">
      <stop offset="0" stop-color="#1D2E39"/>
      <stop offset="1" stop-color="#69BCCA"/>
    </linearGradient>
  </defs>
  <path fill="url(#gradient_1)" d="M740.08 469.364C746.238 463.504 751.72 456.864 757.273 450.439L783.941 419.18C789.324 412.868 794.835 405.241 801.344 400.104L913.412 526.321C925.153 539.432 936.363 552.98 948.251 565.969C952.182 570.264 956.05 575.038 960.369 578.93C957.125 596.397 954.306 613.782 949.661 630.963C939.175 664.252 927.426 696.525 911.103 727.465Q905.396 738.265 898.796 748.544C896.123 752.758 893.029 756.965 890.752 761.398C887.901 765.908 885.018 771.692 881.35 775.533C877.54 781.25 873.646 786.782 869.305 792.116Q858.586 804.637 846.843 816.203C830.748 781.133 805.364 753.401 774.017 731.148C762.771 723.699 751.233 717.562 739.571 710.84L739.005 508.447C738.904 504.134 738.397 472.351 739.249 470.484C739.442 470.061 739.803 469.737 740.08 469.364Z"/>
  <path fill="#BDD3DF" d="M740.08 469.364C746.238 463.504 751.72 456.864 757.273 450.439L783.941 419.18C789.324 412.868 794.835 405.241 801.344 400.104C801.916 409.893 800.112 420.143 799.555 429.938Q798.377 451.939 796.805 473.915C796.289 481.255 796.14 488.887 795.049 496.157C780.833 508.268 766.806 521.024 752.011 532.391C751.961 519.876 752.837 507.705 754.411 495.297C749.765 500.255 744.393 504.343 739.005 508.447C738.904 504.134 738.397 472.351 739.249 470.484C739.442 470.061 739.803 469.737 740.08 469.364Z"/>
  <path fill="#BDD3DF" d="M801.344 400.104L913.412 526.321C925.153 539.432 936.363 552.98 948.251 565.969C952.182 570.264 956.05 575.038 960.369 578.93C957.125 596.397 954.306 613.782 949.661 630.963C933.31 630.564 916.921 630.851 900.566 630.928C899.183 606 895.748 581.077 893.197 556.239C886.941 550.565 879.357 546.052 872.343 541.362C860.238 533.268 847.847 525.196 836.316 516.306C834.679 522.509 833.257 528.912 831.01 534.92C817.968 523.982 807.624 507.879 795.049 496.157C796.14 488.887 796.289 481.255 796.805 473.915Q798.377 451.939 799.555 429.938C800.112 420.143 801.916 409.893 801.344 400.104Z"/>
  <path fill="#1D2E39" d="M824.697 552.065C830.177 561.824 834.654 572.375 839.677 582.405C846.195 595.418 853.389 608.342 859.402 621.581L845.571 621.569L863.362 657.222C869.201 668.693 875.394 680.202 880.513 692.008Q866.635 692.288 852.755 692.245C859.471 706.196 867.218 719.587 874.635 733.166C879.774 742.576 884.508 752.68 890.752 761.398C887.901 765.908 885.018 771.692 881.35 775.533C877.54 781.25 873.646 786.782 869.305 792.116Q858.586 804.637 846.843 816.203C830.748 781.133 805.364 753.401 774.017 731.148Q784.076 711.091 795.24 691.627C785.169 691.812 775.034 692.213 764.966 692.091C777.58 668.891 789.281 645.211 801.79 621.962L789.765 621.681C793.469 613.165 798.341 605.051 802.575 596.781C810.146 581.992 817.4 566.993 824.697 552.065Z"/>
  <path fill="#1D2E39" d="M859.704 775.439Q870.528 775.166 881.35 775.533C877.54 781.25 873.646 786.782 869.305 792.116C865.572 787.094 862.715 780.945 859.704 775.439Z"/>
  <path fill="#1D2E39" d="M512.47 354.135C518.089 365.564 526.573 373.301 538.699 377.525C542.451 378.832 547.13 380.104 551.111 379.818C556.745 381.181 562.509 382.025 568.112 383.444C573.198 383.928 578.39 384.362 583.364 385.56C589.426 385.37 595.404 386.707 601.437 387.071C608.066 387.964 614.851 388.183 621.532 388.458L625.486 388.562C629.393 393.221 632.276 398.623 636.015 403.405C634.758 409.209 635.797 415.948 635.327 421.98C635.265 422.771 635.226 422.462 635.531 423.157C635.314 428.566 635.503 433.982 635.304 439.382C635.197 456.215 634.65 473.223 635.085 490.038C634.562 507.847 635.695 525.776 632.7 543.412C631.365 549.929 630.193 556.545 628.132 562.881C623.696 574.671 618.58 583.967 609.986 593.294C606.715 596.844 602.352 600.673 599.894 604.817C577.881 627.642 547.91 656.139 514.491 657.73C513.549 657.903 512.569 657.901 511.614 657.922C480.327 658.605 450.341 629.487 429.221 609.379C426.605 604.831 410.859 590.665 405.945 585.078C402.36 581.002 399.699 576.033 396.96 571.367C393.353 563.794 390.722 556.454 388.957 548.247C386.353 532.318 387.616 507.295 387.594 490.386Q385.872 489.875 384.208 489.198Q382.543 488.52 380.954 487.683Q379.364 486.846 377.864 485.858Q376.364 484.869 374.968 483.738Q374.34 483.221 373.739 482.674Q373.138 482.126 372.564 481.55Q371.99 480.974 371.445 480.37Q370.901 479.766 370.386 479.137Q369.872 478.507 369.389 477.853Q368.906 477.198 368.456 476.521Q368.006 475.844 367.59 475.145Q367.173 474.447 366.792 473.729Q366.411 473.011 366.065 472.275Q365.719 471.539 365.41 470.786Q365.101 470.034 364.829 469.268Q364.558 468.501 364.324 467.723Q364.09 466.944 363.895 466.154Q363.7 465.365 363.544 464.567Q363.388 463.769 363.271 462.964Q363.154 462.159 363.077 461.35C362.173 451.071 366.777 442.479 373.133 434.846C372.393 428.115 372.495 421.36 372.469 414.599C377.652 413.177 381.69 411.443 385.964 408.151C392.005 402.524 397.292 397.622 400.823 390.08L401.72 389.841L403.088 390.226C404.16 394.208 403.497 399.437 403.416 403.552C407.696 402.929 412.004 402.17 416.325 401.925C417.132 402.568 417.149 404.512 417.335 405.554C417.33 404.226 417.262 402.819 417.729 401.559C420.79 393.303 433.7 388.738 441.278 385.995C447.07 384.775 452.974 384.147 458.854 383.531C461.987 384.623 465.496 385.263 468.781 385.688C473.223 384.766 477.742 384.433 482.176 383.325C496.274 379.803 503.431 372.72 510.819 360.525L512.47 354.135Z"/>
  <path fill="#BDD3DF" d="M387.104 426.475L387.496 426.664C388.64 429.739 387.731 478.951 387.612 484.674L387.594 490.386Q385.872 489.875 384.208 489.198Q382.543 488.52 380.954 487.683Q379.364 486.846 377.864 485.858Q376.364 484.869 374.968 483.738Q374.34 483.221 373.739 482.674Q373.138 482.126 372.564 481.55Q371.99 480.974 371.445 480.37Q370.901 479.766 370.386 479.137Q369.872 478.507 369.389 477.853Q368.906 477.198 368.456 476.521Q368.006 475.844 367.59 475.145Q367.173 474.447 366.792 473.729Q366.411 473.011 366.065 472.275Q365.719 471.539 365.41 470.786Q365.101 470.034 364.829 469.268Q364.558 468.501 364.324 467.723Q364.09 466.944 363.895 466.154Q363.7 465.365 363.544 464.567Q363.388 463.769 363.271 462.964Q363.154 462.159 363.077 461.35C362.173 451.071 366.777 442.479 373.133 434.846C377.359 431.282 382.12 428.798 387.104 426.475Z"/>
  <path fill="#BDD3DF" d="M387.496 426.664C388.64 429.739 387.731 478.951 387.612 484.674C381.928 481.354 376.829 474.794 374.598 468.624C372.047 461.568 372.347 452.052 375.61 445.267C378.144 439.998 382.09 437.21 387.405 435.233Q387.416 430.948 387.496 426.664Z"/>
  <path fill="#BDD3DF" d="M460.86 518.415L468.808 518.469C473.033 529.405 478.359 536.649 489.326 541.527C496.553 544.742 504.626 545.617 512.454 544.805C512.201 552.833 513.357 568.402 512.142 574.963C504.156 575.184 495.266 574.178 487.727 571.446Q486.626 571.053 485.545 570.607Q484.465 570.16 483.408 569.661Q482.351 569.161 481.32 568.61Q480.288 568.059 479.286 567.458Q478.283 566.857 477.311 566.207Q476.339 565.557 475.401 564.86Q474.462 564.163 473.559 563.42Q472.656 562.677 471.791 561.891Q470.926 561.105 470.101 560.277Q469.275 559.449 468.492 558.581Q467.708 557.713 466.969 556.808Q466.229 555.902 465.535 554.962Q464.841 554.021 464.194 553.047Q463.547 552.073 462.949 551.068Q462.351 550.064 461.804 549.031Q461.256 547.998 460.76 546.939C456.263 537.136 457.203 528.274 460.86 518.415Z"/>
  <path fill="#BDD3DF" d="M468.808 518.469C481.073 518.422 501.193 516.635 512.507 518.268C526.434 519.061 540.82 518.508 554.79 518.35C553.714 525.758 548.987 532.16 543.043 536.524C532.854 544.005 524.007 542.902 512.454 544.805C504.626 545.617 496.553 544.742 489.326 541.527C478.359 536.649 473.033 529.405 468.808 518.469Z"/>
  <path fill="#BDD3DF" d="M510.819 360.525C511.189 361.186 511.439 361.772 511.501 362.539C512.239 371.57 511.905 380.944 511.96 390.019L512.117 439.719L512.201 476.034C512.236 482.818 512.763 489.811 512.154 496.566C498.577 496.844 484.939 497.14 471.362 496.761C468.899 497.187 466.314 498.266 464.059 499.339C448.208 506.877 440.015 521.367 434.394 537.32C429.516 533.415 424.593 529.51 420.172 525.085C414.263 519.173 408.106 511.693 405.529 503.617C401.787 491.887 403.371 468.266 403.378 454.992L403.416 403.552C407.696 402.929 412.004 402.17 416.325 401.925C417.132 402.568 417.149 404.512 417.335 405.554C417.33 404.226 417.262 402.819 417.729 401.559C420.79 393.303 433.7 388.738 441.278 385.995C447.07 384.775 452.974 384.147 458.854 383.531C461.987 384.623 465.496 385.263 468.781 385.688C473.223 384.766 477.742 384.433 482.176 383.325C496.274 379.803 503.431 372.72 510.819 360.525Z"/>
  <path fill="#1D2E39" d="M454.302 420.58C457.213 420.397 460.002 420.528 462.74 421.644C466.489 423.173 469.352 426.163 470.884 429.892C472.508 433.848 472.625 438.431 470.775 442.33C468.599 446.916 464.833 449.135 460.227 450.696C456.728 450.998 453.7 450.877 450.479 449.333Q449.769 448.989 449.098 448.574Q448.426 448.16 447.801 447.678Q447.176 447.196 446.604 446.653Q446.032 446.11 445.518 445.511Q445.005 444.912 444.556 444.263Q444.106 443.615 443.726 442.923Q443.346 442.232 443.038 441.505Q442.731 440.778 442.5 440.024C441.24 435.965 441.555 431.446 443.749 427.763C446.152 423.727 449.927 421.814 454.302 420.58Z"/>
  <path fill="#1D2E39" d="M441.278 385.995C447.07 384.775 452.974 384.147 458.854 383.531C461.987 384.623 465.496 385.263 468.781 385.688C476.222 388.217 487.158 393.334 491.048 400.653C491.325 401.174 491.314 401.189 491.48 401.663C490.571 402.866 490.207 403.702 488.782 404.253C485.226 403.328 481.926 401.776 478.397 400.833Q476.015 400.192 473.597 399.704Q471.179 399.216 468.735 398.882Q466.291 398.549 463.83 398.372Q461.37 398.194 458.903 398.174Q456.436 398.154 453.973 398.291Q451.51 398.427 449.061 398.72Q446.612 399.013 444.186 399.462Q441.76 399.91 439.368 400.512C436.697 401.156 433.807 401.829 431.303 402.984C428.049 404.484 423.242 408.506 419.769 408.798C418.75 408.884 418.199 407.778 417.834 407.022C417.634 406.609 417.469 406.004 417.335 405.554C417.33 404.226 417.262 402.819 417.729 401.559C420.79 393.303 433.7 388.738 441.278 385.995Z"/>
  <path fill="#BDD3DF" d="M510.819 360.525C511.189 361.186 511.439 361.772 511.501 362.539C512.239 371.57 511.905 380.944 511.96 390.019L512.117 439.719L512.201 476.034C512.236 482.818 512.763 489.811 512.154 496.566C498.577 496.844 484.939 497.14 471.362 496.761C475.782 493.123 481.113 491.45 485.228 487.109C501.463 469.986 499.47 439.557 498.961 417.561C498.843 412.438 498.259 403.649 494.349 399.9C493.089 399.549 492.998 399.717 491.774 400.24L491.48 401.663C491.314 401.189 491.325 401.174 491.048 400.653C487.158 393.334 476.222 388.217 468.781 385.688C473.223 384.766 477.742 384.433 482.176 383.325C496.274 379.803 503.431 372.72 510.819 360.525Z"/>
  <path fill="#1D2E39" d="M512.47 354.135C518.089 365.564 526.573 373.301 538.699 377.525C542.451 378.832 547.13 380.104 551.111 379.818C556.745 381.181 562.509 382.025 568.112 383.444C573.198 383.928 578.39 384.362 583.364 385.56C589.426 385.37 595.404 386.707 601.437 387.071C608.066 387.964 614.851 388.183 621.532 388.458L625.486 388.562C629.393 393.221 632.276 398.623 636.015 403.405C634.758 409.209 635.797 415.948 635.327 421.98C635.265 422.771 635.226 422.462 635.531 423.157C635.314 428.566 635.503 433.982 635.304 439.382C635.197 456.215 634.65 473.223 635.085 490.038C634.562 507.847 635.695 525.776 632.7 543.412C631.365 549.929 630.193 556.545 628.132 562.881C623.696 574.671 618.58 583.967 609.986 593.294C606.715 596.844 602.352 600.673 599.894 604.817C577.881 627.642 547.91 656.139 514.491 657.73L512.684 657.461C512.505 657.25 512.272 657.075 512.147 656.828C511.765 656.073 512.422 584.085 512.415 575.045L512.142 574.963C513.357 568.402 512.201 552.833 512.454 544.805C524.007 542.902 532.854 544.005 543.043 536.524C548.987 532.16 553.714 525.758 554.79 518.35C540.82 518.508 526.434 519.061 512.507 518.268C511.138 513.965 512.101 501.681 512.154 496.566C512.763 489.811 512.236 482.818 512.201 476.034L512.117 439.719L511.96 390.019C511.905 380.944 512.239 371.57 511.501 362.539C511.439 361.772 511.189 361.186 510.819 360.525L512.47 354.135Z"/>
  <path fill="#69BCCA" d="M554.79 518.35C557.674 518.167 560.505 518.334 563.385 518.498C567.236 528.933 567.836 538.878 563.07 549.143C558.104 559.839 548.535 567.749 537.516 571.663C529.592 574.478 520.738 574.761 512.415 575.045L512.142 574.963C513.357 568.402 512.201 552.833 512.454 544.805C524.007 542.902 532.854 544.005 543.043 536.524C548.987 532.16 553.714 525.758 554.79 518.35Z"/>
  <path fill="#BDD3DF" d="M512.47 354.135C518.089 365.564 526.573 373.301 538.699 377.525C542.451 378.832 547.13 380.104 551.111 379.818C556.745 381.181 562.509 382.025 568.112 383.444C573.198 383.928 578.39 384.362 583.364 385.56C589.426 385.37 595.404 386.707 601.437 387.071C608.066 387.964 614.851 388.183 621.532 388.458Q621.309 422.867 621.516 457.276C621.548 466.783 622.844 490.123 620.507 498.278C617.93 507.271 609.29 516.74 602.787 523.153C598.353 527.526 593.491 531.752 588.512 535.503C584.894 520.989 577.821 509.419 564.715 501.615C561.241 499.546 557.358 497.734 553.366 496.973C547.907 495.932 541.962 496.421 536.428 496.465L512.154 496.566C512.763 489.811 512.236 482.818 512.201 476.034L512.117 439.719L511.96 390.019C511.905 380.944 512.239 371.57 511.501 362.539C511.439 361.772 511.189 361.186 510.819 360.525L512.47 354.135Z"/>
  <path fill="#1D2E39" d="M561.082 420.619C563.781 420.246 566.282 420.218 568.92 421.006C573.165 422.275 576.716 425.108 578.71 429.087C580.447 432.554 580.872 436.538 579.58 440.223C577.714 445.541 573.388 448.591 568.476 450.819C565.418 451.412 562.93 451.256 559.978 450.178Q559.221 449.9 558.496 449.547Q557.772 449.195 557.086 448.771Q556.4 448.347 555.76 447.857Q555.12 447.366 554.533 446.814Q553.946 446.262 553.417 445.654Q552.888 445.045 552.423 444.387Q551.958 443.729 551.561 443.027Q551.164 442.325 550.84 441.587C549.272 437.924 549.253 433.972 550.751 430.285C552.744 425.379 556.416 422.679 561.082 420.619Z"/>
  <path fill="#1D2E39" d="M568.112 383.444C573.198 383.928 578.39 384.362 583.364 385.56C590.078 387.6 597.759 390.735 603.242 395.211C605.244 396.846 607.961 399.589 607.936 402.407C607.918 404.538 607.018 405.711 605.69 407.236C602.486 406.991 597.671 404.055 594.586 402.791Q592.54 401.966 590.45 401.26Q588.359 400.554 586.232 399.969Q584.104 399.384 581.947 398.923Q579.789 398.462 577.609 398.125Q575.428 397.789 573.232 397.578Q571.036 397.368 568.831 397.285Q566.626 397.201 564.421 397.244Q562.215 397.288 560.015 397.458C556.224 397.715 552.119 398.056 548.436 398.978C544.198 400.038 537.971 403.988 533.681 402.078C532.992 401.134 532.676 400.778 532.58 399.573C532.477 398.258 532.984 396.79 533.863 395.806C542.162 386.505 556.421 384.172 568.112 383.444Z"/>
  <path fill="#1D2E39" d="M0 0L1024 0L1024 1024L914.486 1024L914.251 1023.39C909.557 1010.87 906.358 997.412 902.366 984.62L880.122 912.34C874.219 892.689 868.784 872.71 861.986 853.354C857.55 840.725 852.266 828.432 846.843 816.203Q858.586 804.637 869.305 792.116C873.646 786.782 877.54 781.25 881.35 775.533C885.018 771.692 887.901 765.908 890.752 761.398C893.029 756.965 896.123 752.758 898.796 748.544Q905.396 738.265 911.103 727.465C927.426 696.525 939.175 664.252 949.661 630.963C954.306 613.782 957.125 596.397 960.369 578.93C961.444 573.779 961.785 568.284 962.373 563.047Q965.419 537.183 965.462 511.14C965.947 389.025 919.954 281.803 834.112 195.351Q830.174 191.353 826.14 187.453Q822.105 183.553 817.976 179.753Q813.847 175.953 809.626 172.256Q805.405 168.559 801.094 164.966Q796.783 161.374 792.385 157.888Q787.988 154.403 783.506 151.026Q779.024 147.65 774.461 144.384Q769.897 141.119 765.255 137.967Q760.613 134.814 755.894 131.777Q751.176 128.739 746.385 125.819Q741.593 122.898 736.731 120.096Q731.87 117.294 726.941 114.612Q722.012 111.93 717.018 109.37Q712.025 106.81 706.97 104.373Q701.915 101.936 696.802 99.6243Q691.689 97.3125 686.521 95.1269Q681.352 92.9413 676.132 90.8833Q670.911 88.8253 665.642 86.8961Q660.373 84.9669 655.058 83.1676Q649.742 81.3684 644.385 79.7002Q639.027 78.032 633.63 76.4959Q628.233 74.9598 622.8 73.5566Q617.366 72.1535 611.9 70.8842Q606.434 69.6149 600.939 68.4802Q595.443 67.3455 589.922 66.3461Q584.4 65.3467 578.855 64.4832Q573.311 63.6197 567.747 62.8926Q562.182 62.1655 556.602 61.5752Q551.022 60.985 545.429 60.5319Q539.836 60.0788 534.233 59.7633Q528.631 59.4477 523.022 59.2698Q517.413 59.0918 511.802 59.0517C412.714 58.8892 313.124 95.3473 235.286 156.08C224.166 164.757 212.793 173.467 202.791 183.442C198.212 187.217 194.045 191.612 189.812 195.771C178.873 206.519 168.441 217.553 158.699 229.407C147.145 243.465 136.924 258.208 127.159 273.542C88.0308 334.983 67.6284 398.538 59.9018 470.72C61.2831 469.592 61.6733 468.967 63.4868 468.841C70.4876 473.199 77.6743 477.842 84.3922 482.61C88.032 485.193 91.4479 488.19 95.1991 490.601C98.8024 492.916 102.857 494.795 106.658 496.779L106.923 498.6C107.787 498.422 107.328 498.609 108.208 497.852C108.846 498.639 109.278 499.417 109.737 500.318L111.531 499.481C111.863 500.87 110.463 502.015 111.218 503.273C103.565 513.802 94.5762 523.572 86.4672 533.784C81.5077 540.03 65.5064 562.61 61.5054 565.601L62.3746 572.18L62.5225 572.715C64.5895 580.438 65.628 588.643 67.118 596.508Q70.173 612.117 74.2286 627.497Q76.0977 634.623 78.1992 641.683Q80.3008 648.744 82.6325 655.732Q84.9643 662.72 87.5238 669.628Q90.0832 676.536 92.8677 683.356Q95.6521 690.176 98.6585 696.901Q101.665 703.627 104.89 710.25Q108.115 716.873 111.556 723.387Q114.996 729.901 118.648 736.299C123.044 743.907 127.943 751.178 132.699 758.56C139.449 769.037 146.048 779.544 153.992 789.188C160.817 799.533 170.518 807.987 177.199 818.316C165.788 840.587 159.486 862.751 152.246 886.517L122.979 981.478C118.637 995.4 115.195 1010.03 109.861 1023.6L109.918 1024L0 1024L0 0Z"/>
  <path fill="#69BCCA" d="M59.9018 470.72C61.2831 469.592 61.6733 468.967 63.4868 468.841C70.4876 473.199 77.6743 477.842 84.3922 482.61C88.032 485.193 91.4479 488.19 95.1991 490.601C98.8024 492.916 102.857 494.795 106.658 496.779L106.923 498.6C107.787 498.422 107.328 498.609 108.208 497.852C108.846 498.639 109.278 499.417 109.737 500.318L111.531 499.481C111.863 500.87 110.463 502.015 111.218 503.273C103.565 513.802 94.5762 523.572 86.4672 533.784C81.5077 540.03 65.5064 562.61 61.5054 565.601C56.5551 534.253 57.7327 502.242 59.9018 470.72Z"/>
  <path fill="#1D2E39" d="M212.25 376.435L212.922 376.246C219.526 382.844 225.284 390.271 231.403 397.313L267.71 438.912L325.666 504.422C342.005 522.805 358.532 541.133 374.281 560.023C379.021 555.925 383.695 551.672 388.957 548.247C390.722 556.454 393.353 563.794 396.96 571.367C399.699 576.033 402.36 581.002 405.945 585.078C410.859 590.665 426.605 604.831 429.221 609.379C450.341 629.487 480.327 658.605 511.614 657.922C512.569 657.901 513.549 657.903 514.491 657.73C547.91 656.139 577.881 627.642 599.894 604.817C602.352 600.673 606.715 596.844 609.986 593.294C618.58 583.967 623.696 574.671 628.132 562.881C630.193 556.545 631.365 549.929 632.7 543.412C636.724 544.453 655.08 561.393 657.953 565.319C658.484 566.206 658.973 567.121 659.632 567.92C669.147 559.65 679.992 552.356 690.108 544.821C697.929 538.996 705.463 532.618 713.466 527.068L713.231 648.933Q713.391 673.504 713.254 698.076L724.526 703.081C729.504 705.638 734.747 708.018 739.571 710.84C751.233 717.562 762.771 723.699 774.017 731.148C805.364 753.401 830.748 781.133 846.843 816.203C852.266 828.432 857.55 840.725 861.986 853.354C868.784 872.71 874.219 892.689 880.122 912.34L902.366 984.62C906.358 997.412 909.557 1010.87 914.251 1023.39L914.486 1024L795.48 1024L752.582 1024L528.115 1024L512.521 1024L498.053 1024L271.469 1024L227.468 1024L109.918 1024L109.861 1023.6C115.195 1010.03 118.637 995.4 122.979 981.478L152.246 886.517C159.486 862.751 165.788 840.587 177.199 818.316C170.518 807.987 160.817 799.533 153.992 789.188C146.048 779.544 139.449 769.037 132.699 758.56C127.943 751.178 123.044 743.907 118.648 736.299Q114.996 729.901 111.556 723.387Q108.115 716.873 104.89 710.25Q101.665 703.627 98.6585 696.901Q95.6521 690.176 92.8677 683.356Q90.0832 676.536 87.5238 669.628Q84.9643 662.72 82.6325 655.732Q80.3008 648.744 78.1992 641.683Q76.0977 634.623 74.2286 627.497Q70.173 612.117 67.118 596.508C65.628 588.643 64.5895 580.438 62.5225 572.715L62.3746 572.18L61.5054 565.601C65.5064 562.61 81.5077 540.03 86.4672 533.784C94.5762 523.572 103.565 513.802 111.218 503.273C138.383 471.104 163.466 437.131 189.94 404.399C197.459 395.102 204.137 385.261 212.25 376.435Z"/>
  <path fill="#BDD3DF" d="M327.475 690.546L337.96 686.732C345.598 708.581 357.342 729.996 372.889 747.29C362.903 756.052 352.411 764.177 342.137 772.593L278.301 824.292C265.876 834.234 251.754 844.135 240.223 854.938C228.945 864.43 214.891 874.673 204.505 884.533C210.024 904.468 212.256 927.888 215.677 948.455C218.732 966.826 221.999 985.117 224.714 1003.54C225.68 1010.1 227.033 1016.82 227.564 1023.42C188.371 1023.66 149.03 1022.55 109.861 1023.6C115.195 1010.03 118.637 995.4 122.979 981.478L152.246 886.517C159.486 862.751 165.788 840.587 177.199 818.316C196.994 779.795 224.348 752.166 258.956 726.65Q267.968 720.746 277.315 715.389C282.695 712.354 288.31 709.625 293.563 706.387C304.784 700.822 316.018 695.596 327.475 690.546Z"/>
  <path fill="#69BCCA" d="M632.7 543.412C636.724 544.453 655.08 561.393 657.953 565.319C658.484 566.206 658.973 567.121 659.632 567.92C673.61 580.455 680.923 602.124 681.888 620.416C682.431 630.705 681.273 640.791 679.185 650.85C668.454 686.662 643.435 713.611 610.911 731.103Q606.098 733.676 601.149 735.979Q596.2 738.281 591.132 740.306Q586.063 742.331 580.89 744.071Q575.717 745.812 570.455 747.263Q565.194 748.715 559.86 749.872Q554.526 751.03 549.136 751.89Q543.746 752.75 538.317 753.31Q532.888 753.871 527.436 754.129L527.511 801.262C527.52 808.891 528.304 817.453 527.151 824.953C526.206 825.848 526.424 827.038 526.379 828.313C525.989 839.351 526.468 850.553 526.492 861.612L526.506 927.069L526.508 990.545C526.512 1001.38 526.106 1012.42 526.614 1023.23C522.016 1023.67 517.219 1023.43 512.595 1023.46L505.734 1023.4L498.325 1023.46C497.005 1019.05 497.905 991.543 497.862 985.141Q497.182 905.53 498.047 825.922L497.961 825.615C498.103 801.703 498.685 777.458 497.901 753.571C502.037 753.955 508.354 755.173 512.229 753.872C511.283 748.876 511.851 742.706 511.855 737.582L511.933 705.043C484.184 704.78 455.192 699.17 430 687.466C429.02 672.211 429.319 656.617 429.128 641.325C428.952 630.733 428.513 619.951 429.221 609.379C450.341 629.487 480.327 658.605 511.614 657.922C512.569 657.901 513.549 657.903 514.491 657.73C547.91 656.139 577.881 627.642 599.894 604.817C602.352 600.673 606.715 596.844 609.986 593.294C618.58 583.967 623.696 574.671 628.132 562.881C630.193 556.545 631.365 549.929 632.7 543.412Z"/>
  <path fill="#69BCCA" d="M512.987 754.018L518.967 754.178C518.94 760.623 519.528 824.288 519.181 824.963C519.048 825.223 518.805 825.41 518.617 825.633C517.022 825.975 515.519 826.148 513.891 826.246C512.778 825.944 513.273 826.217 512.415 825.414C511.39 818.05 512.494 809.365 512.536 801.878C512.62 786.606 512.103 771.271 512.465 756.01C512.484 755.189 512.594 754.733 512.987 754.018Z"/>
  <path fill="#69BCCA" d="M497.901 753.571C502.037 753.955 508.354 755.173 512.229 753.872L512.987 754.018C512.594 754.733 512.484 755.189 512.465 756.01C512.103 771.271 512.62 786.606 512.536 801.878C512.494 809.365 511.39 818.05 512.415 825.414C513.273 826.217 512.778 825.944 513.891 826.246L512.135 826.688C507.463 826.243 502.736 826.138 498.047 825.922L497.961 825.615C498.103 801.703 498.685 777.458 497.901 753.571Z"/>
  <path fill="#BDD3DF" d="M498.047 825.922C502.736 826.138 507.463 826.243 512.135 826.688C511.375 856.545 512.104 886.569 512.068 916.448C512.025 951.902 511.328 987.52 512.502 1022.95C510.29 1023.05 507.904 1022.97 505.734 1023.4L498.325 1023.46C497.005 1019.05 497.905 991.543 497.862 985.141Q497.182 905.53 498.047 825.922Z"/>
  <path fill="#69BCCA" d="M628.132 562.881C641.425 574.681 651.277 590.335 652.426 608.419C653.679 628.123 645.665 645.925 632.771 660.507C623.504 670.986 612.4 678.765 599.915 684.969C599.5 658.264 600.493 631.515 599.894 604.817C602.352 600.673 606.715 596.844 609.986 593.294C618.58 583.967 623.696 574.671 628.132 562.881Z"/>
  <path fill="#69BCCA" d="M599.894 604.817C600.493 631.515 599.5 658.264 599.915 684.969C595.248 687.151 590.578 689.395 585.617 690.837C567.163 700.102 532.389 705.348 511.933 705.043C484.184 704.78 455.192 699.17 430 687.466C429.02 672.211 429.319 656.617 429.128 641.325C428.952 630.733 428.513 619.951 429.221 609.379C450.341 629.487 480.327 658.605 511.614 657.922C512.569 657.901 513.549 657.903 514.491 657.73C547.91 656.139 577.881 627.642 599.894 604.817Z"/>
  <path fill="#BDD3DF" d="M429.128 641.325L429.47 641.582C432.231 643.698 434.693 646.194 437.369 648.42C444.595 654.431 452.264 660.336 460.216 665.35C492.509 685.713 539.06 696.726 576.963 691.903C579.84 691.537 582.722 691.039 585.617 690.837C567.163 700.102 532.389 705.348 511.933 705.043C484.184 704.78 455.192 699.17 430 687.466C429.02 672.211 429.319 656.617 429.128 641.325Z"/>
  <path fill="#69BCCA" d="M679.7 685.697C686.786 687.561 693.604 689.966 700.368 692.769C704.425 694.45 709.025 697.084 713.254 698.076L724.526 703.081C729.504 705.638 734.747 708.018 739.571 710.84C751.233 717.562 762.771 723.699 774.017 731.148C805.364 753.401 830.748 781.133 846.843 816.203C852.266 828.432 857.55 840.725 861.986 853.354C868.784 872.71 874.219 892.689 880.122 912.34L902.366 984.62C906.358 997.412 909.557 1010.87 914.251 1023.39L914.486 1024L795.48 1024L752.582 1024C753.734 1016.13 755.56 1008.3 756.931 1000.45Q764.344 958.236 772.658 916.191C776.487 896.05 778.623 874.872 784.243 855.181C768.273 842.078 751.296 830.263 734.881 817.743L650.824 753.156C669.091 730.941 675.493 713.681 679.7 685.697Z"/>
  <path fill="#1D2E39" d="M914.251 1023.39L914.486 1024L795.48 1024L795.388 1023.45C834.985 1023.39 874.666 1024.14 914.251 1023.39Z"/>
  <path fill="#1D2E39" d="M784.243 855.181C795.645 864.032 807.246 872.606 818.729 881.349C814.08 916.539 807.043 951.536 801.313 986.579C799.654 996.729 795.701 1013.81 795.388 1023.45L795.48 1024L752.582 1024C753.734 1016.13 755.56 1008.3 756.931 1000.45Q764.344 958.236 772.658 916.191C776.487 896.05 778.623 874.872 784.243 855.181Z"/>
  <path fill="#69BCCA" d="M372.889 747.29C406.223 784.305 447.184 817.916 497.961 825.615L498.047 825.922Q497.182 905.532 497.862 985.141C497.905 991.543 497.005 1019.05 498.325 1023.46L498.118 1023.56C489.965 1022.93 481.362 1023.44 473.161 1023.44L423.23 1023.43L271.504 1023.54C271.036 1015.85 269.216 1007.9 267.829 1000.32Q263.691 977.987 259.219 955.719C255.021 933.953 251.712 912 247.635 890.205C245.429 878.406 242.749 866.673 240.223 854.938C251.754 844.135 265.876 834.234 278.301 824.292L342.137 772.593C352.411 764.177 362.903 756.052 372.889 747.29Z"/>
  <defs>
    <linearGradient id="gradient_2" gradientUnits="userSpaceOnUse" x1="129.05402" y1="776.51587" x2="278.06384" y2="494.15726">
      <stop offset="0" stop-color="#1D2E39"/>
      <stop offset="1" stop-color="#69BCCA"/>
    </linearGradient>
  </defs>
  <path fill="url(#gradient_2)" d="M212.25 376.435L212.922 376.246C219.526 382.844 225.284 390.271 231.403 397.313L267.71 438.912L325.666 504.422C342.005 522.805 358.532 541.133 374.281 560.023C379.021 555.925 383.695 551.672 388.957 548.247C390.722 556.454 393.353 563.794 396.96 571.367C399.699 576.033 402.36 581.002 405.945 585.078C410.859 590.665 426.605 604.831 429.221 609.379C428.513 619.951 428.952 630.733 429.128 641.325C429.319 656.617 429.02 672.211 430 687.466C455.192 699.17 484.184 704.78 511.933 705.043L511.855 737.582C511.851 742.706 511.283 748.876 512.229 753.872C508.354 755.173 502.037 753.955 497.901 753.571C498.685 777.458 498.103 801.703 497.961 825.615C447.184 817.916 406.223 784.305 372.889 747.29C357.342 729.996 345.598 708.581 337.96 686.732L327.475 690.546C316.018 695.596 304.784 700.822 293.563 706.387C288.31 709.625 282.695 712.354 277.315 715.389Q267.968 720.746 258.956 726.65C224.348 752.166 196.994 779.795 177.199 818.316C170.518 807.987 160.817 799.533 153.992 789.188C146.048 779.544 139.449 769.037 132.699 758.56C127.943 751.178 123.044 743.907 118.648 736.299Q114.996 729.901 111.556 723.387Q108.115 716.873 104.89 710.25Q101.665 703.627 98.6585 696.901Q95.6521 690.176 92.8677 683.356Q90.0832 676.536 87.5238 669.628Q84.9643 662.72 82.6325 655.732Q80.3008 648.744 78.1992 641.683Q76.0977 634.623 74.2286 627.497Q70.173 612.117 67.118 596.508C65.628 588.643 64.5895 580.438 62.5225 572.715L62.3746 572.18L61.5054 565.601C65.5064 562.61 81.5077 540.03 86.4672 533.784C94.5762 523.572 103.565 513.802 111.218 503.273C138.383 471.104 163.466 437.131 189.94 404.399C197.459 395.102 204.137 385.261 212.25 376.435Z"/>
  <path fill="#1D2E39" d="M279.203 700.994C283.126 690.921 287.466 681.016 291.5 670.987C295.766 660.38 299.76 649.599 304.393 639.153C311.281 656.597 320.74 673.009 327.475 690.546C316.018 695.596 304.784 700.822 293.563 706.387C293.491 706.224 293.395 706.069 293.346 705.898C292.996 704.678 294.345 702.432 294.881 701.276C289.688 700.919 284.41 701.047 279.203 700.994Z"/>
  <path fill="#BDD3DF" d="M212.25 376.435C212.821 383.717 212.524 391.167 212.534 398.479L212.542 435.935C212.537 443.359 213.464 464.562 212.079 470.341C201.564 482.024 190.909 493.897 179.184 504.388C181.409 495.667 183.458 486.297 187.234 478.098C173.096 491.827 159.653 506.69 144.9 519.742C151.938 505.194 158.142 490.192 164.88 475.494C147.794 491.842 130.187 507.618 113.079 523.925C96.1849 540.028 79.8032 556.64 62.3746 572.18L61.5054 565.601C65.5064 562.61 81.5077 540.03 86.4672 533.784C94.5762 523.572 103.565 513.802 111.218 503.273C138.383 471.104 163.466 437.131 189.94 404.399C197.459 395.102 204.137 385.261 212.25 376.435Z"/>
  <path fill="#1D2E39" d="M206.818 537.93C218.818 563.363 229.727 589.284 242.139 614.528L227.952 614.453C239.712 635.481 250.047 657.155 261.192 678.497Q247.309 678.416 233.427 678.556C242.82 694.041 249.788 711.002 258.956 726.65C224.348 752.166 196.994 779.795 177.199 818.316C170.518 807.987 160.817 799.533 153.992 789.188C154.942 790.013 155.782 790.778 156.944 791.301L157.353 790.204L156.939 791.19C160.851 786.499 167.935 771.69 171.196 765.54C161.394 765.535 151.54 765.386 141.747 765.805C148.285 756.15 152.746 745.056 158.094 734.715C167.742 716.062 178.227 697.474 186.085 677.974C176.377 677.75 166.429 677.166 156.749 677.846C161.572 667.689 166.195 657.406 171.155 647.32C176.602 636.245 182.413 625.352 187.798 614.245C183.831 614.225 179.858 614.083 175.891 613.995C179.378 604.334 183.905 594.842 187.711 585.266C193.978 569.5 199.825 553.387 206.818 537.93Z"/>
  <path fill="#BDD3DF" d="M212.25 376.435L212.922 376.246C219.526 382.844 225.284 390.271 231.403 397.313L267.71 438.912L325.666 504.422C342.005 522.805 358.532 541.133 374.281 560.023C379.021 555.925 383.695 551.672 388.957 548.247C390.722 556.454 393.353 563.794 396.96 571.367C399.699 576.033 402.36 581.002 405.945 585.078C410.859 590.665 426.605 604.831 429.221 609.379C428.513 619.951 428.952 630.733 429.128 641.325C429.319 656.617 429.02 672.211 430 687.466C455.192 699.17 484.184 704.78 511.933 705.043L511.855 737.582C511.851 742.706 511.283 748.876 512.229 753.872C508.354 755.173 502.037 753.955 497.901 753.571C498.685 777.458 498.103 801.703 497.961 825.615C447.184 817.916 406.223 784.305 372.889 747.29C357.342 729.996 345.598 708.581 337.96 686.732C343.867 684.374 349.915 682.358 355.835 679.997C350.46 671.375 346.106 661.581 343.617 651.734Q343.34 650.645 343.091 649.55Q342.842 648.454 342.62 647.353Q342.398 646.252 342.204 645.146Q342.009 644.039 341.843 642.928Q341.676 641.817 341.537 640.703Q341.398 639.588 341.287 638.47Q341.176 637.352 341.093 636.232Q341.01 635.112 340.954 633.99Q340.899 632.868 340.872 631.745Q340.845 630.621 340.846 629.498Q340.847 628.375 340.875 627.252Q340.904 626.129 340.961 625.007Q341.018 623.885 341.103 622.765Q341.188 621.645 341.3 620.527Q341.413 619.409 341.554 618.295Q341.694 617.18 341.863 616.07Q342.031 614.959 342.227 613.853Q342.423 612.747 342.647 611.646Q342.87 610.545 343.121 609.45Q343.372 608.355 343.65 607.267Q343.928 606.178 344.234 605.097Q344.539 604.016 344.871 602.943Q345.203 601.87 345.562 600.805Q345.92 599.741 346.306 598.685Q346.691 597.63 347.102 596.585Q347.514 595.539 347.951 594.505Q348.388 593.47 348.851 592.446Q349.314 591.423 349.803 590.411Q350.291 589.4 350.805 588.401Q351.318 587.401 351.857 586.415Q352.395 585.429 352.958 584.457Q353.52 583.485 354.107 582.527Q323.011 571.623 291.487 562.028L294.204 510.232C277.831 498.477 261.388 486.488 244.662 475.259C246.242 484.017 248.969 492.599 251.082 501.248C243.767 496.359 237.158 490.222 230.415 484.59C224.468 479.621 218.28 474.986 212.079 470.341C213.464 464.562 212.537 443.359 212.542 435.935L212.534 398.479C212.524 391.167 212.821 383.717 212.25 376.435Z"/>
  <path fill="#69BCCA" d="M396.96 571.367C399.699 576.033 402.36 581.002 405.945 585.078C410.859 590.665 426.605 604.831 429.221 609.379C428.513 619.951 428.952 630.733 429.128 641.325C429.319 656.617 429.02 672.211 430 687.466C412.748 680.97 395.159 667.686 384.325 652.802C375.58 640.786 370.68 625.379 373.145 610.515C375.523 596.175 385.103 579.861 396.96 571.367Z"/>
  <path fill="#1D2E39" d="M355.835 679.997C380.679 718.657 418.464 738.825 462.393 748.37C473.742 750.836 486.258 753.393 497.901 753.571C498.685 777.458 498.103 801.703 497.961 825.615C447.184 817.916 406.223 784.305 372.889 747.29C357.342 729.996 345.598 708.581 337.96 686.732C343.867 684.374 349.915 682.358 355.835 679.997Z"/>
</svg>
