<svg width="141" height="28" viewBox="0 0 141 28" fill="none" xmlns="http://www.w3.org/2000/svg">
<g clip-path="url(#clip0_2274_85069)">
<path d="M109.581 10.7978C110.809 10.2871 112.191 10.2871 113.419 10.7978L142.492 22.883C147.541 24.9818 146.04 32.5 140.572 32.5H82.4275C76.9598 32.5 75.4594 24.9818 80.5083 22.883L109.581 10.7978Z" fill="#344A59"/>
<path d="M58.5168 3.42088C60.0552 2.54059 61.9448 2.54059 63.4832 3.42088L93.1747 20.4102C97.6236 22.9559 95.8173 29.75 90.6915 29.75H31.3085C26.1827 29.75 24.3763 22.9559 28.8253 20.4102L58.5168 3.42088Z" fill="#344A59"/>
<path d="M43.7823 8.09746C45.1799 7.40585 46.8201 7.40585 48.2177 8.09746L75.3383 21.5187C80.0771 23.8638 78.4079 31 73.1207 31H18.8793C13.5921 31 11.9229 23.8638 16.6617 21.5187L43.7823 8.09746Z" fill="#344A59"/>
<path d="M76.0575 2.81899C77.2996 2.29532 78.7004 2.29532 79.9425 2.81899L121.031 20.1428C126.057 22.2615 124.542 29.75 119.089 29.75H36.9112C31.4576 29.75 29.9435 22.2615 34.9687 20.1428L76.0575 2.81899Z" fill="#344A59"/>
<path d="M20.2337 8.15239C21.6578 7.42825 23.3422 7.42825 24.7663 8.15239L51.1005 21.5431C55.7871 23.9262 54.092 31 48.8342 31H-3.83415C-9.09195 31 -10.7871 23.9262 -6.10046 21.5431L20.2337 8.15239Z" fill="#344A59"/>
</g>
<defs>
<clipPath id="clip0_2274_85069">
<rect width="141" height="28" rx="5" fill="white"/>
</clipPath>
</defs>
</svg>
