<svg width="327" height="230" viewBox="0 0 327 230" xmlns="http://www.w3.org/2000/svg">
<path d="M198.525 111.068L226.909 90.6922C229.127 89.1002 232.136 89.1926 234.252 90.9177L249.084 103.01C250.963 104.542 253.574 104.803 255.718 103.674L255.964 103.545C258.046 102.449 260.575 102.661 262.445 104.089L271.452 110.962C273.494 112.52 276.296 112.617 278.441 111.206L289.674 103.814C291.596 102.549 294.07 102.485 296.055 103.65L308.864 111.166C311.262 112.573 314.311 112.162 316.252 110.17L330.607 95.4301C332.5 93.487 335.455 93.0427 337.835 94.3433L378.854 116.759C380.794 117.818 382 119.852 382 122.062V150.392C382 153.716 379.315 156.417 375.991 156.436L152.574 157.719C149.223 157.738 146.496 155.027 146.496 151.676V120.504C146.496 118.166 147.845 116.037 149.96 115.039L174.948 103.243C176.907 102.318 179.21 102.512 180.986 103.751L191.543 111.115C193.645 112.582 196.443 112.563 198.525 111.068Z" fill="url(#paint0_linear_4379_141694)"/>
<path d="M83.0556 54.1363C83.864 54.5995 90.5331 60.8418 91.0384 61.1355C91.5436 61.4293 95.5865 57.8797 96.4949 57.9447C97.1957 57.9948 99.2355 56.5303 101.116 55.0395C103.159 53.4193 106.202 53.606 108.001 55.4938C115.071 62.9119 130.702 78.2563 134.174 78.2563C137.376 78.2563 143.459 74.6338 146.252 72.8553C147.152 72.2826 148.294 72.2735 149.149 72.9113C158.563 79.9354 201.956 115.482 205.929 115.482C210.148 115.482 355.27 136.793 356.98 137.044C357.033 137.052 357.02 137.051 357.072 137.061C358.402 137.316 376.643 140.987 381.016 150.976C382.034 153.299 379.898 155.441 377.361 155.441H4.59311C2.0564 155.441 0 153.384 0 150.848V86.3887C32.7394 78.8813 82.2472 53.6731 83.0556 54.1363Z" fill="url(#paint1_linear_4379_141694)"/>
<path d="M63.1786 108.259C75.6212 114.214 158.447 67.9039 215.393 95.7994C220.243 98.1752 252.855 112.27 267.247 118.92C289.85 129.363 285.499 127.161 302.3 132.364C335.234 142.564 381.954 145.822 381.954 145.822C381.954 145.822 381.954 171.115 381.954 195.568C381.954 195.568 366.223 214.93 322.727 214.416C262.574 213.705 237.996 182.395 123.772 182.395C64.0619 182.395 48.5904 195.568 0 203.91V105.78C24.5038 99.1438 56.834 110.93 63.1786 108.259Z" fill="url(#paint2_linear_4379_141694)"/>
<path d="M19.0951 109.496L26.5667 93.3655C27.007 92.4148 28.3659 92.4364 28.7758 93.4007L35.5585 109.355C35.948 110.272 35.1248 111.239 34.1579 111.002L30.8688 110.195C30.1072 110.008 29.3719 110.584 29.3719 111.368V114.665C29.3719 115.121 29.1155 115.538 28.7089 115.743L26.3149 116.955C25.8325 117.199 25.2623 116.848 25.2623 116.308V111.804C25.2623 111.056 24.5899 110.488 23.8524 110.612L20.393 111.196C19.4341 111.358 18.6863 110.379 19.0951 109.496Z" fill="#368A80"/>
<path d="M4.8324 115.298L12.304 99.1674C12.7443 98.2166 14.1032 98.2382 14.5131 99.2025L21.2958 115.157C21.6853 116.073 20.8621 117.041 19.8952 116.804L16.6061 115.996C15.8445 115.809 15.1092 116.386 15.1092 117.17V120.467C15.1092 120.923 14.8529 121.34 14.4462 121.545L12.0522 122.756C11.5698 123.001 10.9996 122.65 10.9996 122.109V117.606C10.9996 116.858 10.3272 116.289 9.58969 116.414L6.13035 116.998C5.1714 117.16 4.42365 116.18 4.8324 115.298Z" fill="#368A80"/>
<path d="M31.9076 105.387L39.3792 89.2559C39.8195 88.3051 41.1784 88.3267 41.5883 89.291L48.371 105.246C48.7605 106.162 47.9373 107.13 46.9704 106.892L43.6813 106.085C42.9197 105.898 42.1844 106.474 42.1844 107.259V110.555C42.1844 111.011 41.928 111.428 41.5214 111.634L39.1274 112.845C38.645 113.089 38.0748 112.738 38.0748 112.198V107.694C38.0748 106.946 37.4024 106.378 36.6649 106.502L33.2055 107.086C32.2466 107.248 31.4988 106.269 31.9076 105.387Z" fill="#368A80"/>
<path d="M187.091 214.421C187.091 209.79 190.845 206.036 195.476 206.036H206.439C207.742 206.036 208.798 207.092 208.798 208.395V214.058C208.798 215.361 207.742 216.418 206.439 216.418H189.087C187.985 216.418 187.091 215.524 187.091 214.421V214.421Z" fill="#F1F1F1"/>
<path d="M243.247 214.421C243.247 209.79 239.493 206.036 234.862 206.036H229.09C227.787 206.036 226.731 207.092 226.731 208.395V214.058C226.731 215.361 227.787 216.418 229.09 216.418H241.251C242.353 216.418 243.247 215.524 243.247 214.421V214.421Z" fill="#F1F1F1"/>
<path d="M198.603 148.15C198.765 146.455 200.189 145.161 201.892 145.161L231.372 145.161C233.035 145.161 234.439 146.397 234.649 148.047L242.303 208.178C242.554 210.152 241.016 211.898 239.026 211.898L230.163 211.898C228.581 211.898 227.221 210.777 226.92 209.224L220.538 176.319C219.837 172.707 214.645 172.773 214.037 176.402L208.553 209.141C208.286 210.732 206.909 211.898 205.295 211.898L196.152 211.898C194.204 211.898 192.679 210.221 192.864 208.281L198.603 148.15Z" fill="#5FD1C3"/>
<path d="M220.152 62.0296C221.308 62.0381 222.288 62.8831 222.466 64.0256L228.989 105.862C229.213 107.302 228.09 108.6 226.632 108.584L208.644 108.39C207.255 108.375 206.18 107.171 206.322 105.789L210.612 64.0953C210.737 62.8855 211.76 61.9685 212.976 61.9774L220.152 62.0296Z" fill="#95B9D0"/>
<path d="M203.394 105.615C204.74 97.1348 212.052 90.8924 220.638 90.8924H236.169C238.254 90.8924 239.944 92.5826 239.944 94.6676V156.958C239.944 159.043 238.254 160.733 236.169 160.733H199.064C196.742 160.733 194.971 158.659 195.335 156.366L203.394 105.615Z" fill="#708DA0"/>
<circle cx="227.202" cy="77.6792" r="13.2132" fill="#B97965"/>
<path d="M240.495 63.5734C246.129 68.8345 246.055 78.2402 240.639 85.4471C239.856 86.4888 238.35 86.5339 237.398 85.6446L218.688 68.1735C217.735 67.2841 217.677 65.7786 218.663 64.9263C225.482 59.0302 234.861 58.3124 240.495 63.5734Z" fill="#5FD1C3"/>
<path d="M216.414 99.4113C217.85 91.0275 225.118 84.8983 233.624 84.8983H240.086C242.171 84.8983 243.861 86.5885 243.861 88.6734V108.965C243.861 111.05 242.171 112.74 240.086 112.74H218.608C216.269 112.74 214.493 110.634 214.887 108.328L216.414 99.4113Z" fill="#708DA0"/>
<path d="M210.494 149.318C209.324 149.131 208.475 148.104 208.51 146.919L209.794 103.273C210 96.2783 216.083 90.9184 223.048 91.5944V91.5944V91.5944C229.757 92.2456 234.245 98.8056 232.421 105.295L220.2 148.762C219.876 149.916 218.738 150.643 217.555 150.453L210.494 149.318Z" fill="#95B9D0"/>
<path d="M99.8445 223.408C97.868 224.459 95.4139 223.708 94.3633 221.732L94.2838 221.582C93.2331 219.606 93.9838 217.151 95.9604 216.101V216.101C97.9369 215.05 100.391 215.801 101.442 217.777L101.521 217.927C102.572 219.904 101.821 222.358 99.8445 223.408V223.408Z" fill="#F1F1F1"/>
<path d="M213.245 146.891C214.173 146.416 215.311 146.784 215.785 147.712L216.965 150.019C217.44 150.947 217.072 152.084 216.144 152.559L211.87 154.744L208.972 149.077L213.245 146.891Z" fill="#326C65"/>
<rect x="205.474" y="142.062" width="21.8898" height="134.134" rx="3.30329" transform="rotate(62.9138 205.474 142.062)" fill="#58BBAF"/>
<path d="M213.846 158.438L213.981 158.702C214.812 160.327 214.169 162.317 212.544 163.148L99.004 221.215C97.3797 222.045 95.3896 221.402 94.5589 219.778L94.4234 219.513L213.846 158.438Z" fill="#326C65"/>
<path d="M120.424 210.219L110.523 190.687L114.594 188.623L124.495 208.155L120.424 210.219Z" fill="#326C65"/>
<path d="M180.771 179.232L170.871 159.7L174.942 157.636L184.843 177.168L180.771 179.232Z" fill="#326C65"/>
<path d="M216.959 59.63C214.972 59.4658 213 60.0944 211.475 61.3786L210.496 62.203C209.769 62.8144 210.083 63.9952 211.016 64.1662L217.791 65.4067C218.221 65.4854 218.664 65.4021 219.036 65.1728L221.736 63.5081C222.246 63.1932 222.419 62.5326 222.128 62.0081L221.851 61.5084C221.316 60.5431 220.334 59.9089 219.234 59.8181L216.959 59.63Z" fill="#708DA0"/>
<defs>
<linearGradient id="paint0_linear_4379_141694" x1="215.393" y1="200.526" x2="301.633" y2="78.039" gradientUnits="userSpaceOnUse">
<stop stop-color="#E1FFFB"/>
<stop offset="1" stop-color="#75EDDF"/>
</linearGradient>
<linearGradient id="paint1_linear_4379_141694" x1="208.051" y1="51.9748" x2="208.051" y2="121.607" gradientUnits="userSpaceOnUse">
<stop stop-color="#71DACD"/>
<stop offset="1" stop-color="#7CF3E5"/>
</linearGradient>
<linearGradient id="paint2_linear_4379_141694" x1="200.149" y1="112.656" x2="199.518" y2="149.558" gradientUnits="userSpaceOnUse">
<stop stop-color="#A9FFF5"/>
<stop offset="1" stop-color="#F7F7F7"/>
</linearGradient>
</defs>
</svg>
