<svg xmlns="http://www.w3.org/2000/svg" version="1.1" viewBox="0 0 1280 1280" width="512" height="512">
  <path transform="translate(0)" d="m0 0h1280v1280h-1280z" fill="#283c49"/>
  <path transform="translate(0)" d="m0 0h896l-2 5-8 9-8 10-7 7-7 9-6 9-10 8-16 8-9 2-10-3-9-6-5-1-4 6-10 8-8 7-9 9-4 6-1 4 1 9-11 7-11 10-8 5-7 3v9l11 10 8 10 17 29-3 5-1 23-3 5-25 6-11 5-7 3h-6l-1-20 5-7-1-7-6-12 1-3 11-3 1-2-3-1v-2h2l-5-5-8-4-16-2-6-3 1-7 5-12v-9l-3-3-9-4h-13l-12 3-9 4-10 8-4 1-1-9-4-5 7-7 6-12-1-3-7-3-9 1-6 5-6 7-12 6-11 12-4 5h-13l-7 2-1 13 5 2 9 4h7l2 1 1 7-2 2 1 4 6 3 7-1 6-4 3-5 1-2 16 3 7 3 13 2 1 4v7l-9-1-18 8-17 16-9 10-3 7 9 3 5 5 8 10 6 13 4 10 7 10 5 10-1 3-7-8-7-2 1 4 11 7 2 6v2l-14 8-4 2-1 3 13 1 5 4 8 1 1 4-4 5-6 12-2 8-1 2-8 2-1 5-7 11-8 10-3 2-3 7-2 12-4 5-5 5-8 9-8 4-6 9-6 5-9 4-3 1-2 7-10 5-13 1-12 4-7 3-5-1-3-11h-2l1 5v10l-8 3-4 3-14 2-9 4-6 3-14 1v19l-9-5-1-1v-15l-9-1-19-7-13-4-5-3-1-4 3-1v-6l-2-5-10-3-11-4-7-3h-8l-9 8-25 4-11-1-10 5-7 3-4 9-10 4-4-2-7-7-1-14-10-10v-13l-18-2-2-3 2-5 9-10 5-10 3-15v-7l-3-9-6-10-10-11-8-3-6 2-7 9-6 9-15 10-11 8-4 5-1 7-2 7-4 5-3 17-3 5-4 2-9-1-3 2-3 24-3 9-8 9-1 3-4-1-4-8-5-5-7 1-5 2-1 7-6 2-10 2-4 2-16 2-9-1-10 3-6 3-2 3v12l-12 11-4 4h-7l-9 7h-2z" fill="#4dc5b3"/>
  <path transform="translate(978,1040)" d="m0 0h5l3 5 4 10 9 18v12l4 8 3 7h4l2-3 4 1 13 13 2 8 1 14 11 22 1 11 7 14 9 7 24 16 4 4 18 36 6 1h7l3 4 1 14 12 12 5 4v2h-656l7-21 3-18 2-3 2 1-1 5 5-2 10-10 17-10 16-8 16-4 18-7 4-2 18-2 7-2 10-7 4-4 12-19 1-9v-9l9-6 3-4h3l6 10v2h5l-1-13-1-4h11l6 1-3-11 1-4 5-4 1-2 5-1 3-6 2-5 9-1 5-5 10-6 4-1 10 7 8 9 2 4h6l3-2 5 1 2 4 9-2-1-6-3-1 2-6 8-13 5-12 8-6 2-3 20-1h7l1-2v-10l9 1 18 6 7 3h22l2 4 10 1-2-3-3-1 1-4 4 2 4 3-1 6-3 5-2 7-6-2-1 2-1 12-5 12v7l15 12 24 12 2 5 3 2h7l3 2 5-1-1 5 10 7 13 6 2-4 7-9 7-14 4-18v-11l-2-18 3-10 2-8v-6l3-8 4-13z" fill="#344a59"/>
  <path transform="translate(215,347)" d="m0 0 5 1 5 6 4 7 6 7v19l-2 9-5 5-8 9-4 9 1 11 4 1 13-1h2l2 13 4 4 5 2-1 9-1 1-1 7 12 2 2 6 4 4 6-1 5-2 4 1 3 6 7 1-1-13-1-6 1-3 9-2 2-3 5-1 1 4 8-1 3-2h7l4 1 5-3h8l2-5 5-5 4 1 3 3v2l20 2-2 4v7l3 5 11 7 7 2-4 4-7 5-7 2-6 12-7 6-3 6-3 10 1 5 8 11 3 1 3 8 9 10 12 12 6 4 11 15 7 19 2 16v15l-3 14-7 8-20 12-6 2-7-1-5 13-9 7-9 6-4 4h-6v-10l4-15-7-1-7-4-5-5-3-1 3 5-5-2-1-7h-4l-2 2-3-3v-8l-9-10-11-7-3-1-13-1-1-5 1-2h4l-5-5-6-3-8 1-2 21-12 31-1 2v13l1 6h9l5 13 4 6 1 8h-2l4 8 3 3 9 3 7 2 4 6 10 7 10 10 6 10 1 4v23l2 7 6 8 6 11v3l-7 1v3l-6-2-15-9-10-7-6-4-5-3-3-9-8-13-4-13-4-21-4-8-4-5-5-9-5-4-8-11-5-2v9h-2l-1-14 3-15 2-5-1-11 4-17v-7l-1-1-1-18-3-9-6-12-4-14-4-21-3-9-4-5-3-6v-2l-2 1-1 7-4 4-8 4-3 3h-2l-1 3-7 4h-6l-5-6-3-3-2 7-3-1 2-13 2-7v-12l-5-16-3-7h-3l-1-2h-2l2-5-1-5-11-5-6-7-6-5-3-7v-4l5-2 2-11 8-3 1-1v-12l4-9v-11l5-1 8 2 3-9 6-12v-7l6-10 1-4-1-5h2l1-5 6-4 11-8h8l5 2h2l-2-4v-5l5-8z" fill="#4dc5b3"/>
  <path transform="translate(549,736)" d="m0 0 3 1 2 5h4v7l7 4 9 3 9 4 2 1v3l-5 1v2l-11 1 1 6-1 3 2 1-7 2-3 3h-4l1 5 1 3-5-1-2 2 1 5 4 5 6 8 1 5-2 5 13 11 4 3v2l-3 2-5-1h-8l-6 9-1 3-1 16-13 11-4 4h-2l3 12-1 4-4 7v7l2 5v3l-4-1v-7l-2 1-1 3-9 4-5 3-8 1-2-9-8-4-4 2-11-5-5 1-2 3-8-1-8 1v-6l-1-1h-8l-1 1-13-1-3-1-4-17-1-5v-3l-2-6-3 1-1 2-3-1-2-8-4-8 1-7-4-6v-7l4-12 2-4 6-1 4 2 10 2 10 3 3-14 6-8 19-5 8-4 8-10h2l3-10h4l3 3v3h6l3-7h-2v-4h4l3 6 3 2-1-6-1-3 5-5v-5l-1-2 7-1 3-6 7-10 3-1v-3l6 2v-2z" fill="#4dc5b3"/>
  <path transform="translate(178,757)" d="m0 0 7 1 10 5 19 1 5 3 5 6 5 10 4 3 5 3 8 5 6 4 8 9 5 7 5 3h2l1-3 5 2 9 2-1 8 5 2 2 5h2l5 5 8 5v3l12 2v3h-2l-1 10 4 7 1 1 10 2 1 1 2 11 5 5-2 4-2 3 7-1 4-1 5 2 6 8 1 6-1 3-1 36-1 2-19-1-4 2-9-10-14-11-10-8-7-8-10-10-9-12-9-20-6-9-8-10-7-7-6-17-7-10-10-7-4-4-2-6-7-6-5-6-11-8-8-8-5-7-2-5z" fill="#4dc5b3"/>
  <path transform="translate(807,859)" d="m0 0 11 1 17 6 4 4 2 5-1 6v11l3 6h3l4 3 3 6 5 3 4-1 8-7 7-8 2-3 8-1 7-9 7-1 10 2 19 8 13 5 4-1 8 4v108l-5-3-5-5-5-4v-2l-6-1-1 1-10-1-3-14-4-12-9-17-5-4-9-6-13-4-12-5-16-3-4-7h-7l-8-5-4-3-3 8-3 2h-6l-1-10-1-3-11-7 4-2 11-2 2-1 11-1 4-3h2v-2l-27 1-3-1v-2l-3-1-4-6-4-3-9-2-9-7 4-1 3 4 4-1 2-4 12-6z" fill="#4dc5b3"/>
  <path transform="translate(964,899)" d="m0 0 5 2 28 10 24 11 13 9 8 16 18 4 8 5 3 1 1 9-9 2-4 3h-2l6 9 11 9h4v2h-2l4 7 5 6 2 3 9 3v6l5 1 5 3 7 8 6 3v3h-6v-2l-7-2-3-1-29-2-8-7-18-18v-5l-5-4-11-5-11-3h-16l-2 6-3 3h-6v3l6 2-3 7-7 5-26-2z" fill="#344a59"/>
  <path transform="translate(954,94)" d="m0 0 5 1 4 3 1 5v7l8 14 1 13-2 7-11 14-3 3-1 18-5 14-2 14-1 2h2v2l-3 1-5 10-2 2h-3l3-9 2-7-8 7-10 9-4 7h-2l1-9-7 1-1 6-1 1h-7l-9 3h-3l-1-6-6-1-1 4 1 1v6l-5 4-5 1-2 7-6 3-5 1-3-7-1-8 3-5 1-4-21 3-9 3-13 2-12 2-2 4-4 2-1-2-13-1-2-4 2-2 10-3 9-10 9-6 2-3 24-1 9-1 2-1h17l4-4 3-8 1-4 6-2 3-9 2-7 3 1-2 11 7-2 17-9 14-15 9-16 2-7v-31l6-3 2-5 4 1 2 2 9 1h2l-3-5-1-1h-6l-1-4z" fill="#4dc5b3"/>
  <path transform="translate(683,825)" d="m0 0 3 1-2 5-9 10-6 4-4 1-46-1-8-1-2-3-1 3-5 2-3 3-2 8 4 8 8 10 6 1 5-5h2v-2l6-1 3 1 5-3 18-1-1 3-7 1-10 9-12 6h-2l3 5 12 15v10l4 6 2 2 11 1v2l-8 1-11 4-3-1-1 5-5 1-2-3v-9l-1-3-5-2-4-4v-11l-2-5-5 1-4 4 1 11v18l-1 14-4 2-8 1-3-6 2-14v-8l-2-8-2-1h-7l-1-14 5-5 4-20 7-12v-8l5-12 2-2 9-2 2-6 7 1 4 2 20 3h12l4 1 1-1 11-1 8-7z" fill="#4dc5b3"/>
  <path transform="translate(971,6)" d="m0 0 5 2 3 6 17 17 16 8 9 1 4-6h2l-1 7 3 1-4 3v2l5 5 7 4-2 2-9 2-3 2-15 1-5 4-5 7h-2l-2 6-5 1-14-8h-15l-8 1-1-4-6 1-1 5 4 2-1 3 10 2v2l-5 1-3 2-5 1-1 5h-4l1-8-1-7-3-5v-2l9-6 3-4v-5l-2-4 4 1 8 5 8-23 1-5v-18l2-5h2z" fill="#4dc5b3"/>
  <path transform="translate(359,955)" d="m0 0 17 1 6-1 9 4 9 2 4 6 6 2h8l6 1h14l2-2 1-5 9 4h6l4 2 10 2 5 6 1 5 4 2 20 1 2 5 16 2 5 2-3 9-5-1v-2h-2l-3-3-8-4 1 8-6-2v-2l-10-1-6-1h-16l-2-1-19-1-10-3-8-3-13-3h-7l-4 2-11-2-14-4-9-2-1-5-6-3-13-1 1-2 6-3 2-2z" fill="#4dc5b3"/>
  <path transform="translate(611,531)" d="m0 0h8l12 5 2-2 4 1-1 5v7l3 7v10l-5 9-6 4-6 11 1 5 2 2 1 11-1 2 4 1 2 3h-6l-2 5h-6l-6-3-2-2v-5l3-2v2h2l-1-8h-4l-3 4-1-3-5-4-4-18v-4l8 1v-12l2-22 3-9z" fill="#4dc5b3"/>
  <path transform="translate(692,688)" d="m0 0 5 1 5 5 2 3 3 12 3 15-2 9-5 6-2-2-2-5-5-3-2 7 2 14-2 5-4-1v-5l-9 2-8-3-3-7-1-5 1-5v-9l-5-2v-3l-5 3-5 4h-2v-3h2v-4l-2 2-1 4-4-2-3-1-3 1-5 11h-2l1-7 3-8 10-3 3-2 3-7 3-1 8 5-2 4h-2v2l8-2 6-7 5-3h2v-2l10-4h2z" fill="#4dc5b3"/>
  <path transform="translate(779,246)" d="m0 0 6 1 8 5 4 2 4 8v7l-10 18-7 14-3 2 1-11h-5l-3-6v-4l-1-4-2-2v-3l9-2-1-6-3-3v-4l-3 1-2 7-4-1-3-3 1-5 6-7z" fill="#4dc5b3"/>
  <path transform="translate(626,408)" d="m0 0h2v2l4 1-10 35-8 14-3 5h-3l-6-13-1-9 1-9 13-19 7-6z" fill="#4dc5b3"/>
  <path transform="translate(422,504)" d="m0 0 17 1 7 2-2 4-4 5-6 11-5 5-10 5-6-1-8-8-1-3 4-11 5-6z" fill="#4dc5b3"/>
  <path transform="translate(1137,924)" d="m0 0 5 1 2 2 5 1-1 9h-6l3 3-5 3-2 3h-2l-1 3-12 7-7 3h-13l-7-2-12-5-3-2h-9v-2l22-2 29-1 8-2 1-2 3-1 5-8-1-6h-2z" fill="#344a59"/>
  <path transform="translate(831,237)" d="m0 0h7l7 3 1 4v6l-5 4-6 1-4-4-6 2-3 11-2 2h-5l-4-4v-3l-1-4 6-11h3l5 2 5-5h2z" fill="#4dc5b3"/>
  <path transform="translate(683,825)" d="m0 0 3 1-2 5-9 10-6 4-4 1-32-1v-5l-8 1-2-2 5-1 8 1h11l5-2 8 1 1-1 11-1 8-7z" fill="#4dc5b3"/>
  <path transform="translate(732,818)" d="m0 0 1 2v6l3 4v2l4-1 2-3h5l-1 4-8 7-1 2 4 1 6 5h-3l-9-4-2-1v12l3 7 1 4-5-5v-2h-2l-1-14 1-2h-4v-14l2-2 3-7z" fill="#4dc5b3"/>
  <path transform="translate(613,831)" d="m0 0 7 1 4 2 25 4-2 2h-11l-9-1v1h6v5h-16l-7-2h-1l-4 1v-3l1-3 6-2z" fill="#4dc5b3"/>
  <path transform="translate(759,901)" d="m0 0 4 1 4 2 10 2 2 3-1 3 4 1v3l-5-1-3-1-1-2-10-5h-2l-2 4-3-1v-3l-9 1-4 5-1-5-5-3v3h-2v4l7 1-2 2h-5l-2-5 1-5 3-2h21z" fill="#4dc5b3"/>
  <path transform="translate(681,1008)" d="m0 0 4 1-3 4v4l-5 6-11 5-5-1v-7l2-4 10-3 3-3z" fill="#4dc5b3"/>
  <path transform="translate(294,825)" d="m0 0 5 1v8l4 1v-2l5 1 1 7 6-1 3 6 2 2h-7l-5-2-1-3-11-7-1-3h-2l-2-5-3-1z" fill="#4dc5b3"/>
  <path transform="translate(916,978)" d="m0 0 2 1 1 6h-2l1 4-2 4-9 2-3 1-3-3 1-4 7-8z" fill="#4dc5b3"/>
  <path transform="translate(635,651)" d="m0 0h3v3l13 3-1 3-7 5-1 3-4 2-5-1 1-7v-10z" fill="#4dc5b3"/>
  <path transform="translate(357,880)" d="m0 0 3 1 5 14 6 2 1 3-3 2h-5l-4-3-3-8-4-4h-5v-3l2-2z" fill="#4dc5b3"/>
  <path transform="translate(603,995)" d="m0 0 12 2 4 2h18l-2 3-21 2-10-2h-9l2-3h2l1-3 3 1z" fill="#4dc5b3"/>
  <path transform="translate(609,620)" d="m0 0 4 2v2h8l4 8h-4v2l2 1-2 5h-6l-3-9-4-9z" fill="#4dc5b3"/>
  <path transform="translate(583,1014)" d="m0 0h14l5 3 4 5 5 2 1 2-3 2-6-1-8-6-12-4-2-2z" fill="#4dc5b3"/>
  <path transform="translate(642,607)" d="m0 0 5 2 6 8 6 5v2l5 2 3 4v4h-2l-1-4-8-3-3-5v-2l-4-2-6-6-3 1-1 3 4 5h-3l-9-9 5 2v-2z" fill="#4dc5b3"/>
  <path transform="translate(732,818)" d="m0 0 1 2v6l3 4v2h2l-1 5-3 3h-6v2h-2v-14l2-2 3-7z" fill="#E7E7E7"/>
  <path transform="translate(685,637)" d="m0 0 3 1 1 4h2v10l-3 2h-5l-2-4 6 3-3-4-3-1v-2l-5-2v-2l-3-1 1-3 4 1 1 3 4 1 1 4 2-1 1-5h-2l-1 2-5-5z" fill="#616163"/>
  <path transform="translate(683,825)" d="m0 0 3 1-2 5-9 10-6 4-4 1h-9l-1-2 13-4 12-11z" fill="#5D5D60"/>
  <path transform="translate(701,906)" d="m0 0h14l4 1v10l-9-1-6-4v-2h-2z" fill="#68696B"/>
  <path transform="translate(689,655)" d="m0 0 4 1-1 5-4-1h-4l1 12 2 2-1 4-4-2-2-3 2-2-4-6-5-6 2-3 3 2 6-1z" fill="#6A6B6D"/>
  <path transform="translate(653,665)" d="m0 0h2l2 5-7 14-3 3h-2v3l-4-1v-5l5-3 3-9v-4h2v-2z" fill="#5E5F61"/>
  <path transform="translate(504,991)" d="m0 0h8l10 2v3l-2 7-5-1v-2h-2l-3-3-8-4-1 4v-5z" fill="#C2C2C2"/>
  <path transform="translate(759,901)" d="m0 0 4 1 4 2 10 2 2 3-1 3 4 1v3l-5-1-3-1-1-2-10-5-6-2z" fill="#606062"/>
  <path transform="translate(590,662)" d="m0 0h1l1 10-8 6-8 8-7 8-8 8-8 5 2-5 10-8 20-20 3-5z" fill="#4dc5b3"/>
  <path transform="translate(788,1044)" d="m0 0 4 1v7l-1 2-3 1h-13l-5-1 3-2 7-1 5-5z" fill="#C1C1C1"/>
  <path transform="translate(548,997)" d="m0 0 7 1 6 3 1 4-5 1h-12l-1-3 3-5z" fill="#4dc5b3"/>
  <path transform="translate(648,713)" d="m0 0 4 1-1 5-1 4-4-2-3-1-3 1-5 11h-2l1-7 3-8 10-3z" fill="#4dc5b3"/>
  <path transform="translate(655,704)" d="m0 0 8 4v4l-5 1v3 1l-7-1-1-4 3-7z" fill="#4dc5b3"/>
  <path transform="translate(917,977)" d="m0 0h3l2 3 2 10 3 2-6 2v5h-3l-2-8 2-7-1-5z" fill="#4dc5b3"/>
  <path transform="translate(627,838)" d="m0 0 9 1h13l-1 3 1 3h-16v-5l-8 1-2-2z" fill="#4dc5b3"/>
  <path transform="translate(357,887)" d="m0 0h2l2 5h3l2 4 5 1 1 3-3 2h-5l-4-3-3-8z" fill="#4dc5b3"/>
  <path transform="translate(617,832)" d="m0 0 6 1 1 1 25 4-2 2h-11l-10-2-8-4z" fill="#4dc5b3"/>
  <path transform="translate(665,664)" d="m0 0h1v8l-9 14-4 5-1 5-5-2-1-4h3l1-2 5-3 7-12z" fill="#4dc5b3"/>
  <path transform="translate(677,1014)" d="m0 0 5 1-2 5-5 4-9 4h-4v-4l12-4 4-3z" fill="#4dc5b3"/>
  <path transform="translate(843,948)" d="m0 0 5 1v9l-3 3-1 7h-5l1-4 3-8z" fill="#4dc5b3"/>
  <path transform="translate(595,1018)" d="m0 0 4 2 4-1 3 3 5 2 1 2-3 2-6-1-8-6z" fill="#4dc5b3"/>
  <path transform="translate(635,651)" d="m0 0h3v3l2 1h-2v3h7l-1 5h-5l-2 2h-3v-13z" fill="#4dc5b3"/>
  <path transform="translate(560,993)" d="m0 0h6l7 3 2 3 1-1-1-2h5v4l-1 2h-8l-2-4-9-4z" fill="#4dc5b3"/>
  <path transform="translate(657,712)" d="m0 0 3 1v2l5-1 2 7-4-1v-3l-5 3-5 4h-2v-3h2l2-4z" fill="#4dc5b3"/>
  <path transform="translate(135,624)" d="m0 0 3 1-3 29h-3l2-20v-9z" fill="#4dc5b3"/>
  <path transform="translate(615,627)" d="m0 0 2 1-1 4 4 2 3 1-2 5h-6l-3-9 1-3 2 1z" fill="#4dc5b3"/>
  <path transform="translate(701,906)" d="m0 0 8 1v3l3 1 4 5h-6l-6-4v-2h-2z" fill="#4dc5b3"/>
  <path transform="translate(602,839)" d="m0 0h4l-2 6-4 4-2 5-3 2 1-6 5-10z" fill="#4dc5b3"/>
  <path transform="translate(661,837)" d="m0 0h10l-3 4-5 2-7-1v-3z" fill="#4dc5b3"/>
  <path transform="translate(732,818)" d="m0 0 1 2v6 4l-2 3-4-1-1-4 2-2 3-7z" fill="#4dc5b3"/>
  <path transform="translate(650,930)" d="m0 0h2l-1 5h-3l-3 1-2 7h-5l1-4 2-4z" fill="#4dc5b3"/>
  <path transform="translate(590,662)" d="m0 0h1l1 10-8 6-10 10v-3l11-11 3-5z" fill="#4dc5b3"/>
  <path transform="translate(679,662)" d="m0 0 4 1 2 9 2 2-1 4-4-2-2-3 2-2-3-5z" fill="#5D5D60"/>
  <path transform="translate(1191,948)" d="m0 0 4 2 7 8 6 7-5 1v-3l-12-12z" fill="#656668"/>
  <path transform="translate(212,827)" d="m0 0 3 1 6 9v3h-4l-6-9z" fill="#4dc5b3"/>
  <path transform="translate(676,1014)" d="m0 0 1 2 2 1-7 5-10 2 3-4 10-5z" fill="#4dc5b3"/>
  <path transform="translate(391,897)" d="m0 0 4 1-1 4h3v3l-5 1-5-2v-3z" fill="#4dc5b3"/>
  <path transform="translate(648,865)" d="m0 0h7l-1 3-7 1-3 2h-6v-2l4-2h-5v-1z" fill="#7E7F80"/>
  <path transform="translate(235,870)" d="m0 0 4 1 5 9v2h-3l-2-5-4-2-1-3z" fill="#4dc5b3"/>
  <path transform="translate(536,994)" d="m0 0 3 1-1 7-2 2-5-1 2-4z" fill="#4dc5b3"/>
  <path transform="translate(737,905)" d="m0 0 5 2 1 1v6l-8-2v-4h2z" fill="#4dc5b3"/>
  <path transform="translate(954,94)" d="m0 0 5 1 4 3 1 5-2 1-4-5h-6l-1-4z" fill="#4dc5b3"/>
  <path transform="translate(638,655)" d="m0 0 9 1 4 1-1 3-4 3-2-1 1-4-4 1-3-1z" fill="#4dc5b3"/>
  <path transform="translate(234,631)" d="m0 0h1l1 18 1 3v5l-3-4-1 1h-5l5-4v-13z" fill="#4dc5b3"/>
  <path transform="translate(483,971)" d="m0 0h11v2l-14 3-3-1 1-3z" fill="#4dc5b3"/>
  <path transform="translate(250,889)" d="m0 0h4l3 5v2h2v2l3 1 2 3v3l-3-1-4-6-5-5z" fill="#4dc5b3"/>
  <path transform="translate(669,681)" d="m0 0 6 1v3l-4 2h-6v-3z" fill="#4dc5b3"/>
  <path transform="translate(795,977)" d="m0 0 3 1-2 4-6 7-1-4 4-7z" fill="#4dc5b3"/>
  <path transform="translate(276,815)" d="m0 0 4 2 7 1-1 6h-3l-2-4-4-1z" fill="#B0B0B0"/>
  <path transform="translate(1154,918)" d="m0 0 6 4 2 12h-3v-8h-2v-4h-2z" fill="#A0A0A1"/>
  <path transform="translate(504,991)" d="m0 0h8l-1 5-5-1-4-2-1 4v-5z" fill="#4dc5b3"/>
  <path transform="translate(685,637)" d="m0 0 3 1 2 6-3 1v-4h-2l-1 2-5-5z" fill="#4dc5b3"/>
  <path transform="translate(619,624)" d="m0 0 3 1 3 7h-4l-1 2-2-3v-6z" fill="#4dc5b3"/>
  <path transform="translate(148,519)" d="m0 0h6l3 2-1 2-3 2-5-1z" fill="#4dc5b3"/>
  <path transform="translate(516,992)" d="m0 0 7 2-2 3h-2v5l-2-1-1-4-1-3-2-1z" fill="#4dc5b3"/>
  <path transform="translate(689,646)" d="m0 0h2v6l-3 2h-5l-2-4 6 3-3-5h5z" fill="#4dc5b3"/>
  <path transform="translate(674,881)" d="m0 0 10 1v3h-11z" fill="#4dc5b3"/>
  <path transform="translate(731,847)" d="m0 0 2 4 2 9 2 2-1 3-4-5v-2h-2v-9z" fill="#4dc5b3"/>
  <path transform="translate(162,565)" d="m0 0 2 1v10h-4l1-9z" fill="#4dc5b3"/>
  <path transform="translate(628,999)" d="m0 0h9l-2 3-12 1 2-3z" fill="#4dc5b3"/>
  <path transform="translate(337,852)" d="m0 0 3 1 1 3-5 4-3 3h-2l2-4h2z" fill="#4dc5b3"/>
  <path transform="translate(649,939)" d="m0 0h2l-1 5-4 4-4-1 1-2h2v-2z" fill="#4dc5b3"/>
  <path transform="translate(863,864)" d="m0 0 9 3 3 3v3l-4-2-8-5z" fill="#4dc5b3"/>
  <path transform="translate(710,982)" d="m0 0h2l-1 3-7 3-5-1v-2l10-2z" fill="#4dc5b3"/>
  <path transform="translate(637,875)" d="m0 0v3l-9 5-3-1 3-1 1-3z" fill="#4dc5b3"/>
  <path transform="translate(776,854)" d="m0 0h10l3 1v2h-13z" fill="#4dc5b3"/>
  <path transform="translate(562 1e3)" d="m0 0h8l1 3-5 1-4 1-1-4z" fill="#4dc5b3"/>
  <path transform="translate(779,868)" d="m0 0h4l3 4h5v4l-4-1-8-6z" fill="#4dc5b3"/>
  <path transform="translate(655,717)" d="m0 0h5l-5 6-4 1v-3h2z" fill="#4dc5b3"/>
  <path transform="translate(639,658)" d="m0 0h6l-1 5h-5l-2 1z" fill="#4dc5b3"/>
  <path transform="translate(690,642)" d="m0 0 1 4h-2l1 3-9-1v-2h-2v-2l4 1 3 1 4-2z" fill="#4dc5b3"/>
  <path transform="translate(817,917)" d="m0 0h7l1 3-2 1h-6z" fill="#4dc5b3"/>
  <path transform="translate(530,910)" d="m0 0h2l1 7 3 2h-5l-4-5h2z" fill="#4dc5b3"/>
  <path transform="translate(734,905)" d="m0 0 3 1v2h-2v4l7 1-2 2h-5l-2-5z" fill="#4dc5b3"/>
  <path transform="translate(625,868)" d="m0 0 6 1-2 2-6 1v2h-3l1-3h2v-2z" fill="#4dc5b3"/>
  <path transform="translate(727,832)" d="m0 0h7l-2 4h-4v6h-2v-8z" fill="#4dc5b3"/>
  <path transform="translate(714,908)" d="m0 0h2v5h2l1 4-4-1-2-2z" fill="#959696"/>
  <path transform="translate(694,882)" d="m0 0h6l1 3h-4l-1 4h-3z" fill="#4dc5b3"/>
  <path transform="translate(681,672)" d="m0 0 5 1 1 4h-4l-3-4z" fill="#4dc5b3"/>
  <path transform="translate(618,146)" d="m0 0h8v2l-5 2-4-1z" fill="#4dc5b3"/>
  <path transform="translate(681,1008)" d="m0 0 4 1-3 4h-5l2-4z" fill="#4dc5b3"/>
  <path transform="translate(648,993)" d="m0 0 3 3-4 2-3 2h-3l1-3 5-3z" fill="#4dc5b3"/>
  <path transform="translate(654,707)" d="m0 0 5 2 1 4h-2v3l-3 1v-7z" fill="#4dc5b3"/>
  <path transform="translate(322,667)" d="m0 0 4 1 4 5-6 2-1-3v-2z" fill="#4dc5b3"/>
  <path transform="translate(678,639)" d="m0 0 5 2h4v5l-3 1-2-4-3-1z" fill="#4dc5b3"/>
</svg>
