<svg xmlns="http://www.w3.org/2000/svg" version="1.1" viewBox="0 0 1488 1488" width="512" height="512">
  <path transform="translate(0)" d="m0 0h1488v1488h-1488z" fill="#283c49"/>
  <path transform="translate(1100,453)" d="m0 0 14 4 2 3h15l8 4 1 2v10l-5 4-18 9-5 1 1 1 12-3 4-3 11 3 3 1 2-1h13l3 3 3 1 14 1 1-5 18 1 3 3 1 11 4 3 7 1 1-4 11 1 5-1 6 1 7-1v-7l8-1 10 1 3 2h13l4 2 2 3 5 2 2 2h24l6 2 2 7 6 1 2-1h21l5-1-1 4h7v-5l18 1 15 3 18 8 5 4v4l3 1 1-4 12 5 2 1-1 4-4 3h-3l-1 6-4 2-8-4-4-3-7-3-1-3-2 1-1 6-8 7 1 4 3 4v3l-4 1-5-1-16 8-9 6-3 1-4-2-4 1-2 1-15 2-2 6-3 1v4l3 1 1 4-5 10-7 7-11 14h-2l-4-21 1-7 5-7 9-6 7-7 7-5h2l1-6 1-4-3 1-4 6-5 3h-3l-1-6-10 1-5 5-6 7-2 4h-9l-3-2-31 1-6 4-16 15-5 3v2l4 2v2h7l6-1 2 4h2l1 6-3 7-2 11-5 9-10 14-8 8-7 1h-5l-6 7-1 4-6 4 1 4 4 6 1 8h-2l-1 3-5 1-4 1v-8l1-7h-5l-1-3-1-5h-6l-6 2v-7l-5 2-4 4-6 1 3 7 4 1 11-1v2l-10 6v5l6 12 1 13-7 11-3 6-10 7-15 6-8 3h-4v-2l-7 2-4 1-2 4v6l8 10 3 4 1 9-2 6-9 6-2 2-4-1-4-5-8-7-7-4-2 9-1 4 7 12 8 7 2 9 2 2v3l-5-1-6-4-6-16-4-5-1-5v-14l-4-12v-2h-5v2l-6 1-1-4v-6l-6-8-6-9-4 2-1 1-9 2-14 13-8 7-5 5-1 3-1 11-3 7-6 7h-2l-11-23-5-14-2-14v-3h-2l-2 3-5-1-6-9-7-6-1-2h-22l-13-2-4-4h-8l-10-5-8-9-5-1 1 7 8 12 7 6 6-1 5-5h3l2 5 8 4 3 3-1 5-8 11-11 8-8 4-6 4-22 8-6 1-3-8-2-9-8-13-4-4-3-9-12-18-6-2 3 10 4 8 5 9 3 10 5 8 3 6 10 10 3 2 3 7 1 1 11-1 16-3 1 2-3 9-6 12-8 10-9 8-8 7-9 10-4 8 2 16 3 10 1 14-4 5-9 5-5 4-2 3h-2v7l2 10-4 6-5 2-4 13-7 9-5 6-8 6-8 3h-9l-5 1h-9l-3-4-2-9-9-17-4-15-3-10-7-15v-8l3-10 4-7-4-17-4-10-9-11-1-6 2-7v-9l-7-2h-7l-5-6-7-1-14 4-2 1h-10l-9 1-6 1-9-5-9-7-8-11-8-9-1-4v-8l2-7v-8l-2-10 8-16 6-8 11-8 4-13 8-7h2l2-6 1-2 7 2h9l11-5 19-2 15-1 4 1v15l7 3 8 1 4 4 8 3 2 1h6l2-7 2-2h6l15 5 13 3 2-2 16 1 3-9 2-8 1-7-7 1-1 1h-5l-2-2h-5l-5 1-7-2-3-5-1-6-4-7-6 1-5 2 2 4-1 6h2l1-3 2 2-4 3-1 3-5-1-6-11-3-3-1-9-14-9-4-5-6-3h-2l3 7 4 5 1 3 8 4 6 4v2l-5 1 1 7-3 1-1-6-10-7-6-4-7-8-1-2h-5l-7 4h-12l-3 9-7 2-3 5-2 8-7 6-11 2h-4l-10-4-2-6 1-23 1-1h26l2-6v-6l-5-7-7-4v-3l8-1 14-8 5-5 7-6 2-5 10-3 6-1-3-9 1-5 2-3 6-1-1 6 1 3-4 2 4-1 5-2h3l-2-7-3-5-2-6-4 1-4 4-9 1-3-4-2-10v-9l4-4 10-6 5-2 4-6 8-13 6-8 8-7 2-4 8-4h7l10-5 8-1 4 1 7-1 7 2-2 1v3l17 4 10 2 14 6 3 5-1 5-5 3h-8l-12-3h-4l5 5 1 9 6 5 6-1-1-2-5-1v-3l7 1 5 2 2-10 7-5 7 1 1-1v-10l2-4 6 2v3h-4l1 6 9-3 7-5 12-4h4v2l15-2h13l-3-4-6-3 2-2 7 3 17 3 10 4h3v-2l-5-2-2-8 2-6 4-4 4-6 2-1 4 1 7 1-1 13 2 13v6l-7 8-2 1 7-1 7-8 1-6-3-1v-11l-1-8 1-1h5l2 5 6 1 2-2-7 1v-5l6 1-1-4 4-1 12 4 4 4 1 7 3-2-3-8-7-5-2-4v-3l2-1 9-1h15l-1-3-2-1v-2h2l1-4 10-6 21-7 9 1 11-4h2l2-4z" fill="#4dc5b3"/>
  <path transform="translate(223,481)" d="m0 0h9l19 4v2l8 2 2 5 3 1v-2l4 1 7 1 4-1 2 5h4l-1-8 8-3h4l-1 4-3 3h2l5 12 4 3 8 3-1 3-9 5h-9v-2l-4 1 9 4 7 2 16 1 2-4h4v-2h-6l-1-4 1-1 7 1 4 7h-3l1 6 3 1-1-3 2-3 4-2v-5l-8-2-1-6 2-5 2-3v-14l2-3 6-1 10 1-1 4-3 5-6 3-3 6 5 2 5 10 5 5v2l5-2 4 1-1 7h6l1-4 3-2 2-7 1-1-7-1-9-3v-3h3v-2l-7-2 3-11 3-4 11-2v3l-3 5 2 7h2l1-10 2-3 13-1 16 1 2 3-3 2h-3v2l6-2v2l4 1 8 7h6l3 3v1l8 1 2 4 5 2v4l-3-1 2 5 17 8 2 2 4 1-1 4-4 7-3 3h-4l-4-6-4-3h-3l1 6 8 7 3 6-1 5-7-1-7-3 1 3 7 5v1h-6l-9-3-4-2-6-7-5-3h-15v-5l3-2h8l5-1-2-7 5-2 1-7-5-5-8-4-9-6h-2l-2 3-2-1h-9l3 5-1 7 2 4-4 4-8 2-1 2-1-1h-5v2l9 7 6 3 6 7v2l-5-2-6-1-3 4-8-1-1-4 2-12-4 2-1 7-3 3-10 3 1 4-8 4-6 10-1 9 3 3 4 2 1 6h9l15 7 5 2 9 1 2 7 6 12 5 1 1-1-1-17 8-5 1-1v-7l-6-7 2-4 1-5-1-3v-11l3-1 16 2 5 4 1 2 8 3-1 9 7 5 6-1 5-9 4 2 6 10 3 4 3 8 13 7 7 8-1 11-1 7 10 2 2 10 1 3-5-1-13-2-7-1 9-20-1-2-11 8-4 1h-18l-10 6-4 5 9-6h11l-2 5-1 3 2 5 6 1v2h-3l-1 2-5 2-13 6-7 4-1 7 1 2-12 4-3 6-2 2-2 5-3 2 1-5 1-3-3 3-1 6h2v9l-11 8-4 2v2l-4 3v8l3 10v10l-7-6-3-7-2-6-9-2h-14l-2 3-17-1-10 6-1 2v9l-2 7 1 11 5 9 3 2h9l7-2 5-9 5-1h7l-3 11-3 8v3l14 1 4 2 1 2v9l-1 6 4 7 4 2 5-1 2-2 5 1 9 4 2-6 4-4 8-3h4v3l5-2h5l4 3 13 2 3-2 4 1 5 2 2-2 1 3h-2l1 3 9 4 6 7 14 2 7 4 7 14v4l15 4 7 4 19 4 9 6 7 4 1 1v10l-6 8-8 11-1 3-1 13-5 13-5 8-2 2-8 1-11 6-6 7 1 7-6 8-8 9-3 6-5 5-3 2-9-1-3-1 5 10-2 4-3 3-9 3-6 1-4 10h-3l-5-1 1 4 2 3-6 11-5 5-2 5 5 2 2 3-7 8-3 6h-2l-1 6 2 9 6 7 5 4-2 1-14-1-8-5-7-4-3-7-2-9-1-12 3-2v-5l-2-1 1-5 4-2 2-10 2-8-4 2v-9l1-9 2-9 4-13 6-45v-16l-5-5-16-12-7-14-9-16-4-4-1-4 2-5h2l-1-5-1-1v-5l4-6 8-10v-13l-3-6-1-3h-5l-3 5-10-3-7-6-5-5-6-7-15-5-7-6-8-1-4 1-14-5-16-8-5-6 1-6-10-11-9-11-10-12-4-6-5-3 5 10 7 10 8 13 3 5-4-2-7-8-4-6-3-3-5-9-9-14v-2l-4-2-8-5-10-15-4-10v-19l1-14-4-8-10-8-2-4 7 1 10 10 3 6 2 1-2-7-9-8-9-5-4-8-7-6-2-7-2-4-3-1-9-11-4-3h-2l7 8 9 9v2l-5-2-5-5-10-11-10-6-6-2-16-3-10-4-1 5-10 4h-3l2-6 3-3-5 2-5 5-6 10-11 7-6 4-20 8-2-1 12-6 11-6 4-4 1-5h-16l-2-7-11-1-2-7-2-4 5-8 13-4 1-7-5 2h-13l-5-5-2-3v-4l10-4 4 1 1 1h7l2-2-10-5-5-5-5-3v-2l9-2 11-7 12-5 9-1 18 4 21 3 6 1 4-1 7 3 10 1 4 2h7l2-2h6l4 1 10-5 6 3 2-4h4l1 4h5l4-1 1 2 4-1h8l13 3h13v-2h-7l-5-5-1-2 5 1h15l-5-1-10-1-7-2v-4h-2l1-4 1-3-5 3-4 5-6 2h-5v-2l-6-2-1-5 5-15z" fill="#4dc5b3"/>
  <path transform="translate(558,396)" d="m0 0h22l18 2 13 4 5 3 2 4 1 8-5 3-1 2 10-5 4-4 1 2 5 1 5-2 1-1h11l5 2v3l-20 14-5 4-2-1-2-4-1 5 2 1v4h-2l-1 3-4 1-1 6 9 5 3 3-11 1-3 1v2l7 1 1 9h6l1 4h-3l-1-2h-6v3l5 2-2 4-8 3 3 3-2 1h-6l4 1v6l-3 3-4-4-5-2 5 4 2 1v2l5 2 2 5-5 5-9 6-14 4-14 2-9 11-8 5-7 1-4 1-2 4-3 11-3 5-5 13-2 3-5-1-5-3-7-1-8-9-6-10-5-11-3-8-1-8 3-4 1-6h2l1 7 2-1 2-9-9 1-2 1-4-3 2-5 3-2 5 1 5 4-3-6-7-3h-6l-1-5 1-4-8-16-7-10-10-4h-11l-14 1-10-9v-1h5v-2l-11-2-2-4 6-3 20-5 3-3h2v-4l-7-1-3-3 10-6 12-4h2v-7l16-4 10-1 4 4 1-3 7 1 4 1 2-2h-5l1-2 5-1 4 2 6-1 5-4 7-4 5 1v2l6-3h9z" fill="#4dc5b3"/>
  <path transform="translate(1251,893)" d="m0 0 3 1 4 11 5 4 6 16 8 6 8 11 8 10 2 11-1 10-4 9-6 12-4 10-10 4-5 1-5-1-6 1-9-3-4-6-2-4-6-3 1-7-4 2-2 3-4-2-5-7-9-3h-9l-17 5-6 3-15 3-5 2h-9l-1-1v-10l-4-15-2-6-1-7v-13l5-5 9-4 13-4 5-5 2-5 6-3 6-7h2v-2l5-1 3 3h5l3-7 6-3 9-1 10 1-1 5-2 7 15 9 4 1 2-9 2-15z" fill="#4dc5b3"/>
  <path transform="translate(429,399)" d="m0 0 9 2 16 1 3 2 7 2-5 5-21 7 12-2 1 2-13 8-10 6-2 3-17 4h-2l1 2 4 2-1 4-4 4-7 3-1 3-4 2 3 3-1 2h-8l-1-1h-8l-10 1-6-2v-2l-2-1 1-2h-2l-1-3 4-3 4 1 5 1v-4l-6 1v-2l-3-1v-2l-5 3-13 1-5-3-1-4h-3v-2l6-1h-10l-1-3-4-1 3-10 3-3 4-2 1-2 5 1 9 8 9 3 2 1v3h2l3-4h11l3 3 1-1-3-3v-2l-13 2-1-5 4-1h-11l-4 1-2-3v-4l-5-3 2-2 7-3 10-1 3-2 12 1 2-3 11-3 23-1z" fill="#4dc5b3"/>
  <path transform="translate(789,542)" d="m0 0h7l3 3-2 5-13 13 1 11 2 5h10l10-2 6 1v3l-3 2-18 1 2 5 2 6-1 2-7-1h-3l-2 10-4 3-6 1-4-1-7 3h-8l-3-1-7 1-4-1v-2l8-4 7-1 4-3 5-2 1-1v-7l8-8-1-4-4-4v-6l4-7 10-7 1-1 2-9z" fill="#4dc5b3"/>
  <path transform="translate(848,650)" d="m0 0h2l-2 7-3 4 15 10 3 3-1 5-10 2-11-2-3-2h-11l-3 2-9 1v2l-6 2-2-2 2-2h4l-4-5 1-5 4-8 6-8 4-1 5 5 2 5 6-1v-6l5-4z" fill="#4dc5b3"/>
  <path transform="translate(1209,852)" d="m0 0 8 1 2 1-1 5 4 3 6 1 2-5 1-1 9 1 18 6 6 4 3 3 6 2v2l-3 2 2 4 8 7 3 3-9-2-11-8-6 1-2 4h-8l-4-3h-8l1-3h2l-1-5-5-5-17-6-1-3-1-5z" fill="#4dc5b3"/>
  <path transform="translate(1153,824)" d="m0 0h2l5 5-1 4-2 3v6l2 4-3 5-6 14-3 1-8-3-10-1-3-5-4-9 1-3 9-4 9-7 8-6 3-1z" fill="#4dc5b3"/>
  <path transform="translate(891,901)" d="m0 0h3l1 2v9l-6 22-4 12-4 6-5 1-5-3-2-7v-6l3-10v-11l12-7z" fill="#4dc5b3"/>
  <path transform="translate(898,651)" d="m0 0 9 2-1 5-7 4h-2l1 4 8 9 5 3 1 4-7 1 4 6 2 7-1 3-2 1h-9l-7-4-1-7 2-4-1-5-6-8-2-5v-7l11-8z" fill="#4dc5b3"/>
  <path transform="translate(962,459)" d="m0 0h5v3l-25 10-13 10-8 8-5 8-2 5 4 2 3 4-1 2-11-3-3-3-5-2 2-4 7-11 10-13 9-7 7-3 17-3z" fill="#4dc5b3"/>
  <path transform="translate(333,459)" d="m0 0 16 1 4 1v5l4 4h14l7-2h10l6 5-1 5-3 3-6 1h-24l-6-1-7-1-2-2-1-14-13-1v-3z" fill="#4dc5b3"/>
  <path transform="translate(1071,829)" d="m0 0 6 1 11 9 10 6 1 3h2l3 6 2 3 5 1 1 6-1 7 1 2 14 4h8l11 3v3l-16-2-15-3-5-5-8-4-9-9-10-16-9-10z" fill="#4dc5b3"/>
  <path transform="translate(683,589)" d="m0 0h5l2 3 1 2h2l-1 8 5 5 7 10 4 5-2 6-3 2-16 2-5 1 3-5 1-4-3-1 1-6 5-2-1-4-5-4-4-6v-7l2-4z" fill="#4dc5b3"/>
  <path transform="translate(277,460)" d="m0 0 4 1 3 6 7-1 2 5-1 5-4 1-10 1-9 3-7 1 3-5h-11l-6-2-1-3 6-4-2-4 6-1v-2h2l1 2 7 2 1 3 12 3-3-6-1-3z" fill="#4dc5b3"/>
  <path transform="translate(638,537)" d="m0 0 5 1 4 5 1 5-5 5-8 4-3 1h-9l-6-3-4-5 2-1 2-5 2-2z" fill="#4dc5b3"/>
  <path transform="translate(764,434)" d="m0 0 5 1 3 4 9 4 7 6 7 4v2l-10-1-3-5-4-4h-2l-5 10h-2l-2 4-3 1-5-2-3-7 1-2 3-1 1-3h2l1 3 2-4v-2l-3 2h-5l-2 4h-3v-2h-7v-3l4-2 3 1v-2h-8l-2-3 1-1h9v2l2 1 1-3 4 1 1 3h4z" fill="#4dc5b3"/>
  <path transform="translate(1069,420)" d="m0 0 5 1 5 5v2l-3 3 4 1v3l6-2 1 1v9l-5 1-13-2v-2l-5-1-1-4 4-2-6 1-5 1v-3l5-8z" fill="#4dc5b3"/>
  <path transform="translate(1244,680)" d="m0 0 4 1 2 4-1 5-5 16-8 3-7 1-3 4-4-1 2-4h-8v2l-8 2v-2h2l1-3 6-3h10l2-5 6-2 7-6z" fill="#4dc5b3"/>
  <path transform="translate(1236,465)" d="m0 0 4 1 4 2v2h2v-2h2v-2l4 1 2 2 4-1 4 4-2 4h-3v-2l-5-1 2 5h-5v-4h-2l1 4-11 1-5-5 1-6 2-1z" fill="#4dc5b3"/>
  <path transform="translate(1370,1019)" d="m0 0 4 1-1 5-8 10-8 11-6 1-4-2 1-4 9-8 7-6z" fill="#4dc5b3"/>
  <path transform="translate(319,486)" d="m0 0h5l3 9v5l-5 4-6-1-5-4-5-3v-4l2 4 6-1-3-4 1-4z" fill="#4dc5b3"/>
  <path transform="translate(677,605)" d="m0 0 3 3-1 4-1 3-1 6-8 4-5 1-1-2 1-8 1-5 8-5z" fill="#4dc5b3"/>
  <path transform="translate(312,461)" d="m0 0h9l3 2v13h-11l-1-4-7-1-2-3 5-1v-2h5z" fill="#4dc5b3"/>
  <path transform="translate(779,429)" d="m0 0 5 3 4-1 1-1 13 1 4 2v2l-7 3-7 1-10-1v-1h-9l-2-1 2-4z" fill="#4dc5b3"/>
  <path transform="translate(259,521)" d="m0 0h4v2l10-1h13l-1 4 2 1v3l-6-2h-15l-9-1v-4z" fill="#4dc5b3"/>
  <path transform="translate(1372,992)" d="m0 0 5 5 5 8 4 1 4-1 1 3-6 5-3 6-5 2 1-7-2-4 2-3-4-9-3-5z" fill="#4dc5b3"/>
  <path transform="translate(1250,660)" d="m0 0 3 1 1 4 9 1 2 1-4 4-9 4-1-3-4 1v2h-5l6-7 1-5z" fill="#4dc5b3"/>
  <path transform="translate(1253,613)" d="m0 0 2 3 2 15 1 5-6 8h-1v-26z" fill="#4dc5b3"/>
  <path transform="translate(296,440)" d="m0 0 9 1 9 3 3 4v4l-4-1-7-3-5-1v-2l-7-2v-2z" fill="#4dc5b3"/>
  <path transform="translate(252,455)" d="m0 0 1 2-1 2h-2v2l-12 2 1 3h-3-9v-2l14-7z" fill="#4dc5b3"/>
  <path transform="translate(1165,852)" d="m0 0 2 1v2l3 1 8 14-4-1-6-9v-2h-2l2 13h-3l-1-8h-3l2-5z" fill="#4dc5b3"/>
  <path transform="translate(1094,440)" d="m0 0 9 2 5 3v2l-13 1-5 2-3-1z" fill="#4dc5b3"/>
  <path transform="translate(1170,777)" d="m0 0 3 2 1 7-3 4v4l2 1h-2l1 7-3-3-3-8 1-6 2-7z" fill="#4dc5b3"/>
  <path transform="translate(1261,1020)" d="m0 0 9 1 4-1 1 3-5 8-4-1-5-8z" fill="#4dc5b3"/>
  <path transform="translate(383,759)" d="m0 0 9 1 19 9 1 2h-7l-8-5-14-5z" fill="#4dc5b3"/>
  <path transform="translate(465,653)" d="m0 0h3v3l-9 6-7 3-3 2h-4v-2h2v-2l6-4 8-1z" fill="#4dc5b3"/>
  <path transform="translate(330,471)" d="m0 0h7l3 5v4l-9-1-2-3z" fill="#4dc5b3"/>
  <path transform="translate(321,445)" d="m0 0h7l4 2 1 5 5 1v2l-6-1-9-5z" fill="#4dc5b3"/>
  <path transform="translate(603,408)" d="m0 0h11l-1 5-9-1-2-1h-14l-1-2z" fill="#4dc5b3"/>
  <path transform="translate(601,504)" d="m0 0 15 5-1 2-4 1h-10l-1-7z" fill="#4dc5b3"/>
  <path transform="translate(1187,815)" d="m0 0 4 4-2 4-4 4-5-3 2-3h2l1-5z" fill="#4dc5b3"/>
  <path transform="translate(212,630)" d="m0 0 5 2 10 9 1 7-3-1-5-8-3-3v-2l-4-2z" fill="#4dc5b3"/>
  <path transform="translate(421,773)" d="m0 0 10 1 4 2v2h-19l3-2h2z" fill="#4dc5b3"/>
  <path transform="translate(897,424)" d="m0 0 3 1-3 3-7 2h-5l-6-3 1-2 4 1h8z" fill="#4dc5b3"/>
  <path transform="translate(1011,813)" d="m0 0 3 1 2 7-1 5-4-2z" fill="#4dc5b3"/>
  <path transform="translate(376,427)" d="m0 0h5l4 5 2 2-6-1-1-3-7 1-4-2z" fill="#4dc5b3"/>
  <path transform="translate(405,524)" d="m0 0 8 1v3l-5 2h-5z" fill="#4dc5b3"/>
  <path transform="translate(1268,472)" d="m0 0 12 3 3 1v2l-11-1-4-3z" fill="#4dc5b3"/>
  <path transform="translate(1205,713)" d="m0 0h3l2 3 1 2-2 4-3 1-1-4-1-5z" fill="#4dc5b3"/>
  <path transform="translate(369,439)" d="m0 0h7l2 3-1 1h-8l-3 1 1-4z" fill="#4dc5b3"/>
  <path transform="translate(389,494)" d="m0 0 6 1h4l-1 4h-8l-2-3z" fill="#4dc5b3"/>
  <path transform="translate(750,694)" d="m0 0h12l-4 6-3-1-3-3z" fill="#4dc5b3"/>
  <path transform="translate(914,421)" d="m0 0 4 2 2 3 4 2-1 2-5-1-3-4-2 1z" fill="#4dc5b3"/>
  <path transform="translate(526,406)" d="m0 0h5l-3 5h-7l-1-2z" fill="#4dc5b3"/>
  <path transform="translate(428,1082)" d="m0 0 4 2 1 4-1 3-4-2z" fill="#4dc5b3"/>
  <path transform="translate(270,451)" d="m0 0 6 1-1 2-4 1h-8l2-3z" fill="#4dc5b3"/>
  <path transform="translate(1290,866)" d="m0 0h2l-2 4-7 4h-5l4-3 7-4z" fill="#4dc5b3"/>
  <path transform="translate(1169,749)" d="m0 0 2 1-1 10h-4z" fill="#4dc5b3"/>
  <path transform="translate(736,680)" d="m0 0h2l1 7-5 1v-6z" fill="#4dc5b3"/>
  <path transform="translate(613,538)" d="m0 0 4 1v3l-7 2 1-4z" fill="#4dc5b3"/>
  <path transform="translate(398,422)" d="m0 0 2 1v2l-7 2h-8l4-2z" fill="#4dc5b3"/>
  <path transform="translate(1127,771)" d="m0 0 2 1v3l-3 2h-4l1-4z" fill="#4dc5b3"/>
  <path transform="translate(1244,486)" d="m0 0 8 1 3 2v2l-4-1v-2l-4 3z" fill="#4dc5b3"/>
</svg>
