<svg xmlns="http://www.w3.org/2000/svg" width="512" height="512" viewBox="0 0 1280 1280" fill="none">
  <g clip-path="url(#clip0_7358_175270)">
    <path d="M0 1.33594H1280V1278.66H0V1.33594Z" fill="#2C3A48"/>
    <path d="M555.825 1.33594H1280V527.766L1271.98 530.438L1265.3 529.102L1262.63 507.724L1245.26 483.674L1238.58 472.985L1231.9 474.321L1226.56 478.33L1205.18 483.674L1190.48 498.371L1179.79 507.724L1163.76 522.422L1153.07 531.774L1147.72 537.119L1145.05 550.48L1142.38 570.522L1134.36 586.555L1123.67 598.58L1116.99 597.244L1095.62 551.816L1083.59 519.749L1079.58 495.699L1078.25 481.002H1074.24L1070.23 486.346L1059.54 485.01L1048.85 470.313L1044.84 463.632L1030.15 451.607L1027.47 447.599L972.693 446.263L949.979 442.255L941.962 434.238L921.921 432.902L901.879 422.213L884.509 403.507L873.82 400.835L877.829 418.204L895.198 443.591L908.559 454.28L920.585 452.943L931.273 443.591L932.61 442.255H940.626L944.635 452.943L962.004 462.296L968.685 468.977L966.013 481.002L948.643 505.052L929.937 518.413L916.576 526.43L901.879 534.447L891.19 541.127L847.098 557.161L840.417 558.497H831.065L824.384 541.127L819.04 519.749L801.67 491.691L793.653 483.674L786.973 463.632L769.603 438.246L760.25 424.885L748.225 420.877L757.578 447.599L774.948 479.666L781.628 502.38L796.326 526.43L803.006 537.119L819.04 553.152L828.392 559.833L835.073 575.866L854.463 571.206L883.858 565.862H893.211L894.547 571.206L886.53 593.92L874.505 616.634L857.136 638.012L837.094 656.718L822.397 668.743L813.044 678.096L803.691 688.785L797.01 699.474L791.666 711.499L795.674 743.566L802.355 767.616L803.691 783.649V799.682L795.674 810.371L774.296 822.396L764.944 829.077L760.935 835.758H755.591L756.927 855.799L759.599 869.161V875.841L750.246 887.866L740.894 891.875L731.541 919.933L715.507 941.311L702.146 956.008L684.777 968.033L670.079 973.378L643.357 974.714H617.971L612.626 968.033L605.946 943.983L587.24 907.908L573.879 859.808L567.198 843.774L557.846 823.733V798.346L564.526 778.305L571.207 767.616L569.871 756.927L561.854 724.86L552.501 703.482L536.468 684.776L533.795 678.096L532.459 667.407L536.468 634.046V634.004L524.443 629.996L505.737 628.659L495.048 616.634L479.015 613.962L448.284 623.315L445.612 624.651L413.545 625.987L388.159 628.659L369.453 617.971L350.747 603.273L338.722 588.576L328.033 573.879L314.672 559.181L312 531.165V531.123L316.008 516.426V497.72L312 476.342L330.706 438.931L342.731 422.897L361.436 409.536L366.781 405.528L376.134 376.133L390.831 364.108L393.503 361.436H398.848L402.856 346.739L404.192 344.067L420.225 348.075H440.267L464.317 337.386L513.754 332.042L540.476 330.705L548.493 333.378V366.781L560.518 370.789L572.543 373.461L581.896 374.797L592.585 384.15L612.626 392.167H624.651L629.996 376.133L632.668 373.461H651.374L684.777 384.15L710.163 389.495L712.835 386.822L752.234 390.146L760.25 364.76L764.259 344.718V339.374L749.562 342.046L748.225 343.382H736.2L732.192 339.374H720.167L708.142 340.71L694.781 336.701L688.1 326.012L684.092 309.979L677.411 297.954L661.378 300.626L654.697 303.298L657.369 311.315L656.033 326.012H660.042L661.378 319.332L665.386 322.004L664.05 326.012L657.369 311.357L656.033 335.365H646.681L641.336 330.021L629.311 308.643L623.967 303.298L621.294 283.257L599.916 269.895L587.891 260.543L581.211 252.526L570.522 247.181L565.177 245.845L574.53 264.551L581.211 273.904L583.883 279.248L603.925 289.937L613.278 296.618V301.962L602.589 303.298L603.925 289.979V319.332L597.244 320.668L594.572 307.307L569.186 289.937L557.161 280.584L545.136 267.223L543.8 261.879L529.102 263.215L518.413 269.895L490.355 271.232L483.674 289.937L467.641 295.282L460.96 308.643L456.952 323.34L443.591 335.365L422.213 340.71H406.179L386.138 332.693L382.129 322.004V297.954L383.466 268.559L386.138 265.887L443.591 264.551L446.263 256.534V237.829L436.91 224.467L422.213 216.451V208.434L439.582 205.762L471.649 187.056L489.019 169.687L495.699 164.342L501.044 153.653L511.733 149.645L526.43 145.637L534.447 144.3L530.438 128.267V117.578L534.447 108.225L541.127 105.553H549.144V105.595L558.497 122.923H566.514L561.169 105.553L553.152 89.5197L551.816 82.8391L541.127 86.8474L534.447 93.528L514.405 96.2002L507.724 88.1835L503.716 70.814V44.0917L515.741 33.4027L537.119 21.3777L545.136 17.3693L555.825 1.33594Z" fill="#A6F0D6"/>
    <path d="M555.825 1.37769H1280V527.808L1271.98 530.48L1265.3 529.144L1262.63 507.766L1245.26 483.716L1238.58 473.027L1231.9 474.363L1226.56 478.371L1205.18 483.716L1190.48 498.413L1179.79 507.766L1163.76 522.463L1153.07 531.816L1147.72 537.161L1145.05 550.522L1142.38 570.563L1134.36 586.597L1123.67 598.622L1116.99 597.286L1095.62 551.858L1083.59 519.791L1079.58 495.741L1078.25 481.044H1074.24L1070.23 486.388L1059.54 485.052L1048.85 470.355L1044.84 463.674L1030.15 451.649L1027.47 447.641L972.693 446.305L949.979 442.296L941.962 434.28L921.921 432.943L901.879 422.255L884.509 403.549L873.82 400.877L877.829 418.246L895.198 443.632L908.559 454.321L920.585 452.985L931.273 443.632L932.61 442.296H940.626L944.635 452.985L962.004 462.338L968.685 469.019L966.013 481.044L948.643 505.094L929.937 518.455L916.576 526.472L901.879 534.488L891.19 541.169L847.098 557.202L840.417 558.538H831.065L824.384 541.169L819.04 519.791L801.67 491.733L793.653 483.716L786.973 463.674L769.603 438.288L760.25 424.927L748.225 420.918L757.578 447.641L774.948 479.708L781.628 502.422L796.326 526.472L803.006 537.161L819.04 553.194L828.392 559.875L835.073 575.908L854.463 571.248L883.858 565.904H893.211L894.547 571.248L886.53 593.962L874.505 616.676L857.136 638.054L837.094 656.76L822.397 668.785L813.044 678.138L803.691 688.827L797.01 699.515L791.666 711.541L795.674 743.607L802.355 767.657L803.691 783.691V799.724L795.674 810.413L774.296 822.438L764.944 829.119L760.935 835.799H755.591L756.927 855.841L759.599 869.202V875.883L750.246 887.908L740.894 891.916L731.541 919.975L715.507 941.353L702.146 956.05L684.777 968.075L670.079 973.419L643.357 974.756H617.971L612.626 968.075L605.946 944.025L587.24 907.95L573.879 859.849L567.198 843.816L557.846 823.774V798.388L564.526 778.346L571.207 767.657L569.871 756.969L561.854 724.902L552.501 703.524L536.468 684.818L533.795 678.138L532.459 667.449L536.468 654.087V634.046L524.443 630.037L505.737 628.701L495.048 616.676L479.015 614.004L448.284 623.357L445.612 624.693L413.545 626.029L388.159 628.701L369.453 618.012L350.747 603.315L338.722 588.618L328.033 573.92L314.672 559.223L312 551.206V531.165L316.008 516.467V497.762L312 476.384L330.706 438.973L342.731 422.939L361.436 409.578L366.781 405.57L376.134 376.175L390.831 364.15L393.503 361.478H398.848L402.856 346.781L404.192 344.108L420.225 348.117H440.267L464.317 337.428L513.754 332.083L540.476 330.747L548.493 333.419V366.822L560.518 370.831L572.543 373.503L581.896 374.839L592.585 384.192L612.626 392.209H624.651L629.996 376.175L632.668 373.503H651.374L684.777 384.192L710.163 389.536L712.835 386.864L752.234 390.188L760.25 364.801L764.259 344.76V339.415L749.562 342.087L748.225 343.424H736.2L732.192 339.415H720.167L708.142 340.751L694.781 336.743L688.1 326.054L684.092 310.021L677.411 297.996L661.378 300.668L654.697 303.34L657.369 311.357L656.033 326.054H660.042L661.378 319.374L665.386 322.046L664.05 326.054L657.369 331.399L656.033 335.407H646.681L641.336 330.062L629.311 308.685L623.967 303.34L621.294 283.298L599.916 269.937L587.891 260.584L581.211 252.568L570.522 247.223L565.177 245.887L574.53 264.593L581.211 273.946L583.883 279.29L603.925 289.979L613.278 296.66V302.004L602.589 303.34L603.925 310.021V319.374L597.244 320.71L594.572 307.348L569.186 289.979L557.161 280.626L545.136 267.265L543.8 261.92L529.102 263.257L518.413 269.937L490.355 271.273L483.674 289.979L467.641 295.323L460.96 308.685L456.952 323.382L443.591 335.407L422.213 340.751H406.179L386.138 332.735L382.129 322.046V297.996L383.466 268.601L386.138 265.929L443.591 264.593L446.263 256.576V237.87L436.91 224.509L422.213 216.493V208.476L439.582 205.804L471.649 187.098L489.019 169.728L495.699 164.384L501.044 153.695L511.733 149.687L526.43 145.678L534.447 144.342L530.438 128.309V117.62L534.447 108.267L541.127 105.595H549.144V125.637L558.497 122.964H566.514L561.169 105.595L553.152 89.5614L551.816 82.8808L541.127 86.8892L534.447 93.5698L514.405 96.242L507.724 88.2253L503.716 70.8558V44.1334L515.741 33.4445L537.119 21.4194L545.136 17.4111L555.825 1.37769Z" fill="#4dc5b3"/>
    <path d="M0 619.958L13.3612 625.302L20.0418 629.311L34.739 658.705L36.0752 669.394L66.8058 677.411L84.1754 686.764L126.931 696.117L146.973 709.478L160.334 717.495L163.006 720.167V744.217L144.301 768.267L133.612 782.964L130.939 790.981L128.267 820.376L116.242 851.106L105.553 867.14L100.209 871.148L82.8392 873.82L58.7891 887.181L48.1002 899.206V917.912L34.739 935.282L22.714 948.643L12.0251 966.012L2.67223 976.701L0 978.037V619.958Z" fill="#344A59"/>
    <path d="M12.025 1.33594H116.242L113.57 16.0332L109.562 28.0583L102.881 40.0833L92.192 66.8057L86.8476 72.1501L74.8225 68.1418L68.1419 64.1334L52.1085 61.4612L45.4279 54.7806L32.0668 40.0833L17.3695 14.6971L12.025 1.33594Z" fill="#344A59"/>
    <path d="M877.829 780.292H884.509L887.182 784.3V805.678L872.484 859.123L865.804 879.165L856.451 892.526L843.09 893.862L835.073 888.517L831.065 879.165L829.729 873.82V856.451L835.073 839.081L836.409 812.359L861.795 797.662L877.829 780.292Z" fill="#4dc5b3"/>
    <path d="M418.205 92.1924H430.23L436.91 101.545L440.919 102.881V121.587L450.271 130.94L466.305 153.654L474.321 164.343L470.313 177.704L464.969 181.712L438.246 185.721L418.205 188.393L420.877 181.712L424.885 169.687L419.541 167.015L420.877 153.654L431.566 148.309L428.894 138.956L419.541 132.276L410.188 117.579V101.545L415.532 93.5285L418.205 92.1924Z" fill="#344A59"/>
    <path d="M269.896 1.33594H340.71L332.693 10.6888L312.651 21.3777L308.643 22.7138H284.593L272.568 16.0332L265.887 6.68041L267.223 4.00817H269.896V1.33594Z" fill="#344A59"/>
    <path d="M404.843 126.931L412.86 133.611L406.18 161.67L388.81 171.023L376.785 172.359L375.449 169.686L376.785 150.981L380.793 138.956L395.491 129.603L404.843 126.931Z" fill="#344A59"/>
    <path d="M1142.38 586.556L1149.06 587.892L1153.07 598.581V610.606L1150.4 614.614L1142.38 610.606V586.556Z" fill="#344A59"/>
    <path d="M758.914 1.33594H772.276V8.01652L782.965 9.35264L785.637 14.6971L780.292 16.0332H770.939L758.914 6.68041V1.33594Z" fill="#2C3A48"/>
    <path d="M567.85 323.34H593.236L585.219 336.701L575.866 332.693L567.85 323.34Z" fill="#344A59"/>
    <path d="M535.783 292.609H541.127L542.463 307.307L534.447 309.979H531.775V296.618L535.783 292.609Z" fill="#344A59"/>
    <path d="M0 199.081L2.67223 200.417L8.0167 224.467L6.68058 228.476L0 227.14V199.081Z" fill="#445F70"/>
    <path d="M777.62 1.33594H800.334L798.998 8.01652L786.973 4.00817L777.62 2.67205V1.33594Z" fill="#2C3A48"/>
    <mask id="path-15-outside-1_7358_175270" maskUnits="userSpaceOnUse" x="381" y="0" width="900" height="600" fill="black">
      <rect fill="white" x="381" width="900" height="600"/>
      <path d="M555.695 1H1279.87V1.04175V527.43V527.472L1271.85 530.144L1265.17 528.808L1262.5 507.43L1245.13 483.38L1238.45 472.691L1231.77 474.027L1226.43 478.035L1205.05 483.38L1190.35 498.077L1179.66 507.43L1163.63 522.127L1152.94 531.48L1147.59 536.825L1144.92 550.186L1142.25 570.228L1134.23 586.261L1123.54 598.286L1116.86 596.95L1095.49 551.522L1083.46 519.455L1079.45 495.405L1078.12 480.708H1074.11L1070.1 486.052L1059.41 484.716L1048.72 470.019L1044.71 463.338L1030.02 451.313L1027.34 447.305L972.564 445.969L949.85 441.96L941.833 433.944L921.791 432.608L901.749 421.919L884.38 403.213L873.701 400.543L877.699 417.868L895.069 443.255L908.43 453.944L920.455 452.608L931.144 443.255L932.48 441.919H940.497L944.505 452.608L961.875 461.96L968.555 468.641L968.548 468.675L968.555 468.683L965.883 480.708L948.514 504.758L929.808 518.119L916.447 526.136L901.749 534.152L891.061 540.833L846.969 556.866L840.288 558.203H830.935L824.255 540.833L818.91 519.455L801.541 491.397L793.524 483.38L786.843 463.338L769.474 437.952L760.121 424.591L744.371 410.5L752.104 389.81L760.121 364.424L764.129 344.382V339.079L749.432 341.752L748.096 343.088H736.071L732.063 339.079H720.038L708.013 340.415L694.651 336.407L687.971 325.718L683.962 309.685L677.282 297.66L661.248 300.332L654.58 302.999L657.24 310.979L657.237 311.012L657.24 311.021L661.135 319.565L661.248 318.996L665.257 321.668L665.245 321.702L665.257 321.71L663.921 325.718L657.24 331.063L655.904 335.071H646.551L641.207 329.727L629.182 308.349L623.837 303.004L621.165 282.962L599.787 269.601L587.762 260.248L581.081 252.232L570.392 246.887L565.072 245.557L574.401 264.215L581.081 273.568L583.754 278.912L603.795 289.601L613.148 296.282V296.324V301.626V301.668L603.795 302.837V309.685V318.996V319.038L597.115 320.374L594.443 307.013L569.056 289.643L557.031 280.29L545.006 266.929L543.67 261.585L528.973 262.921L518.284 269.601L490.225 270.937L483.545 289.643L467.511 294.987L460.831 308.349L456.823 323.046L443.461 335.071L422.084 340.415H406.05L386.008 332.399L382 321.71V321.668V297.66V297.618L383.336 268.223L386.008 265.551L443.461 264.215L446.134 256.198V237.534L436.781 224.173L422.084 216.157V216.115V208.14V208.098L439.453 205.426L471.52 186.72L488.889 169.351L495.57 164.006L500.914 153.317L511.603 149.309L526.301 145.301L534.307 143.966L530.309 127.973V127.931V117.284V117.242L534.317 107.889L540.998 105.217H549.015V105.259L558.367 122.587H566.371L561.04 105.259L553.023 89.2255L551.687 82.5449L540.998 86.5532L534.317 93.2338L514.276 95.9061L507.595 87.8894L503.587 70.5198V70.4781V43.7975V43.7557L515.612 33.0668L536.99 21.0418L545.006 17.0334L555.695 1Z"/>
    </mask>
    <path d="M555.695 1H1279.87V1.04175V527.43V527.472L1271.85 530.144L1265.17 528.808L1262.5 507.43L1245.13 483.38L1238.45 472.691L1231.77 474.027L1226.43 478.035L1205.05 483.38L1190.35 498.077L1179.66 507.43L1163.63 522.127L1152.94 531.48L1147.59 536.825L1144.92 550.186L1142.25 570.228L1134.23 586.261L1123.54 598.286L1116.86 596.95L1095.49 551.522L1083.46 519.455L1079.45 495.405L1078.12 480.708H1074.11L1070.1 486.052L1059.41 484.716L1048.72 470.019L1044.71 463.338L1030.02 451.313L1027.34 447.305L972.564 445.969L949.85 441.96L941.833 433.944L921.791 432.608L901.749 421.919L884.38 403.213L873.701 400.543L877.699 417.868L895.069 443.255L908.43 453.944L920.455 452.608L931.144 443.255L932.48 441.919H940.497L944.505 452.608L961.875 461.96L968.555 468.641L968.548 468.675L968.555 468.683L965.883 480.708L948.514 504.758L929.808 518.119L916.447 526.136L901.749 534.152L891.061 540.833L846.969 556.866L840.288 558.203H830.935L824.255 540.833L818.91 519.455L801.541 491.397L793.524 483.38L786.843 463.338L769.474 437.952L760.121 424.591L744.371 410.5L752.104 389.81L760.121 364.424L764.129 344.382V339.079L749.432 341.752L748.096 343.088H736.071L732.063 339.079H720.038L708.013 340.415L694.651 336.407L687.971 325.718L683.962 309.685L677.282 297.66L661.248 300.332L654.58 302.999L657.24 310.979L657.237 311.012L657.24 311.021L661.135 319.565L661.248 318.996L665.257 321.668L665.245 321.702L665.257 321.71L663.921 325.718L657.24 331.063L655.904 335.071H646.551L641.207 329.727L629.182 308.349L623.837 303.004L621.165 282.962L599.787 269.601L587.762 260.248L581.081 252.232L570.392 246.887L565.072 245.557L574.401 264.215L581.081 273.568L583.754 278.912L603.795 289.601L613.148 296.282V296.324V301.626V301.668L603.795 302.837V309.685V318.996V319.038L597.115 320.374L594.443 307.013L569.056 289.643L557.031 280.29L545.006 266.929L543.67 261.585L528.973 262.921L518.284 269.601L490.225 270.937L483.545 289.643L467.511 294.987L460.831 308.349L456.823 323.046L443.461 335.071L422.084 340.415H406.05L386.008 332.399L382 321.71V321.668V297.66V297.618L383.336 268.223L386.008 265.551L443.461 264.215L446.134 256.198V237.534L436.781 224.173L422.084 216.157V216.115V208.14V208.098L439.453 205.426L471.52 186.72L488.889 169.351L495.57 164.006L500.914 153.317L511.603 149.309L526.301 145.301L534.307 143.966L530.309 127.973V127.931V117.284V117.242L534.317 107.889L540.998 105.217H549.015V105.259L558.367 122.587H566.371L561.04 105.259L553.023 89.2255L551.687 82.5449L540.998 86.5532L534.317 93.2338L514.276 95.9061L507.595 87.8894L503.587 70.5198V70.4781V43.7975V43.7557L515.612 33.0668L536.99 21.0418L545.006 17.0334L555.695 1Z" fill="#344A59"/>
    <path d="M1271.85 530.102L1271.76 530.593L1271.89 530.619L1272.01 530.577L1271.85 530.102ZM1265.17 528.766L1264.68 528.828L1264.72 529.186L1265.08 529.256L1265.17 528.766ZM1262.5 507.388L1263 507.326L1262.98 507.199L1262.91 507.096L1262.5 507.388ZM1245.13 483.338L1244.71 483.603L1244.72 483.617L1244.73 483.631L1245.13 483.338ZM1238.45 472.649L1238.87 472.384L1238.69 472.091L1238.35 472.159L1238.45 472.649ZM1231.77 473.985L1231.67 473.495L1231.56 473.517L1231.47 473.585L1231.77 473.985ZM1226.43 477.994L1226.55 478.479L1226.65 478.454L1226.73 478.394L1226.43 477.994ZM1205.05 483.338L1204.93 482.853L1204.79 482.887L1204.69 482.985L1205.05 483.338ZM1190.35 498.035L1190.68 498.412L1190.69 498.401L1190.7 498.389L1190.35 498.035ZM1179.66 507.388L1179.33 507.012L1179.32 507.02L1179.66 507.388ZM1163.63 522.086L1163.96 522.462L1163.97 522.454L1163.63 522.086ZM1152.94 531.438L1152.61 531.062L1152.6 531.073L1152.59 531.085L1152.94 531.438ZM1147.59 536.783L1147.24 536.429L1147.13 536.536L1147.1 536.685L1147.59 536.783ZM1144.92 550.144L1144.43 550.046L1144.43 550.062L1144.43 550.078L1144.92 550.144ZM1142.25 570.186L1142.7 570.409L1142.74 570.335L1142.75 570.252L1142.25 570.186ZM1134.23 586.219L1134.61 586.551L1134.65 586.502L1134.68 586.443L1134.23 586.219ZM1123.54 598.244L1123.45 598.735L1123.73 598.791L1123.92 598.576L1123.54 598.244ZM1116.86 596.908L1116.41 597.121L1116.52 597.349L1116.77 597.398L1116.86 596.908ZM1095.49 551.48L1095.02 551.656L1095.03 551.675L1095.03 551.693L1095.49 551.48ZM1083.46 519.413L1082.97 519.496L1082.98 519.543L1082.99 519.589L1083.46 519.413ZM1079.45 495.363L1078.96 495.409L1078.96 495.427L1078.96 495.445L1079.45 495.363ZM1078.12 480.666L1078.61 480.621L1078.57 480.166H1078.12V480.666ZM1074.11 480.666V480.166H1073.86L1073.71 480.366L1074.11 480.666ZM1070.1 486.01L1070.04 486.507L1070.33 486.543L1070.5 486.31L1070.1 486.01ZM1059.41 484.674L1059.01 484.968L1059.13 485.144L1059.35 485.17L1059.41 484.674ZM1048.72 469.977L1048.29 470.234L1048.3 470.253L1048.32 470.271L1048.72 469.977ZM1044.71 463.296L1045.14 463.039L1045.1 462.965L1045.03 462.909L1044.71 463.296ZM1030.02 451.271L1029.6 451.549L1029.64 451.611L1029.7 451.658L1030.02 451.271ZM1027.34 447.263L1027.76 446.986L1027.62 446.77L1027.36 446.763L1027.34 447.263ZM972.564 445.927L972.477 446.419L972.514 446.426L972.551 446.427L972.564 445.927ZM949.85 441.919L949.496 442.272L949.608 442.384L949.763 442.411L949.85 441.919ZM941.833 433.902L942.187 433.548L942.054 433.415L941.866 433.403L941.833 433.902ZM921.791 432.566L921.556 433.007L921.651 433.058L921.758 433.065L921.791 432.566ZM901.749 421.877L901.383 422.217L901.44 422.279L901.514 422.318L901.749 421.877ZM884.38 403.171L884.746 402.831L884.645 402.722L884.501 402.686L884.38 403.171ZM873.691 400.499L873.812 400.014L873.02 399.816L873.204 400.611L873.691 400.499ZM873.701 400.543L873.58 401.028L874.372 401.227L874.188 400.431L873.701 400.543ZM968.548 468.675L969.036 468.784L969.095 468.516L968.901 468.322L968.548 468.675ZM965.883 480.666L966.288 480.959L966.349 480.875L966.371 480.774L965.883 480.666ZM948.514 504.716L948.804 505.123L948.871 505.075L948.919 505.009L948.514 504.716ZM929.808 518.077L930.065 518.506L930.082 518.496L930.099 518.484L929.808 518.077ZM916.447 526.094L916.686 526.533L916.695 526.528L916.704 526.523L916.447 526.094ZM901.749 534.111L901.51 533.672L901.497 533.679L901.484 533.687L901.749 534.111ZM891.061 540.791L891.231 541.261L891.281 541.243L891.326 541.215L891.061 540.791ZM846.969 556.825L847.067 557.315L847.104 557.308L847.14 557.295L846.969 556.825ZM840.288 558.161V558.661H840.338L840.386 558.651L840.288 558.161ZM830.935 558.161L830.469 558.34L830.592 558.661H830.935V558.161ZM824.255 540.791L823.77 540.913L823.777 540.942L823.788 540.971L824.255 540.791ZM818.91 519.413L819.395 519.292L819.376 519.216L819.335 519.15L818.91 519.413ZM801.541 491.355L801.966 491.092L801.935 491.042L801.894 491.001L801.541 491.355ZM793.524 483.338L793.05 483.496L793.087 483.608L793.17 483.692L793.524 483.338ZM786.843 463.296L787.318 463.138L787.296 463.072L787.256 463.014L786.843 463.296ZM769.474 437.91L769.887 437.628L769.884 437.623L769.474 437.91ZM760.121 424.549L760.531 424.262L760.497 424.215L760.454 424.176L760.121 424.549ZM744.371 410.5L743.902 410.325L743.782 410.645L744.038 410.873L744.371 410.5ZM764.129 339.038H764.629V338.438L764.04 338.546L764.129 339.038ZM749.432 341.71L749.343 341.218L749.189 341.246L749.079 341.356L749.432 341.71ZM748.096 343.046V343.546H748.303L748.45 343.399L748.096 343.046ZM736.071 343.046L735.717 343.399L735.864 343.546H736.071V343.046ZM732.063 339.038L732.416 338.684L732.27 338.538H732.063V339.038ZM720.038 339.038V338.538H720.01L719.982 338.541L720.038 339.038ZM708.013 340.374L707.869 340.853L707.966 340.882L708.068 340.871L708.013 340.374ZM694.651 336.365L694.227 336.63L694.327 336.79L694.508 336.844L694.651 336.365ZM687.971 325.676L687.486 325.798L687.505 325.874L687.547 325.941L687.971 325.676ZM683.962 309.643L684.448 309.522L684.432 309.458L684.4 309.4L683.962 309.643ZM677.282 297.618L677.719 297.375L677.548 297.067L677.2 297.125L677.282 297.618ZM661.248 300.29L661.166 299.797L661.113 299.806L661.063 299.826L661.248 300.29ZM654.568 302.962L654.382 302.498L653.945 302.673L654.093 303.12L654.568 302.962ZM654.58 302.999L654.766 303.463L655.203 303.288L655.054 302.841L654.58 302.999ZM657.237 311.012L657.735 311.057L657.745 310.953L657.711 310.854L657.237 311.012ZM655.904 325.676L655.406 325.631L655.356 326.176H655.904V325.676ZM659.912 325.676V326.176H660.322L660.403 325.774L659.912 325.676ZM661.135 319.565L661.59 319.357L660.948 317.949L660.644 319.467L661.135 319.565ZM665.245 321.702L665.72 321.86L665.841 321.498L665.523 321.286L665.245 321.702ZM663.921 325.676L663.466 325.884L663.993 327.041L664.395 325.835L663.921 325.676ZM657.24 311.021L657.739 311.049L656.742 310.976L657.24 311.021ZM655.904 335.029V335.529H656.377L656.403 335.057L655.904 335.029ZM646.551 335.029L646.198 335.383L646.344 335.529H646.551V335.029ZM641.207 329.685L640.771 329.93L640.805 329.99L640.853 330.038L641.207 329.685ZM629.182 308.307L629.617 308.062L629.584 308.002L629.535 307.953L629.182 308.307ZM623.837 302.962L623.342 303.029L623.364 303.196L623.484 303.316L623.837 302.962ZM621.165 282.921L621.661 282.855L621.629 282.621L621.43 282.497L621.165 282.921ZM599.787 269.56L599.48 269.954L599.5 269.97L599.522 269.984L599.787 269.56ZM587.762 260.207L587.378 260.527L587.412 260.568L587.455 260.601L587.762 260.207ZM581.081 252.19L581.466 251.87L581.399 251.79L581.305 251.743L581.081 252.19ZM570.392 246.846L570.616 246.398L570.567 246.374L570.514 246.36L570.392 246.846ZM565.048 245.509L565.169 245.024L564.115 244.761L564.601 245.733L565.048 245.509ZM565.072 245.557L564.951 246.042L566.005 246.306L565.519 245.334L565.072 245.557ZM602.459 302.962L601.962 302.913L601.899 303.536L602.521 303.459L602.459 302.962ZM603.795 289.643L604.086 289.236L604.059 289.217L604.031 289.202L603.795 289.643ZM603.795 302.837L603.857 303.333L604.295 303.279V302.837H603.795ZM597.115 320.332L596.625 320.43L596.723 320.92L597.213 320.822L597.115 320.332ZM594.443 306.971L594.933 306.873L594.893 306.673L594.725 306.558L594.443 306.971ZM569.056 289.601L568.749 289.996L568.761 290.005L568.774 290.014L569.056 289.601ZM557.031 280.248L556.66 280.583L556.689 280.616L556.724 280.643L557.031 280.248ZM545.006 266.887L544.521 267.009L544.551 267.129L544.635 267.222L545.006 266.887ZM543.67 261.543L544.155 261.422L544.051 261.006L543.625 261.045L543.67 261.543ZM528.973 262.879L528.928 262.381L528.809 262.392L528.708 262.455L528.973 262.879ZM518.284 269.56L518.308 270.059L518.438 270.053L518.549 269.984L518.284 269.56ZM490.225 270.896L490.202 270.396L489.867 270.412L489.755 270.727L490.225 270.896ZM483.545 289.601L483.703 290.076L483.934 289.999L484.016 289.769L483.545 289.601ZM467.511 294.946L467.353 294.471L467.157 294.537L467.064 294.722L467.511 294.946ZM460.831 308.307L460.384 308.083L460.362 308.128L460.349 308.175L460.831 308.307ZM456.823 323.004L457.157 323.376L457.266 323.278L457.305 323.136L456.823 323.004ZM443.461 335.029L443.583 335.514L443.703 335.484L443.796 335.401L443.461 335.029ZM422.084 340.374V340.874H422.145L422.205 340.859L422.084 340.374ZM406.05 340.374L405.864 340.838L405.954 340.874H406.05V340.374ZM386.008 332.357L385.54 332.533L385.618 332.739L385.823 332.821L386.008 332.357ZM446.134 237.493H446.634V237.335L446.543 237.206L446.134 237.493ZM436.781 224.132L437.19 223.845L437.123 223.749L437.02 223.693L436.781 224.132ZM534.307 143.966L534.225 143.473L533.691 143.562L533.822 144.087L534.307 143.966ZM534.317 143.965L534.399 144.458L534.934 144.369L534.802 143.843L534.317 143.965ZM549.015 105.259H549.515V104.759H549.015V105.259ZM566.371 122.587V122.087H565.694L565.893 122.734L566.371 122.587ZM566.384 122.587V123.087H567.061L566.862 122.44L566.384 122.587ZM561.04 105.217L561.518 105.07L561.505 105.031L561.487 104.994L561.04 105.217ZM553.023 89.1837L552.533 89.2818L552.546 89.3474L552.576 89.4073L553.023 89.1837ZM551.687 82.5031L552.177 82.4051L552.062 81.8285L551.511 82.035L551.687 82.5031ZM540.998 86.5115L540.822 86.0433L540.721 86.0813L540.644 86.1579L540.998 86.5115ZM534.317 93.1921L534.383 93.6877L534.551 93.6653L534.671 93.5456L534.317 93.1921ZM514.276 95.8643L513.891 96.1844L514.068 96.3964L514.342 96.3599L514.276 95.8643ZM507.595 87.8476L507.108 87.96L507.135 88.0761L507.211 88.1677L507.595 87.8476ZM555.695 1.04175V0.541754H555.428L555.279 0.764404L555.695 1.04175ZM873.691 400.541L873.813 400.056L873.02 399.857L873.204 400.653L873.691 400.541ZM877.699 417.91L877.212 418.023L877.233 418.115L877.287 418.193L877.699 417.91ZM895.069 443.296L894.656 443.579L894.698 443.64L894.757 443.687L895.069 443.296ZM908.43 453.985L908.118 454.376L908.279 454.505L908.485 454.482L908.43 453.985ZM920.455 452.649L920.51 453.146L920.666 453.129L920.784 453.026L920.455 452.649ZM931.144 443.296L931.473 443.673L931.486 443.662L931.498 443.65L931.144 443.296ZM932.48 441.96V441.46H932.273L932.127 441.607L932.48 441.96ZM940.497 441.96L940.965 441.785L940.843 441.46H940.497V441.96ZM944.505 452.649L944.037 452.825L944.103 453.001L944.268 453.089L944.505 452.649ZM961.875 462.002L962.228 461.649L962.176 461.597L962.112 461.562L961.875 462.002ZM752.104 389.852L752.573 390.027L752.577 390.015L752.581 390.002L752.104 389.852ZM760.121 364.466L760.598 364.616L760.606 364.59L760.611 364.564L760.121 364.466ZM764.129 344.424L764.62 344.522L764.629 344.473V344.424H764.129ZM654.568 303.004L654.382 302.54L653.944 302.715L654.093 303.162L654.568 303.004ZM655.904 325.718L655.406 325.673L655.357 326.218H655.904V325.718ZM659.912 325.718V326.218H660.322L660.403 325.816L659.912 325.718ZM661.248 319.038L661.526 318.622L660.905 318.207L660.758 318.94L661.248 319.038ZM565.048 245.551L565.169 245.066L564.115 244.802L564.601 245.775L565.048 245.551ZM574.401 264.257L573.954 264.48L573.971 264.515L573.994 264.547L574.401 264.257ZM581.081 273.61L581.529 273.386L581.511 273.351L581.488 273.319L581.081 273.61ZM583.754 278.954L583.306 279.178L583.378 279.32L583.518 279.395L583.754 278.954ZM602.459 303.004L602.397 302.508L601.864 302.575L601.969 303.102L602.459 303.004ZM383.336 268.265L382.983 267.912L382.845 268.049L382.837 268.242L383.336 268.265ZM386.008 265.593L385.997 265.093L385.796 265.098L385.655 265.239L386.008 265.593ZM443.461 264.257L443.473 264.757L443.825 264.748L443.936 264.415L443.461 264.257ZM446.134 256.24L446.608 256.398L446.634 256.321V256.24H446.134ZM439.453 205.468L439.529 205.962L439.623 205.947L439.705 205.9L439.453 205.468ZM471.52 186.762L471.772 187.194L471.828 187.161L471.873 187.116L471.52 186.762ZM488.889 169.392L488.577 169.002L488.555 169.019L488.536 169.039L488.889 169.392ZM495.57 164.048L495.882 164.438L495.968 164.37L496.017 164.272L495.57 164.048ZM500.914 153.359L500.739 152.891L500.555 152.96L500.467 153.135L500.914 153.359ZM511.603 149.351L511.472 148.868L511.449 148.874L511.428 148.883L511.603 149.351ZM526.301 145.342L526.218 144.849L526.193 144.853L526.169 144.86L526.301 145.342ZM534.317 144.006L534.4 144.499L534.934 144.41L534.802 143.885L534.317 144.006ZM534.317 107.931L534.132 107.467L533.939 107.544L533.858 107.734L534.317 107.931ZM540.998 105.259V104.759H540.902L540.812 104.795L540.998 105.259ZM549.015 125.301H548.515V125.963L549.152 125.781L549.015 125.301ZM558.367 122.628V122.128H558.297L558.23 122.148L558.367 122.628ZM566.384 122.628V123.128H567.061L566.862 122.481L566.384 122.628ZM515.612 33.1086L515.367 32.6728L515.32 32.6991L515.28 32.7349L515.612 33.1086ZM536.99 21.0835L536.766 20.6363L536.755 20.6417L536.744 20.6477L536.99 21.0835ZM545.006 17.0752L545.23 17.5224L545.349 17.463L545.422 17.3525L545.006 17.0752ZM1279.71 526.956L1271.7 529.628L1272.01 530.577L1280.03 527.904L1279.71 526.956ZM1271.95 529.612L1265.27 528.276L1265.08 529.256L1271.76 530.593L1271.95 529.612ZM1265.67 528.704L1263 507.326L1262 507.45L1264.68 528.828L1265.67 528.704ZM1262.91 507.096L1245.54 483.045L1244.73 483.631L1262.1 507.681L1262.91 507.096ZM1245.56 483.073L1238.87 472.384L1238.03 472.914L1244.71 483.603L1245.56 483.073ZM1238.35 472.159L1231.67 473.495L1231.87 474.476L1238.55 473.14L1238.35 472.159ZM1231.47 473.585L1226.13 477.594L1226.73 478.394L1232.07 474.385L1231.47 473.585ZM1226.3 477.509L1204.93 482.853L1205.17 483.823L1226.55 478.479L1226.3 477.509ZM1204.69 482.985L1190 497.682L1190.7 498.389L1205.4 483.692L1204.69 482.985ZM1190.02 497.659L1179.33 507.012L1179.99 507.765L1190.68 498.412L1190.02 497.659ZM1179.32 507.02L1163.29 521.717L1163.97 522.454L1180 507.757L1179.32 507.02ZM1163.3 521.709L1152.61 531.062L1153.27 531.815L1163.96 522.462L1163.3 521.709ZM1152.59 531.085L1147.24 536.429L1147.95 537.136L1153.29 531.792L1152.59 531.085ZM1147.1 536.685L1144.43 550.046L1145.41 550.242L1148.09 536.881L1147.1 536.685ZM1144.43 550.078L1141.75 570.12L1142.75 570.252L1145.42 550.21L1144.43 550.078ZM1141.8 569.962L1133.79 585.996L1134.68 586.443L1142.7 570.409L1141.8 569.962ZM1133.86 585.887L1123.17 597.912L1123.92 598.576L1134.61 586.551L1133.86 585.887ZM1123.64 597.754L1116.96 596.418L1116.77 597.398L1123.45 598.735L1123.64 597.754ZM1117.32 596.695L1095.94 551.267L1095.03 551.693L1116.41 597.121L1117.32 596.695ZM1095.95 551.305L1083.93 519.238L1082.99 519.589L1095.02 551.656L1095.95 551.305ZM1083.95 519.331L1079.95 495.281L1078.96 495.445L1082.97 519.496L1083.95 519.331ZM1079.95 495.318L1078.61 480.621L1077.62 480.711L1078.96 495.409L1079.95 495.318ZM1078.12 480.166H1074.11V481.166H1078.12V480.166ZM1073.71 480.366L1069.7 485.71L1070.5 486.31L1074.51 480.966L1073.71 480.366ZM1070.16 485.514L1059.47 484.178L1059.35 485.17L1070.04 486.507L1070.16 485.514ZM1059.82 484.38L1049.13 469.683L1048.32 470.271L1059.01 484.968L1059.82 484.38ZM1049.15 469.72L1045.14 463.039L1044.29 463.554L1048.29 470.234L1049.15 469.72ZM1045.03 462.909L1030.33 450.884L1029.7 451.658L1044.4 463.683L1045.03 462.909ZM1030.43 450.994L1027.76 446.986L1026.93 447.54L1029.6 451.549L1030.43 450.994ZM1027.36 446.763L972.576 445.427L972.551 446.427L1027.33 447.763L1027.36 446.763ZM972.651 445.435L949.937 441.426L949.763 442.411L972.477 446.419L972.651 445.435ZM950.203 441.565L942.187 433.548L941.479 434.255L949.496 442.272L950.203 441.565ZM941.866 433.403L921.825 432.067L921.758 433.065L941.8 434.401L941.866 433.403ZM922.027 432.125L901.985 421.436L901.514 422.318L921.556 433.007L922.027 432.125ZM902.116 421.537L884.746 402.831L884.014 403.511L901.383 422.217L902.116 421.537ZM884.501 402.686L873.812 400.014L873.57 400.984L884.259 403.656L884.501 402.686ZM873.204 400.611L873.214 400.656L874.188 400.431L874.178 400.387L873.204 400.611ZM968.06 468.567L965.395 480.558L966.371 480.774L969.036 468.784L968.06 468.567ZM965.478 480.373L948.108 504.423L948.919 505.009L966.288 480.959L965.478 480.373ZM948.223 504.309L929.517 517.67L930.099 518.484L948.804 505.123L948.223 504.309ZM929.551 517.649L916.19 525.665L916.704 526.523L930.065 518.506L929.551 517.649ZM916.207 525.655L901.51 533.672L901.989 534.55L916.686 526.533L916.207 525.655ZM901.484 533.687L890.796 540.367L891.326 541.215L902.014 534.535L901.484 533.687ZM890.89 540.321L846.798 556.355L847.14 557.295L891.231 541.261L890.89 540.321ZM846.871 556.334L840.19 557.67L840.386 558.651L847.067 557.315L846.871 556.334ZM840.288 557.661H830.935V558.661H840.288V557.661ZM831.402 557.981L824.721 540.612L823.788 540.971L830.469 558.34L831.402 557.981ZM824.74 540.67L819.395 519.292L818.425 519.535L823.77 540.913L824.74 540.67ZM819.335 519.15L801.966 491.092L801.116 491.618L818.485 519.677L819.335 519.15ZM801.894 491.001L793.878 482.985L793.17 483.692L801.187 491.708L801.894 491.001ZM793.998 483.18L787.318 463.138L786.369 463.455L793.05 483.496L793.998 483.18ZM787.256 463.014L769.887 437.628L769.061 438.193L786.431 463.579L787.256 463.014ZM769.884 437.623L760.531 424.262L759.711 424.836L769.064 438.197L769.884 437.623ZM760.454 424.176L744.703 410.127L744.038 410.873L759.788 424.922L760.454 424.176ZM764.629 339.079V339.038H763.629V339.079H764.629ZM764.04 338.546L749.343 341.218L749.522 342.202L764.219 339.53L764.04 338.546ZM749.079 341.356L747.742 342.692L748.45 343.399L749.786 342.063L749.079 341.356ZM748.096 342.546H736.071V343.546H748.096V342.546ZM736.425 342.692L732.416 338.684L731.709 339.391L735.717 343.399L736.425 342.692ZM732.063 338.538H720.038V339.538H732.063V338.538ZM719.982 338.541L707.957 339.877L708.068 340.871L720.093 339.535L719.982 338.541ZM708.156 339.895L694.795 335.886L694.508 336.844L707.869 340.853L708.156 339.895ZM695.075 336.1L688.395 325.411L687.547 325.941L694.227 336.63L695.075 336.1ZM688.456 325.555L684.448 309.522L683.477 309.764L687.486 325.798L688.456 325.555ZM684.4 309.4L677.719 297.375L676.845 297.861L683.525 309.886L684.4 309.4ZM677.2 297.125L661.166 299.797L661.331 300.783L677.364 298.111L677.2 297.125ZM661.063 299.826L654.382 302.498L654.754 303.427L661.434 300.754L661.063 299.826ZM654.093 303.12L654.106 303.157L655.054 302.841L655.042 302.804L654.093 303.12ZM656.739 310.967L655.406 325.631L656.402 325.722L657.735 311.057L656.739 310.967ZM655.904 326.176H655.908V325.176H655.904V326.176ZM655.908 326.176H656.424V325.176H655.908V326.176ZM656.424 326.176H659.912V325.176H656.424V326.176ZM660.403 325.774L661.625 319.663L660.644 319.467L659.422 325.578L660.403 325.774ZM664.771 321.544L663.446 325.518L664.395 325.835L665.72 321.86L664.771 321.544ZM664.376 325.469L661.595 319.37L660.686 319.785L663.466 325.884L664.376 325.469ZM661.595 319.37L661.59 319.357L660.68 319.772L660.685 319.785L661.595 319.37ZM656.741 310.993L655.925 325.649L656.924 325.704L657.739 311.049L656.741 310.993ZM655.925 325.649L655.923 325.69L656.921 325.746L656.924 325.704L655.925 325.649ZM655.923 325.69L655.405 335.001L656.403 335.057L656.921 325.746L655.923 325.69ZM655.904 334.529H646.551V335.529H655.904V334.529ZM646.905 334.676L641.56 329.331L640.853 330.038L646.198 335.383L646.905 334.676ZM641.642 329.44L629.617 308.062L628.746 308.552L640.771 329.93L641.642 329.44ZM629.535 307.953L624.191 302.609L623.484 303.316L628.828 308.66L629.535 307.953ZM624.333 302.896L621.661 282.855L620.669 282.987L623.342 303.029L624.333 302.896ZM621.43 282.497L600.052 269.136L599.522 269.984L620.9 283.345L621.43 282.497ZM600.094 269.165L588.069 259.812L587.455 260.601L599.48 269.954L600.094 269.165ZM588.146 259.887L581.466 251.87L580.697 252.51L587.378 260.527L588.146 259.887ZM581.305 251.743L570.616 246.398L570.169 247.293L580.858 252.637L581.305 251.743ZM570.514 246.36L565.169 245.024L564.927 245.994L570.271 247.331L570.514 246.36ZM564.601 245.733L564.625 245.781L565.519 245.334L565.495 245.286L564.601 245.733ZM613.086 301.13L603.733 302.299L603.857 303.292L613.21 302.122L613.086 301.13ZM603.733 302.299L602.397 302.466L602.521 303.459L603.857 303.292L603.733 302.299ZM602.957 303.012L604.293 289.693L603.298 289.593L601.962 302.913L602.957 303.012ZM603.295 289.643V302.795H604.295V289.643H603.295ZM603.295 302.795V302.837H604.295V302.795H603.295ZM603.697 318.506L597.017 319.842L597.213 320.822L603.893 319.486L603.697 318.506ZM597.605 320.234L594.933 306.873L593.952 307.069L596.625 320.43L597.605 320.234ZM594.725 306.558L569.339 289.189L568.774 290.014L594.16 307.383L594.725 306.558ZM569.363 289.207L557.338 279.854L556.724 280.643L568.749 289.996L569.363 289.207ZM557.403 279.914L545.378 266.553L544.635 267.222L556.66 280.583L557.403 279.914ZM545.491 266.766L544.155 261.422L543.185 261.664L544.521 267.009L545.491 266.766ZM543.625 261.045L528.928 262.381L529.018 263.377L543.715 262.041L543.625 261.045ZM528.708 262.455L518.019 269.136L518.549 269.984L529.238 263.303L528.708 262.455ZM518.26 269.06L490.202 270.396L490.249 271.395L518.308 270.059L518.26 269.06ZM489.755 270.727L483.074 289.433L484.016 289.769L490.696 271.064L489.755 270.727ZM483.387 289.127L467.353 294.471L467.67 295.42L483.703 290.076L483.387 289.127ZM467.064 294.722L460.384 308.083L461.278 308.53L467.959 295.169L467.064 294.722ZM460.349 308.175L456.34 322.873L457.305 323.136L461.313 308.438L460.349 308.175ZM456.488 322.633L443.127 334.658L443.796 335.401L457.157 323.376L456.488 322.633ZM443.34 334.544L421.962 339.889L422.205 340.859L443.583 335.514L443.34 334.544ZM422.084 339.874H406.05V340.874H422.084V339.874ZM406.236 339.909L386.194 331.893L385.823 332.821L405.864 340.838L406.236 339.909ZM386.477 332.181L382.468 321.492L381.532 321.844L385.54 332.533L386.477 332.181ZM446.634 237.534V237.493H445.634V237.534H446.634ZM446.543 237.206L437.19 223.845L436.371 224.418L445.724 237.779L446.543 237.206ZM437.02 223.693L422.323 215.676L421.844 216.554L436.541 224.57L437.02 223.693ZM534.389 144.459L534.399 144.458L534.235 143.471L534.225 143.473L534.389 144.459ZM534.802 143.843L530.794 127.81L529.824 128.052L533.832 144.086L534.802 143.843ZM566.371 123.087H566.384V122.087H566.371V123.087ZM566.862 122.44L561.518 105.07L560.562 105.364L565.906 122.734L566.862 122.44ZM561.487 104.994L553.47 88.9601L552.576 89.4073L560.592 105.441L561.487 104.994ZM553.513 89.0857L552.177 82.4051L551.197 82.6012L552.533 89.2818L553.513 89.0857ZM551.511 82.035L540.822 86.0433L541.173 86.9796L551.862 82.9713L551.511 82.035ZM540.644 86.1579L533.964 92.8385L534.671 93.5456L541.351 86.865L540.644 86.1579ZM534.251 92.6965L514.209 95.3687L514.342 96.3599L534.383 93.6877L534.251 92.6965ZM514.66 95.5442L507.979 87.5275L507.211 88.1677L513.891 96.1844L514.66 95.5442ZM508.082 87.7352L504.074 70.3657L503.099 70.5905L507.108 87.96L508.082 87.7352ZM555.695 1.54175H1279.87V0.541754H555.695V1.54175ZM873.823 400.058L873.813 400.056L873.569 401.026L873.58 401.028L873.823 400.058ZM873.204 400.653L877.212 418.023L878.187 417.798L874.178 400.428L873.204 400.653ZM877.287 418.193L894.656 443.579L895.482 443.014L878.112 417.628L877.287 418.193ZM894.757 443.687L908.118 454.376L908.742 453.595L895.381 442.906L894.757 443.687ZM908.485 454.482L920.51 453.146L920.4 452.152L908.375 453.488L908.485 454.482ZM920.784 453.026L931.473 443.673L930.815 442.92L920.126 452.273L920.784 453.026ZM931.498 443.65L932.834 442.314L932.127 441.607L930.79 442.943L931.498 443.65ZM932.48 442.46H940.497V441.46H932.48V442.46ZM940.029 442.136L944.037 452.825L944.973 452.474L940.965 441.785L940.029 442.136ZM944.268 453.089L961.638 462.442L962.112 461.562L944.742 452.209L944.268 453.089ZM961.521 462.356L968.194 469.029L968.901 468.322L962.228 461.649L961.521 462.356ZM744.839 410.675L752.573 390.027L751.636 389.676L743.902 410.325L744.839 410.675ZM752.581 390.002L760.598 364.616L759.644 364.315L751.628 389.701L752.581 390.002ZM760.611 364.564L764.62 344.522L763.639 344.326L759.631 364.367L760.611 364.564ZM764.629 344.424V344.382H763.629V344.424H764.629ZM654.394 302.535L654.382 302.54L654.754 303.468L654.766 303.463L654.394 302.535ZM654.093 303.162L656.763 311.17L657.711 310.854L655.042 302.846L654.093 303.162ZM656.742 310.976L655.41 325.631L656.406 325.722L657.738 311.066L656.742 310.976ZM655.41 325.631L655.406 325.673L656.402 325.763L656.406 325.722L655.41 325.631ZM655.904 326.218H656.422V325.218H655.904V326.218ZM656.422 326.218H659.912V325.218H656.422V326.218ZM660.403 325.816L661.631 319.675L660.65 319.479L659.422 325.62L660.403 325.816ZM661.631 319.675L661.739 319.136L660.758 318.94L660.65 319.479L661.631 319.675ZM660.971 319.454L664.968 322.118L665.523 321.286L661.526 318.622L660.971 319.454ZM565.193 245.072L565.169 245.066L564.927 246.036L564.951 246.042L565.193 245.072ZM564.601 245.775L573.954 264.48L574.848 264.033L565.495 245.328L564.601 245.775ZM573.994 264.547L580.675 273.9L581.488 273.319L574.808 263.966L573.994 264.547ZM580.634 273.833L583.306 279.178L584.201 278.73L581.529 273.386L580.634 273.833ZM583.518 279.395L603.56 290.084L604.031 289.202L583.989 278.513L583.518 279.395ZM603.505 290.05L612.858 296.73L613.439 295.917L604.086 289.236L603.505 290.05ZM603.733 302.341L602.397 302.508L602.521 303.5L603.857 303.333L603.733 302.341ZM601.969 303.102L603.305 309.783L604.286 309.587L602.95 302.906L601.969 303.102ZM382.499 297.682L383.836 268.288L382.837 268.242L381.501 297.637L382.499 297.682ZM383.69 268.619L386.362 265.946L385.655 265.239L382.983 267.912L383.69 268.619ZM386.02 266.093L443.473 264.757L443.45 263.757L385.997 265.093L386.02 266.093ZM443.936 264.415L446.608 256.398L445.659 256.082L442.987 264.099L443.936 264.415ZM446.634 256.24V256.198H445.634V256.24H446.634ZM422.16 208.634L439.529 205.962L439.377 204.973L422.007 207.646L422.16 208.634ZM439.705 205.9L471.772 187.194L471.268 186.33L439.201 205.036L439.705 205.9ZM471.873 187.116L489.243 169.746L488.536 169.039L471.166 186.408L471.873 187.116ZM489.202 169.783L495.882 164.438L495.258 163.658L488.577 169.002L489.202 169.783ZM496.017 164.272L501.362 153.583L500.467 153.135L495.123 163.824L496.017 164.272ZM501.09 153.827L511.779 149.819L511.428 148.883L500.739 152.891L501.09 153.827ZM511.735 149.833L526.432 145.825L526.169 144.86L511.472 148.868L511.735 149.833ZM526.383 145.836L534.4 144.499L534.235 143.513L526.218 144.849L526.383 145.836ZM534.802 143.885L534.792 143.845L533.822 144.087L533.832 144.128L534.802 143.885ZM530.769 117.481L534.777 108.128L533.858 107.734L529.849 117.087L530.769 117.481ZM534.503 108.395L541.184 105.723L540.812 104.795L534.132 107.467L534.503 108.395ZM540.998 105.759H549.015V104.759H540.998V105.759ZM548.515 105.259V125.301H549.515V105.259H548.515ZM549.152 125.781L558.505 123.109L558.23 122.148L548.877 124.82L549.152 125.781ZM558.367 123.128H566.384V122.128H558.367V123.128ZM566.862 122.481L566.849 122.44L565.893 122.734L565.906 122.775L566.862 122.481ZM503.919 44.1712L515.944 33.4823L515.28 32.7349L503.254 43.4238L503.919 44.1712ZM515.857 33.5443L537.235 21.5193L536.744 20.6477L515.367 32.6728L515.857 33.5443ZM537.213 21.5307L545.23 17.5224L544.783 16.6279L536.766 20.6363L537.213 21.5307ZM545.422 17.3525L556.111 1.3191L555.279 0.764404L544.59 16.7978L545.422 17.3525ZM555.695 1V0H555.16L554.863 0.4453L555.695 1ZM1279.87 1H1280.87V0H1279.87V1ZM873.701 400.543L873.944 399.573L872.36 399.177L872.727 400.768L873.701 400.543ZM877.699 417.868L876.725 418.093L876.767 418.277L876.874 418.433L877.699 417.868ZM895.069 443.255L894.244 443.819L894.328 443.942L894.444 444.036L895.069 443.255ZM908.43 453.944L907.805 454.725L908.129 454.983L908.54 454.938L908.43 453.944ZM920.455 452.608L920.566 453.601L920.877 453.567L921.114 453.36L920.455 452.608ZM931.144 443.255L931.803 444.007L931.828 443.985L931.851 443.962L931.144 443.255ZM932.48 441.919V440.919H932.066L931.773 441.211L932.48 441.919ZM940.497 441.919L941.433 441.567L941.19 440.919H940.497V441.919ZM944.505 452.608L943.569 452.959L943.701 453.31L944.031 453.488L944.505 452.608ZM961.875 461.96L962.582 461.253L962.478 461.149L962.349 461.08L961.875 461.96ZM968.555 468.641L969.532 468.857L969.65 468.322L969.262 467.934L968.555 468.641ZM968.548 468.675L967.571 468.459L967.453 468.993L967.839 469.381L968.548 468.675ZM744.371 410.5L743.434 410.15L743.195 410.79L743.704 411.245L744.371 410.5ZM752.104 389.81L753.041 390.16L753.05 390.136L753.058 390.111L752.104 389.81ZM760.121 364.424L761.075 364.725L761.091 364.673L761.102 364.62L760.121 364.424ZM764.129 344.382L765.11 344.578L765.129 344.481V344.382H764.129ZM764.129 339.079H765.129V337.881L763.951 338.095L764.129 339.079ZM654.58 302.999L654.209 302.071L653.333 302.421L653.631 303.315L654.58 302.999ZM657.24 310.979L658.236 311.07L658.255 310.861L658.189 310.663L657.24 310.979ZM657.237 311.012L656.241 310.921L656.222 311.13L656.289 311.329L657.237 311.012ZM661.135 319.565L660.225 319.979L661.508 322.795L662.115 319.761L661.135 319.565ZM661.248 318.996L661.803 318.164L660.561 317.335L660.268 318.8L661.248 318.996ZM665.257 321.668L666.205 321.984L666.447 321.26L665.811 320.836L665.257 321.668ZM665.245 321.702L664.297 321.386L664.055 322.11L664.69 322.534L665.245 321.702ZM657.24 311.021L656.292 311.338L656.308 311.388L656.33 311.436L657.24 311.021ZM565.072 245.557L565.314 244.587L563.205 244.06L564.177 246.004L565.072 245.557ZM574.401 264.215L573.506 264.662L573.542 264.732L573.587 264.796L574.401 264.215ZM581.081 273.568L581.976 273.121L581.941 273.05L581.895 272.987L581.081 273.568ZM583.754 278.912L582.859 279.36L583.002 279.645L583.283 279.795L583.754 278.912ZM603.795 289.601L604.377 288.788L604.324 288.75L604.266 288.719L603.795 289.601ZM613.148 296.282H614.148V295.767L613.729 295.468L613.148 296.282ZM603.795 302.837L603.671 301.845L602.795 301.954V302.837H603.795ZM382 297.618L381.001 297.573L381 297.595V297.618H382ZM383.336 268.223L382.629 267.516L382.355 267.791L382.337 268.178L383.336 268.223ZM386.008 265.551L385.985 264.551L385.585 264.561L385.301 264.844L386.008 265.551ZM443.461 264.215L443.485 265.215L444.188 265.198L444.41 264.531L443.461 264.215ZM446.134 256.198L447.082 256.515L447.134 256.361V256.198H446.134ZM446.134 237.534H447.134V237.219L446.953 236.961L446.134 237.534ZM422.084 208.098L421.931 207.11L421.084 207.24V208.098H422.084ZM439.453 205.426L439.605 206.414L439.793 206.385L439.957 206.29L439.453 205.426ZM471.52 186.72L472.024 187.584L472.135 187.519L472.227 187.427L471.52 186.72ZM488.889 169.351L488.265 168.57L488.221 168.604L488.182 168.644L488.889 169.351ZM495.57 164.006L496.195 164.787L496.366 164.65L496.464 164.453L495.57 164.006ZM500.914 153.317L500.563 152.381L500.196 152.519L500.02 152.87L500.914 153.317ZM511.603 149.309L511.34 148.344L511.296 148.356L511.252 148.373L511.603 149.309ZM526.301 145.301L526.136 144.314L526.086 144.323L526.038 144.336L526.301 145.301ZM534.307 143.966L534.472 144.953L535.54 144.774L535.277 143.724L534.307 143.966ZM530.309 117.242L529.39 116.848L529.309 117.037V117.242H530.309ZM534.317 107.889L533.946 106.961L533.561 107.115L533.398 107.495L534.317 107.889ZM540.998 105.217V104.217H540.805L540.627 104.289L540.998 105.217ZM549.015 105.217H550.015V104.217H549.015V105.217ZM549.015 105.259H548.015V105.512L548.135 105.734L549.015 105.259ZM558.367 122.587L557.487 123.062L557.771 123.587H558.367V122.587ZM566.371 122.587V123.587H567.725L567.327 122.293L566.371 122.587ZM503.587 43.7557L502.922 43.0083L502.587 43.3067V43.7557H503.587ZM515.612 33.0668L515.121 32.1952L515.028 32.248L514.947 32.3194L515.612 33.0668ZM536.99 21.0418L536.542 20.1473L536.521 20.1582L536.499 20.1702L536.99 21.0418ZM545.006 17.0334L545.453 17.9278L545.691 17.8091L545.838 17.5881L545.006 17.0334ZM1279.87 527.472L1280.19 528.42L1280.87 528.193V527.472H1279.87ZM1271.85 530.144L1271.66 531.125L1271.92 531.177L1272.17 531.093L1271.85 530.144ZM1265.17 528.808L1264.18 528.932L1264.27 529.647L1264.98 529.789L1265.17 528.808ZM1262.5 507.43L1263.49 507.306L1263.46 507.052L1263.31 506.845L1262.5 507.43ZM1245.13 483.38L1244.28 483.91L1244.3 483.938L1244.32 483.965L1245.13 483.38ZM1238.45 472.691L1239.3 472.161L1238.93 471.575L1238.25 471.71L1238.45 472.691ZM1231.77 474.027L1231.57 473.047L1231.35 473.091L1231.17 473.227L1231.77 474.027ZM1226.43 478.035L1226.67 479.006L1226.86 478.957L1227.03 478.835L1226.43 478.035ZM1205.05 483.38L1204.81 482.41L1204.54 482.477L1204.34 482.673L1205.05 483.38ZM1190.35 498.077L1191.01 498.83L1191.03 498.808L1191.06 498.784L1190.35 498.077ZM1179.66 507.43L1179 506.677L1178.99 506.685L1178.99 506.693L1179.66 507.43ZM1163.63 522.127L1164.29 522.88L1164.3 522.872L1164.3 522.864L1163.63 522.127ZM1152.94 531.48L1152.28 530.728L1152.26 530.75L1152.23 530.773L1152.94 531.48ZM1147.59 536.825L1146.89 536.118L1146.67 536.332L1146.61 536.629L1147.59 536.825ZM1144.92 550.186L1143.94 549.99L1143.94 550.021L1143.93 550.054L1144.92 550.186ZM1142.25 570.228L1143.14 570.675L1143.22 570.525L1143.24 570.36L1142.25 570.228ZM1134.23 586.261L1134.98 586.925L1135.07 586.826L1135.13 586.708L1134.23 586.261ZM1123.54 598.286L1123.35 599.267L1123.91 599.379L1124.29 598.95L1123.54 598.286ZM1116.86 596.95L1115.96 597.376L1116.17 597.832L1116.67 597.93L1116.86 596.95ZM1095.49 551.522L1094.55 551.873L1094.56 551.911L1094.58 551.948L1095.49 551.522ZM1083.46 519.455L1082.47 519.62L1082.49 519.715L1082.53 519.806L1083.46 519.455ZM1079.45 495.405L1078.46 495.496L1078.46 495.533L1078.47 495.569L1079.45 495.405ZM1078.12 480.708L1079.11 480.617L1079.03 479.708H1078.12V480.708ZM1074.11 480.708V479.708H1073.61L1073.31 480.108L1074.11 480.708ZM1070.1 486.052L1069.98 487.044L1070.55 487.116L1070.9 486.652L1070.1 486.052ZM1059.41 484.716L1058.6 485.304L1058.86 485.655L1059.29 485.708L1059.41 484.716ZM1048.72 470.019L1047.86 470.533L1047.89 470.571L1047.91 470.607L1048.72 470.019ZM1044.71 463.338L1045.57 462.824L1045.48 462.674L1045.35 462.564L1044.71 463.338ZM1030.02 451.313L1029.18 451.868L1029.27 451.992L1029.38 452.087L1030.02 451.313ZM1027.34 447.305L1028.18 446.75L1027.89 446.318L1027.37 446.305L1027.34 447.305ZM972.564 445.969L972.39 446.953L972.464 446.967L972.539 446.968L972.564 445.969ZM949.85 441.96L949.143 442.667L949.365 442.89L949.676 442.945L949.85 441.96ZM941.833 433.944L942.54 433.237L942.274 432.971L941.9 432.946L941.833 433.944ZM921.791 432.608L921.321 433.49L921.51 433.591L921.725 433.605L921.791 432.608ZM901.749 421.919L901.017 422.599L901.131 422.722L901.279 422.801L901.749 421.919ZM884.38 403.213L885.113 402.533L884.911 402.315L884.622 402.243L884.38 403.213ZM968.555 468.683L969.531 468.9L969.65 468.365L969.264 467.977L968.555 468.683ZM965.883 480.708L966.694 481.293L966.815 481.126L966.859 480.925L965.883 480.708ZM948.514 504.758L949.095 505.572L949.228 505.476L949.324 505.343L948.514 504.758ZM929.808 518.119L930.322 518.977L930.357 518.956L930.389 518.933L929.808 518.119ZM916.447 526.136L916.926 527.014L916.944 527.004L916.961 526.993L916.447 526.136ZM901.749 534.152L901.271 533.275L901.245 533.289L901.219 533.304L901.749 534.152ZM891.061 540.833L891.402 541.773L891.501 541.737L891.591 541.681L891.061 540.833ZM846.969 556.866L847.165 557.847L847.239 557.832L847.31 557.806L846.969 556.866ZM840.288 558.203V559.203H840.387L840.484 559.183L840.288 558.203ZM830.935 558.203L830.002 558.561L830.249 559.203H830.935V558.203ZM824.255 540.833L823.285 541.076L823.299 541.135L823.321 541.192L824.255 540.833ZM818.91 519.455L819.88 519.213L819.843 519.061L819.76 518.929L818.91 519.455ZM801.541 491.397L802.391 490.87L802.33 490.772L802.248 490.69L801.541 491.397ZM793.524 483.38L792.575 483.696L792.65 483.92L792.817 484.087L793.524 483.38ZM786.843 463.338L787.792 463.022L787.748 462.889L787.669 462.774L786.843 463.338ZM769.474 437.952L770.299 437.387L770.293 437.379L769.474 437.952ZM760.121 424.591L760.94 424.017L760.874 423.923L760.788 423.846L760.121 424.591ZM749.432 341.752L749.253 340.768L748.946 340.824L748.725 341.044L749.432 341.752ZM748.096 343.088V344.088H748.51L748.803 343.795L748.096 343.088ZM736.071 343.088L735.364 343.795L735.657 344.088H736.071V343.088ZM732.063 339.079L732.77 338.372L732.477 338.079H732.063V339.079ZM720.038 339.079V338.079H719.982L719.927 338.085L720.038 339.079ZM708.013 340.415L707.725 341.373L707.92 341.432L708.123 341.409L708.013 340.415ZM694.651 336.407L693.803 336.937L694.003 337.257L694.364 337.365L694.651 336.407ZM687.971 325.718L687.001 325.961L687.039 326.114L687.123 326.248L687.971 325.718ZM683.962 309.685L684.933 309.442L684.901 309.314L684.837 309.199L683.962 309.685ZM677.282 297.66L678.156 297.174L677.813 296.557L677.117 296.673L677.282 297.66ZM661.248 300.332L661.084 299.346L660.977 299.363L660.877 299.403L661.248 300.332ZM665.257 321.71L666.205 322.026L666.447 321.302L665.812 320.878L665.257 321.71ZM663.921 325.718L664.545 326.499L664.776 326.315L664.869 326.034L663.921 325.718ZM657.24 331.063L656.615 330.282L656.385 330.466L656.291 330.746L657.24 331.063ZM655.904 335.071V336.071H656.625L656.853 335.387L655.904 335.071ZM646.551 335.071L645.844 335.778L646.137 336.071H646.551V335.071ZM641.207 329.727L640.335 330.217L640.402 330.336L640.5 330.434L641.207 329.727ZM629.182 308.349L630.053 307.858L629.986 307.739L629.889 307.642L629.182 308.349ZM623.837 303.004L622.846 303.136L622.891 303.472L623.13 303.711L623.837 303.004ZM621.165 282.962L622.156 282.83L622.094 282.364L621.695 282.114L621.165 282.962ZM599.787 269.601L599.173 270.391L599.214 270.422L599.257 270.449L599.787 269.601ZM587.762 260.248L586.994 260.889L587.063 260.972L587.148 261.038L587.762 260.248ZM581.081 252.232L581.85 251.592L581.716 251.431L581.529 251.337L581.081 252.232ZM570.392 246.887L570.84 245.993L570.742 245.944L570.635 245.917L570.392 246.887ZM613.148 301.668L613.272 302.66L614.148 302.551V301.668H613.148ZM603.795 319.038L603.992 320.018L604.795 319.857V319.038H603.795ZM597.115 320.374L596.134 320.57L596.33 321.55L597.311 321.354L597.115 320.374ZM594.443 307.013L595.423 306.816L595.343 306.417L595.007 306.187L594.443 307.013ZM569.056 289.643L568.442 290.432L568.467 290.451L568.492 290.468L569.056 289.643ZM557.031 280.29L556.288 280.959L556.347 281.025L556.417 281.08L557.031 280.29ZM545.006 266.929L544.036 267.172L544.096 267.413L544.263 267.598L545.006 266.929ZM543.67 261.585L544.64 261.342L544.433 260.511L543.58 260.589L543.67 261.585ZM528.973 262.921L528.882 261.925L528.645 261.946L528.443 262.073L528.973 262.921ZM518.284 269.601L518.331 270.6L518.592 270.588L518.814 270.449L518.284 269.601ZM490.225 270.937L490.178 269.939L489.509 269.97L489.284 270.601L490.225 270.937ZM483.545 289.643L483.861 290.592L484.323 290.438L484.487 289.979L483.545 289.643ZM467.511 294.987L467.195 294.039L466.802 294.17L466.617 294.54L467.511 294.987ZM460.831 308.349L459.936 307.901L459.892 307.99L459.866 308.086L460.831 308.349ZM456.823 323.046L457.492 323.789L457.71 323.593L457.787 323.309L456.823 323.046ZM443.461 335.071L443.704 336.041L443.945 335.981L444.13 335.814L443.461 335.071ZM422.084 340.415V341.415H422.207L422.326 341.386L422.084 340.415ZM406.05 340.415L405.679 341.344L405.858 341.415H406.05V340.415ZM386.008 332.399L385.072 332.75L385.227 333.163L385.637 333.327L386.008 332.399ZM382 321.71H381V321.891L381.064 322.061L382 321.71ZM436.781 224.173L437.6 223.6L437.466 223.408L437.26 223.295L436.781 224.173ZM422.084 216.157H421.084V216.75L421.605 217.034L422.084 216.157ZM530.309 127.973H529.309V128.096L529.339 128.215L530.309 127.973ZM561.04 105.259L561.995 104.965L561.971 104.886L561.934 104.812L561.04 105.259ZM553.023 89.2255L552.042 89.4216L552.069 89.5529L552.129 89.6727L553.023 89.2255ZM551.687 82.5449L552.667 82.3488L552.437 81.1956L551.336 81.6086L551.687 82.5449ZM540.998 86.5532L540.647 85.6169L540.444 85.693L540.291 85.8461L540.998 86.5532ZM534.317 93.2338L534.449 94.2251L534.785 94.1803L535.024 93.9409L534.317 93.2338ZM514.276 95.9061L513.507 96.5462L513.861 96.9702L514.408 96.8973L514.276 95.9061ZM507.595 87.8894L506.621 88.1142L506.674 88.3464L506.827 88.5295L507.595 87.8894ZM503.587 70.5198H502.587V70.6337L502.612 70.7447L503.587 70.5198ZM555.695 2H1279.87V0H555.695V2ZM1278.87 1V1.04175H1280.87V1H1278.87ZM1278.87 1.04175V527.43H1280.87V1.04175H1278.87ZM872.727 400.768L876.725 418.093L878.674 417.644L874.676 400.318L872.727 400.768ZM876.874 418.433L894.244 443.819L895.894 442.69L878.525 417.304L876.874 418.433ZM894.444 444.036L907.805 454.725L909.055 453.163L895.694 442.474L894.444 444.036ZM908.54 454.938L920.566 453.601L920.345 451.614L908.32 452.95L908.54 454.938ZM921.114 453.36L931.803 444.007L930.486 442.502L919.797 451.855L921.114 453.36ZM931.851 443.962L933.187 442.626L931.773 441.211L930.437 442.548L931.851 443.962ZM932.48 442.919H940.497V440.919H932.48V442.919ZM939.561 442.27L943.569 452.959L945.442 452.256L941.433 441.567L939.561 442.27ZM944.031 453.488L961.401 462.841L962.349 461.08L944.979 451.727L944.031 453.488ZM961.168 462.667L967.848 469.348L969.262 467.934L962.582 461.253L961.168 462.667ZM967.579 468.425L967.571 468.459L969.524 468.891L969.532 468.857L967.579 468.425ZM745.307 410.85L753.041 390.16L751.168 389.46L743.434 410.15L745.307 410.85ZM753.058 390.111L761.075 364.725L759.168 364.123L751.151 389.509L753.058 390.111ZM761.102 364.62L765.11 344.578L763.149 344.186L759.141 364.228L761.102 364.62ZM765.129 344.382V339.079H763.129V344.382H765.129ZM653.631 303.315L656.291 311.295L658.189 310.663L655.529 302.683L653.631 303.315ZM656.244 310.888L656.241 310.921L658.233 311.103L658.236 311.07L656.244 310.888ZM662.115 319.761L662.229 319.192L660.268 318.8L660.154 319.369L662.115 319.761ZM660.694 319.828L664.702 322.5L665.811 320.836L661.803 318.164L660.694 319.828ZM664.308 321.352L664.297 321.386L666.194 322.018L666.205 321.984L664.308 321.352ZM662.045 319.15L658.15 310.606L656.33 311.436L660.225 319.979L662.045 319.15ZM564.177 246.004L573.506 264.662L575.295 263.768L565.966 245.11L564.177 246.004ZM573.587 264.796L580.268 274.149L581.895 272.987L575.215 263.634L573.587 264.796ZM580.187 274.015L582.859 279.36L584.648 278.465L581.976 273.121L580.187 274.015ZM583.283 279.795L603.325 290.484L604.266 288.719L584.224 278.03L583.283 279.795ZM603.214 290.415L612.567 297.096L613.729 295.468L604.377 288.788L603.214 290.415ZM612.148 296.282V296.324H614.148V296.282H612.148ZM612.148 296.324V301.626H614.148V296.324H612.148ZM602.795 302.837V309.685H604.795V302.837H602.795ZM602.795 309.685V318.996H604.795V309.685H602.795ZM383 321.668V297.66H381V321.668H383ZM383 297.66V297.618H381V297.66H383ZM382.999 297.663L384.335 268.269L382.337 268.178L381.001 297.573L382.999 297.663ZM384.043 268.93L386.715 266.258L385.301 264.844L382.629 267.516L384.043 268.93ZM386.032 266.551L443.485 265.215L443.438 263.215L385.985 264.551L386.032 266.551ZM444.41 264.531L447.082 256.515L445.185 255.882L442.513 263.899L444.41 264.531ZM447.134 256.198V237.534H445.134V256.198H447.134ZM423.084 216.115V208.14H421.084V216.115H423.084ZM423.084 208.14V208.098H421.084V208.14H423.084ZM422.236 209.086L439.605 206.414L439.301 204.438L421.931 207.11L422.236 209.086ZM439.957 206.29L472.024 187.584L471.016 185.856L438.949 204.562L439.957 206.29ZM472.227 187.427L489.596 170.058L488.182 168.644L470.813 186.013L472.227 187.427ZM489.514 170.132L496.195 164.787L494.945 163.225L488.265 168.57L489.514 170.132ZM496.464 164.453L501.809 153.765L500.02 152.87L494.676 163.559L496.464 164.453ZM501.266 154.254L511.954 150.245L511.252 148.373L500.563 152.381L501.266 154.254ZM511.866 150.274L526.564 146.265L526.038 144.336L511.34 148.344L511.866 150.274ZM526.465 146.287L534.472 144.953L534.143 142.98L526.136 144.314L526.465 146.287ZM531.309 127.931V117.284H529.309V127.931H531.309ZM531.309 117.284V117.242H529.309V117.284H531.309ZM531.228 117.636L535.236 108.283L533.398 107.495L529.39 116.848L531.228 117.636ZM534.689 108.818L541.369 106.146L540.627 104.289L533.946 106.961L534.689 108.818ZM540.998 106.217H549.015V104.217H540.998V106.217ZM548.015 105.217V105.259H550.015V105.217H548.015ZM548.135 105.734L557.487 123.062L559.247 122.112L549.895 104.784L548.135 105.734ZM558.367 123.587H566.371V121.587H558.367V123.587ZM504.587 70.4781V43.7975H502.587V70.4781H504.587ZM504.587 43.7975V43.7557H502.587V43.7975H504.587ZM504.251 44.5032L516.276 33.8142L514.947 32.3194L502.922 43.0083L504.251 44.5032ZM516.102 33.9384L537.48 21.9133L536.499 20.1702L515.121 32.1952L516.102 33.9384ZM537.437 21.9362L545.453 17.9278L544.559 16.139L536.542 20.1473L537.437 21.9362ZM545.838 17.5881L556.527 1.5547L554.863 0.4453L544.174 16.4787L545.838 17.5881ZM1278.87 527.43V527.472H1280.87V527.43H1278.87ZM1279.55 526.523L1271.54 529.195L1272.17 531.093L1280.19 528.42L1279.55 526.523ZM1272.05 529.163L1265.37 527.827L1264.98 529.789L1271.66 531.125L1272.05 529.163ZM1266.17 528.684L1263.49 507.306L1261.51 507.554L1264.18 528.932L1266.17 528.684ZM1263.31 506.845L1245.94 482.794L1244.32 483.965L1261.69 508.016L1263.31 506.845ZM1245.98 482.85L1239.3 472.161L1237.6 473.221L1244.28 483.91L1245.98 482.85ZM1238.25 471.71L1231.57 473.047L1231.97 475.008L1238.65 473.672L1238.25 471.71ZM1231.17 473.227L1225.83 477.235L1227.03 478.835L1232.37 474.827L1231.17 473.227ZM1226.18 477.065L1204.81 482.41L1205.29 484.35L1226.67 479.006L1226.18 477.065ZM1204.34 482.673L1189.64 497.37L1191.06 498.784L1205.76 484.087L1204.34 482.673ZM1189.69 497.325L1179 506.677L1180.32 508.183L1191.01 498.83L1189.69 497.325ZM1178.99 506.693L1162.95 521.39L1164.3 522.864L1180.34 508.167L1178.99 506.693ZM1162.97 521.375L1152.28 530.728L1153.6 532.233L1164.29 522.88L1162.97 521.375ZM1152.23 530.773L1146.89 536.118L1148.3 537.532L1153.65 532.187L1152.23 530.773ZM1146.61 536.629L1143.94 549.99L1145.9 550.382L1148.58 537.021L1146.61 536.629ZM1143.93 550.054L1141.26 570.095L1143.24 570.36L1145.91 550.318L1143.93 550.054ZM1141.36 569.78L1133.34 585.814L1135.13 586.708L1143.14 570.675L1141.36 569.78ZM1133.49 585.597L1122.8 597.622L1124.29 598.95L1134.98 586.925L1133.49 585.597ZM1123.74 597.305L1117.06 595.969L1116.67 597.93L1123.35 599.267L1123.74 597.305ZM1117.77 596.524L1096.39 551.096L1094.58 551.948L1115.96 597.376L1117.77 596.524ZM1096.42 551.171L1084.4 519.104L1082.53 519.806L1094.55 551.873L1096.42 551.171ZM1084.45 519.291L1080.44 495.241L1078.47 495.569L1082.47 519.62L1084.45 519.291ZM1080.45 495.314L1079.11 480.617L1077.12 480.798L1078.46 495.496L1080.45 495.314ZM1078.12 479.708H1074.11V481.708H1078.12V479.708ZM1073.31 480.108L1069.3 485.452L1070.9 486.652L1074.91 481.308L1073.31 480.108ZM1070.22 485.06L1059.54 483.724L1059.29 485.708L1069.98 487.044L1070.22 485.06ZM1060.22 484.128L1049.53 469.431L1047.91 470.607L1058.6 485.304L1060.22 484.128ZM1049.58 469.504L1045.57 462.824L1043.86 463.853L1047.86 470.533L1049.58 469.504ZM1045.35 462.564L1030.65 450.539L1029.38 452.087L1044.08 464.112L1045.35 462.564ZM1030.85 450.758L1028.18 446.75L1026.51 447.86L1029.18 451.868L1030.85 450.758ZM1027.37 446.305L972.588 444.969L972.539 446.968L1027.32 448.305L1027.37 446.305ZM972.737 444.984L950.023 440.976L949.676 442.945L972.39 446.953L972.737 444.984ZM950.557 441.253L942.54 433.237L941.126 434.651L949.143 442.667L950.557 441.253ZM941.9 432.946L921.858 431.61L921.725 433.605L941.766 434.941L941.9 432.946ZM922.262 431.725L902.22 421.036L901.279 422.801L921.321 433.49L922.262 431.725ZM902.482 421.238L885.113 402.533L883.647 403.893L901.017 422.599L902.482 421.238ZM884.622 402.243L873.944 399.573L873.459 401.513L884.137 404.183L884.622 402.243ZM967.839 469.381L967.847 469.388L969.264 467.977L969.256 467.969L967.839 469.381ZM967.579 468.466L964.907 480.491L966.859 480.925L969.531 468.9L967.579 468.466ZM965.072 480.122L947.703 504.172L949.324 505.343L966.694 481.293L965.072 480.122ZM947.932 503.944L929.227 517.305L930.389 518.933L949.095 505.572L947.932 503.944ZM929.293 517.262L915.932 525.278L916.961 526.993L930.322 518.977L929.293 517.262ZM915.968 525.258L901.271 533.275L902.228 535.03L916.926 527.014L915.968 525.258ZM901.219 533.304L890.531 539.985L891.591 541.681L902.279 535L901.219 533.304ZM890.719 539.893L846.627 555.927L847.31 557.806L891.402 541.773L890.719 539.893ZM846.773 555.886L840.092 557.222L840.484 559.183L847.165 557.847L846.773 555.886ZM840.288 557.203H830.935V559.203H840.288V557.203ZM831.869 557.844L825.188 540.474L823.321 541.192L830.002 558.561L831.869 557.844ZM825.225 540.59L819.88 519.213L817.94 519.698L823.285 541.076L825.225 540.59ZM819.76 518.929L802.391 490.87L800.69 491.923L818.06 519.981L819.76 518.929ZM802.248 490.69L794.231 482.673L792.817 484.087L800.834 492.104L802.248 490.69ZM794.473 483.064L787.792 463.022L785.895 463.654L792.575 483.696L794.473 483.064ZM787.669 462.774L770.299 437.387L768.649 438.517L786.018 463.903L787.669 462.774ZM770.293 437.379L760.94 424.017L759.302 425.164L768.655 438.525L770.293 437.379ZM760.788 423.846L745.037 409.755L743.704 411.245L759.454 425.336L760.788 423.846ZM763.951 338.095L749.253 340.768L749.611 342.735L764.308 340.063L763.951 338.095ZM748.725 341.044L747.389 342.381L748.803 343.795L750.139 342.459L748.725 341.044ZM748.096 342.088H736.071V344.088H748.096V342.088ZM736.778 342.381L732.77 338.372L731.356 339.786L735.364 343.795L736.778 342.381ZM732.063 338.079H720.038V340.079H732.063V338.079ZM719.927 338.085L707.902 339.422L708.123 341.409L720.148 340.073L719.927 338.085ZM708.3 339.458L694.939 335.449L694.364 337.365L707.725 341.373L708.3 339.458ZM695.499 335.877L688.819 325.188L687.123 326.248L693.803 336.937L695.499 335.877ZM688.941 325.476L684.933 309.442L682.992 309.927L687.001 325.961L688.941 325.476ZM684.837 309.199L678.156 297.174L676.408 298.145L683.088 310.17L684.837 309.199ZM677.117 296.673L661.084 299.346L661.413 301.318L677.446 298.646L677.117 296.673ZM660.877 299.403L654.209 302.071L654.951 303.928L661.62 301.26L660.877 299.403ZM656.289 311.329L656.292 311.338L658.188 310.704L658.185 310.695L656.289 311.329ZM664.69 322.534L664.702 322.542L665.812 320.878L665.801 320.871L664.69 322.534ZM664.308 321.394L662.972 325.402L664.869 326.034L666.205 322.026L664.308 321.394ZM663.296 324.937L656.615 330.282L657.865 331.843L664.545 326.499L663.296 324.937ZM656.291 330.746L654.955 334.755L656.853 335.387L658.189 331.379L656.291 330.746ZM655.904 334.071H646.551V336.071H655.904V334.071ZM647.258 334.364L641.914 329.019L640.5 330.434L645.844 335.778L647.258 334.364ZM642.078 329.236L630.053 307.858L628.31 308.839L640.335 330.217L642.078 329.236ZM629.889 307.642L624.544 302.297L623.13 303.711L628.475 309.056L629.889 307.642ZM624.828 302.872L622.156 282.83L620.174 283.095L622.846 303.136L624.828 302.872ZM621.695 282.114L600.317 268.753L599.257 270.449L620.635 283.81L621.695 282.114ZM600.401 268.812L588.376 259.459L587.148 261.038L599.173 270.391L600.401 268.812ZM588.53 259.608L581.85 251.592L580.313 252.872L586.994 260.889L588.53 259.608ZM581.529 251.337L570.84 245.993L569.945 247.782L580.634 253.126L581.529 251.337ZM570.635 245.917L565.314 244.587L564.829 246.527L570.15 247.857L570.635 245.917ZM612.148 301.626V301.668H614.148V301.626H612.148ZM613.024 300.676L603.671 301.845L603.919 303.829L613.272 302.66L613.024 300.676ZM602.795 318.996V319.038H604.795V318.996H602.795ZM603.599 318.057L596.919 319.393L597.311 321.354L603.992 320.018L603.599 318.057ZM598.095 320.178L595.423 306.816L593.462 307.209L596.134 320.57L598.095 320.178ZM595.007 306.187L569.621 288.818L568.492 290.468L593.878 307.838L595.007 306.187ZM569.67 288.854L557.645 279.501L556.417 281.08L568.442 290.432L569.67 288.854ZM557.775 279.621L545.75 266.26L544.263 267.598L556.288 280.959L557.775 279.621ZM545.976 266.686L544.64 261.342L542.7 261.827L544.036 267.172L545.976 266.686ZM543.58 260.589L528.882 261.925L529.063 263.917L543.761 262.58L543.58 260.589ZM528.443 262.073L517.754 268.753L518.814 270.449L529.503 263.769L528.443 262.073ZM518.236 268.602L490.178 269.939L490.273 271.936L518.331 270.6L518.236 268.602ZM489.284 270.601L482.603 289.307L484.487 289.979L491.167 271.274L489.284 270.601ZM483.229 288.694L467.195 294.039L467.828 295.936L483.861 290.592L483.229 288.694ZM466.617 294.54L459.936 307.901L461.725 308.796L468.406 295.435L466.617 294.54ZM459.866 308.086L455.858 322.783L457.787 323.309L461.796 308.612L459.866 308.086ZM456.154 322.303L442.792 334.328L444.13 335.814L457.492 323.789L456.154 322.303ZM443.219 334.101L421.841 339.445L422.326 341.386L443.704 336.041L443.219 334.101ZM422.084 339.415H406.05V341.415H422.084V339.415ZM406.421 339.487L386.38 331.47L385.637 333.327L405.679 341.344L406.421 339.487ZM386.945 332.048L382.936 321.359L381.064 322.061L385.072 332.75L386.945 332.048ZM383 321.71V321.668H381V321.71H383ZM446.953 236.961L437.6 223.6L435.962 224.747L445.314 238.108L446.953 236.961ZM437.26 223.295L422.562 215.279L421.605 217.034L436.302 225.051L437.26 223.295ZM423.084 216.157V216.115H421.084V216.157H423.084ZM535.277 143.724L531.279 127.73L529.339 128.215L533.337 144.209L535.277 143.724ZM531.309 127.973V127.931H529.309V127.973H531.309ZM567.327 122.293L561.995 104.965L560.084 105.553L565.415 122.881L567.327 122.293ZM561.934 104.812L553.917 88.7783L552.129 89.6727L560.145 105.706L561.934 104.812ZM554.004 89.0294L552.667 82.3488L550.706 82.741L552.042 89.4216L554.004 89.0294ZM551.336 81.6086L540.647 85.6169L541.349 87.4896L552.038 83.4812L551.336 81.6086ZM540.291 85.8461L533.61 92.5267L535.024 93.9409L541.705 87.2603L540.291 85.8461ZM534.185 92.2426L514.143 94.9148L514.408 96.8973L534.449 94.2251L534.185 92.2426ZM515.044 95.2659L508.363 87.2492L506.827 88.5295L513.507 96.5462L515.044 95.2659ZM508.569 87.6645L504.561 70.295L502.612 70.7447L506.621 88.1142L508.569 87.6645ZM504.587 70.5198V70.4781H502.587V70.5198H504.587Z" fill="#344A59" mask="url(#path-15-outside-1_7358_175270)"/>
  </g>
  <defs>
    <clipPath id="clip0_7358_175270">
      <rect width="1280" height="1280" fill="white"/>
    </clipPath>
  </defs>
</svg>
