<svg xmlns="http://www.w3.org/2000/svg" version="1.1" viewBox="0 0 1280 1280" width="512" height="512">
  <path transform="translate(0)" d="m0 0h1280v1280h-1280z" fill="#283c49"/>
  <path transform="translate(0)" d="m0 0h516l-3 3-18 11-10 8-4 7 1 5 7 7 8 15 10 20v4l-5 3h-2l2 8 6 2 2 1-2 6-14 22-12 20-11 14-6 7-9 7-8 6-3 4-14 2-16 1-2 6-2 1-12 2-13 6h-8l-2-1 3 7v3l-3 1-3-2 1-7-10-3h-9l-10 4-8 7-6 10-2 5v7l10 13 14 14 14 16 1 5v25l-7 14-5 4-15 8-3 1-2 4-13 10-4 2v-16l-11-3-3-5-7-8-10-9-10-6-6-1 1-5-3-3h-3l-1 11 3 1-4 5-6 10-4 13 3 7 7 8 6 9-1 2 4 6 13 8 14 14 2 7v26l8 1-2 12-5-3-10-5-5-3-9-11-8-10-3-12-12-26-4-5-8-4v-10l2-16 1-7v-14l-3-15-5-13-2-15-4-11h-3l-3 5-15 8-7 2h-5l1-19 1-13-4-2-6-10-9-10-6-9-4-9-6-9-4 1-5 6-10 2-10 3-12 1-8 3 1 9-10 6-6 3-7 6-7 8-17 16-10 9-13 8-6 4v34l-4 7-1 13-4 2-2 5-7 10-5 6h-2l-2 4-4 3h-2l-5-12-6-3z" fill="#344a59"/>
  <path transform="translate(736,562)" d="m0 0 3 3 9 23 3 15h9l1 3 5 2 4 18 4 8 2 2 2 13 4 8 10 6 9 6 7 8 9 19 5 2 6 1 1 10 4 5 8 5 9 12 4 5 2 21 3 12v14l-3 8-2 8-1 10-7 14-6 5-7 14-7 16-4 8-4 19-5 4-13 1-8 4-10 8-5 1-9-7-5-5-3 1-2 4-8 6-5-2-7-3-18-4-6-4-5-5-1-9-2-5-4-5-2-1 1-8-4 2-2 2h-3v-12l-2-4-3-1-2 5-3 6-4 2h-3l1-3 5-5 5-18v-5h-2l-6 9-11 10-4 8-4-2-4-11-7-10-3-3-2-6-13-4-11-3-8-3-20 1-24 7-15 2-14 6-5 3-6 9-4 1h-34l-16 8-8 5-12 1-10-3-9-7-2-5 2-3h3l1-2v-20l-6-15-3-17-7-17-5-13-2-5 7-1-1-7-6-15-1-5 3-9v-12l4-2h4l5-5 11-7 12-6 9-1 11-5 10-2 12-3 3-1 2-4 10-11 2-9-1-3 5-6 1-3h3l2 7h6l-1-9 5-1 6-1v-5l-1-2h4l-1-4h2l2-6 1-2 7-2 3-3 6-3 4-1 8 6 4 5 3 1 11 1 3 2-1-3h2l-2-5 1-4 6-10 3-6 7-5 13-1 5-1-1-6-1-2 4 1 4 3 13 3 5 2h6l5-1-1 4h5l1-3h3v6l-7 9-2 9-2 4v5l19 12 14 8 5 3v2l4 2 10 4 5-2 3-4 5-15 2-8v-21l5-20z" fill="#4dc5b3"/>
  <path transform="translate(616,449)" d="m0 0h26l2 4 3 14 4 6 4 5 5 2v-8l9-5 11-6 3-3 5 1 14 6 30 9 25 9 10 6 5 5 7 10 5 2 2-1 1-5 2 1-1 6 3 4 7 3-4 2-6 2 4 7 28 28 6 3 6 1v1l-10 1-16-4-11-1-8-10-7-7-9-7-2-1h-13l-7 4-5 3-1 3 1 4-9 1h-14l-10-7-5-4-7-1-6 2-2 1v-2l-8-1v-2l7-3h7l-2-4v-7h-2l-6-12-5-4-22-8-17-9-9-4 1 8-5 1v-9h-4v-3h-2v-3l6-1h10l-2-3-17-6-5-3-1-2-4-2-1-4z" fill="#344a59"/>
  <path transform="translate(448,367)" d="m0 0 8 1 10 8 12 6-1 2-5 3-6 6-7 4-1 1 1 9 5 9 7 13v2l-10 2-2 15-8 7-2 4-2 15-4 9-6 1v2l-7 2h-6v-8l-30-2-3-3-9-1-3 3-3-8-1-14h-5l-2-7-3-8-3-4v-7l4-7 1-1h16l2 1v4h2l1-8 4-8v-3l-2-1 10 1 15-6 2-10 4-2v2l4-4 1-2 8 1 3-3 3-6 5-6 1-3z" fill="#344a59"/>
  <path transform="translate(211,378)" d="m0 0 7 1 8 4 12 1 10 11 14 11 11 10 10 7 8 5 3 3 7 4 4 3v10l10 10 5 7 10 7 2 1-3-7-4-4 1-4 4 1 5 8 2 3-1 4-5 4-1 27h-14l-8-4-11-9-14-14-3-2-3-7-9-16-10-14-9-14-11-13-7-7-9-11-10-11z" fill="#344a59"/>
  <path transform="translate(1070,928)" d="m0 0 5 1 8 4 9 2-6 15-8 10-9 10-10 13-6 11-10 14-7 5h-8l-5-2-9-4-5-2-1-1v-7l3-8 9-9 8-6 5-2 9-7 7-6 8-10 10-17z" fill="#4dc5b3"/>
  <path transform="translate(695)" d="m0 0h23l-1 6-1 11-2 9-5 2-1-4-3 3-5 1-12 4-3 2h-9l-7 3-2 4h-2l1 4-5 2h-3l-1-4 2-6h-2v-4h-16l-5 4-13 2-2 3h-8l-7 1 1 4 7 3-2 5-5 1-1 4-3 1v-6l-7 1v-4l3-1 3-9 9-2 6-4 6-3 2-10 4 1 2 4 2 1-1-7h3l1 1h10l5-4 3 1v3h5l5-3 2-9 8-6 11-1z" fill="#344a59"/>
  <path transform="translate(1080,852)" d="m0 0 4 1 9 9 2 7 4 6 4 3 4 1 5 5 1 3 5 2 3 2 7-1 3-4 4 1v7l-2 5-10 7-1 1-2 16-10 11-6 6-8-4 2-5 3-7-1-5-8-6-8-3 6-7 4-8 1-3v-13l-8-13-7-10z" fill="#4dc5b3"/>
  <path transform="translate(484,445)" d="m0 0h3l4 6 4 5 7-1 5-4 18-2 1 3-13 2-2 4-8 4 2 5 7 11 8 16 1 4-4 2 1 4-4-1-7-10-12-20-3-2-1 3v32l-10-2-1-23-8-1 2-6 5-11 2-13z" fill="#344a59"/>
  <path transform="translate(328,510)" d="m0 0 20 1 15 4 37 2 8 4-1 2-3 1v3l13 3 3-1 5 5v2l-5 1-10-3h-9l-10-1h-5l-1-4h-11l-20-2-11-3-12-5-3-2z" fill="#344a59"/>
  <path transform="translate(560)" d="m0 0h31v26l-12 5-16 6-4 1z" fill="#344a59"/>
  <path transform="translate(800,928)" d="m0 0 1 4-2 16-3 8-9 9-6 1-6-3-4-5-10-27v-2l8 1 11 4 18-5z" fill="#4dc5b3"/>
  <path transform="translate(495,231)" d="m0 0 10 1 5 3 2 7-1 13-4 5-3 8v5h2l-2 5v2 2h3v2l-5 1-3 1v-3l-5-2-1-2-4-2-2-3-4-1 1-6 5-10 4-24z" fill="#344a59"/>
  <path transform="translate(548,336)" d="m0 0h2v2l4-1 5 19v6l-3 2-4-3v-7l-1 7h-2v3l-5 1 1 4 8 2v3l-4 1h-12l-5-3 1-10-1-6-5-1-3 1v-2l-12 3v-4l10-4 2-5h2l3 6h4l1-5 5-2 7-3v-3z" fill="#344a59"/>
  <path transform="translate(42,332)" d="m0 0 4 1 7 8 8 13 1 10-2 5-9 5h-9l-2-5v-22l1-12z" fill="#344a59"/>
  <path transform="translate(502,150)" d="m0 0 3 1v3l2 1-2 4-1 5 2 6-5 2v1l5-1-1 4-6 3v-2h-2l1 3-3 8h-2l-2-8-2-1-1-5 12-22h2z" fill="#344a59"/>
  <path transform="translate(380,211)" d="m0 0 2 1 1 9-3 5-5 5-5 3-6-1-2-3 1-8 5-7 11-3z" fill="#344a59"/>
  <path transform="translate(539,425)" d="m0 0h3l-1 9-3 2-47 1-2 1-2 4h-1l-1-8 3-1h9v-3h13v2l24 1 5 1z" fill="#344a59"/>
  <path transform="translate(850,485)" d="m0 0 8 2v2l-7 1-8 6-9 10h-2v3h-20l-8-3v-1l26-1 5-3 4-8 1-5h2l2 3 6-3z" fill="#344a59"/>
  <path transform="translate(614,55)" d="m0 0 4 1-2 7-3 3-2 8-3 3h-3l1-7-1 2-5-2v-5l8-4 4-5z" fill="#344a59"/>
  <path transform="translate(510,308)" d="m0 0 7 4 2 9h3v-2h2v4l3 1v1h-5l1 6 3 3-4 1-9 1 4-6 2-1 1-3-4 3-5-1v-1l6-2-1-5-2-3-4 2 2-7h-2z" fill="#344a59"/>
  <path transform="translate(604,41)" d="m0 0h6v2h-4l1 4 7 3-2 5-5 1-1 4-3 1v-6l-7 1v-4l3-1 3-9z" fill="#344a59"/>
  <path transform="translate(645,40)" d="m0 0 3 1-1 4-8 3-4 2-3 8-4-1v-3l-4-2v-2l9-5 3-2 4-1z" fill="#344a59"/>
  <path transform="translate(588,473)" d="m0 0 7 1 1 1 10 1v4l-13-1-36-1v-2l30-1z" fill="#344a59"/>
  <path transform="translate(544,537)" d="m0 0 24 2v2h-19l-2-1-2 4-2 2-2 6-3-3-3 2h-3l-1 3-2-1 2-4 7-3h3l2-4 2-1 1-3z" fill="#344a59"/>
  <path transform="translate(491,534)" d="m0 0 3 1v2l8-1 36-1 4 2-46 2h-15v-2l9-1z" fill="#344a59"/>
  <path transform="translate(445,534)" d="m0 0h3v4l18-1 2-3 2 2 7 1 1 2-15 1-5 2-10-1-5-2z" fill="#344a59"/>
  <path transform="translate(516,280)" d="m0 0 6 2 2 3-1 1 3 1v-4l-3-2h5l2 4v2l-3 3v3l5 2 1 2-7-2-1-5h-2v-2h-6l-4 1-1-3 8-1-1-2-3-1-1 2v-3z" fill="#344a59"/>
  <path transform="translate(572,416)" d="m0 0 4 1v21l-4 1z" fill="#344a59"/>
  <path transform="translate(850,485)" d="m0 0 8 2v2l-7 1-8 6-6 5 1-6 2-7h2l2 3 6-3z" fill="#344a59"/>
  <path transform="translate(539,425)" d="m0 0h3l-1 9-3 2h-23v-1h11v-2h8l5 1z" fill="#344a59"/>
  <path transform="translate(406,736)" d="m0 0 5 1 5 2 1 6 4-1v-6l2 3-1 5h-7l-1 2-2-5z" fill="#C0C1C1"/>
  <path transform="translate(469,546)" d="m0 0 16 1v3l7 1 4 3v2h-3v-2l-5-1-19-6z" fill="#344a59"/>
  <path transform="translate(684,860)" d="m0 0 3 2-1 2-4 1h-10v-3z" fill="#4dc5b3"/>
  <path transform="translate(600,569)" d="m0 0h14l-3 7-2-2v-1l-10-2z" fill="#344a59"/>
  <path transform="translate(536,299)" d="m0 0 7 2 3 5 2 7-3-1-2-5-3-2v-2l-3-1z" fill="#344a59"/>
  <path transform="translate(497,292)" d="m0 0h5l-1 8-2 2h-3l1-4 1-2h-2z" fill="#344a59"/>
  <path transform="translate(554,538)" d="m0 0 14 1v2h-17z" fill="#344a59"/>
  <path transform="translate(496,177)" d="m0 0 2 3-3 8h-2l-1-2v-6z" fill="#344a59"/>
  <path transform="translate(541,308)" d="m0 0 2 4v9l1 3h-3l-2-8 1-7z" fill="#344a59"/>
  <path transform="translate(850,731)" d="m0 0 5 1 1 5-1 14h-1l-1-15z" fill="#344a59"/>
  <path transform="translate(467,534)" d="m0 0 3 2 7 1 1 2h-14l-1-2h3z" fill="#344a59"/>
  <path transform="translate(663,443)" d="m0 0 2 2v15l1 2-4 1-1-2 1-4z" fill="#344a59"/>
  <path transform="translate(375,199)" d="m0 0 4 5v3l-3 1-3-2z" fill="#344a59"/>
  <path transform="translate(548,605)" d="m0 0h3l-1 3h-2l-1 3h-3v2l-2-1 3-6z" fill="#344a59"/>
  <path transform="translate(438,813)" d="m0 0h1v20l-3 3-2-2 3-2z" fill="#344a59"/>
  <path transform="translate(665,598)" d="m0 0h9l-1 5-5-2z" fill="#BDBEBE"/>
  <path transform="translate(1080,852)" d="m0 0 4 1 1 4 2 1v2l-4-2-3-2z" fill="#929393"/>
  <path transform="translate(850,485)" d="m0 0 8 2v2l-7 1-5 2 4-4z" fill="#344a59"/>
  <path transform="translate(518,351)" d="m0 0m-4 1h4l1 3-7 2v-4z" fill="#344a59"/>
  <path transform="translate(183,290)" d="m0 0h3l-1 12-2 1z" fill="#344a59"/>
  <path transform="translate(874,506)" d="m0 0 4 2 5 5 1 3-4-2-1-2-3-1v-3h-2z" fill="#344a59"/>
</svg>
