<svg xmlns="http://www.w3.org/2000/svg" viewBox="0 0 512 512" width="6rem" height="6rem">
  <g clip-path="url(#clip0_7360_175414)">
    <path d="M0 2.625H512V509.375H0V2.625Z" fill="#4dc5b3"/>
    <path d="M187 409.5L246.5 441.5L351 420L368.5 412.5L428 403.5H439.5L429.5 368.5L433 362L456.5 368.5L496 365.5L513 356L520.5 509.5H0V102.5L32.5 137.5L24 314.5L32.5 403.5L57.5 420.5H81L105 415.5L152 403.5L187 409.5Z" fill="#344A59" stroke="black"/>
    <path d="M0 2.625H512V101.875L496.25 102.125L477.75 104.625L472.75 105.375H471.25V101.875L464 102.125L453.25 105.625L443.75 108.875L441 110.625L432.5 116.625L429.5 118.125L417 122.375L415.5 122.625L414.75 119.375L413.75 112.625L414 112.375L420.5 112.125V107.375L417.5 106.125L410.75 103.875H410.25L407 110.375L406.75 127.875L406.25 128.875H405.75L405.5 129.625L404.5 129.875L397.5 128.875L393 128.125L388.75 131.125L384.75 133.875L381 136.625L380 140.625L377.75 151.875L377 154.125L370.5 151.625L367.25 150.625L356.5 149.125L356.25 154.125L363 155.375L365 155.875L366.5 158.625V159.375L361.25 160.375L357 161.125L355.75 160.875L353.25 158.625L350.75 156.625L347 153.375L345.75 152.125L343.75 136.625L341.25 134.125L339.75 132.375L338.5 131.375L337.25 130.125L335.75 128.375V127.875H341L344.25 128.375L362 132.875L363.25 133.125H377L379.75 131.625L385.75 127.875L387.25 120.375V118.875L385 115.125L382.25 110.625L376 107.875L364.25 102.875L358 100.375L349 98.375L336.25 95.625L311.75 89.875L311 89.375V84.375L313.75 82.875L314 82.375L311 81.875L305.75 80.375L302.75 79.375H300.5L291.5 81.125L290 81.375L287.25 80.375L284.25 79.375H281L274.25 80.375L269 81.375L264 83.625L258 86.625L252 89.375L251 89.625L239.75 89.875L234.75 92.125L226.25 96.375L225 97.875L223 102.125L221.5 104.125L218 107.375L215.25 109.625L212 112.625L208 116.125L204.25 121.125L200.25 126.375L197.25 130.625L189.25 143.625L186 148.875L183 153.625L177 162.625L174.5 163.875L167.75 166.625L160.5 170.875L156.5 173.375L151.25 176.625L148.75 178.875L144 183.625L143.75 185.375V192.125L144 200.125L146 210.375L147.5 217.125L150.5 221.125L152.25 223.625L155.5 223.375L167.5 221.875L168.75 221.125L174.75 215.125L178 214.125L181.25 213.375L182.25 213.625L185.25 222.625L187.25 226.625L190.25 231.625L191.75 235.625L194 243.625V244.875L188.5 245.125L182.5 247.375L178.75 248.625L175.75 249.375H174.5L175.5 248.625L179.75 246.625L179.5 244.625L178.5 241.375L179 237.375L180 231.125L170.25 232.625L169.25 233.625L166.75 237.375L165.75 241.125L165 245.125V247.125L168 256.375L169.75 261.625V262.125L158.75 264.125L147 267.625L142.25 269.125L141 271.625L138.75 277.125L137 279.125L134.25 281.625L131.5 283.875L129 286.125L126.25 288.375L118 296.625L114.75 298.625L108.25 302.375L102.5 305.625L96.5 309.125L93 310.875L88 311.625L80 312.625H79.25L79.5 317.875L84.75 320.875L91.25 324.625L93.75 327.875L99.75 336.375L100.25 338.125V345.375L99.75 348.875L97 356.875L96.25 357.875H53.25L51 358.375L49.75 360.125L49.25 368.375L48 398.375L48.25 400.625L51.25 409.625L52.25 410.375L68.5 416.875H76L93 413.875L95.5 413.125L98.75 410.125L101.5 407.875L104.25 405.375L106.25 403.625H106.75L107.5 400.875L110.25 390.125L112.25 386.125L115.5 380.875L116.75 380.125L127.5 377.125H128L128.75 374.375L132 364.375L133.25 361.375L154 361.125L157 359.625L163 356.125L166.25 354.375H175L177.25 358.375L180.25 361.625L182.5 364.375L185.25 367.375L187.5 370.125L189.5 372.125L199.25 378.625L207.75 384.625L212.75 388.125L216.25 390.625L217 391.375L218.75 401.125L223 399.875H223.75L222.25 389.875L222 387.875L222.25 387.375L229.75 385.875L230.5 385.625V381.875L229.25 381.375L221.75 376.375L218.25 374.375L206.75 368.625L206 367.625L204.5 363.375L202 360.125L199.25 356.625L197.5 354.125L194.75 348.125L192.5 342.625V342.375H196L198.25 343.375L204.5 346.375L206.5 347.625L208.75 350.125L211.25 353.375L213.5 356.125L218.75 359.625L223 362.375L227.75 365.375L232 368.125L236.75 371.125L237.75 371.875L238.5 377.125L239.5 386.375L240 387.875L244.5 392.375L247 396.625L251 404.125L254 409.625L255.5 411.875L264 413.625L264.5 411.375L265.75 408.125L269.75 405.125L272 403.375L271.75 402.125H271.25L270.25 400.875L269 400.125L267.75 404.375L267 405.125H265L264 404.875L264.25 401.875L265.25 396.125V394.125L262.25 388.125L262.5 387.375L267.25 385.375L271.75 383.875L281 382.125L282 383.125L285.75 389.875L287.75 393.375L288.5 395.125L290.25 404.875L292.75 409.375L295.25 413.375L300 414.875L307 416.875L309.25 416.625L315.75 415.375H325L328.25 418.625L329 418.875H334.75L337.25 418.625L338.25 417.375L339.75 416.875L350 415.375H351L350.5 420.125L349.5 426.875L347.25 436.375L345 444.375L341 456.125L340.5 457.125H335.75L318 455.875L315.25 455.625H312.75L309.75 458.625L308.75 458.875L298.5 456.625L287.5 454.125L275.25 450.125L263.5 446.125L261.25 445.375L259.75 445.125H250.5L249.25 445.875L247 448.125L246 450.625L243.25 460.125L242.75 460.875H232.75L228 458.625L215.75 454.125L213.75 452.625L209.5 448.375V447.875L208.5 447.375L206.5 446.875L195 445.125L191.25 443.875L182.5 440.125L182 439.875L181.75 414.125L179.75 413.375L175.5 412.125H172.25L161.25 412.875L143.75 414.375L117.5 417.125L114.5 417.875L97.5 425.625L96.75 425.875H80.25L69.25 422.625H68.75L67 426.375L64 435.125L63.25 436.375H60.5L59 437.375L56.25 439.875L53.5 442.125L50.5 444.875L48.5 446.625L46.25 448.625L44.25 454.875L40.25 467.875L39.25 470.875L37 472.875L32.75 475.875L28 479.375L23.5 482.625L20.5 484.875L18.5 487.125L15 491.875L11.75 496.125L9.5 499.375L7 504.125L5 508.375L4.25 509.375H0V2.625Z" fill="#2E3D48"/>
    <path d="M77.5 220.375H86.25L87 221.625L88.5 223.625L89.25 225.125L90.75 227.375L91.5 228.625L94.75 229.125L94.5 233.125L93.75 238.375L93.5 241.125L93.25 242.375L94.25 243.875L101.75 251.375L103.5 253.875L105 256.125L107 258.875L110 263.375L112.25 266.375L114 268.875L115.5 270.875L117.25 272.875L118.25 274.375L120.75 277.125V279.125L118 287.125L117 288.625L116 289.625L114.5 290.375L112.25 291.875L106.75 292.625L103.25 292.875L98.5 293.625L89.5 294.625L82 295.875L77 296.875H76L76.5 295.625L80.25 289.125L81 287.625L82.5 281.875V281.375L78 279.875L77.5 279.625L77.75 276.875L78.25 274.625L78.75 270.625L79.5 269.125L83 267.375L85.25 266.625L87.5 265.625L87.25 263.125L86 258.875L84.75 257.625L82.25 255.625L78.75 252.875L76.25 250.375L75.5 248.875L74.5 247.625L73.25 245.625L72.5 244.375L71 242.375L70.5 241.375V228.875L73.25 223.375L74.5 221.875L77.5 220.375Z" fill="#4dc5b3"/>
    <path d="M511.5 6.875H512V29.625L505.5 34.625L492 48.125L491.25 49.625L490.25 50.875L488.75 53.875L487.75 55.125L486.75 56.625L485 59.375L484.25 60.875L483.25 62.375L482.25 65.125L481.25 67.375L480.5 69.625L480 70.625L481.5 71.125L485.5 73.125L487 74.125L488.25 75.625L490 77.875L492 80.625L491.5 82.375L490.75 84.125H488.75L482.25 82.375L474 80.125L471 79.125L466 74.125L464.5 73.375L462.25 72.625L460 71.625L457.5 70.625L457.75 69.375L459 67.375L459.5 65.875L460.25 64.375L462.75 60.125L464.75 57.375L468.5 51.125L469.5 49.875L470.5 48.125L473.5 43.625L477 39.125L479 36.375L480.5 34.625L482.5 31.875L483.5 30.625L486.5 26.625L488.25 24.625L490.25 21.875L493.25 19.375L497.5 16.125L500.25 13.875L505 10.375L506.25 9.375L509.25 8.125L511.5 6.875Z" fill="#4dc5b3"/>
    <path d="M436.5 464.375L439.5 464.625L444.5 465.625L446 466.625L448.25 469.125L450.5 471.875L453.75 475.375L456 478.125L459 481.375L461.5 482.875L467.25 485.625L476.25 490.125L490.5 490.375L496.25 496.125L497.75 497.125L503.75 498.125L512 499.375V509.375H498.25L493.75 506.875L492.25 505.875L491.5 504.625L488.75 497.875L488.5 497.625H483.25L475.25 505.625L473 506.375L465.25 507.625L463.75 507.375L461.5 505.375L458.75 503.125L455 499.875L453 498.125L451.25 496.375L444 485.375L439 477.875L438 475.875L436.75 467.875L436.5 464.375Z" fill="#2E3D48"/>
    <path d="M66 248.375L67.25 248.625L72.25 253.625L71.25 257.875L70.25 261.375L69.25 264.375L68.25 268.375L68 271.375L67.25 274.125V276.125L53.75 282.875L48.75 284.125L46 284.625H44.25L42.75 281.875V278.625L44 269.375L44.5 265.875L45.75 259.625L46.5 258.375L49 256.625L52 254.875L55.5 252.625L58.5 250.875L61 249.625L66 248.375Z" fill="#4dc5b3"/>
    <path d="M337.25 479.875L343.5 481.875L347.25 483.125L349.25 485.625L356.5 496.625L363.75 507.375L364.75 508.875V509.375H348.25L346.25 505.375L343.5 500.125L341.75 495.875L338.5 485.125L337.25 480.875V479.875Z" fill="#2E3D48"/>
    <path d="M0 130.125H1.75L7.25 131.375L9.25 133.125L12 136.625L14.5 139.875L15.5 143.875L16.25 147.375V149.125L14.5 150.875L14.25 151.375H13.75L13.25 152.375L10.5 155.125H10V155.625L7.25 157.875L0.25 161.375H0V130.125Z" fill="#344A59"/>
    <path d="M194.25 403.125H215.25L214.75 404.125L212.75 406.875L209 412.625L208.5 413.625L207 413.375L203.25 412.125L200.75 409.875L195 404.125L194.25 403.625V403.125Z" fill="#4dc5b3"/>
    <path d="M172.5 378.625L173.25 378.875L174.5 386.625L175 391.125L167.75 392.625H166.5L166.25 392.375V382.375L169.75 378.875L172.5 378.625Z" fill="#4dc5b3"/>
    <path d="M50 357.875L50.75 358.125L50.5 359.125L49.75 360.125L49.25 368.375L48 398.375L48.25 400.625L51.25 409.625L52.25 410.375L61.5 414.125L61.75 414.625H60.25L59.75 414.375V413.875L58 413.625L56.5 413.125L55.5 412.875V412.375L54 412.125L51.5 411.125L50.25 409.875V409.125H49.75L48 404.875L47 401.875L46.25 400.125L46 398.625V396.125L46.25 393.625L46.5 388.125L46.75 384.375L47 383.875L46.75 377.625V373.875L47 373.375L47.25 368.625V362.375L47.75 360.125L48.5 358.875L50 357.875Z" fill="#4dc5b3"/>
    <path d="M176.5 161.375H177.25L177 162.625L174.5 163.875L167.75 166.625L160.5 170.875L156.5 173.375L151.25 176.625L148.75 178.875L144 183.625L143.75 185.375L143.5 189.625V194.625L143.75 201.875H143.25L142.5 199.875L142 196.875V184.375L142.5 182.625H143L143.5 181.375L145.25 179.875L146.5 178.375L147.5 177.625H148L148.5 176.625L149 175.875L150.25 175.625V175.125L152 173.875H152.75V173.375L154.75 172.375H155.5V171.875L158.25 170.375L160.25 169.375L160.75 168.875H161.25L161.75 168.125H162.75L163.5 167.375H164L164.5 166.375L165.75 165.875L168 165.125L169.5 164.375H171.25V163.875L174.5 162.625L175.5 162.125L176.5 161.375Z" fill="#293545"/>
    <path d="M443.5 465.875H445L446.75 467.375L449 470.125L452 473.375L454.25 476.125L457.25 479.375L459 481.375L461.5 482.875L467.25 485.625L475.25 489.625L475.5 490.375L473 489.625L472.25 488.875H471.5L470.75 488.125L469.75 487.875V487.375L468 487.125V486.625L466.25 486.375L465.5 485.625L464.5 485.375V484.875L462.75 484.625V484.125L461.25 483.875L459.5 483.125V482.625L457.75 482.375V481.875L457 481.625L455.25 479.625L453.75 477.875L452.5 476.875V476.125L451.25 475.125L449.5 473.125L448 471.375L447.25 470.375V469.875L446.25 469.375L445.75 468.125L444.75 467.625L444 466.875L443.5 465.875Z" fill="#2A3545"/>
    <path d="M208.5 351.375L210.25 352.125L213.5 356.125L218.75 359.625L223 362.375L227.75 365.375L232 368.125L236.75 371.125L237.5 371.625V373.625L235.75 372.625L235 371.375L233.5 370.375L231.5 369.375L228.75 367.625L226.25 365.875L224 364.375L222.5 363.625L220 361.875L218 360.875L217 359.875L215.25 359.375L214.25 358.375L212.25 356.625V356.125L211.5 355.875V355.375L210.5 354.875L209.75 353.375L208.5 351.875V351.375Z" fill="#2A3545"/>
    <path d="M507.5 86.375L509 86.625L512 87.875V93.375L510.5 92.875L505.75 90.375L504.5 89.625L506 87.875L507.5 86.375Z" fill="#4dc5b3"/>
    <path d="M462.5 101.625H463.75L463 101.875V102.375L445.75 108.125L442.75 109.375L438.5 112.375L434 115.625L430.75 117.625L428.75 117.875L429.5 117.125L430.75 116.375H431.25V115.875H431.75V115.375L433 115.125L434.75 113.125L436 112.625L436.5 112.125L437.5 111.625V111.125L439.75 110.125L441 109.125H441.75L444 107.875H444.5V107.375L449.75 105.875L458.75 102.875L462.5 101.625Z" fill="#2A3545"/>
    <path d="M38.5 470.125H39L38.5 471.625L35.25 474.125L31.75 476.625L27 480.125L21.75 483.875H20.75L21.25 482.625L22 482.375L22.25 481.625L23.25 480.625L24 480.125H24.75V479.625L27.25 477.875L28 477.125L29.25 476.375L30.5 475.375H31V474.875L33 473.625L33.25 473.125L34.75 472.375L35.5 471.875L37 471.375L38 470.625H38.5V470.125Z" fill="#293545"/>
    <path d="M185.5 368.875L186.5 369.375L190.5 372.875L201 379.875L205.25 382.875L210.25 386.375L213 388.375L212.75 388.875L211 388.375L209.75 387.375L208.25 386.375L207 385.375L205.75 384.625L204.75 383.875V383.375L203.25 382.875L202.25 382.125V381.625H201.75V381.125L200.25 380.875V380.375L199.25 379.875V379.375L197.75 379.125V378.625L196.75 378.125V377.625L195.25 377.375L194 376.125L192.5 375.625L191 374.375L188.75 373.125L186.5 371.125L185.5 369.875V368.875Z" fill="#2A3645"/>
    <path d="M348.5 486.125L349.5 486.625L350.75 487.875L358 498.875L364.75 508.875V509.375H363.75V508.875L363 508.625L362.25 507.375L362 506.125H361.5L361 504.875L360.25 504.625V503.875H359.75L359.5 502.875L359 502.625L357.5 500.625V499.875H357L355.25 497.125L355 496.375H354.5L353.75 494.625L353.5 493.875L352.75 493.625L352.25 492.375L351.75 491.375L351 491.125L350.5 489.875L350.25 488.875L349.5 488.625L349 487.375L348.5 486.125Z" fill="#2A3645"/>
    <path d="M79.5 318.375L80.75 318.625L87 322.125L91.25 324.625L93.75 327.875L96.75 332.125L98.25 334.125L99 335.875L99.5 336.625V337.375L98.5 337.625L98.25 336.625L96.75 334.125L95 331.875L94.25 331.125L92.5 328.125L90.25 326.125L88.5 324.125V323.625L87 323.375L86.5 322.875L85 322.375L83 321.375L81 319.875V319.375L79.75 318.875L79.5 318.375Z" fill="#2A3645"/>
    <path d="M317 90.625H318.75L321.25 91.125L323.5 91.875L325 92.125L331.25 93.375L335.5 94.375L337.5 94.875L340.25 95.375L342 95.875L345.5 96.625L347.25 96.875L349 97.375L353.25 98.375L355 98.875V99.125H352.75L339.5 96.375L317 91.125V90.625Z" fill="#2A3646"/>
    <path d="M56.5 437.625H58L57.25 438.875L54.5 441.375L52.5 443.125L49 446.125L46.5 448.375L45.25 448.125L45.75 446.625L47.5 445.125L49.75 443.375L50.75 442.875L51 442.125L53 440.375H53.5V439.875L54.25 439.125L55 438.875L56 437.875L56.5 437.625Z" fill="#293545"/>
    <path d="M268 80.125L269.75 80.625L269 80.875V81.375L264 83.625L258 86.625L252.5 89.125H251L251.25 88.625L254 87.625L256.25 85.875L258.75 84.875L259.75 83.875L260.75 83.625L262.25 82.875H262.75V82.375L264.25 81.875L268 80.125Z" fill="#2A3545"/>
    <path d="M280.75 382.125L281.75 382.625L284.75 388.125L287 391.875L286.75 393.125L286.25 392.875V392.125H285.75L284 389.375L283 388.125L282.5 386.625L281.75 386.375L281.5 385.375L280.75 384.625V384.125L278.25 383.875L276 384.125L275.25 383.625L275.5 383.125L280.75 382.125Z" fill="#2A3545"/>
    <path d="M268.5 447.125L270.75 447.625L278 450.125L280.5 450.875L282.5 451.625L287.5 453.125L290.75 453.875L294.5 454.875L296.75 455.375L298.5 455.875V456.125H296.5L286.75 453.875L276 450.375L268.75 447.875L268.5 447.125Z" fill="#2A3746"/>
    <path d="M346.5 434.125L347.25 434.625L346.25 438.875L345.75 441.875L345.25 443.625H344.75L344 446.375L342.5 450.625L342 451.375L341.5 450.875V449.375L342 449.125L342.5 447.125L343 445.375L343.75 443.125L344.5 441.625L344.75 439.875L345.25 438.125L346 436.375L346.25 435.375L346.5 434.125Z" fill="#293445"/>
    <path d="M350 415.375H351L350.5 420.125L349.75 420.375L349.25 419.375L349 417.125H347.25L345.25 417.625H342.75L341.75 417.375H340.25L341.25 416.875L343 416.375L350 415.375Z" fill="#2A3545"/>
    <path d="M219.75 104.375L220.25 104.875L218 107.375L215.25 109.625L212 112.625L210.5 113.875L209.25 114.625L208.5 114.375L209.5 112.875L210.5 112.125L211.75 111.625L213 110.125L213.75 109.375L214.5 109.125L214.75 108.125L216 106.875H216.5V106.375H217V105.875L218.25 105.125H218.75L219 104.625L219.75 104.375Z" fill="#2A3646"/>
    <path d="M462.5 101.625H463.75L463 101.875V102.375L445.75 108.125L442.75 109.375L442 109.625L442.25 108.875L444 107.875H444.5V107.375L449.75 105.875L458.75 102.875L462.5 101.625Z" fill="#2B3746"/>
    <path d="M184.75 223.375L185.25 223.875L186.75 225.625L190.25 231.625L190.75 232.625V233.625L189.5 233.125L189 232.125H188.5L188 230.875L186.5 228.625L184.75 225.125L184.5 223.875L184.75 223.375Z" fill="#293545"/>
    <path d="M237.75 89.375H239.25L238.25 90.125L236.75 90.625V91.125L226.75 96.125L225.5 96.625L224.75 96.875L224.5 95.875L227 95.125L227.25 94.375H227.75V93.875L230.25 93.125L231.25 92.375L233.5 91.625L237.75 89.375Z" fill="#2A3545"/>
    <path d="M208.5 446.875L209.5 447.125L214.25 451.875L217 453.625L226 457.125L226.75 457.625H225.25L215.25 453.875L212.75 451.625L209.5 448.375V447.875L208.5 447.375V446.875Z" fill="#2A3646"/>
    <path d="M154.75 360.875L155.75 361.125L155.5 361.625H154.5V362.125L152.5 362.375H146.25L142.75 362.625L138.75 362.375H137V361.625L154.25 361.375L154.75 360.875Z" fill="#293445"/>
    <path d="M57 250.625L58 250.875L57.75 251.625L53.75 253.875L50 256.375L47 258.125L45.75 257.875V257.375L47 257.625L47.25 256.875L48.25 256.375L48.5 255.875H49L49.25 255.125L51 254.125L52.25 253.375L52.75 252.625L55.25 252.125L57 250.625Z" fill="#2A3645"/>
    <path d="M133 361.625H135L135.5 362.125L133.75 362.625L133.25 364.125L132.75 365.375L132.25 367.375L130.75 371.625L129.75 373.625L129 375.625H128.75L129 373.625L132 364.375L133 361.625Z" fill="#2A3646"/>
    <path d="M360.5 100.625L362.25 101.125L366 102.625L372.75 105.625L374.5 106.375L376 107.125V107.375L374.25 107.125L364.25 102.875L360.5 101.375V100.625Z" fill="#2A3646"/>
    <path d="M348.75 423.125L349.5 423.375V426.875L348.25 432.125H347.75V432.875L347 432.625L347.25 430.625L347.75 430.375L347.5 429.625L347.75 427.875L348.75 423.125Z" fill="#2A3545"/>
    <path d="M146.5 215.375L146.75 216.375H147.25L148.5 218.625L150.75 221.375L151.75 223.375L151.25 223.625V223.125L150.25 222.875L149 221.625L147.5 219.875L146.75 217.875V216.875L146 216.625L146.5 215.375Z" fill="#2A3545"/>
    <path d="M114.25 416.875L115.25 417.125L114.5 417.875L106.25 421.625L104 422.625L103 422.375L103.75 422.125V421.625L112.25 417.875H113.25V417.375L114.25 416.875Z" fill="#2A3746"/>
    <path d="M185 245.625H185.75V246.125L180.5 248.125L175.75 249.375H174.5L175.5 248.625L179.25 246.875L181.25 247.125L183 246.375L185 245.625Z" fill="#2A3646"/>
    <path d="M290 405.625L290.75 405.875L294.75 412.625V413.125L293.5 412.625L292 410.375L290.25 407.625L289.75 405.875L290 405.625Z" fill="#2A3645"/>
    <path d="M12.5 493.125L13.5 493.375L12 495.875L10.25 498.125L9.25 498.625V496.375L10.25 495.125L11.75 493.875L12.5 493.125Z" fill="#293545"/>
    <path d="M506.5 8.625H507.25L507 9.375L505.5 10.125L503 12.125L499.75 14.625L499 15.125H498.25V14.625H498.75L499.25 13.625L499.75 12.875L501 12.625L503.25 10.375L504.25 10.125L506.5 8.625Z" fill="#2A3645"/>
    <path d="M42.5 275.125H43V281.875L43.75 283.125V283.875L43 283.625V283.125H42.5V282.625H42V280.125L41.75 278.875V276.625H42.25L42.5 275.125Z" fill="#293445"/>
    <path d="M240.5 389.625L241.75 390.125V390.625L243 390.875L245 393.125L245.25 394.625H244.5V394.125L243.5 393.625L240.75 390.625L240.5 389.625Z" fill="#293545"/>
    <path d="M464.5 484.625L465.75 484.875L475.25 489.625L475.5 490.375L473 489.625L472.25 488.875H471.5L470.75 488.125L469.75 487.875V487.375L468 487.125V486.625L466.25 486.375L465.5 485.625L464.5 485.375V484.625Z" fill="#2B3746"/>
    <path d="M489.75 490.875L491.25 491.125L495.25 495.125V495.625L494.25 495.875L493.75 494.875H493.25L493 494.375L492.25 494.125V493.625L491.5 493.375L490.75 492.375V491.875H490.25L489.75 490.875Z" fill="#2A3545"/>
    <path d="M52 410.625L53.5 410.875L61.5 414.125L61.75 414.625H60.25L59.75 414.375V413.875L58 413.625L56.5 413.125L55.5 412.875V412.375L54 412.125L51.75 411.125L52 410.625Z" fill="#2A3646"/>
    <path d="M176.5 161.375H177.25L177 162.625L174.5 163.875L171.25 165.125H170.75L171.25 163.875L174.5 162.625L175.5 162.125L176.5 161.375Z" fill="#2A3646"/>
    <path d="M497.5 15.375H498L497.5 16.375L494 19.125L492 20.625L491.25 20.375L491.75 19.125H492.25V18.625H492.75V19.125H493.25V18.625L494.5 17.625L495.5 16.375L497.25 15.625L497.5 15.375Z" fill="#2A3645"/>
    <path d="M143.75 202.875H144.5L145.5 209.875L144.75 209.625V208.875H144.25L143.75 205.625L143.25 204.875L143.5 203.125L143.75 202.875Z" fill="#293545"/>
    <path d="M181.25 213.375L182.25 213.625L182.75 215.125L183 217.625L182 216.625L181.5 215.125L179.25 214.375L180 214.125V213.625L181.25 213.375Z" fill="#2A3545"/>
    <path d="M133.5 280.375L134 281.375L132.5 283.125L131.25 284.125L130 284.625V283.875H130.5L130.75 282.875L131.25 282.125H131.75L132 281.375L133.25 280.875L133.5 280.375Z" fill="#2A3545"/>
    <path d="M194 403.875L195.25 404.125L197.75 406.625L198.25 407.875L197 407.625L195.75 406.625L194.5 405.125L194 403.875Z" fill="#2A3545"/>
    <path d="M179.75 361.875L180 362.625L181 363.125L183.5 365.375L183.75 366.375L182.25 366.125L181.5 365.375V364.875L180.5 364.375L179.5 362.625L179.75 361.875Z" fill="#293545"/>
    <path d="M86 219.875L87.25 220.125L88 221.125L88.25 222.625H88.75V223.375L89.5 223.625L90 225.375L89 225.125L87.75 223.125L86.75 221.625L86 219.875Z" fill="#2A3646"/>
    <path d="M505.5 90.625L507 90.875L512 93.375V94.625L510.25 94.125L509.75 93.125L508.5 92.875V92.125L507 91.875L506.75 91.375L505.5 90.875V90.625Z" fill="#2A3545"/>
    <path d="M158.25 263.375H159.75L158.75 263.625V264.125L153.75 265.625L151 265.875L151.75 265.125L153.5 264.875L155.25 264.125L156.5 263.875L158.25 263.375Z" fill="#2A3646"/>
    <path d="M323.5 415.625H325.25L327.5 417.875L327.75 418.875H327V418.375L325.75 417.875V417.375H325V416.875L323.75 416.375L323.5 415.625Z" fill="#293545"/>
    <path d="M328 419.125H336.5L335.75 419.875H329L328 419.625V419.125Z" fill="#2A3646"/>
    <path d="M8.5 131.875L9.5 132.375L11 134.375L12.75 136.625L13.5 137.625L13.25 138.125L12 136.875L9.25 133.625L8.5 132.625V131.875Z" fill="#2B3746"/>
    <path d="M511.25 5.875H512V6.875L508.75 8.625L507.75 8.375L508.5 8.125V7.625H509L509.5 6.375L510.75 6.125L511.25 5.875Z" fill="#2A3545"/>
    <path d="M213.75 389.375L215.25 389.875L216.25 390.625L216.75 391.625V393.125L216.25 392.875L214.75 391.125L213.5 389.875L213.75 389.375Z" fill="#293545"/>
    <path d="M449.75 493.375H450.25L451.5 495.375L452 495.625L452.25 496.375L453.5 497.625L454.75 499.125L453.75 498.875L451.25 496.375L449.75 494.125V493.375Z" fill="#2B3746"/>
    <path d="M178.75 247.125H179.25L179.5 248.375L175.75 249.375H174.5L175.5 248.625L178.75 247.125Z" fill="#2E3C48"/>
    <path d="M198.25 408.125L199.75 408.625L202 410.875V411.375H200.75L199 409.375L198.25 408.625V408.125Z" fill="#2A3545"/>
    <path d="M376.75 151.625H377.5L377.25 153.875L376.75 154.125L373 152.625V152.125L374.5 152.375L375.5 152.875L376.5 152.625L376.75 151.625Z" fill="#2B3746"/>
    <path d="M212.25 110.875L212.75 111.375L210.5 113.875L209.25 114.625L208.5 114.375L209.5 112.875L210.5 112.125L211.75 111.625L212.25 110.875Z" fill="#293545"/>
    <path d="M248.5 445.125H249.25L249 446.125L247 448.125H246.25L246.5 446.875L247.25 446.625V446.125L248.5 445.125Z" fill="#2A3545"/>
    <path d="M133 361.625H135L135.5 362.125L133.75 362.625L133.25 364.125L132.25 364.375L133 361.625Z" fill="#293545"/>
    <path d="M190 442.875L192.25 443.375L195.25 444.375L196.75 444.625V444.875H194L190 443.375V442.875Z" fill="#2B3746"/>
    <path d="M310.5 456.875H311L310.5 457.875L309.25 458.875L307.5 458.625L307.25 457.875H308.75L309 457.125L310 457.375L310.5 456.875Z" fill="#2A3645"/>
    <path d="M15.25 149.875H16L15.75 150.625L14.5 151.625L12 154.125L10.5 155.375L11 154.375L13.5 151.875L13.75 151.375H14.25L14.75 150.375L15.25 149.875Z" fill="#2B3846"/>
    <path d="M350.75 156.125L352.25 156.625L353.5 157.875L354.75 159.375L353.75 159.125L350.75 156.625V156.125Z" fill="#2A3646"/>
    <path d="M74.25 221.375L74.75 221.625L73.25 223.875L72.5 224.125L72 223.625L72.75 221.875L74.25 221.375Z" fill="#2A3545"/>
    <path d="M205.25 347.125L206.25 347.375L207.75 348.875L207.5 350.125L206.75 349.875L206 348.625L205 347.375L205.25 347.125Z" fill="#2A3645"/>
    <path d="M190.25 237.375H191V237.875L191.75 238.125L192.75 240.125L192.5 240.875V240.375L191.5 239.875V239.375H191L190.25 237.625V237.375Z" fill="#293445"/>
    <path d="M262.75 445.125L268 446.875V447.125L265.75 446.875L262.75 445.875V445.125Z" fill="#2B3746"/>
    <path d="M212.25 370.875L213.5 371.125L215.75 372.375L217 372.875L217.25 373.375L215.75 373.125L212.25 371.375V370.875Z" fill="#2B3846"/>
    <path d="M42.5 278.625H42.75L43 281.875L43.75 283.125V283.875L43 283.625V283.125H42.5V282.625H42L42.5 278.625Z" fill="#2B3846"/>
    <path d="M270 384.375H271.5L270.75 384.625V385.125L268.25 385.875L266.75 386.125V385.625L270 384.375Z" fill="#2B3746"/>
    <path d="M238.5 383.125L239 384.125V386.625H238.25L238 383.375L238.5 383.125Z" fill="#293445"/>
    <path d="M462 505.375L463.25 505.875L464 506.375V506.875H466L465.25 507.625L463.75 507.375L462 505.875V505.375Z" fill="#2A3646"/>
    <path d="M294.25 454.875L296.75 455.375L298.5 455.875V456.125H296.5L293 455.375V455.125L294.25 454.875Z" fill="#2B3846"/>
    <path d="M76 219.625H77.5L78 220.125H77.5V220.625L76.25 221.125L75 220.875L75.5 220.125H76V219.625Z" fill="#293545"/>
    <path d="M149.25 265.875L149.75 266.375L149.5 266.875L147 267.625H145.5L145.75 267.125L148.25 266.375L149.25 265.875Z" fill="#2A3746"/>
    <path d="M336.25 128.375L337.25 128.625L338.75 130.375L339.25 131.375L337 129.875L336.25 129.125V128.375Z" fill="#2A3646"/>
    <path d="M509.5 499.375H512V500.875L510.25 500.375V499.875H509.5V499.375Z" fill="#2B3746"/>
    <path d="M215 403.625H215.5L214.25 406.125H213.75L213.25 407.125L213 406.125L214.75 403.875L215 403.625Z" fill="#2B3746"/>
    <path d="M436.75 464.625H439.5L439.25 465.375H438V465.875L436.75 465.625V464.625Z" fill="#293545"/>
    <path d="M405.75 127.875H406.25V128.875H405.75L405.5 129.625L404.5 129.875V129.375L404 129.125H404.5V128.375L405.75 127.875Z" fill="#2A3646"/>
    <path d="M376.5 107.625L378 107.875L381 109.375L380 109.625L376.5 108.125V107.625Z" fill="#2A3746"/>
    <path d="M159 358.375L160 358.625L156.75 360.625H156V360.125L159 358.375Z" fill="#2B3746"/>
    <path d="M509.25 86.375H511L511.5 86.875H512V87.875L510.75 87.625L509.5 87.125L509.25 86.375Z" fill="#2A3645"/>
    <path d="M14.5 490.375L15.25 490.875L13.75 492.875H13.25L13.5 491.375H14L14.5 490.375Z" fill="#293445"/>
    <path d="M5.75 158.375L6.75 158.625L3.5 160.375H2.75V159.875L5.75 158.375Z" fill="#2B3846"/>
    <path d="M456.75 500.875L457.75 501.125V501.625L458.75 502.125L459.75 503.375L458.75 503.125L456.75 501.375V500.875Z" fill="#2B3746"/>
    <path d="M84.5 257.875L85.75 258.125L86 259.375L85.25 259.875L85 258.875H84.5V257.875Z" fill="#2A3645"/>
    <path d="M475.5 504.375H476L475.5 505.375L474.75 505.875H473L474.25 504.875L475.5 504.375Z" fill="#293545"/>
    <path d="M44.75 259.625H45.5V261.875H44.5L44.25 261.125L44.75 259.625Z" fill="#293545"/>
    <path d="M192.5 242.375L193.75 242.625V244.375L192.5 243.875V242.375Z" fill="#293445"/>
    <path d="M167.75 234.625L168 235.625L167 236.875L166.25 236.625L166.5 235.625H167L167.25 234.875L167.75 234.625Z" fill="#2A3645"/>
    <path d="M273 383.625H274.75L274.25 384.375H271.75V383.875L273 383.625Z" fill="#2B3746"/>
    <path d="M174 354.625L175.5 355.125L175.75 356.875L174.5 355.875V355.375H174V354.625Z" fill="#293445"/>
    <path d="M94.25 309.375H95V309.875L93.75 310.625H92L93 309.875L94.25 309.375Z" fill="#2A3645"/>
    <path d="M185 245.625H185.75V246.125L183.25 247.125H182.75L183 246.375L185 245.625Z" fill="#2B3846"/>
    <path d="M511.75 29.625L512 30.625L511 31.125L509.75 31.875L510 30.875L511.75 29.625Z" fill="#2A3746"/>
    <path d="M96.25 356.125L96.75 356.375V357.375H94.5L95.25 356.625L96.25 356.125Z" fill="#293445"/>
    <path d="M340.5 455.375H340.75V456.625L340.25 456.875H338.75L339 456.125L340.25 455.625L340.5 455.375Z" fill="#293445"/>
    <path d="M182.5 439.375L185.75 440.875L184.75 441.125L182.5 440.125V439.375Z" fill="#2B3746"/>
    <path d="M284.5 357L303.5 374.5L350 364.5L377 368.5H391.5L406.5 360.5L415.5 348L397 331L377 324L369 332.5L347 328L335 309L326.5 304.5L315.5 315.5L291 339L284.5 357Z" fill="#2E3D48" stroke="black"/>
    <path d="M221 209L209 225.5L200.5 230V241L199 245.5L188 248.5L178 250.5L199 256.5H209L221 249.5L227.5 239H234L238.5 225.5L246.5 218.5L254.5 225.5H263L258 218.5H254.5L258 212L270.5 205.5L283.5 200.5H292L295.5 192L288.5 188.5L274.5 192L266 200.5L258 188.5L266 181.5L261 161.5L270.5 149.5H288.5L295.5 141.5L288.5 130.5H266L249 144L243.5 161.5L240.5 173.5L234 181.5V192L221 197V209Z" fill="#2E3D48"/>
    <path d="M300 196.5L298 186.5L305.5 184.5L310.5 186.5V193L308.5 198.5L298 200L300 196.5Z" fill="#2E3D48"/>
    <path d="M471.5 357L474 366.5H495L512.5 357V343.5L508.5 330L500 321.5L495 315L508.5 318.25V302.5H500L495 307L484 292.5L480 284L484 275.5L495 271L500 262.5L499 252L490 255.5H480L461 269.5L452.5 279.5V292.5L462.5 295L474 315L480 318.25V321.5L476.5 326V346L471.5 357Z" fill="#2E3D48"/>
  </g>
  <defs>
    <clipPath id="clip0_7360_175414">
      <rect width="512" height="512" fill="white"/>
    </clipPath>
  </defs>
</svg>
