<svg xmlns="http://www.w3.org/2000/svg" width="6rem" height="6rem" viewBox="0 0 512 512" >
  <g clip-path="url(#clip0_7359_175294)">
    <path d="M0 0H512V512H0V0Z" fill="#283C49"/>
    <path d="M511.75 42.5H512V111.75L510.25 110.25L508.5 108.25L506 105.25L505 102.75L504.5 100.25V89.5L506.25 82.75L506.75 80.75V68.75L504.5 57.5L505.25 55.25L511.5 42.75L511.75 42.5Z" fill="#344A59"/>
    <path d="M1.5 0H9.75L15.75 12L18.25 15.75L21.5 20.25L24.75 25L27.75 29.75L36.25 43.75L39 48.25L39.25 49L38 48.5L34.25 46.5L32.5 44.75L30.25 42L27.25 38.75L24.5 35.25L21.25 30.5L18.75 27.25L16.75 25.25L15 22.75L12 17.5L8.75 11.75L3.25 3.25L1.5 0.5V0Z" fill="#344A59"/>
    <path d="M175.25 49L183 49.75L187.25 50.5L194 53.75L200.5 56.75L207 60L211 61.75L212.25 63.75L212.5 64.75H203.25L201 63.25L196.25 60.25L193.75 58.75L186.75 56L177.5 52.75L175 51.75V49.25L175.25 49Z" fill="#344A59"/>
    <path d="M224.5 67.25L233.25 68L238 68.75L242 70.75L242.75 71.5V73.75L242.25 74H218.25L218.5 73.25L221.25 71.5L221.5 71.25L224.25 71V67.5L224.5 67.25Z" fill="#344A59"/>
    <path d="M233.5 470L234.75 470.5L238.5 472.5L239.25 474.25L239.75 476.25V478.75L239 481.5L237.75 481.25L233.5 479V470Z" fill="#A6F0D6"/>
    <mask id="path-7-outside-1_7359_175294" maskUnits="userSpaceOnUse" x="8.5" y="-1" width="408" height="489" fill="black">
      <rect fill="white" x="8.5" y="-1" width="408" height="489"/>
      <path d="M10.5 0H182.25V0.5L181.75 0.75V11.75L184.25 20.25L185.25 23.5L185.5 37.25L184.25 36.5L180.75 33.5L178 31.25L176 29.25L174 25L171 17.25L169.75 13.5L169.25 12.75L159.25 10.5L157.5 10.25H139.75L137.75 13L137.25 13.75H132.25L118.75 13H114.75L110.25 15.5L104.5 19L101.75 21L101 22.5L100.75 32.5L100.25 36.5L98.25 43.75L98.75 50.75L99.5 57.25L100.5 60L104 66.5L105.75 69.25L107.75 71L110 72.25H121.25L127 70.75L130.25 69.75L131.75 67.5L135 61.5L137 58.25L139.25 57.5L142.75 57L152.75 56.75L152.25 59.25L149.25 70L146.75 77.25L145.25 81.5L145 85.5L150.75 85.75L162.5 86.75L165.75 88L168.25 89.5L169.5 91.25L169.75 92.25V103L169.25 107.5L168.75 110.25V112L172.25 118.25L174 120.75L178.25 122.75L179.5 123L185.25 121.75L187.25 120L187.75 119.5L190.25 119.75L194.5 120.75L199.5 122.75L205.25 125.25L206.25 125.75L206.75 123.5L208.5 118.5L211.5 115L214.25 112.75L219 110.75L224.25 109H229.5L229.75 109.25V112.5L234.75 110.75L236.5 110.25H242.5L246.5 113L248.25 114L263.5 116.5H265L268.25 114.25L270.75 114.5L274.75 115.75L279.75 117.75L281 117.5L282.5 115.75L283.25 116L284.25 119V119.5H282L283 122.75L285 124L293.25 127.75L295.25 129L298 132L300.25 134.75L302.5 137.25L306.5 138L318.25 139.75L321.25 140.5L327 143.5L330 145.5L333 151.25L339 163.25L339.25 164.25L339.5 168.75L357.5 173.75L361.75 175.75L365.75 178L368.5 179.25L386 183L392.25 184.5L396 186.75L404.25 192.25L410.25 195.75L413.75 198L414.75 199V211.75L412.25 215.25L408.25 220.5L405 225L401.5 229.75L398.25 234.25L396.5 237L395.5 240L395 244.25L394 256L393 260L390.5 266.5L387.75 273.5L385.5 277.75L381.75 283.5L379.75 286.25L377.75 287.75L369 288.75L366.25 289.75L361.5 292.25L355.75 295.5L353.25 297.25L351 299.5L348.75 302.25L346.5 304.75L346 305.5V308L346.75 312.5V315.25L342.75 320.5L339.75 324.5L336.75 328L334.5 330.5L331.5 334L329.25 336.5L327.25 340L324.75 344.75L321.75 348L318.25 351.5L315 353.75L314.5 354H311.75L303.5 353L299.75 352L299 351.75L305 363.75V365.25L303 369L300.75 371.75L298.5 373.5L295.5 374.75L288.5 377L282.75 378.25L279.25 379L276.5 385.5L274 391.75L273 392L267.75 391.5L264 390.75L264.25 393L265.25 396L267.25 399L267 400.5L263.25 407.5L260.5 412.5L258 415.75L253.75 420L251.75 424L251 426V427L256.5 429.25L258.5 431.5L259.5 433L259.25 434L256.25 437.25L254.5 439.25L251.5 442.75L250.25 444.5L246.75 451.5L246.25 452H244.25L243 458.25V460.5L245.25 470L246.25 472.25L248.5 474.75L250.75 477.5L253.75 480.75L257.5 484L259.25 485.25L259 486L257.5 486.75H253L241.25 486L238.75 485.75L235 483.5L229.25 479.75L223 476.25L219.5 474L218.25 472L215.75 466.25L214 460L212.5 452.25L211.5 441.25L211.25 437.25L214.5 435H215V428L212.75 427.25L213 424.5L213.75 420.75L216 419.25L218.5 418H219L220.25 411.75L222.25 402.5L224 395.25V394.75L220.25 396.75L219.25 397L219 396.75V390.5L219.25 383.25L220.25 374.75L221.75 367L223.75 359.25L227.25 347.75L228.25 343.5L230.25 329.25L234.25 299.25L235.75 287.5V265.25L233.5 262.75L230 259.25L226.5 256.5L212.25 246L209.75 244L208.5 242.75L206 238.25L203.25 232.5L198.75 223.5L195.25 217.5L192 211.5L188.5 205.5L187 203.5L183.25 199.5L182.5 198.5L181.5 195V193L183.75 187.5L184 187.25L186.25 187L185.5 182.75L184.75 180.25L184 179.25V173L185 171L187.25 167.75L190.5 163.25L192.75 160.5L195.5 157L198.75 153L199.25 152.25V134.5L195.5 127L194.25 123.5H188L185 128.5L184 130L176.5 127.75L171.25 126L168.25 123.75L165.75 121.5L163 119.25L159.25 115.75L155 111.5L152.75 108.75L149.75 105.25L147.5 102.75L143 101L130 96.75L127.5 95.5L124 92.75L121.5 90.5L118.75 88.5L111.75 87.5L107.75 87.25L104 88.25L102 88L92 84.25L84.75 81.5L80.5 79.5L75.75 77L67.75 73L64.5 71.25L62.75 69.75L60.5 67L58.5 64.75L57.5 62.75L58.75 55.75L55.75 52.25L52.25 48.5L50.5 46.5L47.75 43.5L45.5 41L43.5 38.5L36.5 30L33.75 26.5L30.5 22.75L28.25 20L25.25 16.5L22.5 13.25L19.75 9.5L15.75 3.5L11 0.75L10.5 0Z"/>
    </mask>
    <path d="M10.5 0H182.25V0.5L181.75 0.75V11.75L184.25 20.25L185.25 23.5L185.5 37.25L184.25 36.5L180.75 33.5L178 31.25L176 29.25L174 25L171 17.25L169.75 13.5L169.25 12.75L159.25 10.5L157.5 10.25H139.75L137.75 13L137.25 13.75H132.25L118.75 13H114.75L110.25 15.5L104.5 19L101.75 21L101 22.5L100.75 32.5L100.25 36.5L98.25 43.75L98.75 50.75L99.5 57.25L100.5 60L104 66.5L105.75 69.25L107.75 71L110 72.25H121.25L127 70.75L130.25 69.75L131.75 67.5L135 61.5L137 58.25L139.25 57.5L142.75 57L152.75 56.75L152.25 59.25L149.25 70L146.75 77.25L145.25 81.5L145 85.5L150.75 85.75L162.5 86.75L165.75 88L168.25 89.5L169.5 91.25L169.75 92.25V103L169.25 107.5L168.75 110.25V112L172.25 118.25L174 120.75L178.25 122.75L179.5 123L185.25 121.75L187.25 120L187.75 119.5L190.25 119.75L194.5 120.75L199.5 122.75L205.25 125.25L206.25 125.75L206.75 123.5L208.5 118.5L211.5 115L214.25 112.75L219 110.75L224.25 109H229.5L229.75 109.25V112.5L234.75 110.75L236.5 110.25H242.5L246.5 113L248.25 114L263.5 116.5H265L268.25 114.25L270.75 114.5L274.75 115.75L279.75 117.75L281 117.5L282.5 115.75L283.25 116L284.25 119V119.5H282L283 122.75L285 124L293.25 127.75L295.25 129L298 132L300.25 134.75L302.5 137.25L306.5 138L318.25 139.75L321.25 140.5L327 143.5L330 145.5L333 151.25L339 163.25L339.25 164.25L339.5 168.75L357.5 173.75L361.75 175.75L365.75 178L368.5 179.25L386 183L392.25 184.5L396 186.75L404.25 192.25L410.25 195.75L413.75 198L414.75 199V211.75L412.25 215.25L408.25 220.5L405 225L401.5 229.75L398.25 234.25L396.5 237L395.5 240L395 244.25L394 256L393 260L390.5 266.5L387.75 273.5L385.5 277.75L381.75 283.5L379.75 286.25L377.75 287.75L369 288.75L366.25 289.75L361.5 292.25L355.75 295.5L353.25 297.25L351 299.5L348.75 302.25L346.5 304.75L346 305.5V308L346.75 312.5V315.25L342.75 320.5L339.75 324.5L336.75 328L334.5 330.5L331.5 334L329.25 336.5L327.25 340L324.75 344.75L321.75 348L318.25 351.5L315 353.75L314.5 354H311.75L303.5 353L299.75 352L299 351.75L305 363.75V365.25L303 369L300.75 371.75L298.5 373.5L295.5 374.75L288.5 377L282.75 378.25L279.25 379L276.5 385.5L274 391.75L273 392L267.75 391.5L264 390.75L264.25 393L265.25 396L267.25 399L267 400.5L263.25 407.5L260.5 412.5L258 415.75L253.75 420L251.75 424L251 426V427L256.5 429.25L258.5 431.5L259.5 433L259.25 434L256.25 437.25L254.5 439.25L251.5 442.75L250.25 444.5L246.75 451.5L246.25 452H244.25L243 458.25V460.5L245.25 470L246.25 472.25L248.5 474.75L250.75 477.5L253.75 480.75L257.5 484L259.25 485.25L259 486L257.5 486.75H253L241.25 486L238.75 485.75L235 483.5L229.25 479.75L223 476.25L219.5 474L218.25 472L215.75 466.25L214 460L212.5 452.25L211.5 441.25L211.25 437.25L214.5 435H215V428L212.75 427.25L213 424.5L213.75 420.75L216 419.25L218.5 418H219L220.25 411.75L222.25 402.5L224 395.25V394.75L220.25 396.75L219.25 397L219 396.75V390.5L219.25 383.25L220.25 374.75L221.75 367L223.75 359.25L227.25 347.75L228.25 343.5L230.25 329.25L234.25 299.25L235.75 287.5V265.25L233.5 262.75L230 259.25L226.5 256.5L212.25 246L209.75 244L208.5 242.75L206 238.25L203.25 232.5L198.75 223.5L195.25 217.5L192 211.5L188.5 205.5L187 203.5L183.25 199.5L182.5 198.5L181.5 195V193L183.75 187.5L184 187.25L186.25 187L185.5 182.75L184.75 180.25L184 179.25V173L185 171L187.25 167.75L190.5 163.25L192.75 160.5L195.5 157L198.75 153L199.25 152.25V134.5L195.5 127L194.25 123.5H188L185 128.5L184 130L176.5 127.75L171.25 126L168.25 123.75L165.75 121.5L163 119.25L159.25 115.75L155 111.5L152.75 108.75L149.75 105.25L147.5 102.75L143 101L130 96.75L127.5 95.5L124 92.75L121.5 90.5L118.75 88.5L111.75 87.5L107.75 87.25L104 88.25L102 88L92 84.25L84.75 81.5L80.5 79.5L75.75 77L67.75 73L64.5 71.25L62.75 69.75L60.5 67L58.5 64.75L57.5 62.75L58.75 55.75L55.75 52.25L52.25 48.5L50.5 46.5L47.75 43.5L45.5 41L43.5 38.5L36.5 30L33.75 26.5L30.5 22.75L28.25 20L25.25 16.5L22.5 13.25L19.75 9.5L15.75 3.5L11 0.75L10.5 0Z" fill="#4dc5b3"/>
    <mask id="path-8-outside-2_7359_175294" maskUnits="userSpaceOnUse" x="6" y="-2" width="189" height="135" fill="black">
      <rect fill="white" x="6" y="-2" width="189" height="135"/>
      <path d="M182.938 0H10L10.5035 0.75L15.2863 3.5L19.314 9.5L22.083 13.25L24.852 16.5L27.8728 20L30.1383 22.75L33.4108 26.5L36.1798 30L43.2282 38.5L45.2421 41L47.5076 43.5L50.2766 46.5L52.0387 48.5L55.5629 52.25L58.5837 55.75L57.325 62.75L58.332 64.75L60.3458 67L62.6113 69.75L64.3734 71.25L67.6459 73L75.7012 77L80.4841 79.5L84.7635 81.5L92.0636 84.25L102.133 88L104.147 88.25L107.923 87.25L111.95 87.5L118.999 88.5L121.768 90.5L124.285 92.75L127.809 95.5L130.326 96.75L143.416 101L147.947 102.75L150.213 105.25L153.234 108.75L155.499 111.5L159.779 115.75L163.555 119.25L166.324 121.5L168.841 123.75L171.862 126L177.148 127.75L184.7 130L185.707 128.5L192 121.75L190.993 119.75L188.476 119.5L187.972 120L185.959 121.75L180.169 123L178.91 122.75L174.631 120.75L172.869 118.25L169.344 112V110.25L169.848 107.5L170.351 103V92.25L170.1 91.25L168.841 89.5L166.324 88L163.051 86.75L151.22 85.75L145.43 85.5L145.682 81.5L147.192 77.25L149.71 70L152.73 59.25L153.234 56.75L143.165 57L139.64 57.5L137.375 58.25L135.361 61.5L132.089 67.5L130.578 69.75L127.306 70.75L121.516 72.25H110.188L107.923 71L105.909 69.25L104.147 66.5L100.622 60L99.6155 57.25L98.8603 50.75L98.3568 43.75L100.371 36.5L100.874 32.5L101.126 22.5L101.881 21L104.65 19L110.44 15.5L114.971 13H118.999L132.592 13.75H137.627L138.13 13L140.144 10.25H158.017L159.779 10.5L169.848 12.75L170.351 13.5L171.61 17.25L174.631 25L176.645 29.25L178.658 31.25L181.427 33.5L184.952 36.5L186.21 37.25L185.959 23.5L184.952 20.25L182.434 11.75V0.75L182.938 0.5V0Z"/>
    </mask>
    <path d="M182.938 0H10L10.5035 0.75L15.2863 3.5L19.314 9.5L22.083 13.25L24.852 16.5L27.8728 20L30.1383 22.75L33.4108 26.5L36.1798 30L43.2282 38.5L45.2421 41L47.5076 43.5L50.2766 46.5L52.0387 48.5L55.5629 52.25L58.5837 55.75L57.325 62.75L58.332 64.75L60.3458 67L62.6113 69.75L64.3734 71.25L67.6459 73L75.7012 77L80.4841 79.5L84.7635 81.5L92.0636 84.25L102.133 88L104.147 88.25L107.923 87.25L111.95 87.5L118.999 88.5L121.768 90.5L124.285 92.75L127.809 95.5L130.326 96.75L143.416 101L147.947 102.75L150.213 105.25L153.234 108.75L155.499 111.5L159.779 115.75L163.555 119.25L166.324 121.5L168.841 123.75L171.862 126L177.148 127.75L184.7 130L185.707 128.5L192 121.75L190.993 119.75L188.476 119.5L187.972 120L185.959 121.75L180.169 123L178.91 122.75L174.631 120.75L172.869 118.25L169.344 112V110.25L169.848 107.5L170.351 103V92.25L170.1 91.25L168.841 89.5L166.324 88L163.051 86.75L151.22 85.75L145.43 85.5L145.682 81.5L147.192 77.25L149.71 70L152.73 59.25L153.234 56.75L143.165 57L139.64 57.5L137.375 58.25L135.361 61.5L132.089 67.5L130.578 69.75L127.306 70.75L121.516 72.25H110.188L107.923 71L105.909 69.25L104.147 66.5L100.622 60L99.6155 57.25L98.8603 50.75L98.3568 43.75L100.371 36.5L100.874 32.5L101.126 22.5L101.881 21L104.65 19L110.44 15.5L114.971 13H118.999L132.592 13.75H137.627L138.13 13L140.144 10.25H158.017L159.779 10.5L169.848 12.75L170.351 13.5L171.61 17.25L174.631 25L176.645 29.25L178.658 31.25L181.427 33.5L184.952 36.5L186.21 37.25L185.959 23.5L184.952 20.25L182.434 11.75V0.75L182.938 0.5V0Z" fill="#344A59"/>
    <path d="M182.938 0H10L10.5035 0.75L15.2863 3.5L19.314 9.5L22.083 13.25L24.852 16.5L27.8728 20L30.1383 22.75L33.4108 26.5L36.1798 30L43.2282 38.5L45.2421 41L47.5076 43.5L50.2766 46.5L52.0387 48.5L55.5629 52.25L58.5837 55.75L57.325 62.75L58.332 64.75L60.3458 67L62.6113 69.75L64.3734 71.25L67.6459 73L75.7012 77L80.4841 79.5L84.7635 81.5L92.0636 84.25L102.133 88L104.147 88.25L107.923 87.25L111.95 87.5L118.999 88.5L121.768 90.5L124.285 92.75L127.809 95.5L130.326 96.75L143.416 101L147.947 102.75L150.213 105.25L153.234 108.75L155.499 111.5L159.779 115.75L163.555 119.25L166.324 121.5L168.841 123.75L171.862 126L177.148 127.75L184.7 130L185.707 128.5L192 121.75L190.993 119.75L188.476 119.5L187.972 120L185.959 121.75L180.169 123L178.91 122.75L174.631 120.75L172.869 118.25L169.344 112V110.25L169.848 107.5L170.351 103V92.25L170.1 91.25L168.841 89.5L166.324 88L163.051 86.75L151.22 85.75L145.43 85.5L145.682 81.5L147.192 77.25L149.71 70L152.73 59.25L153.234 56.75L143.165 57L139.64 57.5L137.375 58.25L135.361 61.5L132.089 67.5L130.578 69.75L127.306 70.75L121.516 72.25H110.188L107.923 71L105.909 69.25L104.147 66.5L100.622 60L99.6155 57.25L98.8603 50.75L98.3568 43.75L100.371 36.5L100.874 32.5L101.126 22.5L101.881 21L104.65 19L110.44 15.5L114.971 13H118.999L132.592 13.75H137.627L138.13 13L140.144 10.25H158.017L159.779 10.5L169.848 12.75L170.351 13.5L171.61 17.25L174.631 25L176.645 29.25L178.658 31.25L181.427 33.5L184.952 36.5L186.21 37.25L185.959 23.5L184.952 20.25L182.434 11.75V0.75L182.938 0.5V0Z" stroke="#344A59" stroke-width="4" mask="url(#path-8-outside-2_7359_175294)"/>
  </g>
  <defs>
    <clipPath id="clip0_7359_175294">
      <rect width="512" height="512" fill="white"/>
    </clipPath>
  </defs>
</svg>
