<svg width="100%" height="100%" viewBox="0 0 1431 859" fill="none" xmlns="http://www.w3.org/2000/svg">
<g clip-path="url(#clip0_7422_184518)">
<path d="M1 52.3669C213.473 25 416.86 0 653.097 0C889.333 0 1191.27 27 1431 63.8468V569.315C1431 569.315 1289.2 548.801 1081.19 548.801C864.723 548.801 675.397 564.316 458.962 580.019C250.773 595.124 183.37 632.505 1 627.551L1 52.3669Z" fill="url(#paint0_radial_7422_184518)"/>
<path d="M1120.24 447.946C1117.22 448.577 1092.27 457.084 1090.38 457.484C1088.49 457.884 1073.36 453.047 1069.96 453.136C1065.48 453.252 1046.36 447.339 1040.6 445.523C1039.54 445.188 1038.43 445.237 1037.4 445.665C1022.2 451.99 944.233 480.816 928.985 480.816C914.324 480.816 883.525 473.424 878.885 472.29C878.482 472.191 878.182 472.169 877.779 472.267C857.25 477.265 676.245 531.546 660.508 531.546C644.667 531.546 97.916 560.792 95.2988 560.932C95.2183 560.936 95.2597 560.932 95.1791 560.933C92.6819 560.94 48.1317 561.191 -1.23978e-05 570L1426.38 599.903C1428.92 599.956 1431 597.916 1431 595.38V491.898C1308.5 481.667 1123.27 447.314 1120.24 447.946Z" fill="url(#paint1_linear_7422_184518)"/>
<path d="M237.535 559.747C284.119 563.282 594.211 535.791 807.411 552.351C825.569 553.761 947.666 562.128 1001.55 566.075C1086.17 572.275 1069.88 570.967 1132.78 574.056C1256.08 580.111 1431 582.045 1431 582.045C1431 582.045 1431 626.29 1431 640.806C1431 640.806 1372.1 652.299 1209.26 651.994C984.051 651.572 892.035 632.986 464.392 632.986C240.842 632.986 182.918 640.806 1 645.758V558.275C92.7398 554.336 213.781 561.332 237.535 559.747Z" fill="url(#paint2_linear_7422_184518)"/>
<path d="M237.535 589.753C284.119 591.904 594.211 575.182 807.411 585.255C825.569 586.112 947.666 591.202 1001.55 593.603C1086.17 597.373 1069.88 596.578 1132.78 598.457C1256.08 602.14 1431 603.316 1431 603.316C1431 603.316 1431 894.362 1431 903.191C1431 903.191 1372.1 910.182 1209.26 909.996C984.051 909.74 886.242 893.5 458.6 893.5C235.049 893.5 182.133 898.5 1 906.203L1 588.858C92.7398 586.462 213.781 590.718 237.535 589.753Z" fill="url(#paint3_linear_7422_184518)"/>
<path d="M940.942 609.173L951.386 586.455C951.818 585.514 953.162 585.535 953.564 586.489L963.076 609.033C963.457 609.936 962.645 610.887 961.694 610.652L956.161 609.283C955.41 609.097 954.684 609.665 954.684 610.439V615.534C954.684 615.982 954.433 616.391 954.034 616.595L950.354 618.471C949.879 618.713 949.316 618.368 949.316 617.834V611.048C949.316 610.311 948.653 609.751 947.926 609.874L942.223 610.844C941.28 611.005 940.542 610.043 940.942 609.173Z" fill="#368A80"/>
<path d="M921.942 617.173L932.386 594.455C932.818 593.514 934.162 593.535 934.564 594.489L944.076 617.033C944.457 617.936 943.645 618.887 942.694 618.652L937.161 617.283C936.41 617.097 935.684 617.665 935.684 618.439V623.534C935.684 623.982 935.433 624.391 935.034 624.595L931.354 626.471C930.879 626.713 930.316 626.368 930.316 625.834V619.048C930.316 618.311 929.653 617.751 928.926 617.874L923.223 618.844C922.28 619.005 921.542 618.043 921.942 617.173Z" fill="#368A80"/>
<path d="M957.942 604.173L968.386 581.455C968.818 580.514 970.162 580.535 970.564 581.489L980.076 604.033C980.457 604.936 979.645 605.887 978.694 605.652L973.161 604.283C972.41 604.097 971.684 604.665 971.684 605.439V610.534C971.684 610.982 971.433 611.391 971.034 611.595L967.354 613.471C966.879 613.713 966.316 613.368 966.316 612.834V606.048C966.316 605.311 965.653 604.751 964.926 604.874L959.223 605.844C958.28 606.005 957.542 605.043 957.942 604.173Z" fill="#368A80"/>
<path d="M619.904 760.657C678.882 754.237 738.377 754.129 797.379 760.334L1432 827.075V879L1 877.578L1 828.024L619.904 760.657Z" fill="url(#paint4_linear_7422_184518)"/>
<path d="M542.027 783.37C542.027 776.024 536.072 770.069 528.726 770.069H511.337C509.27 770.069 507.594 771.745 507.594 773.812V782.794C507.594 784.861 509.27 786.537 511.337 786.537H538.86C540.609 786.537 542.027 785.119 542.027 783.37V783.37Z" fill="#F1F1F1"/>
<path d="M452.949 783.37C452.949 776.024 458.904 770.069 466.25 770.069H475.406C477.473 770.069 479.149 771.745 479.149 773.812V782.794C479.149 784.861 477.473 786.537 475.406 786.537H456.116C454.367 786.537 452.949 785.119 452.949 783.37V783.37Z" fill="#F1F1F1"/>
<path d="M467.625 692.843C468.981 692.957 470.26 692.201 470.814 690.959L474.704 682.249C477.747 675.435 473.259 667.634 465.838 666.84V666.84V666.84C458.448 666.049 452.458 672.735 454.054 679.994L456.168 689.617C456.47 690.992 457.633 692.01 459.036 692.127L467.625 692.843Z" fill="#657F91"/>
<path d="M523.767 678.248C523.51 675.559 521.252 673.506 518.551 673.506L471.788 673.506C469.15 673.506 466.923 675.467 466.59 678.084L454.449 773.467C454.05 776.598 456.49 779.369 459.647 779.369L473.705 779.369C476.215 779.369 478.372 777.59 478.85 775.127L488.974 722.931C490.085 717.201 498.321 717.306 499.285 723.063L507.985 774.995C508.408 777.519 510.593 779.369 513.153 779.369L527.655 779.369C530.746 779.369 533.165 776.708 532.871 773.631L523.767 678.248Z" fill="#5FD1C3"/>
<path d="M465.214 676.036C466.995 676.473 468.831 675.554 469.549 673.867L495.859 612.07C496.765 609.941 495.543 607.509 493.294 606.965L465.557 600.265C463.416 599.747 461.293 601.182 460.974 603.361L451.348 669.147C451.068 671.056 452.286 672.864 454.159 673.324L465.214 676.036Z" fill="#95B9D0"/>
<path d="M516.168 610.775C514.032 597.324 502.434 587.422 488.814 587.422H464.178C460.871 587.422 458.19 590.103 458.19 593.41V692.219C458.19 695.527 460.871 698.208 464.178 698.208H523.036C526.718 698.208 529.528 694.917 528.951 691.28L516.168 610.775Z" fill="#708DA0"/>
<circle cx="20.9595" cy="20.9595" r="20.9595" transform="matrix(-1 0 0 1 497.375 547.084)" fill="#B97965"/>
<path d="M455.328 545.669C446.391 554.014 446.509 568.934 455.099 580.366C456.341 582.018 458.73 582.09 460.241 580.679L489.921 552.965C491.431 551.555 491.523 549.166 489.96 547.815C479.142 538.462 464.266 537.323 455.328 545.669Z" fill="#5FD1C3"/>
<path d="M495.516 600.935C493.238 587.636 481.709 577.913 468.217 577.913H457.966C454.659 577.913 451.978 580.594 451.978 583.902V616.09C451.978 619.397 454.659 622.078 457.966 622.078H492.036C495.747 622.078 498.565 618.737 497.938 615.079L495.516 600.935Z" fill="#708DA0"/>
<path d="M542.497 523.16C541.234 522.653 539.79 522.999 538.894 524.023L532.616 531.204C527.704 536.822 529.7 545.598 536.559 548.539V548.539V548.539C543.389 551.468 551.08 546.838 551.69 539.432L552.498 529.612C552.614 528.209 551.802 526.894 550.495 526.37L542.497 523.16Z" fill="#708DA0"/>
<path d="M535.554 537.276C533.978 536.252 531.887 536.555 530.667 537.985L485.713 590.68C478.509 599.125 479.956 611.903 488.866 618.523V618.523V618.523C497.45 624.899 509.711 621.962 514.474 612.389L546.376 548.263C547.223 546.561 546.659 544.494 545.065 543.458L535.554 537.276Z" fill="#95B9D0"/>
<path d="M275.671 559.519L266.748 540.254C266.168 539.001 264.378 539.03 263.838 540.3L255.746 559.334C255.233 560.541 256.317 561.815 257.591 561.503L261.24 560.607C262.243 560.361 263.212 561.12 263.212 562.153V565.961C263.212 566.561 263.549 567.11 264.085 567.381L265.92 568.31C266.979 568.845 268.231 568.076 268.231 566.889V562.674C268.231 561.689 269.117 560.941 270.088 561.105L273.962 561.758C275.225 561.972 276.21 560.682 275.671 559.519Z" fill="#5FCBBE"/>
<path d="M257.671 555.519L248.748 536.254C248.168 535.001 246.378 535.03 245.838 536.3L237.746 555.334C237.233 556.541 238.317 557.815 239.591 557.503L243.24 556.607C244.243 556.361 245.212 557.12 245.212 558.153V561.961C245.212 562.561 245.549 563.11 246.085 563.381L247.92 564.31C248.979 564.845 250.231 564.076 250.231 562.889V558.674C250.231 557.689 251.117 556.941 252.088 557.105L255.962 557.758C257.225 557.972 258.21 556.682 257.671 555.519Z" fill="#5FCBBE"/>
<path d="M291.609 565.199L283.76 548.254C283.18 547.001 281.39 547.03 280.85 548.3L273.745 565.013C273.232 566.22 274.316 567.495 275.589 567.183L278.439 566.483C279.442 566.237 280.41 566.996 280.41 568.029V571.211C280.41 571.811 280.748 572.36 281.284 572.631L282.658 573.326C283.717 573.862 284.969 573.093 284.969 571.906V568.489C284.969 567.504 285.854 566.755 286.826 566.919L289.899 567.438C291.162 567.651 292.147 566.361 291.609 565.199Z" fill="#5FCBBE"/>
</g>
<defs>
<radialGradient id="paint0_radial_7422_184518" cx="0" cy="0" r="1" gradientUnits="userSpaceOnUse" gradientTransform="translate(894.925 465.5) rotate(-2.36622) scale(1743.91 1187.71)">
<stop stop-color="#EFF9D6"/>
<stop offset="0.180886" stop-color="#9EF4EA"/>
<stop offset="1" stop-color="#56B8AC"/>
</radialGradient>
<linearGradient id="paint1_linear_7422_184518" x1="652.569" y1="445" x2="652.569" y2="539.892" gradientUnits="userSpaceOnUse">
<stop stop-color="#71DACD"/>
<stop offset="1" stop-color="#7CF3E5"/>
</linearGradient>
<linearGradient id="paint2_linear_7422_184518" x1="750.339" y1="562.357" x2="750.279" y2="584.269" gradientUnits="userSpaceOnUse">
<stop stop-color="#A9FFF5"/>
<stop offset="1" stop-color="#F7F7F7"/>
</linearGradient>
<linearGradient id="paint3_linear_7422_184518" x1="750.339" y1="591.341" x2="750.317" y2="604.669" gradientUnits="userSpaceOnUse">
<stop stop-color="#A9FFF5"/>
<stop offset="1" stop-color="#F7F7F7"/>
</linearGradient>
<linearGradient id="paint4_linear_7422_184518" x1="722.224" y1="782.481" x2="722.224" y2="863.356" gradientUnits="userSpaceOnUse">
<stop stop-color="#AFEBE3"/>
<stop offset="0.59375" stop-color="#A3F3E9"/>
<stop offset="1" stop-color="#F7F7F7"/>
</linearGradient>
<clipPath id="clip0_7422_184518">
<rect width="1431" height="859" fill="white"/>
</clipPath>
</defs>
</svg>
