<svg width="100%" height="100%" viewBox="0 0 1441 1043" fill="none" xmlns="http://www.w3.org/2000/svg">
<path d="M0.476562 109.675C55.6585 109.675 75.235 122.742 126.505 122.742C183.048 122.742 217.338 103.095 283.744 103.095C350.15 103.095 375.477 115.959 375.477 115.959V243.904C375.477 243.904 338.291 232.675 283.744 232.675C226.977 232.675 178.032 249.763 120.572 249.763C66.7185 249.763 48.3009 239.803 0.476562 237.091V109.675Z" fill="#56B8AC"/>
<path d="M0.476562 0C129.852 0 287.549 20.4458 484.426 20.4458C701.551 20.4458 833.224 2.95778e-06 1088.22 0C1343.22 -2.95778e-06 1440.48 13.3865 1440.48 13.3865V249.903C1440.48 249.903 1297.68 238.217 1088.22 238.217C870.239 238.217 682.288 256 461.641 256C254.845 256 184.122 245.634 0.476562 242.813V0Z" fill="url(#paint0_radial_1702_66545)"/>
<path d="M1207.15 133.077C1204.88 134.164 1186.15 148.825 1184.73 149.515C1183.31 150.205 1171.95 141.868 1169.4 142.021C1167.62 142.127 1162.78 139.335 1157.97 136.215C1151.04 131.719 1141.7 132.241 1135.47 137.668C1114.94 155.546 1073.05 189.725 1063.55 189.725C1054.75 189.725 1038.19 181.573 1030.13 177.311C1027.22 175.77 1023.8 175.719 1021.01 177.469C993.606 194.647 873.069 277.154 861.972 277.154C850.126 277.154 442.843 327.154 437.642 327.792C437.481 327.812 437.523 327.809 437.363 327.835C433.786 328.41 389.269 335.919 373.207 355.835C367.473 362.945 374.881 371 384.015 371H1423.94C1433.07 371 1440.48 363.595 1440.48 354.462V208.824C1348.5 191.193 1209.42 131.989 1207.15 133.077Z" fill="url(#paint1_linear_1702_66545)"/>
<path d="M886.457 211.589L930.347 189.443C932.133 188.542 934.252 188.599 935.988 189.593L960.631 203.715C962.161 204.592 964.002 204.745 965.656 204.133L970.51 202.337C972.11 201.745 973.886 201.868 975.389 202.674L991.88 211.519C993.528 212.403 995.495 212.461 997.192 211.676L1017.03 202.499C1018.54 201.803 1020.27 201.766 1021.8 202.399L1044.25 211.659C1046.16 212.445 1048.34 212.189 1050.01 210.983L1073.3 194.175C1075.11 192.867 1077.5 192.685 1079.49 193.703L1232.48 272H1137.45L822.133 256.282C818.964 256.124 816.477 253.509 816.477 250.337V220.253C816.477 217.687 818.12 215.411 820.554 214.603L858.016 202.173C859.497 201.682 861.111 201.791 862.512 202.478L881.155 211.62C882.83 212.441 884.792 212.429 886.457 211.589Z" fill="url(#paint2_linear_1702_66545)"/>
<path d="M169.652 156.131C171.299 156.588 184.883 162.741 185.912 163.031C186.941 163.321 195.176 159.821 197.026 159.885C199.209 159.961 207.764 156.547 211.789 154.885C213.124 154.334 214.616 154.419 215.89 155.099C226.334 160.675 265.801 179.909 273.774 179.909C281.363 179.909 296.897 175.074 300.576 173.894C301.095 173.727 301.593 173.703 302.11 173.878C315.276 178.316 411.473 216.608 419.933 216.608C428.565 216.608 726.79 237.806 727.636 237.866C727.662 237.868 727.623 237.865 727.649 237.867C728.392 237.934 768.17 241.542 776.826 251.896C778.428 253.813 776.451 256 773.953 256H5.00042C2.50197 256 0.476562 253.975 0.476562 251.476V187.926C67.1632 180.525 168.005 155.674 169.652 156.131Z" fill="url(#paint3_linear_1702_66545)"/>
<path d="M169.855 209.245C203.213 215.137 425.266 169.319 577.935 196.918C590.937 199.268 678.369 213.213 716.953 219.792C777.55 230.125 765.884 227.946 810.927 233.094C899.222 243.185 1024.48 246.408 1024.48 246.408C1024.48 246.408 1024.48 320.149 1024.48 344.343C1024.48 344.343 982.302 363.499 865.692 362.99C704.424 362.287 638.532 331.31 332.304 331.31C172.223 331.31 130.745 344.343 0.476562 352.596V206.792C66.1699 200.227 152.846 211.887 169.855 209.245Z" fill="url(#paint4_linear_1702_66545)"/>
<path d="M238.665 229.752C285.575 234.676 597.836 196.39 812.527 219.452C830.812 221.416 953.763 233.068 1008.02 238.566C1093.24 247.199 1076.83 245.379 1140.17 249.681C1264.34 258.113 1440.48 260.806 1440.48 260.806C1440.48 260.806 1440.48 927.194 1440.48 947.41C1440.48 947.41 1381.17 963.417 1217.19 962.992C990.402 962.404 897.742 936.519 467.109 936.519C241.995 936.519 183.666 947.41 0.476563 954.306L0.476562 227.702C92.8579 222.217 214.745 231.96 238.665 229.752Z" fill="url(#paint5_linear_1702_66545)"/>
<path d="M19.2817 210.702L26.6406 194.815C27.0743 193.878 28.4127 193.9 28.8165 194.849L35.4968 210.563C35.8805 211.466 35.0697 212.419 34.1174 212.185L30.8779 211.39C30.1278 211.206 29.4036 211.774 29.4036 212.546V215.793C29.4036 216.242 29.1511 216.652 28.7505 216.855L26.3927 218.048C25.9175 218.288 25.3559 217.943 25.3559 217.411V212.975C25.3559 212.238 24.6936 211.679 23.9673 211.801L20.5601 212.376C19.6156 212.536 18.8791 211.571 19.2817 210.702Z" fill="#368A80"/>
<path d="M5.23485 216.416L12.5937 200.529C13.0275 199.592 14.3658 199.613 14.7696 200.563L21.4499 216.277C21.8336 217.18 21.0228 218.133 20.0705 217.899L16.831 217.104C16.0809 216.92 15.3567 217.487 15.3567 218.26V221.507C15.3567 221.956 15.1042 222.366 14.7036 222.569L12.3458 223.762C11.8707 224.002 11.309 223.657 11.309 223.125V218.689C11.309 217.952 10.6468 217.392 9.9204 217.515L6.51323 218.09C5.56873 218.25 4.83227 217.285 5.23485 216.416Z" fill="#368A80"/>
<path d="M31.9028 206.654L39.2617 190.767C39.6954 189.83 41.0338 189.852 41.4375 190.801L48.1179 206.515C48.5016 207.418 47.6908 208.371 46.7385 208.137L43.499 207.342C42.7489 207.158 42.0247 207.726 42.0247 208.498V211.745C42.0247 212.194 41.7722 212.605 41.3716 212.807L39.0138 214C38.5386 214.241 37.977 213.895 37.977 213.363V208.927C37.977 208.191 37.3147 207.631 36.5884 207.753L33.1812 208.328C32.2367 208.488 31.5002 207.523 31.9028 206.654Z" fill="#368A80"/>
<circle cx="53.8363" cy="928.471" r="6.0941" fill="#F7F7F7" fill-opacity="0.4"/>
<circle cx="253.253" cy="1037.89" r="4.63589" fill="#F7F7F7" fill-opacity="0.1"/>
<circle cx="59.572" cy="922.879" r="4.16965" fill="#F7F7F7" fill-opacity="0.6"/>
<circle cx="254.324" cy="926.985" r="3.56607" fill="#DCE4E9"/>
<circle cx="245.765" cy="914.148" r="3.56607" fill="#DCE4E9"/>
<circle cx="240.776" cy="989.035" r="5.70571" fill="#F7F7F7" fill-opacity="0.2"/>
<circle cx="238.635" cy="962.646" r="5.70571" fill="#F7F7F7" fill-opacity="0.3"/>
<circle cx="251.115" cy="944.459" r="6.77553" fill="#F7F7F7" fill-opacity="0.4"/>
<defs>
<radialGradient id="paint0_radial_1702_66545" cx="0" cy="0" r="1" gradientUnits="userSpaceOnUse" gradientTransform="translate(504.617 179.5) rotate(0.868051) scale(990.114 411.476)">
<stop stop-color="#EFF9D6"/>
<stop offset="0.291667" stop-color="#9EF4EA"/>
<stop offset="1" stop-color="#56B8AC"/>
</radialGradient>
<linearGradient id="paint1_linear_1702_66545" x1="856.011" y1="128" x2="856.011" y2="291.537" gradientUnits="userSpaceOnUse">
<stop stop-color="#71DACD"/>
<stop offset="1" stop-color="#7CF3E5"/>
</linearGradient>
<linearGradient id="paint2_linear_1702_66545" x1="912.025" y1="297.693" x2="983.017" y2="154.24" gradientUnits="userSpaceOnUse">
<stop stop-color="#E1FFFB"/>
<stop offset="1" stop-color="#75EDDF"/>
</linearGradient>
<linearGradient id="paint3_linear_1702_66545" x1="424.255" y1="154" x2="424.255" y2="222.645" gradientUnits="userSpaceOnUse">
<stop stop-color="#71DACD"/>
<stop offset="1" stop-color="#7CF3E5"/>
</linearGradient>
<linearGradient id="paint4_linear_1702_66545" x1="537.066" y1="213.596" x2="536.836" y2="250.114" gradientUnits="userSpaceOnUse">
<stop stop-color="#A9FFF5"/>
<stop offset="1" stop-color="#F7F7F7"/>
</linearGradient>
<linearGradient id="paint5_linear_1702_66545" x1="755.055" y1="233.388" x2="754.941" y2="263.903" gradientUnits="userSpaceOnUse">
<stop stop-color="#A9FFF5"/>
<stop offset="1" stop-color="#F7F7F7"/>
</linearGradient>
</defs>
</svg>
