<svg width="100%" height="100%" viewBox="0 0 376 964" preserveAspectRatio="none" fill="none" xmlns="http://www.w3.org/2000/svg">
<path d="M0.953125 110.675C56.1351 110.675 75.7116 123.742 126.982 123.742C183.525 123.742 217.814 104.095 284.221 104.095C350.627 104.095 375.953 116.959 375.953 116.959V244.904C375.953 244.904 338.767 233.675 284.221 233.675C227.454 233.675 178.508 250.763 121.048 250.763C67.195 250.763 48.7775 240.803 0.953125 238.091V110.675Z" fill="#56B8AC"/>
<path d="M0.953125 7.4285C56.1351 7.4285 75.7116 21.0477 126.982 21.0477C183.525 21.0477 217.814 0.571292 284.221 0.571289C350.627 0.571286 375.953 13.9778 375.953 13.9778V250.847C375.953 250.847 338.767 239.144 284.221 239.144C227.454 239.144 178.508 256.954 121.048 256.954C67.195 256.954 48.7775 246.573 0.953125 243.747V7.4285Z" fill="url(#paint0_radial_7746_209048)"/>
<path d="M195.183 213.509L223.196 193.611C225.37 192.067 228.305 192.157 230.381 193.831L245.035 205.653C246.876 207.139 249.423 207.392 251.522 206.299L251.82 206.144C253.858 205.083 256.324 205.289 258.157 206.673L267.073 213.406C269.074 214.916 271.807 215.012 273.908 213.643L285.024 206.405C286.907 205.18 289.319 205.118 291.261 206.246L303.936 213.605C306.286 214.969 309.261 214.569 311.167 212.633L325.341 198.232C327.2 196.344 330.083 195.911 332.414 197.172L375.953 220.714V251.763C375.953 255.037 373.309 257.696 370.035 257.715L149.939 258.966C146.639 258.985 143.953 256.314 143.953 253.014V222.745C143.953 220.434 145.292 218.331 147.386 217.352L172.009 205.851C173.924 204.956 176.17 205.144 177.91 206.345L188.355 213.555C190.414 214.977 193.143 214.958 195.183 213.509Z" fill="url(#paint1_linear_7746_209048)"/>
<path d="M82.4966 157.177C83.2902 157.633 89.8379 163.781 90.334 164.07C90.83 164.36 94.7993 160.864 95.6912 160.928C96.3769 160.977 98.3686 159.544 100.209 158.081C102.224 156.479 105.23 156.664 107.003 158.53C113.952 165.842 129.278 180.933 132.684 180.933C135.825 180.933 141.788 177.372 144.534 175.619C145.422 175.052 146.55 175.042 147.393 175.674C156.649 182.603 199.233 217.598 203.133 217.598C207.275 217.598 349.744 238.585 351.434 238.834C351.486 238.842 351.472 238.841 351.524 238.851C352.833 239.103 370.738 242.718 375.032 252.555C376.032 254.845 373.928 256.954 371.429 256.954H5.47698C2.97853 256.954 0.953125 254.928 0.953125 252.43V188.943C33.0964 181.549 81.7029 156.721 82.4966 157.177Z" fill="url(#paint2_linear_7746_209048)"/>
<path d="M62.9814 210.484C75.1975 216.349 156.516 170.737 212.425 198.212C217.186 200.552 249.205 214.434 263.334 220.983C285.526 231.269 281.254 229.1 297.749 234.225C330.084 244.271 375.953 247.48 375.953 247.48C375.953 247.48 375.953 320.89 375.953 344.974C375.953 344.974 360.508 364.044 317.804 363.538C258.746 362.838 234.616 332 122.472 332C63.8487 332 48.6588 344.974 0.953125 353.191V208.041C25.0108 201.506 56.7523 213.114 62.9814 210.484Z" fill="url(#paint3_linear_7746_209048)"/>
<path d="M62.9814 230.707C75.1975 235.631 156.516 197.345 212.425 220.407C217.186 222.371 249.205 234.023 263.334 239.521C285.526 248.155 281.254 246.334 297.749 250.636C330.084 259.068 375.953 261.761 375.953 261.761C375.953 261.761 375.953 928.149 375.953 948.365C375.953 948.365 360.508 964.372 317.804 963.947C258.746 963.359 234.616 937.475 122.472 937.475C63.8487 937.475 48.6588 948.365 0.953125 955.261L0.953125 228.658C25.0108 223.172 56.7523 232.915 62.9814 230.707Z" fill="url(#paint4_linear_7746_209048)"/>
<path d="M19.7583 211.702L27.1172 195.815C27.5509 194.878 28.8893 194.9 29.293 195.849L35.9734 211.563C36.357 212.466 35.5462 213.419 34.5939 213.185L31.3545 212.39C30.6043 212.206 29.8801 212.774 29.8801 213.546V216.793C29.8801 217.242 29.6276 217.652 29.2271 217.855L26.8692 219.048C26.3941 219.288 25.8325 218.943 25.8325 218.411V213.975C25.8325 213.238 25.1702 212.679 24.4438 212.801L21.0367 213.376C20.0922 213.536 19.3557 212.571 19.7583 211.702Z" fill="#368A80"/>
<path d="M5.71141 217.416L13.0703 201.529C13.504 200.592 14.8424 200.613 15.2461 201.563L21.9265 217.277C22.3101 218.18 21.4994 219.133 20.547 218.899L17.3076 218.104C16.5574 217.92 15.8333 218.487 15.8333 219.26V222.507C15.8333 222.956 15.5807 223.366 15.1802 223.569L12.8223 224.762C12.3472 225.002 11.7856 224.657 11.7856 224.125V219.689C11.7856 218.952 11.1233 218.392 10.397 218.515L6.98979 219.09C6.0453 219.25 5.30883 218.285 5.71141 217.416Z" fill="#368A80"/>
<path d="M32.3794 207.654L39.7383 191.767C40.172 190.83 41.5104 190.852 41.9141 191.801L48.5945 207.515C48.9781 208.418 48.1673 209.371 47.215 209.137L43.9756 208.342C43.2254 208.158 42.5012 208.726 42.5012 209.498V212.745C42.5012 213.194 42.2487 213.605 41.8482 213.807L39.4903 215C39.0152 215.241 38.4536 214.895 38.4536 214.363V209.927C38.4536 209.191 37.7913 208.631 37.0649 208.753L33.6578 209.328C32.7133 209.488 31.9768 208.523 32.3794 207.654Z" fill="#368A80"/>
<circle cx="54.3128" cy="929.471" r="6.0941" fill="#F7F7F7" fill-opacity="0.4"/>
<defs>
<radialGradient id="paint0_radial_7746_209048" cx="0" cy="0" r="1" gradientUnits="userSpaceOnUse" gradientTransform="translate(146.444 180.477) rotate(5.09162) scale(296.185 470.036)">
<stop stop-color="#EFF9D6"/>
<stop offset="0.291667" stop-color="#9EF4EA"/>
<stop offset="1" stop-color="#56B8AC"/>
</radialGradient>
<linearGradient id="paint1_linear_7746_209048" x1="211.825" y1="300.693" x2="295.587" y2="180.463" gradientUnits="userSpaceOnUse">
<stop stop-color="#E1FFFB"/>
<stop offset="1" stop-color="#75EDDF"/>
</linearGradient>
<linearGradient id="paint2_linear_7746_209048" x1="205.217" y1="155.048" x2="205.217" y2="223.63" gradientUnits="userSpaceOnUse">
<stop stop-color="#71DACD"/>
<stop offset="1" stop-color="#7CF3E5"/>
</linearGradient>
<linearGradient id="paint3_linear_7746_209048" x1="197.458" y1="214.815" x2="196.835" y2="251.16" gradientUnits="userSpaceOnUse">
<stop stop-color="#A9FFF5"/>
<stop offset="1" stop-color="#F7F7F7"/>
</linearGradient>
<linearGradient id="paint4_linear_7746_209048" x1="197.458" y1="234.343" x2="197.019" y2="264.853" gradientUnits="userSpaceOnUse">
<stop stop-color="#A9FFF5"/>
<stop offset="1" stop-color="#F7F7F7"/>
</linearGradient>
</defs>
</svg>
